# Blender 4.1.1
# www.blender.org
mtllib player.mtl
o 立方体
v 1.000000 -1.000000 1.000000
v 1.000000 1.000000 1.000000
v 1.000000 -1.000000 -1.000000
v 1.000000 1.000000 -1.000000
v 1.000000 0.809717 -0.809717
v 1.000000 -0.809717 -0.809717
v 1.000000 -0.809717 0.809717
v 1.000000 0.809717 0.809717
v -1.000000 -1.000000 1.000000
v -1.000000 1.000000 1.000000
v -1.000000 -1.000000 -1.000000
v -1.000000 1.000000 -1.000000
v -1.000000 0.809717 -0.809717
v -1.000000 -0.809717 -0.809717
v -1.000000 -0.809717 0.809717
v -1.000000 0.809717 0.809717
v -1.000000 -1.000000 1.000000
v 1.000000 -1.000000 1.000000
v -1.000000 -1.000000 -1.000000
v 1.000000 -1.000000 -1.000000
v 0.809717 -1.000000 -0.809717
v -0.809716 -1.000000 -0.809717
v -0.809716 -1.000000 0.809717
v 0.809717 -1.000000 0.809717
v -1.000000 1.000000 1.000000
v 1.000000 1.000000 1.000000
v -1.000000 1.000000 -1.000000
v 1.000000 1.000000 -1.000000
v 0.809716 1.000000 -0.809717
v -0.809717 1.000000 -0.809717
v -0.809717 1.000000 0.809717
v 0.809716 1.000000 0.809717
v -1.000000 -1.000000 -1.000000
v 1.000000 -1.000000 -1.000000
v -1.000000 1.000000 -1.000000
v 1.000000 1.000000 -1.000000
v 0.809717 0.809716 -1.000000
v -0.809717 0.809716 -1.000000
v -0.809716 -0.809717 -1.000000
v 0.809717 -0.809717 -1.000000
v -1.000000 -1.000000 1.000000
v 1.000000 -1.000000 1.000000
v -1.000000 1.000000 1.000000
v 1.000000 1.000000 1.000000
v 0.809716 0.809717 1.000000
v -0.809717 0.809717 1.000000
v -0.809717 -0.809716 1.000000
v 0.809717 -0.809716 1.000000
vn 1.0000 -0.0000 -0.0000
vn -1.0000 -0.0000 -0.0000
vn -0.0000 -1.0000 -0.0000
vn -0.0000 1.0000 -0.0000
vn -0.0000 -0.0000 -1.0000
vn -0.0000 -0.0000 1.0000
vn -0.0000 0.7071 -0.7071
vn -0.7071 0.7071 -0.0000
vn -0.5773 0.5774 -0.5774
vn -0.0000 0.7071 0.7071
vn 0.7071 0.7071 -0.0000
vn 0.5774 0.5774 -0.5774
vn 0.5774 0.5774 0.5774
vn -0.5774 0.5774 0.5774
vn -0.0000 -0.7071 -0.7071
vn -0.7071 -0.7071 -0.0000
vn -0.0000 -0.7071 0.7071
vn 0.7071 -0.7071 -0.0000
vn -0.5774 -0.5774 -0.5774
vn -0.5774 -0.5774 0.5774
vn 0.5773 -0.5774 0.5774
vn 0.5773 -0.5774 -0.5774
vn -0.7071 -0.0000 -0.7071
vn -0.7071 -0.0000 0.7071
vn 0.7071 -0.0000 0.7071
vn 0.7071 -0.0000 -0.7071
vt 0.106809 0.220002
vt 0.110405 0.204922
vt 0.143581 0.226468
vt 0.066162 0.259238
vt 0.185662 0.430298
vt 0.207054 0.419108
vt 0.102678 0.560405
vt 0.088757 0.510813
vt 0.406790 0.334843
vt 0.438510 0.356047
vt 0.265185 0.347680
vt 0.257693 0.331141
vt 0.300435 0.540247
vt 0.337484 0.516074
vt 0.465148 0.706252
vt 0.462984 0.644336
vt 0.132057 0.203045
vt 0.244152 0.324881
vt 0.274457 0.309759
vt 0.141865 0.240198
vt 0.324069 0.499879
vt 0.309345 0.475095
vt 0.191651 0.428809
vt 0.166263 0.431562
vt 0.097825 0.170154
vt 0.059255 0.116557
vt 0.483379 0.236503
vt 0.431319 0.281920
vt 0.552548 0.818630
vt 0.503610 0.762444
vt 0.069261 0.624029
vt 0.006833 0.666858
vt 0.147265 0.166420
vt 0.367487 0.286019
vt 0.337744 0.264206
vt 0.195043 0.105660
vt 0.222573 0.306446
vt 0.166716 0.302406
vt 0.085600 0.131621
vt 0.006833 0.006927
vt 0.129404 0.634790
vt 0.130126 0.702575
vt 0.516321 0.930324
vt 0.472733 0.797346
vt 0.431214 0.533425
vt 0.360060 0.529455
vt 0.196759 0.452850
vt 0.197510 0.459691
s 0
f 5/1/1 6/2/1 3/3/1 4/4/1
f 6/2/1 7/5/1 1/6/1 3/3/1
f 8/7/1 5/1/1 4/4/1 2/8/1
f 7/5/1 8/7/1 2/8/1 1/6/1
f 13/9/2 12/10/2 11/11/2 14/12/2
f 14/12/2 11/11/2 9/13/2 15/14/2
f 16/15/2 10/16/2 12/10/2 13/9/2
f 15/14/2 9/13/2 10/16/2 16/15/2
f 21/17/3 22/18/3 19/19/3 20/20/3
f 22/18/3 23/21/3 17/22/3 19/19/3
f 24/23/3 21/17/3 20/20/3 18/24/3
f 23/21/3 24/23/3 18/24/3 17/22/3
f 29/25/4 28/26/4 27/27/4 30/28/4
f 30/28/4 27/27/4 25/29/4 31/30/4
f 32/31/4 26/32/4 28/26/4 29/25/4
f 31/30/4 25/29/4 26/32/4 32/31/4
f 37/33/5 38/34/5 35/35/5 36/36/5
f 38/34/5 39/37/5 33/38/5 35/35/5
f 40/39/5 37/33/5 36/36/5 34/40/5
f 39/37/5 40/39/5 34/40/5 33/38/5
f 45/41/6 44/42/6 43/43/6 46/44/6
f 46/44/6 43/43/6 41/45/6 47/46/6
f 48/47/6 42/48/6 44/42/6 45/41/6
f 47/46/6 41/45/6 42/48/6 48/47/6
f 47/46/7 48/47/7 24/23/7 23/21/7
f 7/5/8 6/2/8 21/17/8 24/23/8
f 24/23/9 48/47/9 7/5/9
f 22/18/10 21/17/10 40/39/10 39/37/10
f 14/12/11 15/14/11 23/21/11 22/18/11
f 23/21/12 15/14/12 47/46/12
f 22/18/13 39/37/13 14/12/13
f 21/17/14 6/2/14 40/39/14
f 31/30/15 32/31/15 45/41/15 46/44/15
f 8/7/16 32/31/16 29/25/16 5/1/16
f 30/28/17 38/34/17 37/33/17 29/25/17
f 13/9/18 30/28/18 31/30/18 16/15/18
f 32/31/19 8/7/19 45/41/19
f 29/25/20 37/33/20 5/1/20
f 30/28/21 13/9/21 38/34/21
f 31/30/22 46/44/22 16/15/22
f 7/5/23 48/47/23 45/41/23 8/7/23
f 6/2/24 5/1/24 37/33/24 40/39/24
f 13/9/25 14/12/25 39/37/25 38/34/25
f 16/15/26 46/44/26 47/46/26 15/14/26
o 球
v 0.000000 0.831470 -0.555570
v 0.000000 0.555570 -0.831470
v 0.000000 0.195090 -0.980785
v 0.000000 0.000000 -1.000000
v 0.000000 -0.195090 -0.980785
v 0.000000 -0.555570 -0.831470
v 0.038060 0.980785 -0.191342
v 0.074658 0.923880 -0.375330
v 0.108386 0.831470 -0.544895
v 0.137950 0.707107 -0.693520
v 0.162212 0.555570 -0.815493
v 0.180240 0.382683 -0.906127
v 0.191342 0.195090 -0.961940
v 0.195090 0.000000 -0.980785
v 0.191342 -0.195090 -0.961940
v 0.180240 -0.382683 -0.906127
v 0.162212 -0.555570 -0.815493
v 0.137950 -0.707107 -0.693520
v 0.108386 -0.831470 -0.544895
v 0.074658 -0.923880 -0.375330
v 0.038060 -0.980785 -0.191342
v 0.074658 0.980785 -0.180240
v 0.146447 0.923880 -0.353553
v 0.212608 0.831470 -0.513280
v 0.270598 0.707107 -0.653281
v 0.318190 0.555570 -0.768178
v 0.353553 0.382683 -0.853553
v 0.375330 0.195090 -0.906127
v 0.382683 0.000000 -0.923879
v 0.375330 -0.195090 -0.906127
v 0.353553 -0.382683 -0.853553
v 0.318190 -0.555570 -0.768178
v 0.270598 -0.707107 -0.653281
v 0.212608 -0.831470 -0.513280
v 0.146447 -0.923880 -0.353553
v 0.074658 -0.980785 -0.180240
v 0.108386 0.980785 -0.162212
v 0.212608 0.923880 -0.318190
v 0.308658 0.831470 -0.461940
v 0.392847 0.707107 -0.587938
v 0.461940 0.555570 -0.691342
v 0.513280 0.382683 -0.768178
v 0.544895 0.195090 -0.815493
v 0.555570 0.000000 -0.831469
v 0.544895 -0.195090 -0.815493
v 0.513280 -0.382683 -0.768178
v 0.461940 -0.555570 -0.691342
v 0.392847 -0.707107 -0.587938
v 0.308658 -0.831470 -0.461940
v 0.212608 -0.923880 -0.318190
v 0.108386 -0.980785 -0.162212
v 0.137950 0.980785 -0.137950
v 0.270598 0.923880 -0.270598
v 0.392847 0.831470 -0.392847
v 0.500000 0.707107 -0.500000
v 0.587938 0.555570 -0.587938
v 0.653281 0.382683 -0.653281
v 0.693520 0.195090 -0.693520
v 0.707107 0.000000 -0.707107
v 0.693520 -0.195090 -0.693520
v 0.653281 -0.382683 -0.653281
v 0.587938 -0.555570 -0.587938
v 0.500000 -0.707107 -0.500000
v 0.392847 -0.831470 -0.392847
v 0.270598 -0.923880 -0.270598
v 0.137950 -0.980785 -0.137950
v 0.162212 0.980785 -0.108386
v 0.318190 0.923880 -0.212608
v 0.461940 0.831470 -0.308658
v 0.587938 0.707107 -0.392847
v 0.691342 0.555570 -0.461940
v 0.768178 0.382683 -0.513280
v 0.815493 0.195090 -0.544895
v 0.831470 0.000000 -0.555570
v 0.815493 -0.195090 -0.544895
v 0.768178 -0.382683 -0.513280
v 0.691342 -0.555570 -0.461940
v 0.587938 -0.707107 -0.392847
v 0.461940 -0.831470 -0.308658
v 0.318190 -0.923880 -0.212608
v 0.162212 -0.980785 -0.108386
v 0.000000 1.000000 0.000000
v 0.180240 0.980785 -0.074658
v 0.353553 0.923880 -0.146447
v 0.513280 0.831470 -0.212607
v 0.653281 0.707107 -0.270598
v 0.768178 0.555570 -0.318190
v 0.853553 0.382683 -0.353553
v 0.906127 0.195090 -0.375330
v 0.923879 0.000000 -0.382683
v 0.906127 -0.195090 -0.375330
v 0.853553 -0.382683 -0.353553
v 0.768178 -0.555570 -0.318190
v 0.653281 -0.707107 -0.270598
v 0.513280 -0.831470 -0.212607
v 0.353553 -0.923880 -0.146447
v 0.180240 -0.980785 -0.074658
v 0.191342 0.980785 -0.038060
v 0.375330 0.923880 -0.074658
v 0.544895 0.831470 -0.108386
v 0.693520 0.707107 -0.137950
v 0.815493 0.555570 -0.162212
v 0.906127 0.382683 -0.180240
v 0.961940 0.195090 -0.191342
v 0.980785 0.000000 -0.195090
v 0.961940 -0.195090 -0.191342
v 0.906127 -0.382683 -0.180240
v 0.815493 -0.555570 -0.162212
v 0.693520 -0.707107 -0.137950
v 0.544895 -0.831470 -0.108386
v 0.375330 -0.923880 -0.074658
v 0.191342 -0.980785 -0.038060
v 0.195090 0.980785 0.000000
v 0.382683 0.923880 0.000000
v 0.555570 0.831470 0.000000
v 0.707107 0.707107 -0.000000
v 0.831469 0.555570 0.000000
v 0.923879 0.382683 -0.000000
v 0.980785 0.195090 0.000000
v 1.000000 0.000000 0.000000
v 0.980785 -0.195090 0.000000
v 0.923879 -0.382683 -0.000000
v 0.831469 -0.555570 0.000000
v 0.707107 -0.707107 -0.000000
v 0.555570 -0.831470 0.000000
v 0.382683 -0.923880 0.000000
v 0.195090 -0.980785 0.000000
v 0.191342 0.980785 0.038060
v 0.375330 0.923880 0.074658
v 0.544895 0.831470 0.108386
v 0.693520 0.707107 0.137950
v 0.815493 0.555570 0.162212
v 0.906127 0.382683 0.180240
v 0.961940 0.195090 0.191342
v 0.980785 0.000000 0.195090
v 0.961940 -0.195090 0.191342
v 0.906127 -0.382683 0.180240
v 0.815493 -0.555570 0.162212
v 0.693520 -0.707107 0.137950
v 0.544895 -0.831470 0.108386
v 0.375330 -0.923880 0.074658
v 0.191342 -0.980785 0.038060
v 0.180240 0.980785 0.074658
v 0.353553 0.923880 0.146447
v 0.513280 0.831470 0.212608
v 0.653281 0.707107 0.270598
v 0.768178 0.555570 0.318190
v 0.853553 0.382683 0.353553
v 0.906127 0.195090 0.375330
v 0.923879 0.000000 0.382683
v 0.906127 -0.195090 0.375330
v 0.853553 -0.382683 0.353553
v 0.768178 -0.555570 0.318190
v 0.653281 -0.707107 0.270598
v 0.513280 -0.831470 0.212608
v 0.353553 -0.923880 0.146447
v 0.180240 -0.980785 0.074658
v 0.162212 0.980785 0.108386
v 0.318190 0.923880 0.212608
v 0.461940 0.831470 0.308658
v 0.587938 0.707107 0.392847
v 0.691341 0.555570 0.461940
v 0.768178 0.382683 0.513280
v 0.815493 0.195090 0.544895
v 0.831469 0.000000 0.555570
v 0.815493 -0.195090 0.544895
v 0.768178 -0.382683 0.513280
v 0.691341 -0.555570 0.461940
v 0.587938 -0.707107 0.392847
v 0.461940 -0.831470 0.308658
v 0.318190 -0.923880 0.212608
v 0.162212 -0.980785 0.108386
v 0.137950 0.980785 0.137950
v 0.270598 0.923880 0.270598
v 0.392847 0.831470 0.392847
v 0.500000 0.707107 0.500000
v 0.587938 0.555570 0.587938
v 0.653281 0.382683 0.653281
v 0.693520 0.195090 0.693520
v 0.707106 0.000000 0.707107
v 0.693520 -0.195090 0.693520
v 0.653281 -0.382683 0.653281
v 0.587938 -0.555570 0.587938
v 0.500000 -0.707107 0.500000
v 0.392847 -0.831470 0.392847
v 0.270598 -0.923880 0.270598
v 0.137950 -0.980785 0.137950
v 0.108386 0.980785 0.162212
v 0.212607 0.923880 0.318190
v 0.308658 0.831470 0.461940
v 0.392847 0.707107 0.587938
v 0.461940 0.555570 0.691342
v 0.513280 0.382683 0.768178
v 0.544895 0.195090 0.815493
v 0.555570 0.000000 0.831469
v 0.544895 -0.195090 0.815493
v 0.513280 -0.382683 0.768178
v 0.461940 -0.555570 0.691342
v 0.392847 -0.707107 0.587938
v 0.308658 -0.831470 0.461940
v 0.212607 -0.923880 0.318190
v 0.108386 -0.980785 0.162212
v 0.074658 0.980785 0.180240
v 0.146447 0.923880 0.353553
v 0.212607 0.831470 0.513280
v 0.270598 0.707107 0.653281
v 0.318189 0.555570 0.768178
v 0.353553 0.382683 0.853553
v 0.375330 0.195090 0.906127
v 0.382683 0.000000 0.923879
v 0.375330 -0.195090 0.906127
v 0.353553 -0.382683 0.853553
v 0.318189 -0.555570 0.768178
v 0.270598 -0.707107 0.653281
v 0.212607 -0.831470 0.513280
v 0.146447 -0.923880 0.353553
v 0.074658 -0.980785 0.180240
v 0.038060 0.980785 0.191342
v 0.074658 0.923880 0.375330
v 0.108386 0.831470 0.544895
v 0.137950 0.707107 0.693520
v 0.162212 0.555570 0.815493
v 0.180240 0.382683 0.906127
v 0.191342 0.195090 0.961939
v 0.195090 0.000000 0.980785
v 0.191342 -0.195090 0.961939
v 0.180240 -0.382683 0.906127
v 0.162212 -0.555570 0.815493
v 0.137950 -0.707107 0.693520
v 0.108386 -0.831470 0.544895
v 0.074658 -0.923880 0.375330
v 0.038060 -0.980785 0.191342
v -0.000000 0.980785 0.195090
v -0.000000 0.923880 0.382683
v -0.000000 0.831470 0.555570
v -0.000000 0.707107 0.707107
v -0.000000 0.555570 0.831469
v 0.000000 0.382683 0.923879
v -0.000000 0.195090 0.980785
v -0.000000 0.000000 0.999999
v -0.000000 -0.195090 0.980785
v 0.000000 -0.382683 0.923879
v -0.000000 -0.555570 0.831469
v -0.000000 -0.707107 0.707107
v -0.000000 -0.831470 0.555570
v -0.000000 -0.923880 0.382683
v -0.000000 -0.980785 0.195090
v -0.038060 0.980785 0.191342
v -0.074658 0.923880 0.375330
v -0.108386 0.831470 0.544895
v -0.137950 0.707107 0.693520
v -0.162212 0.555570 0.815493
v -0.180240 0.382683 0.906127
v -0.191342 0.195090 0.961939
v -0.195091 0.000000 0.980785
v -0.191342 -0.195090 0.961939
v -0.180240 -0.382683 0.906127
v -0.162212 -0.555570 0.815493
v -0.137950 -0.707107 0.693520
v -0.108386 -0.831470 0.544895
v -0.074658 -0.923880 0.375330
v -0.038060 -0.980785 0.191342
v -0.074658 0.980785 0.180240
v -0.146447 0.923880 0.353553
v -0.212608 0.831470 0.513280
v -0.270598 0.707107 0.653281
v -0.318190 0.555570 0.768177
v -0.353553 0.382683 0.853553
v -0.375330 0.195090 0.906127
v -0.382683 0.000000 0.923879
v -0.375330 -0.195090 0.906127
v -0.353553 -0.382683 0.853553
v -0.318190 -0.555570 0.768177
v -0.270598 -0.707107 0.653281
v -0.212608 -0.831470 0.513280
v -0.146447 -0.923880 0.353553
v -0.074658 -0.980785 0.180240
v -0.108386 0.980785 0.162212
v -0.212608 0.923880 0.318190
v -0.308658 0.831470 0.461939
v -0.392847 0.707107 0.587938
v -0.461940 0.555570 0.691341
v -0.513280 0.382683 0.768178
v -0.544895 0.195090 0.815493
v -0.555570 0.000000 0.831469
v -0.544895 -0.195090 0.815493
v -0.513280 -0.382683 0.768178
v -0.461940 -0.555570 0.691341
v -0.392847 -0.707107 0.587938
v -0.308658 -0.831470 0.461939
v -0.212608 -0.923880 0.318190
v -0.108386 -0.980785 0.162212
v -0.137950 0.980785 0.137950
v -0.270598 0.923880 0.270598
v -0.392847 0.831470 0.392847
v -0.500000 0.707107 0.500000
v -0.587938 0.555570 0.587937
v -0.653281 0.382683 0.653281
v -0.693520 0.195090 0.693520
v -0.707106 0.000000 0.707106
v -0.693520 -0.195090 0.693520
v -0.653281 -0.382683 0.653281
v -0.587938 -0.555570 0.587937
v -0.500000 -0.707107 0.500000
v -0.392847 -0.831470 0.392847
v -0.270598 -0.923880 0.270598
v -0.137950 -0.980785 0.137950
v 0.000000 -1.000000 0.000000
v -0.162212 0.980785 0.108386
v -0.318190 0.923880 0.212607
v -0.461940 0.831470 0.308658
v -0.587938 0.707107 0.392847
v -0.691341 0.555570 0.461939
v -0.768177 0.382683 0.513280
v -0.815493 0.195090 0.544895
v -0.831469 0.000000 0.555569
v -0.815493 -0.195090 0.544895
v -0.768177 -0.382683 0.513280
v -0.691341 -0.555570 0.461939
v -0.587938 -0.707107 0.392847
v -0.461940 -0.831470 0.308658
v -0.318190 -0.923880 0.212607
v -0.162212 -0.980785 0.108386
v -0.180240 0.980785 0.074658
v -0.353553 0.923880 0.146447
v -0.513280 0.831470 0.212607
v -0.653281 0.707107 0.270598
v -0.768177 0.555570 0.318189
v -0.853553 0.382683 0.353553
v -0.906127 0.195090 0.375330
v -0.923879 0.000000 0.382683
v -0.906127 -0.195090 0.375330
v -0.853553 -0.382683 0.353553
v -0.768177 -0.555570 0.318189
v -0.653281 -0.707107 0.270598
v -0.513280 -0.831470 0.212607
v -0.353553 -0.923880 0.146447
v -0.180240 -0.980785 0.074658
v -0.191342 0.980785 0.038060
v -0.375330 0.923880 0.074658
v -0.544895 0.831470 0.108386
v -0.693520 0.707107 0.137950
v -0.815493 0.555570 0.162211
v -0.906127 0.382683 0.180240
v -0.961939 0.195090 0.191341
v -0.980784 0.000000 0.195090
v -0.961939 -0.195090 0.191341
v -0.906127 -0.382683 0.180240
v -0.815493 -0.555570 0.162211
v -0.693520 -0.707107 0.137950
v -0.544895 -0.831470 0.108386
v -0.375330 -0.923880 0.074658
v -0.191342 -0.980785 0.038060
v -0.195090 0.980785 -0.000000
v -0.382683 0.923880 -0.000000
v -0.555570 0.831470 -0.000000
v -0.707107 0.707107 -0.000000
v -0.831469 0.555570 -0.000000
v -0.923879 0.382683 -0.000000
v -0.980785 0.195090 -0.000000
v -0.999999 0.000000 -0.000000
v -0.980785 -0.195090 -0.000000
v -0.923879 -0.382683 -0.000000
v -0.831469 -0.555570 -0.000000
v -0.707107 -0.707107 -0.000000
v -0.555570 -0.831470 -0.000000
v -0.382683 -0.923880 -0.000000
v -0.195090 -0.980785 -0.000000
v -0.191342 0.980785 -0.038060
v -0.375330 0.923880 -0.074658
v -0.544895 0.831470 -0.108386
v -0.693520 0.707107 -0.137950
v -0.815493 0.555570 -0.162212
v -0.906127 0.382683 -0.180240
v -0.961939 0.195090 -0.191342
v -0.980784 0.000000 -0.195091
v -0.961939 -0.195090 -0.191342
v -0.906127 -0.382683 -0.180240
v -0.815493 -0.555570 -0.162212
v -0.693520 -0.707107 -0.137950
v -0.544895 -0.831470 -0.108386
v -0.375330 -0.923880 -0.074658
v -0.191342 -0.980785 -0.038060
v -0.180240 0.980785 -0.074658
v -0.353553 0.923880 -0.146447
v -0.513279 0.831470 -0.212607
v -0.653281 0.707107 -0.270598
v -0.768177 0.555570 -0.318190
v -0.853553 0.382683 -0.353553
v -0.906127 0.195090 -0.375330
v -0.923878 0.000000 -0.382683
v -0.906127 -0.195090 -0.375330
v -0.853553 -0.382683 -0.353553
v -0.768177 -0.555570 -0.318190
v -0.653281 -0.707107 -0.270598
v -0.513279 -0.831470 -0.212607
v -0.353553 -0.923880 -0.146447
v -0.180240 -0.980785 -0.074658
v -0.162212 0.980785 -0.108386
v -0.318189 0.923880 -0.212607
v -0.461939 0.831470 -0.308658
v -0.587938 0.707107 -0.392847
v -0.691341 0.555570 -0.461940
v -0.768177 0.382683 -0.513280
v -0.815493 0.195090 -0.544895
v -0.831468 0.000000 -0.555570
v -0.815493 -0.195090 -0.544895
v -0.768177 -0.382683 -0.513280
v -0.691341 -0.555570 -0.461940
v -0.587938 -0.707107 -0.392847
v -0.461939 -0.831470 -0.308658
v -0.318189 -0.923880 -0.212607
v -0.162212 -0.980785 -0.108386
v -0.137950 0.980785 -0.137950
v -0.270598 0.923880 -0.270598
v -0.392847 0.831470 -0.392847
v -0.500000 0.707107 -0.500000
v -0.587937 0.555570 -0.587938
v -0.653281 0.382683 -0.653281
v -0.693519 0.195090 -0.693520
v -0.707106 0.000000 -0.707106
v -0.693519 -0.195090 -0.693520
v -0.653281 -0.382683 -0.653281
v -0.587937 -0.555570 -0.587938
v -0.500000 -0.707107 -0.500000
v -0.392847 -0.831470 -0.392847
v -0.270598 -0.923880 -0.270598
v -0.137950 -0.980785 -0.137950
v -0.108386 0.980785 -0.162212
v -0.212607 0.923880 -0.318190
v -0.308658 0.831470 -0.461939
v -0.392847 0.707107 -0.587938
v -0.461939 0.555570 -0.691341
v -0.513280 0.382683 -0.768177
v -0.544895 0.195090 -0.815493
v -0.555569 0.000000 -0.831469
v -0.544895 -0.195090 -0.815493
v -0.513280 -0.382683 -0.768177
v -0.461939 -0.555570 -0.691341
v -0.392847 -0.707107 -0.587938
v -0.308658 -0.831470 -0.461939
v -0.212607 -0.923880 -0.318190
v -0.108386 -0.980785 -0.162212
v -0.074658 0.980785 -0.180240
v -0.146446 0.923880 -0.353553
v -0.212607 0.831470 -0.513279
v -0.270598 0.707107 -0.653281
v -0.318189 0.555570 -0.768177
v -0.353553 0.382683 -0.853553
v -0.375330 0.195090 -0.906127
v -0.382683 0.000000 -0.923879
v -0.375330 -0.195090 -0.906127
v -0.353553 -0.382683 -0.853553
v -0.318189 -0.555570 -0.768177
v -0.270598 -0.707107 -0.653281
v -0.212607 -0.831470 -0.513279
v -0.146446 -0.923880 -0.353553
v -0.074658 -0.980785 -0.180240
v -0.038060 0.980785 -0.191342
v -0.074658 0.923880 -0.375330
v -0.108386 0.831470 -0.544895
v -0.137950 0.707107 -0.693520
v -0.162211 0.555570 -0.815493
v -0.180240 0.382683 -0.906127
v -0.191341 0.195090 -0.961939
v -0.195090 0.000000 -0.980784
v -0.191341 -0.195090 -0.961939
v -0.180240 -0.382683 -0.906127
v -0.162211 -0.555570 -0.815493
v -0.137950 -0.707107 -0.693520
v -0.108386 -0.831470 -0.544895
v -0.074658 -0.923880 -0.375330
v -0.038060 -0.980785 -0.191342
v 0.000000 0.980785 -0.195090
v 0.000000 0.923880 -0.382683
v 0.000000 0.707107 -0.707107
v 0.000000 0.382683 -0.923879
v 0.000000 -0.382683 -0.923879
v 0.000000 -0.707107 -0.707107
v 0.000000 -0.831470 -0.555570
v 0.000000 -0.923880 -0.382683
v 0.000000 -0.980785 -0.195090
vn -0.0000 0.8286 -0.5598
vn -0.0000 0.5528 -0.8333
vn -0.0000 0.1939 -0.9810
vn -0.0000 -0.0000 -1.0000
vn -0.0000 -0.1939 -0.9810
vn -0.0000 -0.5528 -0.8333
vn 0.0392 0.9796 -0.1971
vn 0.0757 0.9217 -0.3804
vn 0.1092 0.8286 -0.5490
vn 0.1385 0.7041 -0.6965
vn 0.1626 0.5528 -0.8173
vn 0.1804 0.3805 -0.9070
vn 0.1914 0.1939 -0.9622
vn 0.1951 -0.0000 -0.9808
vn 0.1914 -0.1939 -0.9622
vn 0.1804 -0.3805 -0.9070
vn 0.1626 -0.5528 -0.8173
vn 0.1385 -0.7041 -0.6965
vn 0.1092 -0.8286 -0.5490
vn 0.0757 -0.9217 -0.3804
vn 0.0392 -0.9796 -0.1971
vn 0.0769 0.9796 -0.1857
vn 0.1484 0.9217 -0.3584
vn 0.2142 0.8286 -0.5172
vn 0.2718 0.7041 -0.6561
vn 0.3189 0.5528 -0.7699
vn 0.3539 0.3805 -0.8544
vn 0.3754 0.1939 -0.9063
vn 0.3827 -0.0000 -0.9239
vn 0.3754 -0.1939 -0.9063
vn 0.3539 -0.3805 -0.8544
vn 0.3189 -0.5528 -0.7699
vn 0.2718 -0.7041 -0.6561
vn 0.2142 -0.8286 -0.5172
vn 0.1484 -0.9217 -0.3584
vn 0.0769 -0.9796 -0.1857
vn 0.1117 0.9796 -0.1671
vn 0.2155 0.9217 -0.3225
vn 0.3110 0.8286 -0.4654
vn 0.3945 0.7041 -0.5905
vn 0.4630 0.5528 -0.6929
vn 0.5138 0.3805 -0.7689
vn 0.5450 0.1939 -0.8157
vn 0.5556 -0.0000 -0.8315
vn 0.5450 -0.1939 -0.8157
vn 0.5138 -0.3805 -0.7689
vn 0.4630 -0.5528 -0.6929
vn 0.3945 -0.7041 -0.5905
vn 0.3110 -0.8286 -0.4654
vn 0.2155 -0.9217 -0.3225
vn 0.1117 -0.9796 -0.1671
vn 0.1421 0.9796 -0.1421
vn 0.2743 0.9217 -0.2743
vn 0.3958 0.8286 -0.3958
vn 0.5021 0.7041 -0.5021
vn 0.5893 0.5528 -0.5893
vn 0.6539 0.3805 -0.6539
vn 0.6937 0.1939 -0.6937
vn 0.7071 -0.0000 -0.7071
vn 0.6937 -0.1939 -0.6937
vn 0.6539 -0.3805 -0.6539
vn 0.5893 -0.5528 -0.5893
vn 0.5021 -0.7041 -0.5021
vn 0.3958 -0.8286 -0.3958
vn 0.2743 -0.9217 -0.2743
vn 0.1421 -0.9796 -0.1421
vn 0.1671 0.9796 -0.1117
vn 0.3225 0.9217 -0.2155
vn 0.4654 0.8286 -0.3110
vn 0.5905 0.7041 -0.3945
vn 0.6929 0.5528 -0.4630
vn 0.7689 0.3805 -0.5138
vn 0.8157 0.1939 -0.5450
vn 0.8315 -0.0000 -0.5556
vn 0.8157 -0.1939 -0.5450
vn 0.7689 -0.3805 -0.5138
vn 0.6929 -0.5528 -0.4630
vn 0.5905 -0.7041 -0.3945
vn 0.4654 -0.8286 -0.3110
vn 0.3225 -0.9217 -0.2155
vn 0.1671 -0.9796 -0.1117
vn -0.0000 1.0000 -0.0000
vn 0.1857 0.9796 -0.0769
vn 0.3584 0.9217 -0.1484
vn 0.5172 0.8286 -0.2142
vn 0.6561 0.7041 -0.2718
vn 0.7699 0.5528 -0.3189
vn 0.8544 0.3805 -0.3539
vn 0.9063 0.1939 -0.3754
vn 0.9239 -0.0000 -0.3827
vn 0.9063 -0.1939 -0.3754
vn 0.8544 -0.3805 -0.3539
vn 0.7699 -0.5528 -0.3189
vn 0.6561 -0.7041 -0.2718
vn 0.5172 -0.8286 -0.2142
vn 0.3584 -0.9217 -0.1484
vn 0.1857 -0.9796 -0.0769
vn 0.1971 0.9796 -0.0392
vn 0.3804 0.9217 -0.0757
vn 0.5490 0.8286 -0.1092
vn 0.6965 0.7041 -0.1385
vn 0.8173 0.5528 -0.1626
vn 0.9070 0.3805 -0.1804
vn 0.9622 0.1939 -0.1914
vn 0.9808 -0.0000 -0.1951
vn 0.9622 -0.1939 -0.1914
vn 0.9070 -0.3805 -0.1804
vn 0.8173 -0.5528 -0.1626
vn 0.6965 -0.7041 -0.1385
vn 0.5490 -0.8286 -0.1092
vn 0.3804 -0.9217 -0.0757
vn 0.1971 -0.9796 -0.0392
vn 0.2010 0.9796 -0.0000
vn 0.3879 0.9217 -0.0000
vn 0.5598 0.8286 -0.0000
vn 0.7101 0.7041 -0.0000
vn 0.8333 0.5528 -0.0000
vn 0.9248 0.3805 -0.0000
vn 0.9810 0.1939 -0.0000
vn 1.0000 -0.0000 -0.0000
vn 0.9810 -0.1939 -0.0000
vn 0.9248 -0.3805 -0.0000
vn 0.8333 -0.5528 -0.0000
vn 0.7101 -0.7041 -0.0000
vn 0.5598 -0.8286 -0.0000
vn 0.3879 -0.9217 -0.0000
vn 0.2010 -0.9796 -0.0000
vn 0.1971 0.9796 0.0392
vn 0.3804 0.9217 0.0757
vn 0.5490 0.8286 0.1092
vn 0.6965 0.7041 0.1385
vn 0.8173 0.5528 0.1626
vn 0.9070 0.3805 0.1804
vn 0.9622 0.1939 0.1914
vn 0.9808 -0.0000 0.1951
vn 0.9622 -0.1939 0.1914
vn 0.9070 -0.3805 0.1804
vn 0.8173 -0.5528 0.1626
vn 0.6965 -0.7041 0.1385
vn 0.5490 -0.8286 0.1092
vn 0.3804 -0.9217 0.0757
vn 0.1971 -0.9796 0.0392
vn 0.1857 0.9796 0.0769
vn 0.3584 0.9217 0.1484
vn 0.5172 0.8286 0.2142
vn 0.6561 0.7041 0.2718
vn 0.7699 0.5528 0.3189
vn 0.8544 0.3805 0.3539
vn 0.9063 0.1939 0.3754
vn 0.9239 -0.0000 0.3827
vn 0.9063 -0.1939 0.3754
vn 0.8544 -0.3805 0.3539
vn 0.7699 -0.5528 0.3189
vn 0.6561 -0.7041 0.2718
vn 0.5172 -0.8286 0.2142
vn 0.3584 -0.9217 0.1484
vn 0.1857 -0.9796 0.0769
vn 0.1671 0.9796 0.1117
vn 0.3225 0.9217 0.2155
vn 0.4654 0.8286 0.3110
vn 0.5905 0.7041 0.3945
vn 0.6929 0.5528 0.4630
vn 0.7689 0.3805 0.5138
vn 0.8157 0.1939 0.5450
vn 0.8315 -0.0000 0.5556
vn 0.8157 -0.1939 0.5450
vn 0.7689 -0.3805 0.5138
vn 0.6929 -0.5528 0.4630
vn 0.5905 -0.7041 0.3945
vn 0.4654 -0.8286 0.3110
vn 0.3225 -0.9217 0.2155
vn 0.1671 -0.9796 0.1117
vn 0.1421 0.9796 0.1421
vn 0.2743 0.9217 0.2743
vn 0.3958 0.8286 0.3958
vn 0.5021 0.7041 0.5021
vn 0.5893 0.5528 0.5893
vn 0.6539 0.3805 0.6539
vn 0.6937 0.1939 0.6937
vn 0.7071 -0.0000 0.7071
vn 0.6937 -0.1939 0.6937
vn 0.6539 -0.3805 0.6539
vn 0.5893 -0.5528 0.5893
vn 0.5021 -0.7041 0.5021
vn 0.3958 -0.8286 0.3958
vn 0.2743 -0.9217 0.2743
vn 0.1421 -0.9796 0.1421
vn 0.1117 0.9796 0.1671
vn 0.2155 0.9217 0.3225
vn 0.3110 0.8286 0.4654
vn 0.3945 0.7041 0.5905
vn 0.4630 0.5528 0.6929
vn 0.5138 0.3805 0.7689
vn 0.5450 0.1939 0.8157
vn 0.5556 -0.0000 0.8315
vn 0.5450 -0.1939 0.8157
vn 0.5138 -0.3805 0.7689
vn 0.4630 -0.5528 0.6929
vn 0.3945 -0.7041 0.5905
vn 0.3110 -0.8286 0.4654
vn 0.2155 -0.9217 0.3225
vn 0.1117 -0.9796 0.1671
vn 0.0769 0.9796 0.1857
vn 0.1484 0.9217 0.3584
vn 0.2142 0.8286 0.5172
vn 0.2718 0.7041 0.6561
vn 0.3189 0.5528 0.7699
vn 0.3539 0.3805 0.8544
vn 0.3754 0.1939 0.9063
vn 0.3827 -0.0000 0.9239
vn 0.3754 -0.1939 0.9063
vn 0.3539 -0.3805 0.8544
vn 0.3189 -0.5528 0.7699
vn 0.2718 -0.7041 0.6561
vn 0.2142 -0.8286 0.5172
vn 0.1484 -0.9217 0.3584
vn 0.0769 -0.9796 0.1857
vn 0.0392 0.9796 0.1971
vn 0.0757 0.9217 0.3804
vn 0.1092 0.8286 0.5490
vn 0.1385 0.7041 0.6965
vn 0.1626 0.5528 0.8173
vn 0.1804 0.3805 0.9070
vn 0.1914 0.1939 0.9622
vn 0.1951 -0.0000 0.9808
vn 0.1914 -0.1939 0.9622
vn 0.1804 -0.3805 0.9070
vn 0.1626 -0.5528 0.8173
vn 0.1385 -0.7041 0.6965
vn 0.1092 -0.8286 0.5490
vn 0.0757 -0.9217 0.3804
vn 0.0392 -0.9796 0.1971
vn -0.0000 0.9796 0.2010
vn -0.0000 0.9217 0.3879
vn -0.0000 0.8286 0.5598
vn -0.0000 0.7041 0.7101
vn -0.0000 0.5528 0.8333
vn -0.0000 0.3805 0.9248
vn -0.0000 0.1939 0.9810
vn -0.0000 -0.0000 1.0000
vn -0.0000 -0.1939 0.9810
vn -0.0000 -0.3805 0.9248
vn -0.0000 -0.5528 0.8333
vn -0.0000 -0.7041 0.7101
vn -0.0000 -0.8286 0.5598
vn -0.0000 -0.9217 0.3879
vn -0.0000 -0.9796 0.2010
vn -0.0392 0.9796 0.1971
vn -0.0757 0.9217 0.3804
vn -0.1092 0.8286 0.5490
vn -0.1385 0.7041 0.6965
vn -0.1626 0.5528 0.8173
vn -0.1804 0.3805 0.9070
vn -0.1914 0.1939 0.9622
vn -0.1951 -0.0000 0.9808
vn -0.1914 -0.1939 0.9622
vn -0.1804 -0.3805 0.9070
vn -0.1626 -0.5528 0.8173
vn -0.1385 -0.7041 0.6965
vn -0.1092 -0.8286 0.5490
vn -0.0757 -0.9217 0.3804
vn -0.0392 -0.9796 0.1971
vn -0.0769 0.9796 0.1857
vn -0.1484 0.9217 0.3584
vn -0.2142 0.8286 0.5172
vn -0.2718 0.7041 0.6561
vn -0.3189 0.5528 0.7699
vn -0.3539 0.3805 0.8544
vn -0.3754 0.1939 0.9063
vn -0.3827 -0.0000 0.9239
vn -0.3754 -0.1939 0.9063
vn -0.3539 -0.3805 0.8544
vn -0.3189 -0.5528 0.7699
vn -0.2718 -0.7041 0.6561
vn -0.2142 -0.8286 0.5172
vn -0.1484 -0.9217 0.3584
vn -0.0769 -0.9796 0.1857
vn -0.1117 0.9796 0.1671
vn -0.2155 0.9217 0.3225
vn -0.3110 0.8286 0.4654
vn -0.3945 0.7041 0.5905
vn -0.4630 0.5528 0.6929
vn -0.5138 0.3805 0.7689
vn -0.5450 0.1939 0.8157
vn -0.5556 -0.0000 0.8315
vn -0.5450 -0.1939 0.8157
vn -0.5138 -0.3805 0.7689
vn -0.4630 -0.5528 0.6929
vn -0.3945 -0.7041 0.5905
vn -0.3110 -0.8286 0.4654
vn -0.2155 -0.9217 0.3225
vn -0.1117 -0.9796 0.1671
vn -0.1421 0.9796 0.1421
vn -0.2743 0.9217 0.2743
vn -0.3958 0.8286 0.3958
vn -0.5021 0.7041 0.5021
vn -0.5893 0.5528 0.5893
vn -0.6539 0.3805 0.6539
vn -0.6937 0.1939 0.6937
vn -0.7071 -0.0000 0.7071
vn -0.6937 -0.1939 0.6937
vn -0.6539 -0.3805 0.6539
vn -0.5893 -0.5528 0.5893
vn -0.5021 -0.7041 0.5021
vn -0.3958 -0.8286 0.3958
vn -0.2743 -0.9217 0.2743
vn -0.1421 -0.9796 0.1421
vn -0.0000 -1.0000 -0.0000
vn -0.1671 0.9796 0.1117
vn -0.3225 0.9217 0.2155
vn -0.4654 0.8286 0.3110
vn -0.5905 0.7041 0.3945
vn -0.6929 0.5528 0.4630
vn -0.7689 0.3805 0.5138
vn -0.8157 0.1939 0.5450
vn -0.8315 -0.0000 0.5556
vn -0.8157 -0.1939 0.5450
vn -0.7689 -0.3805 0.5138
vn -0.6929 -0.5528 0.4630
vn -0.5905 -0.7041 0.3945
vn -0.4654 -0.8286 0.3110
vn -0.3225 -0.9217 0.2155
vn -0.1671 -0.9796 0.1117
vn -0.1857 0.9796 0.0769
vn -0.3584 0.9217 0.1484
vn -0.5172 0.8286 0.2142
vn -0.6561 0.7041 0.2718
vn -0.7699 0.5528 0.3189
vn -0.8544 0.3805 0.3539
vn -0.9063 0.1939 0.3754
vn -0.9239 -0.0000 0.3827
vn -0.9063 -0.1939 0.3754
vn -0.8544 -0.3805 0.3539
vn -0.7699 -0.5528 0.3189
vn -0.6561 -0.7041 0.2718
vn -0.5172 -0.8286 0.2142
vn -0.3584 -0.9217 0.1484
vn -0.1857 -0.9796 0.0769
vn -0.1971 0.9796 0.0392
vn -0.3804 0.9217 0.0757
vn -0.5490 0.8286 0.1092
vn -0.6965 0.7041 0.1385
vn -0.8173 0.5528 0.1626
vn -0.9070 0.3805 0.1804
vn -0.9622 0.1939 0.1914
vn -0.9808 -0.0000 0.1951
vn -0.9622 -0.1939 0.1914
vn -0.9070 -0.3805 0.1804
vn -0.8173 -0.5528 0.1626
vn -0.6965 -0.7041 0.1385
vn -0.5490 -0.8286 0.1092
vn -0.3804 -0.9217 0.0757
vn -0.1971 -0.9796 0.0392
vn -0.2010 0.9796 -0.0000
vn -0.3879 0.9217 -0.0000
vn -0.5598 0.8286 -0.0000
vn -0.7101 0.7041 -0.0000
vn -0.8333 0.5528 -0.0000
vn -0.9248 0.3805 -0.0000
vn -0.9810 0.1939 -0.0000
vn -1.0000 -0.0000 -0.0000
vn -0.9810 -0.1939 -0.0000
vn -0.9248 -0.3805 -0.0000
vn -0.8333 -0.5528 -0.0000
vn -0.7101 -0.7041 -0.0000
vn -0.5598 -0.8286 -0.0000
vn -0.3879 -0.9217 -0.0000
vn -0.2010 -0.9796 -0.0000
vn -0.1971 0.9796 -0.0392
vn -0.3804 0.9217 -0.0757
vn -0.5490 0.8286 -0.1092
vn -0.6965 0.7041 -0.1385
vn -0.8173 0.5528 -0.1626
vn -0.9070 0.3805 -0.1804
vn -0.9622 0.1939 -0.1914
vn -0.9808 -0.0000 -0.1951
vn -0.9622 -0.1939 -0.1914
vn -0.9070 -0.3805 -0.1804
vn -0.8173 -0.5528 -0.1626
vn -0.6965 -0.7041 -0.1385
vn -0.5490 -0.8286 -0.1092
vn -0.3804 -0.9217 -0.0757
vn -0.1971 -0.9796 -0.0392
vn -0.1857 0.9796 -0.0769
vn -0.3584 0.9217 -0.1484
vn -0.5172 0.8286 -0.2142
vn -0.6561 0.7041 -0.2718
vn -0.7699 0.5528 -0.3189
vn -0.8544 0.3805 -0.3539
vn -0.9063 0.1939 -0.3754
vn -0.9239 -0.0000 -0.3827
vn -0.9063 -0.1939 -0.3754
vn -0.8544 -0.3805 -0.3539
vn -0.7699 -0.5528 -0.3189
vn -0.6561 -0.7041 -0.2718
vn -0.5172 -0.8286 -0.2142
vn -0.3584 -0.9217 -0.1484
vn -0.1857 -0.9796 -0.0769
vn -0.1671 0.9796 -0.1117
vn -0.3225 0.9217 -0.2155
vn -0.4654 0.8286 -0.3110
vn -0.5905 0.7041 -0.3945
vn -0.6929 0.5528 -0.4630
vn -0.7689 0.3805 -0.5138
vn -0.8157 0.1939 -0.5450
vn -0.8315 -0.0000 -0.5556
vn -0.8157 -0.1939 -0.5450
vn -0.7689 -0.3805 -0.5138
vn -0.6929 -0.5528 -0.4630
vn -0.5905 -0.7041 -0.3945
vn -0.4654 -0.8286 -0.3110
vn -0.3225 -0.9217 -0.2155
vn -0.1671 -0.9796 -0.1117
vn -0.1421 0.9796 -0.1421
vn -0.2743 0.9217 -0.2743
vn -0.3958 0.8286 -0.3958
vn -0.5021 0.7041 -0.5021
vn -0.5893 0.5528 -0.5893
vn -0.6539 0.3805 -0.6539
vn -0.6937 0.1939 -0.6937
vn -0.7071 -0.0000 -0.7071
vn -0.6937 -0.1939 -0.6937
vn -0.6539 -0.3805 -0.6539
vn -0.5893 -0.5528 -0.5893
vn -0.5021 -0.7041 -0.5021
vn -0.3958 -0.8286 -0.3958
vn -0.2743 -0.9217 -0.2743
vn -0.1421 -0.9796 -0.1421
vn -0.1117 0.9796 -0.1671
vn -0.2155 0.9217 -0.3225
vn -0.3110 0.8286 -0.4654
vn -0.3945 0.7041 -0.5905
vn -0.4630 0.5528 -0.6929
vn -0.5138 0.3805 -0.7689
vn -0.5450 0.1939 -0.8157
vn -0.5556 -0.0000 -0.8315
vn -0.5450 -0.1939 -0.8157
vn -0.5138 -0.3805 -0.7689
vn -0.4630 -0.5528 -0.6929
vn -0.3945 -0.7041 -0.5905
vn -0.3110 -0.8286 -0.4654
vn -0.2155 -0.9217 -0.3225
vn -0.1117 -0.9796 -0.1671
vn -0.0769 0.9796 -0.1857
vn -0.1484 0.9217 -0.3584
vn -0.2142 0.8286 -0.5172
vn -0.2718 0.7041 -0.6561
vn -0.3189 0.5528 -0.7699
vn -0.3539 0.3805 -0.8544
vn -0.3754 0.1939 -0.9063
vn -0.3827 -0.0000 -0.9239
vn -0.3754 -0.1939 -0.9063
vn -0.3539 -0.3805 -0.8544
vn -0.3189 -0.5528 -0.7699
vn -0.2718 -0.7041 -0.6561
vn -0.2142 -0.8286 -0.5172
vn -0.1484 -0.9217 -0.3584
vn -0.0769 -0.9796 -0.1857
vn -0.0392 0.9796 -0.1971
vn -0.0757 0.9217 -0.3804
vn -0.1092 0.8286 -0.5490
vn -0.1385 0.7041 -0.6965
vn -0.1626 0.5528 -0.8173
vn -0.1804 0.3805 -0.9070
vn -0.1914 0.1939 -0.9622
vn -0.1951 -0.0000 -0.9808
vn -0.1914 -0.1939 -0.9622
vn -0.1804 -0.3805 -0.9070
vn -0.1626 -0.5528 -0.8173
vn -0.1385 -0.7041 -0.6965
vn -0.1092 -0.8286 -0.5490
vn -0.0757 -0.9217 -0.3804
vn -0.0392 -0.9796 -0.1971
vn -0.0000 0.9796 -0.2010
vn -0.0000 0.9217 -0.3879
vn -0.0000 0.7041 -0.7101
vn -0.0000 0.3805 -0.9248
vn -0.0000 -0.3805 -0.9248
vn -0.0000 -0.7041 -0.7101
vn -0.0000 -0.8286 -0.5598
vn -0.0000 -0.9217 -0.3879
vn -0.0000 -0.9796 -0.2010
vt 0.760401 0.263246
vt 0.779108 0.263346
vt 0.778303 0.281305
vt 0.760868 0.281128
vt 0.930067 0.316553
vt 0.971571 0.340804
vt 0.926148 0.325073
vt 0.559758 0.346724
vt 0.597517 0.321999
vt 0.601600 0.329800
vt 0.741831 0.264284
vt 0.743485 0.282019
vt 0.892396 0.295311
vt 0.887072 0.306940
vt 0.722910 0.266816
vt 0.725773 0.284073
vt 0.864209 0.282180
vt 0.859226 0.296149
vt 0.703207 0.271051
vt 0.707064 0.287425
vt 0.840247 0.273728
vt 0.835892 0.289377
vt 0.682043 0.277362
vt 0.686844 0.292489
vt 0.818310 0.268389
vt 0.815265 0.285075
vt 0.659054 0.286589
vt 0.664362 0.299994
vt 0.798259 0.265022
vt 0.796191 0.282553
vt 0.632182 0.300442
vt 0.637689 0.311457
vt 0.668658 0.313121
vt 0.642224 0.322543
vt 0.794703 0.298999
vt 0.777729 0.298089
vt 0.604997 0.337919
vt 0.761252 0.297961
vt 0.967128 0.349275
vt 0.922229 0.333490
vt 0.561880 0.351192
vt 0.744801 0.298678
vt 0.882777 0.318512
vt 0.727947 0.300295
vt 0.855256 0.309740
vt 0.710098 0.302998
vt 0.832394 0.304413
vt 0.690955 0.307144
vt 0.812755 0.301020
vt 0.729717 0.315825
vt 0.712614 0.317998
vt 0.851852 0.323015
vt 0.829713 0.318871
vt 0.693953 0.321276
vt 0.810876 0.316212
vt 0.672297 0.325985
vt 0.793549 0.314682
vt 0.645927 0.333654
vt 0.777316 0.314030
vt 0.607753 0.346295
vt 0.761599 0.313946
vt 0.964231 0.354589
vt 0.918932 0.342047
vt 0.563650 0.356166
vt 0.745863 0.314537
vt 0.879337 0.329970
vt 0.648894 0.344770
vt 0.609907 0.354882
vt 0.777018 0.329278
vt 0.761861 0.329328
vt 0.961820 0.360266
vt 0.916210 0.350721
vt 0.565023 0.361576
vt 0.746713 0.329784
vt 0.876300 0.341292
vt 0.731125 0.330792
vt 0.849355 0.335958
vt 0.714567 0.332490
vt 0.827808 0.332868
vt 0.696347 0.335050
vt 0.809366 0.330890
vt 0.675148 0.338664
vt 0.792677 0.329744
vt 0.847522 0.348633
vt 0.826425 0.346489
vt 0.716058 0.346604
vt 0.698189 0.348539
vt 0.808275 0.345136
vt 0.677322 0.351195
vt 0.792066 0.344345
vt 0.651203 0.355877
vt 0.776847 0.344067
vt 0.611493 0.363650
vt 0.762112 0.344180
vt 0.959780 0.366099
vt 0.914054 0.359473
vt 0.565968 0.367361
vt 0.747387 0.344547
vt 0.873931 0.352555
vt 0.732216 0.345318
vt 0.776791 0.358500
vt 0.762349 0.358664
vt 0.957997 0.372036
vt 0.912451 0.368244
vt 0.568189 0.377543
vt 0.613367 0.372323
vt 0.747917 0.358958
vt 0.872580 0.363763
vt 0.733032 0.359524
vt 0.846171 0.361170
vt 0.717151 0.360445
vt 0.825298 0.359893
vt 0.699529 0.361817
vt 0.807698 0.359022
vt 0.678887 0.363605
vt 0.791714 0.358598
vt 0.652827 0.366951
vt 0.717883 0.374109
vt 0.700404 0.374957
vt 0.824811 0.373109
vt 0.807331 0.372743
vt 0.679893 0.375932
vt 0.791574 0.372620
vt 0.653856 0.377965
vt 0.776839 0.372696
vt 0.614707 0.380975
vt 0.762576 0.372911
vt 0.956629 0.378151
vt 0.911368 0.377010
vt 0.569898 0.383487
vt 0.748318 0.373142
vt 0.871835 0.374858
vt 0.733603 0.373521
vt 0.845372 0.373610
vt 0.955779 0.384357
vt 0.910786 0.385773
vt 0.571193 0.389446
vt 0.615524 0.389585
vt 0.762798 0.387037
vt 0.748603 0.387211
vt 0.871336 0.385892
vt 0.733946 0.387415
vt 0.845210 0.385943
vt 0.718278 0.387687
vt 0.824736 0.386216
vt 0.700840 0.388032
vt 0.807315 0.386340
vt 0.680368 0.388219
vt 0.791649 0.386524
vt 0.654274 0.388933
vt 0.776992 0.386769
vt 0.825084 0.399273
vt 0.807631 0.399903
vt 0.700846 0.401118
vt 0.680328 0.400525
vt 0.791943 0.400405
vt 0.654131 0.399896
vt 0.777254 0.400826
vt 0.615007 0.398215
vt 0.763020 0.401153
vt 0.955299 0.390488
vt 0.910718 0.394505
vt 0.571241 0.391264
vt 0.748779 0.401275
vt 0.871423 0.396908
vt 0.734070 0.401309
vt 0.845562 0.398207
vt 0.718347 0.401271
vt 0.763249 0.415369
vt 0.748850 0.415442
vt 0.911171 0.403158
vt 0.872478 0.407856
vt 0.733977 0.415305
vt 0.846333 0.410489
vt 0.718087 0.414951
vt 0.825864 0.412360
vt 0.700416 0.414289
vt 0.808286 0.413527
vt 0.679777 0.412909
vt 0.792466 0.414362
vt 0.653351 0.410906
vt 0.777634 0.414974
vt 0.613975 0.406893
vt 0.955083 0.396523
vt 0.570221 0.397289
vt 0.699523 0.427619
vt 0.678556 0.425387
vt 0.809296 0.427304
vt 0.793236 0.428502
vt 0.652227 0.421989
vt 0.778145 0.429325
vt 0.613260 0.415629
vt 0.763490 0.429801
vt 0.955419 0.402473
vt 0.912145 0.411736
vt 0.569051 0.407615
vt 0.748814 0.429826
vt 0.873786 0.418815
vt 0.733659 0.429508
vt 0.847780 0.422837
vt 0.717484 0.428820
vt 0.827128 0.425566
vt 0.748666 0.444548
vt 0.733099 0.444033
vt 0.875748 0.429785
vt 0.849820 0.435261
vt 0.716511 0.442976
vt 0.828927 0.438942
vt 0.698146 0.441168
vt 0.810682 0.441320
vt 0.676864 0.438000
vt 0.794284 0.442935
vt 0.650134 0.433107
vt 0.778807 0.444003
vt 0.611201 0.424135
vt 0.763751 0.444573
vt 0.956132 0.408189
vt 0.913671 0.420209
vt 0.568839 0.409377
vt 0.674522 0.450859
vt 0.647322 0.444293
vt 0.795670 0.457799
vt 0.779646 0.459142
vt 0.608566 0.432583
vt 0.764039 0.459824
vt 0.957112 0.413655
vt 0.915770 0.428518
vt 0.566784 0.414919
vt 0.748396 0.459746
vt 0.878765 0.440665
vt 0.732268 0.459009
vt 0.852407 0.447808
vt 0.715123 0.457536
vt 0.831118 0.452574
vt 0.696223 0.455054
vt 0.812654 0.455715
vt 0.882221 0.451590
vt 0.855895 0.460584
vt 0.731125 0.474581
vt 0.713258 0.472626
vt 0.834175 0.466585
vt 0.693663 0.469370
vt 0.815029 0.470554
vt 0.671333 0.464016
vt 0.797411 0.473200
vt 0.644071 0.455623
vt 0.780690 0.474891
vt 0.605339 0.440931
vt 0.764362 0.475715
vt 0.958619 0.418836
vt 0.918466 0.436654
vt 0.564368 0.420292
vt 0.747987 0.475579
vt 0.799606 0.489331
vt 0.781987 0.491440
vt 0.639883 0.467064
vt 0.602165 0.449405
vt 0.764731 0.492440
vt 0.960452 0.423597
vt 0.921800 0.444557
vt 0.560521 0.428974
vt 0.747413 0.492233
vt 0.886566 0.462494
vt 0.729611 0.490920
vt 0.860241 0.473565
vt 0.710829 0.488380
vt 0.837985 0.481011
vt 0.690374 0.484184
vt 0.818062 0.486001
vt 0.667309 0.477460
vt 0.727642 0.508232
vt 0.707713 0.504963
vt 0.865619 0.486777
vt 0.842724 0.495953
vt 0.686217 0.499602
vt 0.821876 0.502203
vt 0.662395 0.491186
vt 0.802361 0.506382
vt 0.634463 0.478448
vt 0.783602 0.509015
vt 0.597665 0.457274
vt 0.765158 0.510235
vt 0.962619 0.427859
vt 0.925819 0.452164
vt 0.559768 0.430388
vt 0.746637 0.509940
vt 0.891892 0.473347
vt 0.627967 0.489816
vt 0.592425 0.464840
vt 0.785618 0.527895
vt 0.765661 0.529398
vt 0.964944 0.431587
vt 0.930558 0.459369
vt 0.556448 0.434324
vt 0.745605 0.528990
vt 0.898626 0.483939
vt 0.725098 0.526776
vt 0.872093 0.500176
vt 0.703736 0.522586
vt 0.848603 0.511501
vt 0.680974 0.515783
vt 0.826661 0.519339
vt 0.656250 0.505336
vt 0.805824 0.524592
vt 0.880215 0.513911
vt 0.855943 0.527813
vt 0.698661 0.541494
vt 0.674375 0.532855
vt 0.832680 0.537634
vt 0.648644 0.519915
vt 0.810196 0.544268
vt 0.620204 0.501090
vt 0.788155 0.548442
vt 0.586409 0.472012
vt 0.766261 0.550313
vt 0.966053 0.432476
vt 0.936455 0.465748
vt 0.552829 0.437736
vt 0.744238 0.549753
vt 0.906279 0.494389
vt 0.721811 0.546876
vt 0.791379 0.571125
vt 0.766985 0.573486
vt 0.969669 0.434674
vt 0.943121 0.471606
vt 0.549035 0.440530
vt 0.579585 0.478669
vt 0.742423 0.572716
vt 0.915445 0.504489
vt 0.717540 0.568945
vt 0.890127 0.527858
vt 0.692154 0.561980
vt 0.865099 0.544945
vt 0.666054 0.550956
vt 0.840294 0.557337
vt 0.639260 0.534897
vt 0.815762 0.565790
vt 0.610968 0.512139
vt 0.683735 0.584409
vt 0.655502 0.570218
vt 0.876570 0.562949
vt 0.850018 0.578748
vt 0.627683 0.550201
vt 0.822935 0.589656
vt 0.600027 0.522763
vt 0.795533 0.596575
vt 0.571933 0.484659
vt 0.767872 0.599599
vt 0.973238 0.436220
vt 0.950564 0.476780
vt 0.545202 0.442624
vt 0.739990 0.598533
vt 0.926518 0.513890
vt 0.711930 0.593526
vt 0.902053 0.541746
vt 0.541498 0.443957
vt 0.563451 0.489794
vt 0.768975 0.629597
vt 0.736681 0.628106
vt 0.958626 0.481404
vt 0.939276 0.522505
vt 0.704452 0.621346
vt 0.916974 0.555630
vt 0.672705 0.609223
vt 0.891140 0.581921
vt 0.642010 0.590741
vt 0.862602 0.602249
vt 0.613379 0.565638
vt 0.832321 0.616538
vt 0.587134 0.532661
vt 0.800971 0.625659
vt 0.978186 0.437969
vt 0.624568 0.612549
vt 0.595680 0.580832
vt 0.879135 0.628242
vt 0.844843 0.647349
vt 0.572039 0.541393
vt 0.808222 0.659605
vt 0.554176 0.493848
vt 0.770368 0.664800
vt 0.980458 0.438244
vt 0.967421 0.484822
vt 0.538133 0.444509
vt 0.732108 0.662713
vt 0.954232 0.529665
vt 0.694285 0.653419
vt 0.934911 0.568675
vt 0.658025 0.636956
vt 0.909736 0.601693
vt 0.976822 0.486793
vt 0.971104 0.534823
vt 0.725713 0.704236
vt 0.680083 0.691277
vt 0.957289 0.580433
vt 0.638120 0.668178
vt 0.933952 0.622093
vt 0.601688 0.635520
vt 0.901255 0.657150
vt 0.573791 0.595069
vt 0.862001 0.683471
vt 0.554528 0.548338
vt 0.818045 0.700214
vt 0.544203 0.496559
vt 0.772157 0.707010
vt 0.982179 0.437851
vt 0.535360 0.444327
vt 0.931229 0.688829
vt 0.886639 0.727511
vt 0.546961 0.606976
vt 0.534487 0.552651
vt 0.831382 0.750234
vt 0.533709 0.497637
vt 0.774475 0.758241
vt 0.983019 0.437104
vt 0.986587 0.487051
vt 0.533459 0.443563
vt 0.716864 0.755537
vt 0.989968 0.537011
vt 0.659255 0.737830
vt 0.984500 0.589297
vt 0.610710 0.702990
vt 0.966094 0.642554
vt 0.570962 0.659345
vt 0.638152 0.046908
vt 0.690496 0.020198
vt 0.706316 0.070930
vt 0.662463 0.088559
vt 0.980983 0.165225
vt 0.992397 0.220404
vt 0.972483 0.224550
vt 0.953244 0.177774
vt 0.592531 0.083014
vt 0.623346 0.115308
vt 0.954464 0.114143
vt 0.924803 0.137075
vt 0.560562 0.130391
vt 0.591170 0.149983
vt 0.917400 0.068801
vt 0.888953 0.104448
vt 0.539659 0.181713
vt 0.567078 0.191417
vt 0.867715 0.036508
vt 0.846975 0.080766
vt 0.533459 0.234830
vt 0.552462 0.237216
vt 0.812645 0.014593
vt 0.801347 0.066852
vt 0.536627 0.285637
vt 0.546408 0.285904
vt 0.751027 0.007005
vt 0.753531 0.063433
vt 0.993232 0.275146
vt 0.993511 0.329017
vt 0.982778 0.276225
vt 0.540155 0.335668
vt 0.588954 0.203384
vt 0.569695 0.242565
vt 0.832358 0.118486
vt 0.794220 0.109042
vt 0.555937 0.287940
vt 0.755339 0.107049
vt 0.991751 0.328312
vt 0.972835 0.278959
vt 0.540790 0.335535
vt 0.716856 0.112127
vt 0.954837 0.231500
vt 0.679933 0.124469
vt 0.931394 0.192002
vt 0.645594 0.144133
vt 0.902101 0.159928
vt 0.614942 0.170313
vt 0.868732 0.135632
vt 0.939562 0.240223
vt 0.913802 0.207131
vt 0.692661 0.155478
vt 0.662201 0.170170
vt 0.884640 0.181820
vt 0.633508 0.190317
vt 0.853867 0.163379
vt 0.607154 0.216803
vt 0.821917 0.150774
vt 0.584491 0.249942
vt 0.789380 0.144077
vt 0.564782 0.291151
vt 0.756715 0.142796
vt 0.989143 0.328186
vt 0.963588 0.283062
vt 0.543975 0.334668
vt 0.724330 0.146481
vt 0.814275 0.178848
vt 0.785947 0.173954
vt 0.597336 0.258770
vt 0.572858 0.295820
vt 0.757792 0.173097
vt 0.985877 0.328682
vt 0.955154 0.288258
vt 0.545005 0.334684
vt 0.729843 0.175868
vt 0.926711 0.250257
vt 0.702154 0.182619
vt 0.899316 0.222673
vt 0.674845 0.193804
vt 0.871054 0.202521
vt 0.648089 0.209518
vt 0.842698 0.188297
vt 0.621997 0.230795
vt 0.709382 0.206740
vt 0.684627 0.215399
vt 0.887588 0.238081
vt 0.860415 0.221965
vt 0.659631 0.227795
vt 0.834167 0.210869
vt 0.634138 0.244956
vt 0.808565 0.203664
vt 0.608330 0.268519
vt 0.783443 0.200011
vt 0.580118 0.301458
vt 0.758654 0.199431
vt 0.982279 0.329982
vt 0.947569 0.294318
vt 0.547725 0.335675
vt 0.734021 0.201564
vt 0.915854 0.261050
vt 0.617686 0.278857
vt 0.586556 0.307875
vt 0.781583 0.223176
vt 0.759354 0.222787
vt 0.978531 0.332073
vt 0.940828 0.301048
vt 0.550604 0.337509
vt 0.737252 0.224459
vt 0.906764 0.272287
vt 0.714974 0.228487
vt 0.878003 0.253197
vt 0.692303 0.235293
vt 0.852047 0.240225
vt 0.668833 0.245156
vt 0.827560 0.231515
vt 0.644094 0.259050
vt 0.804235 0.225939
vt 0.698423 0.253798
vt 0.676197 0.261661
vt 0.845505 0.257382
vt 0.822354 0.250605
vt 0.652283 0.272953
vt 0.800937 0.246194
vt 0.625611 0.289555
vt 0.780187 0.244110
vt 0.592194 0.314915
vt 0.759929 0.243873
vt 0.977509 0.333093
vt 0.935304 0.308780
vt 0.553462 0.340156
vt 0.739787 0.245190
vt 0.898730 0.283681
vt 0.719334 0.248338
vt 0.870338 0.267831
vt 0.972338 0.339386
vt 0.558716 0.345612
s 1
usemtl マテリアル
f 52/49/30 51/50/29 61/51/39 62/52/40
f 522/53/500 130/54/108 55/55/33
f 356/56/334 530/57/508 69/58/47
f 53/59/31 52/49/30 62/52/40 63/60/41
f 523/61/501 522/53/500 55/55/33 56/62/34
f 526/63/504 53/59/31 63/60/41 64/64/42
f 49/65/27 523/61/501 56/62/34 57/66/35
f 54/67/32 526/63/504 64/64/42 65/68/43
f 524/69/502 49/65/27 57/66/35 58/70/36
f 527/71/505 54/67/32 65/68/43 66/72/44
f 50/73/28 524/69/502 58/70/36 59/74/37
f 528/75/506 527/71/505 66/72/44 67/76/45
f 525/77/503 50/73/28 59/74/37 60/78/38
f 529/79/507 528/75/506 67/76/45 68/80/46
f 51/50/29 525/77/503 60/78/38 61/51/39
f 530/57/508 529/79/507 68/80/46 69/58/47
f 68/80/46 67/76/45 82/81/60 83/82/61
f 61/51/39 60/78/38 75/83/53 76/84/54
f 69/58/47 68/80/46 83/82/61 84/85/62
f 62/52/40 61/51/39 76/84/54 77/86/55
f 55/55/33 130/87/108 70/88/48
f 356/89/334 69/58/47 84/85/62
f 63/60/41 62/52/40 77/86/55 78/90/56
f 56/62/34 55/55/33 70/88/48 71/91/49
f 64/64/42 63/60/41 78/90/56 79/92/57
f 57/66/35 56/62/34 71/91/49 72/93/50
f 65/68/43 64/64/42 79/92/57 80/94/58
f 58/70/36 57/66/35 72/93/50 73/95/51
f 66/72/44 65/68/43 80/94/58 81/96/59
f 59/74/37 58/70/36 73/95/51 74/97/52
f 67/76/45 66/72/44 81/96/59 82/81/60
f 60/78/38 59/74/37 74/97/52 75/83/53
f 80/94/58 79/92/57 94/98/72 95/99/73
f 73/95/51 72/93/50 87/100/65 88/101/66
f 81/96/59 80/94/58 95/99/73 96/102/74
f 74/97/52 73/95/51 88/101/66 89/103/67
f 82/81/60 81/96/59 96/102/74 97/104/75
f 75/83/53 74/97/52 89/103/67 90/105/68
f 83/82/61 82/81/60 97/104/75 98/106/76
f 76/84/54 75/83/53 90/105/68 91/107/69
f 84/85/62 83/82/61 98/106/76 99/108/77
f 77/86/55 76/84/54 91/107/69 92/109/70
f 70/88/48 130/110/108 85/111/63
f 356/112/334 84/85/62 99/108/77
f 78/90/56 77/86/55 92/109/70 93/113/71
f 71/91/49 70/88/48 85/111/63 86/114/64
f 79/92/57 78/90/56 93/113/71 94/98/72
f 72/93/50 71/91/49 86/114/64 87/100/65
f 99/108/77 98/106/76 113/115/91 114/116/92
f 92/109/70 91/107/69 106/117/84 107/118/85
f 85/111/63 130/119/108 100/120/78
f 356/121/334 99/108/77 114/116/92
f 93/113/71 92/109/70 107/118/85 108/122/86
f 86/114/64 85/111/63 100/120/78 101/123/79
f 94/98/72 93/113/71 108/122/86 109/124/87
f 87/100/65 86/114/64 101/123/79 102/125/80
f 95/99/73 94/98/72 109/124/87 110/126/88
f 88/101/66 87/100/65 102/125/80 103/127/81
f 96/102/74 95/99/73 110/126/88 111/128/89
f 89/103/67 88/101/66 103/127/81 104/129/82
f 97/104/75 96/102/74 111/128/89 112/130/90
f 90/105/68 89/103/67 104/129/82 105/131/83
f 98/106/76 97/104/75 112/130/90 113/115/91
f 91/107/69 90/105/68 105/131/83 106/117/84
f 103/127/81 102/125/80 117/132/95 118/133/96
f 111/128/89 110/126/88 125/134/103 126/135/104
f 104/129/82 103/127/81 118/133/96 119/136/97
f 112/130/90 111/128/89 126/135/104 127/137/105
f 105/131/83 104/129/82 119/136/97 120/138/98
f 113/115/91 112/130/90 127/137/105 128/139/106
f 106/117/84 105/131/83 120/138/98 121/140/99
f 114/116/92 113/115/91 128/139/106 129/141/107
f 107/118/85 106/117/84 121/140/99 122/142/100
f 100/120/78 130/143/108 115/144/93
f 356/145/334 114/116/92 129/141/107
f 108/122/86 107/118/85 122/142/100 123/146/101
f 101/123/79 100/120/78 115/144/93 116/147/94
f 109/124/87 108/122/86 123/146/101 124/148/102
f 102/125/80 101/123/79 116/147/94 117/132/95
f 110/126/88 109/124/87 124/148/102 125/134/103
f 122/142/100 121/140/99 137/149/115 138/150/116
f 115/144/93 130/151/108 131/152/109
f 356/153/334 129/141/107 145/154/123
f 123/146/101 122/142/100 138/150/116 139/155/117
f 116/147/94 115/144/93 131/152/109 132/156/110
f 124/148/102 123/146/101 139/155/117 140/157/118
f 117/132/95 116/147/94 132/156/110 133/158/111
f 125/134/103 124/148/102 140/157/118 141/159/119
f 118/133/96 117/132/95 133/158/111 134/160/112
f 126/135/104 125/134/103 141/159/119 142/161/120
f 119/136/97 118/133/96 134/160/112 135/162/113
f 127/137/105 126/135/104 142/161/120 143/163/121
f 120/138/98 119/136/97 135/162/113 136/164/114
f 128/139/106 127/137/105 143/163/121 144/165/122
f 121/140/99 120/138/98 136/164/114 137/149/115
f 129/141/107 128/139/106 144/165/122 145/154/123
f 142/161/120 141/159/119 156/166/134 157/167/135
f 135/162/113 134/160/112 149/168/127 150/169/128
f 143/163/121 142/161/120 157/167/135 158/170/136
f 136/164/114 135/162/113 150/169/128 151/171/129
f 144/165/122 143/163/121 158/170/136 159/172/137
f 137/149/115 136/164/114 151/171/129 152/173/130
f 145/154/123 144/165/122 159/172/137 160/174/138
f 138/150/116 137/149/115 152/173/130 153/175/131
f 131/152/109 130/176/108 146/177/124
f 356/178/334 145/154/123 160/174/138
f 139/155/117 138/150/116 153/175/131 154/179/132
f 132/156/110 131/152/109 146/177/124 147/180/125
f 140/157/118 139/155/117 154/179/132 155/181/133
f 133/158/111 132/156/110 147/180/125 148/182/126
f 141/159/119 140/157/118 155/181/133 156/166/134
f 134/160/112 133/158/111 148/182/126 149/168/127
f 146/177/124 130/183/108 161/184/139
f 356/185/334 160/174/138 175/186/153
f 154/179/132 153/175/131 168/187/146 169/188/147
f 147/180/125 146/177/124 161/184/139 162/189/140
f 155/181/133 154/179/132 169/188/147 170/190/148
f 148/182/126 147/180/125 162/189/140 163/191/141
f 156/166/134 155/181/133 170/190/148 171/192/149
f 149/168/127 148/182/126 163/191/141 164/193/142
f 157/167/135 156/166/134 171/192/149 172/194/150
f 150/169/128 149/168/127 164/193/142 165/195/143
f 158/170/136 157/167/135 172/194/150 173/196/151
f 151/171/129 150/169/128 165/195/143 166/197/144
f 159/172/137 158/170/136 173/196/151 174/198/152
f 152/173/130 151/171/129 166/197/144 167/199/145
f 160/174/138 159/172/137 174/198/152 175/186/153
f 153/175/131 152/173/130 167/199/145 168/187/146
f 165/195/143 164/193/142 179/200/157 180/201/158
f 173/196/151 172/194/150 187/202/165 188/203/166
f 166/197/144 165/195/143 180/201/158 181/204/159
f 174/198/152 173/196/151 188/203/166 189/205/167
f 167/199/145 166/197/144 181/204/159 182/206/160
f 175/186/153 174/198/152 189/205/167 190/207/168
f 168/187/146 167/199/145 182/206/160 183/208/161
f 161/184/139 130/209/108 176/210/154
f 356/211/334 175/186/153 190/207/168
f 169/188/147 168/187/146 183/208/161 184/212/162
f 162/189/140 161/184/139 176/210/154 177/213/155
f 170/190/148 169/188/147 184/212/162 185/214/163
f 163/191/141 162/189/140 177/213/155 178/215/156
f 171/192/149 170/190/148 185/214/163 186/216/164
f 164/193/142 163/191/141 178/215/156 179/200/157
f 172/194/150 171/192/149 186/216/164 187/202/165
f 184/212/162 183/208/161 198/217/176 199/218/177
f 177/213/155 176/210/154 191/219/169 192/220/170
f 185/214/163 184/212/162 199/218/177 200/221/178
f 178/215/156 177/213/155 192/220/170 193/222/171
f 186/216/164 185/214/163 200/221/178 201/223/179
f 179/200/157 178/215/156 193/222/171 194/224/172
f 187/202/165 186/216/164 201/223/179 202/225/180
f 180/201/158 179/200/157 194/224/172 195/226/173
f 188/203/166 187/202/165 202/225/180 203/227/181
f 181/204/159 180/201/158 195/226/173 196/228/174
f 189/205/167 188/203/166 203/227/181 204/229/182
f 182/206/160 181/204/159 196/228/174 197/230/175
f 190/207/168 189/205/167 204/229/182 205/231/183
f 183/208/161 182/206/160 197/230/175 198/217/176
f 176/210/154 130/232/108 191/219/169
f 356/233/334 190/207/168 205/231/183
f 203/227/181 202/225/180 217/234/195 218/235/196
f 196/228/174 195/226/173 210/236/188 211/237/189
f 204/229/182 203/227/181 218/235/196 219/238/197
f 197/230/175 196/228/174 211/237/189 212/239/190
f 205/231/183 204/229/182 219/238/197 220/240/198
f 198/217/176 197/230/175 212/239/190 213/241/191
f 191/219/169 130/242/108 206/243/184
f 356/244/334 205/231/183 220/240/198
f 199/218/177 198/217/176 213/241/191 214/245/192
f 192/220/170 191/219/169 206/243/184 207/246/185
f 200/221/178 199/218/177 214/245/192 215/247/193
f 193/222/171 192/220/170 207/246/185 208/248/186
f 201/223/179 200/221/178 215/247/193 216/249/194
f 194/224/172 193/222/171 208/248/186 209/250/187
f 202/225/180 201/223/179 216/249/194 217/234/195
f 195/226/173 194/224/172 209/250/187 210/236/188
f 215/247/193 214/245/192 229/251/207 230/252/208
f 208/248/186 207/246/185 222/253/200 223/254/201
f 216/249/194 215/247/193 230/252/208 231/255/209
f 209/250/187 208/248/186 223/254/201 224/256/202
f 217/234/195 216/249/194 231/255/209 232/257/210
f 210/236/188 209/250/187 224/256/202 225/258/203
f 218/235/196 217/234/195 232/257/210 233/259/211
f 211/237/189 210/236/188 225/258/203 226/260/204
f 219/238/197 218/235/196 233/259/211 234/261/212
f 212/239/190 211/237/189 226/260/204 227/262/205
f 220/240/198 219/238/197 234/261/212 235/263/213
f 213/241/191 212/239/190 227/262/205 228/264/206
f 206/243/184 130/265/108 221/266/199
f 356/267/334 220/240/198 235/263/213
f 214/245/192 213/241/191 228/264/206 229/251/207
f 207/246/185 206/243/184 221/266/199 222/253/200
f 234/261/212 233/259/211 248/268/226 249/269/227
f 227/262/205 226/260/204 241/270/219 242/271/220
f 235/263/213 234/261/212 249/269/227 250/272/228
f 228/264/206 227/262/205 242/271/220 243/273/221
f 221/266/199 130/274/108 236/275/214
f 356/276/334 235/263/213 250/272/228
f 229/251/207 228/264/206 243/273/221 244/277/222
f 222/253/200 221/266/199 236/275/214 237/278/215
f 230/252/208 229/251/207 244/277/222 245/279/223
f 223/254/201 222/253/200 237/278/215 238/280/216
f 231/255/209 230/252/208 245/279/223 246/281/224
f 224/256/202 223/254/201 238/280/216 239/282/217
f 232/257/210 231/255/209 246/281/224 247/283/225
f 225/258/203 224/256/202 239/282/217 240/284/218
f 233/259/211 232/257/210 247/283/225 248/268/226
f 226/260/204 225/258/203 240/284/218 241/270/219
f 238/280/216 237/278/215 252/285/230 253/286/231
f 246/281/224 245/279/223 260/287/238 261/288/239
f 239/282/217 238/280/216 253/286/231 254/289/232
f 247/283/225 246/281/224 261/288/239 262/290/240
f 240/284/218 239/282/217 254/289/232 255/291/233
f 248/268/226 247/283/225 262/290/240 263/292/241
f 241/270/219 240/284/218 255/291/233 256/293/234
f 249/269/227 248/268/226 263/292/241 264/294/242
f 242/271/220 241/270/219 256/293/234 257/295/235
f 250/272/228 249/269/227 264/294/242 265/296/243
f 243/273/221 242/271/220 257/295/235 258/297/236
f 236/275/214 130/298/108 251/299/229
f 356/300/334 250/272/228 265/296/243
f 244/277/222 243/273/221 258/297/236 259/301/237
f 237/278/215 236/275/214 251/299/229 252/285/230
f 245/279/223 244/277/222 259/301/237 260/287/238
f 257/295/235 256/293/234 271/302/249 272/303/250
f 265/296/243 264/294/242 279/304/257 280/305/258
f 258/297/236 257/295/235 272/303/250 273/306/251
f 251/299/229 130/307/108 266/308/244
f 356/309/334 265/296/243 280/305/258
f 259/301/237 258/297/236 273/306/251 274/310/252
f 252/285/230 251/299/229 266/308/244 267/311/245
f 260/287/238 259/301/237 274/310/252 275/312/253
f 253/286/231 252/285/230 267/311/245 268/313/246
f 261/288/239 260/287/238 275/312/253 276/314/254
f 254/289/232 253/286/231 268/313/246 269/315/247
f 262/290/240 261/288/239 276/314/254 277/316/255
f 255/291/233 254/289/232 269/315/247 270/317/248
f 263/292/241 262/290/240 277/316/255 278/318/256
f 256/293/234 255/291/233 270/317/248 271/302/249
f 264/294/242 263/292/241 278/318/256 279/304/257
f 276/314/254 275/312/253 290/319/268 291/320/269
f 269/315/247 268/313/246 283/321/261 284/322/262
f 277/316/255 276/314/254 291/320/269 292/323/270
f 270/317/248 269/315/247 284/322/262 285/324/263
f 278/318/256 277/316/255 292/323/270 293/325/271
f 271/302/249 270/317/248 285/324/263 286/326/264
f 279/304/257 278/318/256 293/325/271 294/327/272
f 272/303/250 271/302/249 286/326/264 287/328/265
f 280/305/258 279/304/257 294/327/272 295/329/273
f 273/306/251 272/303/250 287/328/265 288/330/266
f 266/308/244 130/331/108 281/332/259
f 356/333/334 280/305/258 295/329/273
f 274/310/252 273/306/251 288/330/266 289/334/267
f 267/311/245 266/308/244 281/332/259 282/335/260
f 275/312/253 274/310/252 289/334/267 290/319/268
f 268/313/246 267/311/245 282/335/260 283/321/261
f 295/329/273 294/327/272 309/336/287 310/337/288
f 288/330/266 287/328/265 302/338/280 303/339/281
f 281/332/259 130/340/108 296/341/274
f 356/342/334 295/329/273 310/337/288
f 289/334/267 288/330/266 303/339/281 304/343/282
f 282/335/260 281/332/259 296/341/274 297/344/275
f 290/319/268 289/334/267 304/343/282 305/345/283
f 283/321/261 282/335/260 297/344/275 298/346/276
f 291/320/269 290/319/268 305/345/283 306/347/284
f 284/322/262 283/321/261 298/346/276 299/348/277
f 292/323/270 291/320/269 306/347/284 307/349/285
f 285/324/263 284/322/262 299/348/277 300/350/278
f 293/325/271 292/323/270 307/349/285 308/351/286
f 286/326/264 285/324/263 300/350/278 301/352/279
f 294/327/272 293/325/271 308/351/286 309/336/287
f 287/328/265 286/326/264 301/352/279 302/338/280
f 299/348/277 298/346/276 313/353/291 314/354/292
f 307/349/285 306/347/284 321/355/299 322/356/300
f 300/350/278 299/348/277 314/354/292 315/357/293
f 308/351/286 307/349/285 322/356/300 323/358/301
f 301/352/279 300/350/278 315/357/293 316/359/294
f 309/336/287 308/351/286 323/358/301 324/360/302
f 302/338/280 301/352/279 316/359/294 317/361/295
f 310/337/288 309/336/287 324/360/302 325/362/303
f 303/339/281 302/338/280 317/361/295 318/363/296
f 296/341/274 130/364/108 311/365/289
f 356/366/334 310/337/288 325/362/303
f 304/343/282 303/339/281 318/363/296 319/367/297
f 297/344/275 296/341/274 311/365/289 312/368/290
f 305/345/283 304/343/282 319/367/297 320/369/298
f 298/346/276 297/344/275 312/368/290 313/353/291
f 306/347/284 305/345/283 320/369/298 321/355/299
f 318/363/296 317/361/295 332/370/310 333/371/311
f 311/365/289 130/372/108 326/373/304
f 356/374/334 325/362/303 340/375/318
f 319/367/297 318/363/296 333/371/311 334/376/312
f 312/368/290 311/365/289 326/373/304 327/377/305
f 320/369/298 319/367/297 334/376/312 335/378/313
f 313/353/291 312/368/290 327/377/305 328/379/306
f 321/355/299 320/369/298 335/378/313 336/380/314
f 314/354/292 313/353/291 328/379/306 329/381/307
f 322/356/300 321/355/299 336/380/314 337/382/315
f 315/357/293 314/354/292 329/381/307 330/383/308
f 323/358/301 322/356/300 337/382/315 338/384/316
f 316/359/294 315/357/293 330/383/308 331/385/309
f 324/360/302 323/358/301 338/384/316 339/386/317
f 317/361/295 316/359/294 331/385/309 332/370/310
f 325/362/303 324/360/302 339/386/317 340/375/318
f 337/382/315 336/380/314 351/387/329 352/388/330
f 330/383/308 329/381/307 344/389/322 345/390/323
f 338/384/316 337/382/315 352/388/330 353/391/331
f 331/385/309 330/383/308 345/390/323 346/392/324
f 339/386/317 338/384/316 353/391/331 354/393/332
f 332/370/310 331/385/309 346/392/324 347/394/325
f 340/375/318 339/386/317 354/393/332 355/395/333
f 333/371/311 332/370/310 347/394/325 348/396/326
f 326/373/304 130/397/108 341/398/319
f 356/399/334 340/375/318 355/395/333
f 334/376/312 333/371/311 348/396/326 349/400/327
f 327/377/305 326/373/304 341/398/319 342/401/320
f 335/378/313 334/376/312 349/400/327 350/402/328
f 328/379/306 327/377/305 342/401/320 343/403/321
f 336/380/314 335/378/313 350/402/328 351/387/329
f 329/381/307 328/379/306 343/403/321 344/389/322
f 356/404/334 355/395/333 371/405/349
f 349/400/327 348/396/326 364/406/342 365/407/343
f 342/401/320 341/398/319 357/408/335 358/409/336
f 350/402/328 349/400/327 365/407/343 366/410/344
f 343/403/321 342/401/320 358/409/336 359/411/337
f 351/387/329 350/402/328 366/410/344 367/412/345
f 344/389/322 343/403/321 359/411/337 360/413/338
f 352/388/330 351/387/329 367/412/345 368/414/346
f 345/390/323 344/389/322 360/413/338 361/415/339
f 353/391/331 352/388/330 368/414/346 369/416/347
f 346/392/324 345/390/323 361/415/339 362/417/340
f 354/393/332 353/391/331 369/416/347 370/418/348
f 347/394/325 346/392/324 362/417/340 363/419/341
f 355/395/333 354/393/332 370/418/348 371/405/349
f 348/396/326 347/394/325 363/419/341 364/406/342
f 341/398/319 130/420/108 357/408/335
f 369/416/347 368/414/346 383/421/361 384/422/362
f 362/417/340 361/415/339 376/423/354 377/424/355
f 370/418/348 369/416/347 384/422/362 385/425/363
f 363/419/341 362/417/340 377/424/355 378/426/356
f 371/405/349 370/418/348 385/425/363 386/427/364
f 364/406/342 363/419/341 378/426/356 379/428/357
f 357/408/335 130/429/108 372/430/350
f 356/431/334 371/405/349 386/427/364
f 365/407/343 364/406/342 379/428/357 380/432/358
f 358/409/336 357/408/335 372/430/350 373/433/351
f 366/410/344 365/407/343 380/432/358 381/434/359
f 359/411/337 358/409/336 373/433/351 374/435/352
f 367/412/345 366/410/344 381/434/359 382/436/360
f 360/413/338 359/411/337 374/435/352 375/437/353
f 368/414/346 367/412/345 382/436/360 383/421/361
f 361/415/339 360/413/338 375/437/353 376/423/354
f 373/433/351 372/430/350 387/438/365 388/439/366
f 381/434/359 380/432/358 395/440/373 396/441/374
f 374/435/352 373/433/351 388/439/366 389/442/367
f 382/436/360 381/434/359 396/441/374 397/443/375
f 375/437/353 374/435/352 389/442/367 390/444/368
f 383/421/361 382/436/360 397/443/375 398/445/376
f 376/423/354 375/437/353 390/444/368 391/446/369
f 384/422/362 383/421/361 398/445/376 399/447/377
f 377/424/355 376/423/354 391/446/369 392/448/370
f 385/425/363 384/422/362 399/447/377 400/449/378
f 378/426/356 377/424/355 392/448/370 393/450/371
f 386/427/364 385/425/363 400/449/378 401/451/379
f 379/428/357 378/426/356 393/450/371 394/452/372
f 372/430/350 130/453/108 387/438/365
f 356/454/334 386/427/364 401/451/379
f 380/432/358 379/428/357 394/452/372 395/440/373
f 392/448/370 391/446/369 406/455/384 407/456/385
f 400/449/378 399/447/377 414/457/392 415/458/393
f 393/450/371 392/448/370 407/456/385 408/459/386
f 401/451/379 400/449/378 415/458/393 416/460/394
f 394/452/372 393/450/371 408/459/386 409/461/387
f 387/438/365 130/462/108 402/463/380
f 356/464/334 401/451/379 416/460/394
f 395/440/373 394/452/372 409/461/387 410/465/388
f 388/439/366 387/438/365 402/463/380 403/466/381
f 396/441/374 395/440/373 410/465/388 411/467/389
f 389/442/367 388/439/366 403/466/381 404/468/382
f 397/443/375 396/441/374 411/467/389 412/469/390
f 390/444/368 389/442/367 404/468/382 405/470/383
f 398/445/376 397/443/375 412/469/390 413/471/391
f 391/446/369 390/444/368 405/470/383 406/455/384
f 399/447/377 398/445/376 413/471/391 414/457/392
f 411/472/389 410/473/388 425/474/403 426/475/404
f 404/476/382 403/477/381 418/478/396 419/479/397
f 412/480/390 411/472/389 426/475/404 427/481/405
f 405/482/383 404/476/382 419/479/397 420/483/398
f 413/484/391 412/480/390 427/481/405 428/485/406
f 406/486/384 405/482/383 420/483/398 421/487/399
f 414/488/392 413/484/391 428/485/406 429/489/407
f 407/490/385 406/486/384 421/487/399 422/491/400
f 415/492/393 414/488/392 429/489/407 430/493/408
f 408/494/386 407/490/385 422/491/400 423/495/401
f 416/496/394 415/492/393 430/493/408 431/497/409
f 409/498/387 408/494/386 423/495/401 424/499/402
f 402/500/380 130/501/108 417/502/395
f 356/503/334 416/496/394 431/497/409
f 410/473/388 409/498/387 424/499/402 425/474/403
f 403/477/381 402/500/380 417/502/395 418/478/396
f 430/493/408 429/489/407 444/504/422 445/505/423
f 423/495/401 422/491/400 437/506/415 438/507/416
f 431/497/409 430/493/408 445/505/423 446/508/424
f 424/499/402 423/495/401 438/507/416 439/509/417
f 417/502/395 130/510/108 432/511/410
f 356/512/334 431/497/409 446/508/424
f 425/474/403 424/499/402 439/509/417 440/513/418
f 418/478/396 417/502/395 432/511/410 433/514/411
f 426/475/404 425/474/403 440/513/418 441/515/419
f 419/479/397 418/478/396 433/514/411 434/516/412
f 427/481/405 426/475/404 441/515/419 442/517/420
f 420/483/398 419/479/397 434/516/412 435/518/413
f 428/485/406 427/481/405 442/517/420 443/519/421
f 421/487/399 420/483/398 435/518/413 436/520/414
f 429/489/407 428/485/406 443/519/421 444/504/422
f 422/491/400 421/487/399 436/520/414 437/506/415
f 434/516/412 433/514/411 448/521/426 449/522/427
f 442/517/420 441/515/419 456/523/434 457/524/435
f 435/518/413 434/516/412 449/522/427 450/525/428
f 443/519/421 442/517/420 457/524/435 458/526/436
f 436/520/414 435/518/413 450/525/428 451/527/429
f 444/504/422 443/519/421 458/526/436 459/528/437
f 437/506/415 436/520/414 451/527/429 452/529/430
f 445/505/423 444/504/422 459/528/437 460/530/438
f 438/507/416 437/506/415 452/529/430 453/531/431
f 446/508/424 445/505/423 460/530/438 461/532/439
f 439/509/417 438/507/416 453/531/431 454/533/432
f 432/511/410 130/534/108 447/535/425
f 356/536/334 446/508/424 461/532/439
f 440/513/418 439/509/417 454/533/432 455/537/433
f 433/514/411 432/511/410 447/535/425 448/521/426
f 441/515/419 440/513/418 455/537/433 456/523/434
f 453/531/431 452/529/430 467/538/445 468/539/446
f 461/532/439 460/530/438 475/540/453 476/541/454
f 454/533/432 453/531/431 468/539/446 469/542/447
f 447/535/425 130/543/108 462/544/440
f 356/545/334 461/532/439 476/541/454
f 455/537/433 454/533/432 469/542/447 470/546/448
f 448/521/426 447/535/425 462/544/440 463/547/441
f 456/523/434 455/537/433 470/546/448 471/548/449
f 449/522/427 448/521/426 463/547/441 464/549/442
f 457/524/435 456/523/434 471/548/449 472/550/450
f 450/525/428 449/522/427 464/549/442 465/551/443
f 458/526/436 457/524/435 472/550/450 473/552/451
f 451/527/429 450/525/428 465/551/443 466/553/444
f 459/528/437 458/526/436 473/552/451 474/554/452
f 452/529/430 451/527/429 466/553/444 467/538/445
f 460/530/438 459/528/437 474/554/452 475/540/453
f 472/550/450 471/548/449 486/555/464 487/556/465
f 465/551/443 464/549/442 479/557/457 480/558/458
f 473/552/451 472/550/450 487/556/465 488/559/466
f 466/553/444 465/551/443 480/558/458 481/560/459
f 474/554/452 473/552/451 488/559/466 489/561/467
f 467/538/445 466/553/444 481/560/459 482/562/460
f 475/540/453 474/554/452 489/561/467 490/563/468
f 468/539/446 467/538/445 482/562/460 483/564/461
f 476/541/454 475/540/453 490/563/468 491/565/469
f 469/542/447 468/539/446 483/564/461 484/566/462
f 462/544/440 130/567/108 477/568/455
f 356/569/334 476/541/454 491/565/469
f 470/546/448 469/542/447 484/566/462 485/570/463
f 463/547/441 462/544/440 477/568/455 478/571/456
f 471/548/449 470/546/448 485/570/463 486/555/464
f 464/549/442 463/547/441 478/571/456 479/557/457
f 491/565/469 490/563/468 505/572/483 506/573/484
f 484/566/462 483/564/461 498/574/476 499/575/477
f 477/568/455 130/576/108 492/577/470
f 356/578/334 491/565/469 506/573/484
f 485/570/463 484/566/462 499/575/477 500/579/478
f 478/571/456 477/568/455 492/577/470 493/580/471
f 486/555/464 485/570/463 500/579/478 501/581/479
f 479/557/457 478/571/456 493/580/471 494/582/472
f 487/556/465 486/555/464 501/581/479 502/583/480
f 480/558/458 479/557/457 494/582/472 495/584/473
f 488/559/466 487/556/465 502/583/480 503/585/481
f 481/560/459 480/558/458 495/584/473 496/586/474
f 489/561/467 488/559/466 503/585/481 504/587/482
f 482/562/460 481/560/459 496/586/474 497/588/475
f 490/563/468 489/561/467 504/587/482 505/572/483
f 483/564/461 482/562/460 497/588/475 498/574/476
f 503/585/481 502/583/480 517/589/495 518/590/496
f 496/586/474 495/584/473 510/591/488 511/592/489
f 504/587/482 503/585/481 518/590/496 519/593/497
f 497/588/475 496/586/474 511/592/489 512/594/490
f 505/572/483 504/587/482 519/593/497 520/595/498
f 498/574/476 497/588/475 512/594/490 513/596/491
f 506/573/484 505/572/483 520/595/498 521/597/499
f 499/575/477 498/574/476 513/596/491 514/598/492
f 492/577/470 130/599/108 507/600/485
f 356/601/334 506/573/484 521/597/499
f 500/579/478 499/575/477 514/598/492 515/602/493
f 493/580/471 492/577/470 507/600/485 508/603/486
f 501/581/479 500/579/478 515/602/493 516/604/494
f 494/582/472 493/580/471 508/603/486 509/605/487
f 502/583/480 501/581/479 516/604/494 517/589/495
f 495/584/473 494/582/472 509/605/487 510/591/488
f 507/600/485 130/606/108 522/53/500
f 356/607/334 521/597/499 530/57/508
f 515/602/493 514/598/492 52/49/30 53/59/31
f 508/603/486 507/600/485 522/53/500 523/61/501
f 516/604/494 515/602/493 53/59/31 526/63/504
f 509/605/487 508/603/486 523/61/501 49/65/27
f 517/589/495 516/604/494 526/63/504 54/67/32
f 510/591/488 509/605/487 49/65/27 524/69/502
f 518/590/496 517/589/495 54/67/32 527/71/505
f 511/592/489 510/591/488 524/69/502 50/73/28
f 519/593/497 518/590/496 527/71/505 528/75/506
f 512/594/490 511/592/489 50/73/28 525/77/503
f 520/595/498 519/593/497 528/75/506 529/79/507
f 513/596/491 512/594/490 525/77/503 51/50/29
f 521/597/499 520/595/498 529/79/507 530/57/508
f 514/598/492 513/596/491 51/50/29 52/49/30
