# Blender 4.3.2
# www.blender.org
mtllib bomblock.mtl
o Regular_Bomb
v 0.080386 1.340318 0.194735
v 0.148535 1.340318 0.149200
v 0.194070 1.340318 0.081051
v 0.443103 0.841736 0.184204
v 0.649405 0.742356 0.269657
v 0.818488 0.608613 0.339694
v 0.957931 0.445647 0.397453
v 1.064792 0.259721 0.441716
v 1.123420 0.090048 0.466001
v 1.156034 -0.151826 0.479510
v 1.123420 -0.393699 0.466001
v 1.065072 -0.563372 0.441832
v 0.956052 -0.749299 0.396675
v 0.810664 -0.912265 0.336453
v 0.621459 -1.046007 0.258082
v 0.399360 -1.145387 0.166086
v 0.193834 -1.206585 0.080954
v 0.339136 0.841736 0.339801
v 0.497032 0.742356 0.497698
v 0.626443 0.608613 0.627108
v 0.733168 0.445647 0.733834
v 0.814956 0.259721 0.815622
v 0.859829 0.090048 0.860494
v 0.884790 -0.151826 0.885455
v 0.859829 -0.393699 0.860494
v 0.815170 -0.563372 0.815836
v 0.731731 -0.749299 0.732396
v 0.620455 -0.912265 0.621121
v 0.475644 -1.046007 0.476309
v 0.305657 -1.145387 0.306322
v 0.148354 -1.206585 0.149019
v 0.183539 0.841736 0.443767
v 0.268992 0.742356 0.650069
v 0.339028 0.608613 0.819152
v 0.396787 0.445647 0.958596
v 0.441051 0.259721 1.065457
v 0.465336 0.090048 1.124086
v 0.478845 -0.151826 1.156699
v 0.465336 -0.393699 1.124086
v 0.441167 -0.563372 1.065737
v 0.396009 -0.749299 0.956717
v 0.335788 -0.912265 0.811329
v 0.257416 -1.046007 0.622124
v 0.165420 -1.145387 0.400025
v 0.080289 -1.206585 0.194499
v -0.000000 0.841736 0.480276
v -0.000000 0.742356 0.703575
v -0.000000 0.608613 0.886589
v -0.000000 0.445647 1.037522
v -0.000000 0.259721 1.153188
v -0.000000 0.090048 1.216646
v -0.000000 -0.151826 1.251947
v -0.000000 -0.393699 1.216646
v -0.000000 -0.563372 1.153491
v -0.000000 -0.749299 1.035488
v -0.000000 -0.912265 0.878121
v -0.000000 -1.046007 0.673327
v -0.000000 -1.145387 0.432929
v -0.000000 -1.206585 0.210469
v -0.183539 0.841736 0.443767
v -0.268992 0.742356 0.650069
v -0.339029 0.608613 0.819152
v -0.396788 0.445647 0.958596
v -0.441052 0.259721 1.065457
v -0.465336 0.090048 1.124085
v -0.478845 -0.151826 1.156699
v -0.465336 -0.393699 1.124085
v -0.441168 -0.563372 1.065737
v -0.396010 -0.749299 0.956717
v -0.335788 -0.912265 0.811329
v -0.257417 -1.046007 0.622124
v -0.165421 -1.145387 0.400025
v -0.080289 -1.206585 0.194499
v -0.339136 0.841736 0.339801
v -0.497033 0.742356 0.497697
v -0.626443 0.608613 0.627108
v -0.733169 0.445647 0.733833
v -0.814957 0.259721 0.815621
v -0.859829 0.090048 0.860493
v -0.884791 -0.151826 0.885455
v -0.859829 -0.393699 0.860493
v -0.815171 -0.563372 0.815835
v -0.731731 -0.749299 0.732395
v -0.620456 -0.912265 0.621120
v -0.475644 -1.046007 0.476309
v -0.305657 -1.145387 0.306322
v -0.148354 -1.206585 0.149019
v -0.443103 0.841736 0.184204
v -0.649405 0.742356 0.269657
v -0.818487 0.608613 0.339693
v -0.957931 0.445648 0.397452
v -1.064792 0.259721 0.441716
v -1.123420 0.090048 0.466000
v -1.156034 -0.151825 0.479509
v -1.123420 -0.393699 0.466000
v -1.065072 -0.563372 0.441832
v -0.956052 -0.749299 0.396674
v -0.810664 -0.912264 0.336452
v -0.621459 -1.046007 0.258081
v -0.399360 -1.145387 0.166085
v -0.193834 -1.206585 0.080954
v 0.251051 1.048466 0.104654
v 0.192146 1.048466 0.192811
v 0.103989 1.048466 0.251716
v 0.000000 1.048466 0.272401
v -0.103989 1.048466 0.251716
v -0.192146 1.048466 0.192811
v -0.251051 1.048466 0.104653
v 0.000000 1.340318 0.210725
v 0.078098 1.369481 0.036097
v -0.080386 1.340318 0.194735
v 0.058179 1.369481 0.065908
v -0.148535 1.340318 0.149200
v 0.028368 1.369481 0.085828
v -0.194070 1.340318 0.081051
v -0.006797 1.369481 0.092822
v -0.041962 1.369481 0.085828
v 0.049732 1.579451 0.061635
v -0.071774 1.369481 0.065908
v -0.091693 1.369481 0.036097
v -0.107304 1.079009 0.259719
v 0.198272 1.079009 0.198937
v 0.259055 1.079009 0.107969
v -0.259055 1.079009 0.107969
v -0.198272 1.079009 0.198936
v 0.000000 1.079009 0.281063
v 0.107304 1.079009 0.259719
v 0.042113 1.520055 0.061635
v 0.060722 1.520055 0.033784
v 0.014262 1.520055 0.080244
v -0.018590 1.520055 0.086778
v -0.051442 1.520055 0.080244
v 0.062484 1.604909 0.061635
v -0.079292 1.520055 0.061635
v -0.097901 1.520055 0.033784
v 0.068090 1.576401 0.033784
v 0.022259 1.584018 0.080244
v -0.010148 1.589404 0.086778
v -0.042556 1.594790 0.080244
v -0.070029 1.599357 0.061635
v -0.088387 1.602408 0.033784
v 0.077710 1.594210 0.033784
v 0.039698 1.620922 0.080244
v 0.012819 1.639811 0.086778
v -0.014060 1.658700 0.080244
v 0.281186 1.753201 0.061635
v -0.036847 1.674712 0.061635
v -0.052073 1.685412 0.033784
v 0.170819 1.701380 0.057553
v 0.179923 1.686601 0.031575
v 0.157193 1.723496 0.074910
v 0.141120 1.749585 0.081005
v 0.125048 1.775675 0.074910
v 0.432968 1.764662 0.061635
v 0.111422 1.797792 0.057552
v 0.102318 1.812570 0.031575
v 0.283334 1.734715 0.033784
v 0.277971 1.780864 0.080244
v 0.274179 1.813497 0.086779
v 0.270387 1.846129 0.080244
v 0.555987 1.700763 0.056554
v 0.267173 1.873793 0.061635
v 0.265025 1.892278 0.033784
v 0.427590 1.746846 0.033784
v 0.441017 1.791323 0.080244
v 0.450512 1.822773 0.086779
v 0.460007 1.854223 0.080244
v 0.716769 1.532724 0.055747
v 0.468056 1.880885 0.061635
v 0.473434 1.898700 0.033784
v 0.546707 1.686458 0.031035
v 0.569876 1.722172 0.073606
v 0.586260 1.747426 0.079594
v 0.602643 1.772679 0.073606
v 0.765495 1.497601 0.055067
v 0.616532 1.794088 0.056554
v 0.625813 1.808393 0.031035
v 0.710098 1.517300 0.030598
v 0.726753 1.555806 0.072551
v 0.738530 1.583034 0.078452
v 0.750307 1.610262 0.072551
v 0.900759 1.439324 0.058762
v 0.760290 1.633344 0.055747
v 0.766961 1.648767 0.030598
v 0.759136 1.482272 0.030230
v 0.775011 1.520543 0.071663
v 0.786236 1.547606 0.077491
v 0.797461 1.574667 0.071663
v 0.943339 1.433846 0.058127
v 0.806977 1.597610 0.055067
v 0.813336 1.612939 0.030230
v 0.896089 1.422221 0.032229
v 0.907748 1.464919 0.076490
v 0.915991 1.495111 0.082716
v 0.924235 1.525303 0.076490
v 1.052790 1.438487 0.058727
v 0.931224 1.550899 0.058762
v 0.935894 1.568001 0.032229
v 0.940208 1.416595 0.031886
v 0.948025 1.459666 0.075660
v 0.953553 1.490121 0.081817
v 0.959081 1.520577 0.075660
v 1.113903 1.458105 0.052520
v 0.963767 1.546396 0.058127
v 0.966898 1.563648 0.031886
v 1.052728 1.420769 0.032211
v 1.052882 1.465003 0.076445
v 1.052991 1.496282 0.082667
v 1.053101 1.527560 0.076445
v 1.146659 1.471525 0.043967
v 1.053193 1.554076 0.058727
v 1.053255 1.571794 0.032211
v 1.113923 1.442290 0.028851
v 1.113872 1.481774 0.068335
v 1.113836 1.509694 0.073889
v 1.113800 1.537612 0.068335
v 1.113770 1.561281 0.052520
v 1.113750 1.577096 0.028851
v 1.146626 1.458332 0.024222
v 1.146709 1.491269 0.057159
v 1.146767 1.514560 0.061792
v 1.146825 1.537849 0.057159
v 1.146875 1.557594 0.043967
v 1.146908 1.570786 0.024222
v 0.094217 1.680666 0.077577
v 0.020894 1.757448 0.032679
v 0.112423 1.661602 0.059594
v 0.124588 1.648862 0.032680
v 0.033059 1.744709 0.059593
v 0.051265 1.725644 0.077577
v 0.072741 1.703156 0.083892
v 0.365197 1.859573 0.080244
v 0.362346 1.827533 0.086779
v 0.359494 1.795491 0.080244
v 0.369229 1.904886 0.033784
v 0.367614 1.886736 0.061635
v 0.357077 1.768328 0.061635
v 0.355462 1.750178 0.033784
v 0.183671 1.859472 0.032680
v 0.231629 1.717706 0.032680
v 0.189297 1.842840 0.059594
v 0.197718 1.817950 0.077577
v 0.207650 1.788589 0.083892
v 0.217582 1.759228 0.077577
v 0.226003 1.734338 0.059594
v 0.527783 1.794497 0.083918
v 0.512915 1.766438 0.077601
v 0.563678 1.862236 0.032689
v 0.500310 1.742651 0.059612
v 0.491888 1.726757 0.032689
v 0.555255 1.846342 0.059612
v 0.542651 1.822555 0.077601
v 0.687659 1.731813 0.028336
v 0.613638 1.622139 0.028336
v 0.678975 1.718946 0.051568
v 0.665979 1.699690 0.067091
v 0.650648 1.676976 0.072541
v 0.635318 1.654262 0.067091
v 0.622321 1.635005 0.051568
v 0.085093 1.369481 0.000665
v 0.080386 1.340318 -0.193406
v 0.148535 1.340318 -0.147870
v 0.479611 0.841736 0.000665
v 0.702910 0.742356 0.000665
v 0.885925 0.608613 0.000665
v 1.036857 0.445647 0.000665
v 1.152523 0.259721 0.000665
v 1.215982 0.090048 0.000665
v 1.251282 -0.151826 0.000665
v 1.215982 -0.393699 0.000665
v 1.152825 -0.563372 0.000665
v 1.034824 -0.749299 0.000665
v 0.877456 -0.912265 0.000665
v 0.672662 -1.046007 0.000665
v 0.432264 -1.145387 0.000665
v 0.209805 -1.206585 0.000665
v 0.194070 1.340318 -0.079722
v 0.443103 0.841736 -0.182875
v 0.649405 0.742356 -0.268328
v 0.818488 0.608613 -0.338364
v 0.957931 0.445647 -0.396124
v 1.064792 0.259721 -0.440387
v 1.123420 0.090048 -0.464672
v 1.156034 -0.151826 -0.478181
v 1.123420 -0.393699 -0.464672
v 1.065072 -0.563372 -0.440503
v 0.956052 -0.749299 -0.395346
v 0.810664 -0.912265 -0.335124
v 0.621459 -1.046007 -0.256753
v 0.399360 -1.145387 -0.164756
v 0.193834 -1.206585 -0.079624
v 0.339136 0.841736 -0.338472
v 0.497033 0.742356 -0.496368
v 0.626443 0.608613 -0.625779
v 0.733168 0.445647 -0.732504
v 0.814957 0.259721 -0.814292
v 0.859829 0.090048 -0.859165
v 0.884790 -0.151826 -0.884126
v 0.859829 -0.393699 -0.859165
v 0.815170 -0.563372 -0.814507
v 0.731731 -0.749299 -0.731067
v 0.620455 -0.912265 -0.619791
v 0.475644 -1.046007 -0.474980
v 0.305657 -1.145387 -0.304993
v 0.148354 -1.206585 -0.147690
v 0.210060 1.340318 0.000665
v 0.183539 0.841736 -0.442439
v 0.268992 0.742356 -0.648740
v 0.339029 0.608613 -0.817823
v 0.396788 0.445647 -0.957267
v 0.441051 0.259721 -1.064128
v 0.465336 0.090048 -1.122756
v 0.478845 -0.151826 -1.155370
v 0.465336 -0.393699 -1.122756
v 0.441167 -0.563372 -1.064408
v 0.396009 -0.749299 -0.955388
v 0.335788 -0.912265 -0.810000
v 0.257416 -1.046007 -0.620795
v 0.165420 -1.145387 -0.398696
v 0.080289 -1.206585 -0.193170
v -0.000000 0.841736 -0.478947
v -0.000000 0.742356 -0.702246
v 0.000000 0.608613 -0.885260
v -0.000000 0.445647 -1.036193
v -0.000000 0.259721 -1.151858
v -0.000000 0.090048 -1.215317
v -0.000000 -0.151826 -1.250618
v -0.000000 -0.393699 -1.215317
v -0.000000 -0.563372 -1.152161
v -0.000000 -0.749299 -1.034159
v -0.000000 -0.912265 -0.876792
v -0.000000 -1.046007 -0.671998
v -0.000000 -1.145387 -0.431600
v -0.000000 -1.206585 -0.209140
v -0.183539 0.841736 -0.442438
v -0.268992 0.742356 -0.648740
v -0.339029 0.608613 -0.817823
v -0.396788 0.445647 -0.957267
v -0.441051 0.259721 -1.064128
v -0.465336 0.090048 -1.122756
v -0.478845 -0.151826 -1.155370
v -0.465336 -0.393699 -1.122756
v -0.441168 -0.563372 -1.064407
v -0.396010 -0.749299 -0.955388
v -0.335788 -0.912265 -0.810000
v -0.257417 -1.046007 -0.620795
v -0.165421 -1.145387 -0.398696
v -0.080289 -1.206585 -0.193170
v -0.339136 0.841736 -0.338472
v -0.497033 0.742356 -0.496368
v -0.626443 0.608613 -0.625779
v -0.733169 0.445647 -0.732504
v -0.814957 0.259721 -0.814292
v -0.859829 0.090048 -0.859164
v -0.884790 -0.151826 -0.884126
v -0.859829 -0.393699 -0.859164
v -0.815171 -0.563372 -0.814506
v -0.731731 -0.749299 -0.731066
v -0.620456 -0.912265 -0.619791
v -0.475644 -1.046007 -0.474980
v -0.305657 -1.145387 -0.304993
v -0.148354 -1.206585 -0.147690
v -0.443103 0.841736 -0.182875
v -0.649404 0.742356 -0.268328
v -0.818487 0.608613 -0.338364
v -0.957931 0.445648 -0.396123
v -1.064792 0.259721 -0.440387
v -1.123420 0.090048 -0.464671
v -1.156034 -0.151825 -0.478181
v -1.123420 -0.393699 -0.464671
v -1.065072 -0.563372 -0.440503
v -0.956052 -0.749299 -0.395345
v -0.810664 -0.912264 -0.335124
v -0.621459 -1.046007 -0.256752
v -0.399360 -1.145387 -0.164756
v -0.193834 -1.206585 -0.079625
v -0.479611 0.841736 0.000664
v -0.702910 0.742356 0.000664
v -0.885924 0.608613 0.000664
v -1.036857 0.445648 0.000664
v -1.152522 0.259721 0.000664
v -1.215981 0.090048 0.000664
v -1.251282 -0.151825 0.000664
v -1.215981 -0.393699 0.000664
v -1.152825 -0.563372 0.000664
v -1.034824 -0.749299 0.000664
v -0.877456 -0.912264 0.000664
v -0.672662 -1.046007 0.000664
v -0.432265 -1.145387 0.000664
v -0.209805 -1.206585 0.000664
v -0.000000 -1.227249 0.000664
v 0.271736 1.048466 0.000665
v 0.251051 1.048466 -0.103324
v 0.192146 1.048466 -0.191482
v 0.103989 1.048466 -0.250387
v 0.000000 1.048466 -0.271071
v -0.103989 1.048466 -0.250387
v -0.192146 1.048466 -0.191482
v -0.251051 1.048466 -0.103325
v -0.271736 1.048466 0.000664
v 0.000000 1.340318 -0.209395
v 0.078098 1.369481 -0.034768
v -0.080386 1.340318 -0.193406
v 0.058179 1.369481 -0.064580
v -0.148535 1.340318 -0.147870
v 0.028368 1.369481 -0.084499
v -0.194070 1.340318 -0.079722
v -0.006797 1.369481 -0.091494
v -0.210060 1.340318 0.000664
v -0.041962 1.369481 -0.084499
v 0.049732 1.579451 -0.060305
v -0.071774 1.369481 -0.064579
v -0.091693 1.369481 -0.034768
v -0.280398 1.079009 0.000664
v 0.280399 1.079009 0.000665
v -0.107304 1.079009 -0.258390
v 0.198272 1.079009 -0.197607
v 0.259055 1.079009 -0.106640
v -0.259055 1.079009 -0.106640
v -0.198272 1.079009 -0.197608
v 0.000000 1.079009 -0.279734
v 0.107304 1.079009 -0.258390
v 0.042113 1.520055 -0.060305
v 0.060722 1.520055 -0.032455
v 0.067256 1.520055 0.000665
v -0.104436 1.520055 0.000664
v 0.014262 1.520055 -0.078915
v -0.018590 1.520055 -0.085449
v -0.051442 1.520055 -0.078915
v 0.062484 1.604909 -0.060305
v -0.079292 1.520055 -0.060306
v -0.097901 1.520055 -0.032455
v 0.068090 1.576401 -0.032455
v 0.074536 1.575329 0.000665
v -0.094833 1.603479 0.000664
v 0.022259 1.584018 -0.078915
v -0.010148 1.589404 -0.085449
v -0.042556 1.594790 -0.078915
v -0.070029 1.599357 -0.060306
v -0.088387 1.602408 -0.032455
v 0.077710 1.594210 -0.032455
v 0.083057 1.590453 0.000665
v -0.057419 1.689169 0.000664
v 0.039698 1.620922 -0.078915
v 0.012819 1.639811 -0.085449
v -0.014060 1.658700 -0.078915
v 0.281186 1.753201 -0.060305
v -0.036847 1.674712 -0.060305
v -0.052073 1.685412 -0.032455
v 0.170819 1.701380 -0.056223
v 0.179923 1.686601 -0.030246
v 0.183120 1.681412 0.000665
v 0.099121 1.817760 0.000665
v 0.157193 1.723496 -0.073581
v 0.141120 1.749585 -0.079676
v 0.125048 1.775675 -0.073581
v 0.432968 1.764662 -0.060305
v 0.111422 1.797792 -0.056223
v 0.102318 1.812570 -0.030246
v 0.283334 1.734715 -0.032455
v 0.284088 1.728225 0.000665
v 0.264270 1.898769 0.000665
v 0.277971 1.780864 -0.078915
v 0.274179 1.813497 -0.085449
v 0.270387 1.846129 -0.078915
v 0.555987 1.700763 -0.055225
v 0.267173 1.873793 -0.060305
v 0.265025 1.892278 -0.032455
v 0.427590 1.746846 -0.032455
v 0.425701 1.740591 0.000665
v 0.475323 1.904956 0.000665
v 0.441017 1.791323 -0.078915
v 0.450512 1.822773 -0.085449
v 0.460007 1.854223 -0.078914
v 0.716769 1.532724 -0.054418
v 0.468056 1.880885 -0.060305
v 0.473434 1.898700 -0.032455
v 0.546707 1.686458 -0.029705
v 0.543448 1.681435 0.000665
v 0.629072 1.813416 0.000665
v 0.569876 1.722172 -0.072277
v 0.586260 1.747426 -0.078264
v 0.602643 1.772679 -0.072277
v 0.765495 1.497601 -0.053738
v 0.616532 1.794088 -0.055225
v 0.625813 1.808393 -0.029705
v 0.710098 1.517300 -0.029268
v 0.707755 1.511884 0.000665
v 0.769304 1.654183 0.000665
v 0.726753 1.555806 -0.071222
v 0.738530 1.583034 -0.077123
v 0.750307 1.610262 -0.071222
v 0.900759 1.439324 -0.057433
v 0.760290 1.633344 -0.054418
v 0.766961 1.648767 -0.029268
v 0.759136 1.482272 -0.028901
v 0.756903 1.476889 0.000665
v 0.815569 1.618322 0.000665
v 0.775011 1.520543 -0.070334
v 0.786236 1.547606 -0.076162
v 0.797461 1.574667 -0.070334
v 0.943339 1.433846 -0.056797
v 0.806977 1.597610 -0.053738
v 0.813336 1.612939 -0.028901
v 0.896089 1.422221 -0.030900
v 0.894449 1.416216 0.000665
v 0.937534 1.574007 0.000665
v 0.907748 1.464919 -0.075161
v 0.915991 1.495111 -0.081386
v 0.924235 1.525303 -0.075161
v 1.052790 1.438487 -0.057398
v 0.931224 1.550899 -0.057433
v 0.935894 1.568001 -0.030900
v 0.940208 1.416595 -0.030556
v 0.939109 1.410537 0.000665
v 0.967997 1.569706 0.000665
v 0.948025 1.459666 -0.074331
v 0.953553 1.490121 -0.080488
v 0.959081 1.520577 -0.074331
v 1.113903 1.458105 -0.051191
v 0.963767 1.546396 -0.056797
v 0.966898 1.563648 -0.030556
v 1.052728 1.420769 -0.030881
v 1.052706 1.414547 0.000665
v 1.053276 1.578015 0.000665
v 1.052882 1.465003 -0.075116
v 1.052991 1.496282 -0.081337
v 1.053101 1.527560 -0.075116
v 1.146659 1.471525 -0.042637
v 1.053193 1.554076 -0.057398
v 1.053255 1.571794 -0.030881
v 1.113923 1.442290 -0.027522
v 1.113930 1.436737 0.000665
v 1.113742 1.582649 0.000665
v 1.113872 1.481774 -0.067006
v 1.113836 1.509694 -0.072559
v 1.113800 1.537612 -0.067006
v 1.113770 1.561281 -0.051191
v 1.113750 1.577096 -0.027522
v 1.146626 1.458332 -0.022893
v 1.146615 1.453700 0.000665
v 1.146919 1.575419 0.000665
v 1.146709 1.491269 -0.055830
v 1.146767 1.514560 -0.060463
v 1.146825 1.537849 -0.055830
v 1.165153 1.513480 0.000665
v 1.146875 1.557594 -0.042637
v 1.146908 1.570786 -0.022893
v 0.094217 1.680666 -0.076248
v 0.016622 1.761921 0.000665
v 0.128860 1.644389 0.000665
v 0.020894 1.757448 -0.031351
v 0.112423 1.661602 -0.058264
v 0.124588 1.648862 -0.031350
v 0.033059 1.744709 -0.058265
v 0.051265 1.725644 -0.076248
v 0.072741 1.703156 -0.082563
v 0.365197 1.859573 -0.078915
v 0.362346 1.827533 -0.085449
v 0.359494 1.795491 -0.078915
v 0.369797 1.911260 0.000665
v 0.354895 1.743805 0.000665
v 0.369229 1.904886 -0.032455
v 0.367614 1.886736 -0.060305
v 0.357077 1.768328 -0.060305
v 0.355462 1.750178 -0.032455
v 0.181695 1.865312 0.000665
v 0.233604 1.711866 0.000665
v 0.183671 1.859472 -0.031350
v 0.231629 1.717706 -0.031350
v 0.189297 1.842840 -0.058264
v 0.197718 1.817950 -0.076248
v 0.207650 1.788589 -0.082563
v 0.217582 1.759228 -0.076248
v 0.226003 1.734338 -0.058264
v 0.527783 1.794497 -0.082588
v 0.512915 1.766438 -0.076271
v 0.566635 1.867817 0.000665
v 0.488931 1.721176 0.000665
v 0.563678 1.862236 -0.031360
v 0.500310 1.742651 -0.058283
v 0.491888 1.726757 -0.031360
v 0.555255 1.846342 -0.058282
v 0.542651 1.822555 -0.076271
v 0.690709 1.736331 0.000665
v 0.610588 1.617621 0.000665
v 0.687659 1.731813 -0.027007
v 0.613638 1.622139 -0.027007
v 0.678975 1.718946 -0.050238
v 0.665979 1.699690 -0.065761
v 0.650648 1.676976 -0.071212
v 0.635318 1.654262 -0.065761
v 0.622321 1.635005 -0.050238
v -0.098688 1.369481 0.000664
vn 0.2826 0.6843 0.6722
vn 0.0008 0.6840 0.7294
vn 0.2792 0.6857 0.6722
vn 0.5106 0.6949 0.5065
vn 0.5142 0.6870 0.5134
vn -0.7103 0.6389 0.2955
vn -0.7125 0.0334 0.7008
vn -0.9252 0.0367 0.3776
vn 0.6588 0.7020 0.2706
vn 0.6706 0.6879 0.2775
vn 0.7103 0.7039 -0.0000
vn 0.7254 0.6883 -0.0000
vn 0.3311 -0.9436 -0.0000
vn 0.1779 -0.9813 0.0737
vn 0.1925 -0.9813 -0.0000
vn 1.0000 -0.0000 -0.0000
vn 0.8956 0.2456 0.3710
vn 0.9239 -0.0000 0.3827
vn -0.0000 -1.0000 -0.0000
vn 0.8957 -0.2449 0.3710
vn 0.9695 -0.2449 -0.0000
vn 0.8981 -0.4397 -0.0000
vn 0.8298 -0.4397 0.3437
vn 0.5109 0.8596 -0.0000
vn 0.5076 0.8355 0.2103
vn 0.4720 0.8596 0.1955
vn 0.7906 -0.6124 -0.0000
vn 0.7304 -0.6124 0.3025
vn 0.6715 0.7410 -0.0000
vn 0.6204 0.7410 0.2570
vn 0.5961 -0.7640 0.2469
vn 0.6452 -0.7640 -0.0000
vn 0.7384 0.6010 0.3059
vn 0.7993 0.6010 -0.0000
vn 0.4754 -0.8797 -0.0000
vn 0.4392 -0.8797 0.1819
vn 0.8312 0.4366 0.3443
vn 0.8996 0.4366 -0.0000
vn 0.3059 -0.9436 0.1267
vn 0.9694 0.2456 -0.0000
vn 0.4748 0.7410 0.4748
vn 0.4562 -0.7640 0.4562
vn 0.5652 0.6010 0.5652
vn 0.3362 -0.8797 0.3362
vn 0.6361 0.4366 0.6361
vn 0.2341 -0.9436 0.2341
vn 0.6854 0.2457 0.6854
vn 0.1361 -0.9813 0.1361
vn 0.7071 -0.0000 0.7071
vn 0.6856 -0.2449 0.6856
vn 0.6351 -0.4397 0.6351
vn 0.3613 0.8596 0.3613
vn 0.5590 -0.6124 0.5590
vn 0.3710 0.2456 0.8956
vn 0.3827 -0.0000 0.9239
vn 0.0737 -0.9813 0.1779
vn 0.3710 -0.2449 0.8957
vn 0.3437 -0.4397 0.8298
vn 0.3885 0.8355 0.3885
vn 0.1955 0.8596 0.4720
vn 0.3025 -0.6124 0.7304
vn 0.2570 0.7410 0.6204
vn 0.2469 -0.7640 0.5961
vn 0.3059 0.6010 0.7384
vn 0.1819 -0.8797 0.4392
vn 0.3443 0.4366 0.8312
vn 0.1267 -0.9436 0.3059
vn -0.0000 -0.7640 0.6452
vn -0.0000 0.7410 0.6715
vn -0.0000 0.6010 0.7993
vn -0.0000 -0.8797 0.4754
vn -0.0000 0.4366 0.8996
vn -0.0000 -0.9436 0.3311
vn -0.0000 0.2456 0.9694
vn -0.0000 -0.9813 0.1925
vn -0.0000 -0.0000 1.0000
vn -0.0000 -0.2449 0.9695
vn 0.0042 0.6714 0.7411
vn 0.3717 0.0118 0.9283
vn -0.0123 0.0205 0.9997
vn -0.0000 -0.4397 0.8982
vn -0.0000 0.8355 0.5495
vn -0.0000 0.8596 0.5109
vn -0.0000 -0.6124 0.7906
vn -0.0737 -0.9813 0.1779
vn -0.3827 -0.0000 0.9239
vn -0.3710 -0.2449 0.8957
vn -0.3437 -0.4397 0.8298
vn -0.1955 0.8596 0.4720
vn -0.3025 -0.6124 0.7304
vn -0.2570 0.7410 0.6204
vn -0.2469 -0.7640 0.5961
vn -0.3059 0.6010 0.7384
vn -0.1819 -0.8797 0.4392
vn -0.3443 0.4366 0.8312
vn -0.1267 -0.9436 0.3059
vn -0.3710 0.2456 0.8956
vn 0.6808 0.2700 0.6808
vn -0.4562 -0.7640 0.4562
vn -0.3362 -0.8797 0.3362
vn -0.6361 0.4366 0.6361
vn -0.2341 -0.9436 0.2341
vn -0.6854 0.2456 0.6854
vn -0.1361 -0.9813 0.1361
vn -0.7071 -0.0000 0.7071
vn -0.5495 0.8355 -0.0000
vn -0.8896 0.2700 0.3685
vn -0.9629 0.2700 -0.0000
vn -0.6856 -0.2449 0.6856
vn -0.6351 -0.4397 0.6351
vn -0.2103 0.8355 0.5076
vn -0.3613 0.8596 0.3613
vn -0.5590 -0.6124 0.5590
vn -0.4748 0.7410 0.4748
vn -0.5652 0.6010 0.5652
vn -0.8957 -0.2449 0.3710
vn -0.8298 -0.4397 0.3437
vn -0.3885 0.8355 0.3885
vn -0.4720 0.8596 0.1955
vn -0.7304 -0.6124 0.3025
vn -0.6204 0.7410 0.2570
vn -0.5961 -0.7640 0.2469
vn -0.7384 0.6010 0.3059
vn -0.4392 -0.8797 0.1819
vn -0.8312 0.4366 0.3443
vn -0.3059 -0.9436 0.1267
vn -0.8956 0.2456 0.3710
vn -0.1779 -0.9813 0.0737
vn -0.9239 -0.0000 0.3827
vn -0.5076 0.8355 0.2103
vn -0.8996 0.4366 -0.0000
vn -0.4754 -0.8797 -0.0000
vn -0.3311 -0.9436 -0.0000
vn -0.9694 0.2456 -0.0000
vn -0.1925 -0.9813 -0.0000
vn -1.0000 -0.0000 -0.0000
vn 0.2103 0.8355 0.5076
vn 0.3685 0.2700 0.8896
vn -0.9695 -0.2449 -0.0000
vn -0.8982 -0.4397 -0.0000
vn -0.5109 0.8596 -0.0000
vn -0.7906 -0.6124 -0.0000
vn -0.6715 0.7410 -0.0000
vn -0.6452 -0.7640 -0.0000
vn -0.7993 0.6010 -0.0000
vn -0.0000 0.2700 0.9628
vn -0.3685 0.2700 0.8896
vn -0.6808 0.2700 0.6808
vn 0.5495 0.8355 -0.0000
vn 0.8896 0.2700 0.3685
vn -0.7071 -0.0065 0.7071
vn -0.2791 0.6823 0.6757
vn -0.5175 0.6809 0.5183
vn 1.0000 -0.0065 -0.0000
vn 0.9239 -0.0065 0.3827
vn -1.0000 -0.0065 -0.0000
vn -0.6774 0.6799 0.2809
vn -0.7336 0.6795 -0.0000
vn 0.7071 -0.0065 0.7071
vn 0.3827 -0.0065 0.9239
vn -0.3827 -0.0065 0.9239
vn -0.9239 -0.0065 0.3827
vn -0.0000 -0.0065 1.0000
vn -0.5372 0.6466 0.5416
vn -0.3927 0.0279 0.9192
vn -0.2845 0.6581 0.6971
vn 0.7004 0.0031 0.7137
vn 1.0000 -0.0063 -0.0000
vn 0.9221 -0.0037 0.3869
vn -0.7719 0.6357 -0.0000
vn -0.9993 0.0379 -0.0000
vn -0.9660 0.2586 -0.0000
vn 0.8763 -0.2829 0.3898
vn -0.8955 0.2408 0.3742
vn 0.6679 -0.2028 0.7161
vn -0.6924 0.1887 0.6964
vn -0.3851 0.1077 0.9166
vn -0.0178 0.0067 0.9998
vn 0.3532 -0.1015 0.9300
vn -0.5884 0.4112 0.6962
vn -0.3242 0.2354 0.9162
vn -0.0075 0.0239 0.9997
vn 0.3132 -0.1938 0.9297
vn -0.8234 0.5675 -0.0000
vn 0.9484 -0.3170 -0.0000
vn 0.7610 -0.5219 0.3855
vn -0.7629 0.5272 0.3742
vn 0.5846 -0.3859 0.7136
vn 0.2703 -0.2613 0.9267
vn -0.0032 0.0029 1.0000
vn 0.0162 0.0340 0.9993
vn 0.4828 -0.5137 0.7092
vn 0.2044 -0.3235 0.9239
vn -0.5866 0.7197 0.3713
vn -0.5303 0.8478 -0.0000
vn -0.6340 0.7733 -0.0000
vn 0.6694 -0.7429 -0.0000
vn 0.4992 -0.7786 0.3802
vn 0.6218 -0.6834 0.3826
vn -0.4485 0.5636 0.6937
vn -0.4915 0.7849 0.3773
vn 0.3812 -0.5977 0.7053
vn -0.2372 0.3241 0.9158
vn -0.3790 0.6031 0.7018
vn -0.2082 0.3289 0.9211
vn -0.4377 0.8991 -0.0000
vn -0.2331 0.8979 0.3734
vn -0.2477 0.9688 -0.0000
vn 0.3777 -0.8445 0.3797
vn 0.2629 -0.9648 -0.0000
vn 0.2398 -0.8929 0.3812
vn -0.4101 0.8340 0.3693
vn -0.1892 0.6928 0.6959
vn 0.2744 -0.6530 0.7059
vn 0.1741 -0.6846 0.7078
vn -0.3288 0.6432 0.6915
vn -0.1174 0.3815 0.9169
vn -0.2014 0.3500 0.9148
vn -0.0237 0.0084 0.9997
vn -0.0422 -0.0034 0.9991
vn 0.0797 -0.3678 0.9265
vn 0.1257 -0.3579 0.9253
vn -0.0242 0.7209 0.6926
vn 0.0955 0.3865 0.9173
vn 0.1617 0.6981 0.6976
vn -0.0168 0.4008 0.9160
vn 0.0192 0.0129 0.9997
vn -0.0016 0.0130 0.9999
vn -0.0550 -0.3664 0.9288
vn 0.0223 -0.3790 0.9251
vn -0.1159 -0.6911 0.7134
vn -0.0280 0.9996 -0.0000
vn 0.2066 0.9037 0.3750
vn 0.2224 0.9749 -0.0000
vn 0.0761 -0.9225 0.3784
vn -0.1692 -0.9856 -0.0000
vn -0.1555 -0.9092 0.3862
vn -0.0272 0.9286 0.3701
vn 0.0511 -0.7077 0.7046
vn 0.0505 -0.0041 0.9987
vn 0.3238 0.2509 0.9123
vn 0.2338 0.3268 0.9157
vn -0.1365 -0.3397 0.9306
vn 0.0638 -0.0307 0.9975
vn -0.2983 -0.6287 0.7181
vn -0.2037 -0.3147 0.9271
vn 0.4878 0.7884 0.3748
vn 0.7205 0.6935 -0.0000
vn 0.5229 0.8524 -0.0000
vn -0.4473 -0.8944 -0.0000
vn -0.5875 -0.7128 0.3831
vn -0.4085 -0.8250 0.3905
vn 0.3866 0.6042 0.6967
vn 0.6735 0.6401 0.3697
vn -0.4337 -0.5544 0.7103
vn 0.5361 0.4856 0.6905
vn 0.7003 0.6104 0.3702
vn 0.6708 0.7417 -0.0000
vn 0.7535 0.6574 -0.0000
vn -0.7144 -0.6998 -0.0000
vn -0.6155 -0.6989 0.3644
vn -0.6630 -0.6488 0.3735
vn 0.5439 0.4720 0.6939
vn 0.6199 0.6912 0.3713
vn -0.4864 -0.5417 0.6855
vn -0.5114 -0.5010 0.6981
vn 0.3020 0.2559 0.9183
vn 0.4712 0.5393 0.6979
vn 0.0116 -0.0086 0.9999
vn 0.2434 0.2970 0.9233
vn -0.2758 -0.2764 0.9206
vn -0.0246 -0.0003 0.9997
vn -0.2817 -0.2974 0.9122
vn 0.3356 0.6153 0.7133
vn 0.1714 0.3279 0.9290
vn -0.0193 -0.0092 0.9998
vn -0.2054 -0.3427 0.9167
vn 0.4847 0.8747 -0.0000
vn -0.6589 -0.7522 -0.0000
vn -0.4588 -0.8060 0.3740
vn 0.4461 0.8076 0.3857
vn -0.3587 -0.6216 0.6964
vn 0.0872 0.3586 0.9294
vn -0.0104 -0.0127 0.9999
vn -0.1087 -0.3795 0.9188
vn 0.2420 0.9703 -0.0000
vn -0.4932 -0.8699 -0.0000
vn -0.2481 -0.8923 0.3771
vn 0.2233 0.8940 0.3884
vn -0.1922 -0.6875 0.7002
vn 0.1692 0.6777 0.7156
vn 0.0215 0.9234 0.3832
vn 0.0202 0.9998 -0.0000
vn -0.0465 -0.9989 -0.0000
vn -0.0413 -0.9261 0.3749
vn 0.0228 0.7038 0.7100
vn -0.0272 -0.7157 0.6979
vn 0.0194 0.3740 0.9272
vn 0.0085 -0.0136 0.9999
vn -0.0086 -0.3965 0.9180
vn 0.1797 -0.9106 0.3721
vn 0.1568 -0.7032 0.6935
vn 0.0130 0.3757 0.9266
vn -0.0382 0.7028 0.7104
vn 0.0687 -0.0087 0.9976
vn 0.1188 -0.3879 0.9140
vn -0.0739 0.9205 0.3836
vn -0.0866 0.9962 -0.0000
vn 0.1873 -0.9823 -0.0000
vn 0.2403 0.0068 0.9707
vn 0.1752 0.3822 0.9073
vn 0.3034 -0.3586 0.8828
vn 0.3546 -0.6575 0.6648
vn 0.0811 0.9220 0.3787
vn 0.0677 0.9977 -0.0000
vn 0.3987 -0.9171 -0.0000
vn 0.3875 -0.8510 0.3546
vn 0.1189 0.7050 0.6991
vn 0.7318 -0.4776 0.4861
vn 0.7176 -0.2590 0.6465
vn 0.6550 0.6998 0.2849
vn 0.6515 0.7586 -0.0000
vn 0.7442 -0.6680 -0.0000
vn 0.7408 -0.6196 0.2594
vn 0.6660 0.5323 0.5225
vn 0.6819 0.2880 0.6723
vn 0.7001 0.0092 0.7140
vn 1.0000 -0.0073 -0.0000
vn 0.8201 -0.5722 -0.0000
vn 0.0862 -0.9963 -0.0000
vn 0.4149 -0.9099 -0.0000
vn -0.6410 -0.7675 -0.0000
vn 0.0008 0.6840 -0.7295
vn 0.2826 0.6843 -0.6722
vn 0.2792 0.6857 -0.6722
vn 0.5106 0.6949 -0.5065
vn 0.5142 0.6870 -0.5134
vn -0.7103 0.6389 -0.2955
vn -0.7125 0.0334 -0.7008
vn -0.5372 0.6466 -0.5416
vn 0.6588 0.7020 -0.2706
vn 0.6706 0.6879 -0.2775
vn 0.1779 -0.9813 -0.0737
vn 0.9239 -0.0000 -0.3827
vn 0.8957 -0.2449 -0.3710
vn 0.5076 0.8355 -0.2103
vn 0.7304 -0.6124 -0.3025
vn 0.4720 0.8596 -0.1955
vn 0.6204 0.7410 -0.2570
vn 0.5961 -0.7640 -0.2469
vn 0.8312 0.4366 -0.3443
vn 0.3059 -0.9436 -0.1267
vn 0.4748 0.7410 -0.4748
vn 0.4562 -0.7640 -0.4562
vn 0.7384 0.6010 -0.3059
vn 0.4392 -0.8797 -0.1819
vn 0.6361 0.4366 -0.6361
vn 0.3362 -0.8797 -0.3362
vn 0.8956 0.2456 -0.3710
vn 0.1361 -0.9813 -0.1361
vn 0.6854 0.2457 -0.6854
vn 0.6856 -0.2449 -0.6856
vn 0.8298 -0.4397 -0.3437
vn 0.3613 0.8596 -0.3613
vn 0.5590 -0.6124 -0.5590
vn 0.7071 -0.0000 -0.7071
vn 0.3710 0.2456 -0.8956
vn 0.0737 -0.9813 -0.1779
vn 0.3710 -0.2449 -0.8957
vn 0.6351 -0.4397 -0.6351
vn 0.1955 0.8596 -0.4720
vn 0.3885 0.8355 -0.3885
vn 0.3437 -0.4397 -0.8298
vn 0.2570 0.7410 -0.6204
vn 0.2469 -0.7640 -0.5961
vn 0.5652 0.6010 -0.5652
vn 0.3443 0.4366 -0.8312
vn 0.2341 -0.9436 -0.2341
vn 0.1819 -0.8797 -0.4392
vn 0.1267 -0.9436 -0.3059
vn -0.0000 -0.7640 -0.6452
vn 0.3025 -0.6124 -0.7304
vn 0.3059 0.6010 -0.7384
vn -0.0000 0.7410 -0.6715
vn -0.0000 0.4366 -0.8996
vn -0.0000 -0.9436 -0.3311
vn -0.0000 0.2456 -0.9694
vn -0.0000 -0.9813 -0.1925
vn 0.3827 -0.0000 -0.9239
vn -0.0000 -0.2449 -0.9695
vn 0.0042 0.6714 -0.7411
vn 0.3717 0.0118 -0.9283
vn -0.0000 0.8596 -0.5109
vn 0.2103 0.8355 -0.5076
vn -0.0000 -0.4397 -0.8982
vn -0.0737 -0.9813 -0.1779
vn -0.3827 -0.0000 -0.9239
vn -0.0000 -0.0000 -1.0000
vn -0.3710 -0.2449 -0.8957
vn -0.1955 0.8596 -0.4720
vn -0.0000 0.8355 -0.5494
vn -0.0000 -0.6124 -0.7906
vn -0.3437 -0.4397 -0.8298
vn -0.2570 0.7410 -0.6204
vn -0.2469 -0.7640 -0.5961
vn -0.0000 0.6010 -0.7993
vn -0.0000 -0.8797 -0.4754
vn -0.3443 0.4366 -0.8312
vn -0.1819 -0.8797 -0.4392
vn 0.6808 0.2700 -0.6808
vn -0.3362 -0.8797 -0.3362
vn -0.6361 0.4366 -0.6361
vn -0.3059 0.6010 -0.7384
vn -0.1267 -0.9436 -0.3059
vn -0.6854 0.2456 -0.6854
vn -0.3710 0.2456 -0.8956
vn -0.2341 -0.9436 -0.2341
vn -0.8896 0.2700 -0.3685
vn -0.5076 0.8355 -0.2103
vn -0.1361 -0.9813 -0.1361
vn -0.6856 -0.2449 -0.6856
vn -0.3885 0.8355 -0.3885
vn -0.2103 0.8355 -0.5076
vn -0.3025 -0.6124 -0.7304
vn -0.6351 -0.4397 -0.6351
vn -0.3613 0.8596 -0.3613
vn -0.5590 -0.6124 -0.5590
vn -0.4748 0.7410 -0.4748
vn -0.8957 -0.2449 -0.3710
vn -0.8298 -0.4397 -0.3437
vn -0.6204 0.7410 -0.2570
vn -0.5961 -0.7640 -0.2469
vn -0.4562 -0.7640 -0.4562
vn -0.7384 0.6010 -0.3059
vn -0.5652 0.6010 -0.5652
vn -0.4392 -0.8797 -0.1819
vn -0.8312 0.4366 -0.3443
vn -0.8956 0.2456 -0.3710
vn -0.1779 -0.9813 -0.0737
vn -0.7071 -0.0000 -0.7071
vn -0.3059 -0.9436 -0.1267
vn -0.9239 -0.0000 -0.3827
vn 0.3685 0.2700 -0.8896
vn -0.4720 0.8596 -0.1955
vn -0.7304 -0.6124 -0.3025
vn -0.3685 0.2700 -0.8896
vn -0.6808 0.2700 -0.6808
vn 0.8896 0.2700 -0.3685
vn -0.5175 0.6809 -0.5183
vn -0.3827 -0.0065 -0.9239
vn -0.7071 -0.0065 -0.7071
vn 0.9239 -0.0065 -0.3827
vn -0.6774 0.6799 -0.2809
vn -0.9239 -0.0065 -0.3827
vn 0.7071 -0.0065 -0.7071
vn 0.3827 -0.0065 -0.9239
vn -0.2791 0.6823 -0.6757
vn -0.0000 -0.0065 -1.0000
vn -0.3927 0.0279 -0.9192
vn -0.2845 0.6581 -0.6971
vn 0.7004 0.0031 -0.7137
vn -0.9252 0.0367 -0.3776
vn -0.0123 0.0205 -0.9997
vn 0.9221 -0.0037 -0.3869
vn -0.0000 0.2700 -0.9629
vn 0.9629 0.2700 -0.0000
vn 0.8763 -0.2829 -0.3898
vn -0.8955 0.2408 -0.3742
vn 0.6679 -0.2028 -0.7161
vn -0.6924 0.1887 -0.6964
vn -0.3851 0.1077 -0.9166
vn -0.0178 0.0067 -0.9998
vn 0.3532 -0.1015 -0.9300
vn -0.5884 0.4112 -0.6962
vn -0.3242 0.2354 -0.9162
vn -0.0075 0.0239 -0.9997
vn 0.3132 -0.1938 -0.9297
vn 0.7610 -0.5219 -0.3855
vn -0.7629 0.5272 -0.3742
vn 0.5846 -0.3859 -0.7136
vn -0.0032 0.0029 -1.0000
vn 0.2703 -0.2613 -0.9267
vn 0.0162 0.0340 -0.9993
vn 0.2044 -0.3235 -0.9239
vn 0.4828 -0.5137 -0.7092
vn -0.5866 0.7197 -0.3713
vn 0.4992 -0.7786 -0.3802
vn 0.6218 -0.6834 -0.3826
vn -0.4915 0.7849 -0.3773
vn -0.4485 0.5636 -0.6937
vn 0.3812 -0.5977 -0.7053
vn -0.3790 0.6031 -0.7018
vn -0.2372 0.3241 -0.9158
vn -0.2082 0.3289 -0.9211
vn -0.2331 0.8979 -0.3734
vn -0.4101 0.8340 -0.3693
vn 0.3777 -0.8445 -0.3797
vn -0.1892 0.6928 -0.6959
vn -0.3288 0.6432 -0.6915
vn 0.2744 -0.6530 -0.7059
vn 0.2398 -0.8929 -0.3812
vn -0.1174 0.3815 -0.9169
vn -0.2014 0.3500 -0.9148
vn -0.0237 0.0084 -0.9997
vn -0.0422 -0.0034 -0.9991
vn 0.0797 -0.3678 -0.9265
vn 0.1257 -0.3579 -0.9253
vn 0.1741 -0.6846 -0.7078
vn -0.0242 0.7209 -0.6926
vn 0.0955 0.3865 -0.9173
vn -0.0168 0.4008 -0.9160
vn 0.0192 0.0129 -0.9997
vn -0.0016 0.0130 -0.9999
vn -0.0550 -0.3664 -0.9288
vn 0.0223 -0.3790 -0.9251
vn -0.1159 -0.6911 -0.7134
vn 0.0511 -0.7077 -0.7046
vn 0.2066 0.9037 -0.3750
vn -0.0272 0.9286 -0.3701
vn 0.0761 -0.9225 -0.3784
vn 0.1617 0.6981 -0.6976
vn -0.1555 -0.9092 -0.3862
vn 0.3238 0.2509 -0.9123
vn 0.0505 -0.0041 -0.9987
vn 0.2338 0.3268 -0.9157
vn 0.0638 -0.0307 -0.9975
vn -0.1365 -0.3397 -0.9306
vn -0.2037 -0.3147 -0.9271
vn -0.2983 -0.6287 -0.7181
vn 0.4878 0.7884 -0.3748
vn -0.5875 -0.7128 -0.3831
vn -0.4085 -0.8250 -0.3905
vn 0.6735 0.6401 -0.3697
vn 0.3866 0.6042 -0.6967
vn -0.4337 -0.5544 -0.7103
vn 0.5361 0.4856 -0.6905
vn 0.7003 0.6104 -0.3702
vn -0.6155 -0.6989 -0.3644
vn -0.6630 -0.6488 -0.3735
vn 0.6199 0.6912 -0.3713
vn 0.5439 0.4720 -0.6939
vn -0.4864 -0.5417 -0.6856
vn -0.5114 -0.5010 -0.6981
vn 0.4712 0.5393 -0.6979
vn 0.3020 0.2559 -0.9183
vn 0.2434 0.2970 -0.9233
vn 0.0116 -0.0086 -0.9999
vn -0.0246 -0.0003 -0.9997
vn -0.2758 -0.2764 -0.9206
vn -0.2817 -0.2974 -0.9122
vn 0.3356 0.6153 -0.7133
vn 0.1714 0.3279 -0.9290
vn -0.0193 -0.0092 -0.9998
vn -0.2054 -0.3427 -0.9167
vn -0.4588 -0.8060 -0.3740
vn 0.4461 0.8076 -0.3857
vn -0.3587 -0.6216 -0.6964
vn 0.0872 0.3586 -0.9294
vn -0.0104 -0.0127 -0.9999
vn -0.1087 -0.3795 -0.9188
vn -0.2481 -0.8923 -0.3771
vn 0.2233 0.8940 -0.3884
vn -0.1922 -0.6875 -0.7002
vn 0.1692 0.6777 -0.7156
vn 0.0215 0.9234 -0.3832
vn -0.2676 -0.9635 -0.0000
vn 0.0228 0.7038 -0.7100
vn -0.0413 -0.9261 -0.3749
vn 0.0194 0.3740 -0.9272
vn 0.0085 -0.0136 -0.9999
vn -0.0086 -0.3965 -0.9180
vn -0.0272 -0.7157 -0.6979
vn 0.1797 -0.9106 -0.3721
vn 0.0130 0.3757 -0.9266
vn 0.0687 -0.0087 -0.9976
vn 0.1188 -0.3879 -0.9140
vn 0.1568 -0.7032 -0.6935
vn -0.0739 0.9205 -0.3836
vn -0.0382 0.7028 -0.7104
vn 0.2403 0.0068 -0.9707
vn 0.3034 -0.3586 -0.8828
vn 0.3546 -0.6575 -0.6648
vn 0.0810 0.9220 -0.3787
vn 0.1189 0.7050 -0.6991
vn 0.3875 -0.8510 -0.3546
vn 0.1752 0.3822 -0.9073
vn 0.7318 -0.4776 -0.4862
vn 0.6550 0.6998 -0.2849
vn 0.6660 0.5323 -0.5225
vn 0.7408 -0.6196 -0.2594
vn 0.6819 0.2880 -0.6723
vn 0.7001 0.0092 -0.7140
vn 0.7176 -0.2590 -0.6465
vn 0.5403 -0.8414 -0.0000
vt 0.665106 0.455266
vt 0.688160 0.467548
vt 0.678521 0.476348
vt 0.657832 0.458909
vt 0.666781 0.483441
vt 0.700244 0.000296
vt 0.703886 0.028113
vt 0.698412 0.027560
vt 0.649828 0.460809
vt 0.652733 0.488390
vt 0.641360 0.460491
vt 0.635950 0.490577
vt 0.631706 0.716099
vt 0.614165 0.647952
vt 0.635704 0.653522
vt 0.410982 0.989354
vt 0.335156 0.882398
vt 0.382718 0.876122
vt 0.673347 0.589880
vt 0.665908 0.552482
vt 0.680786 0.552482
vt 0.427388 0.862585
vt 0.474350 0.962638
vt 0.514791 0.935902
vt 0.458783 0.847812
vt 0.097687 0.900233
vt 0.092642 0.789460
vt 0.149960 0.833071
vt 0.557656 0.894797
vt 0.494618 0.824755
vt 0.157877 0.949031
vt 0.201930 0.859605
vt 0.528587 0.794807
vt 0.592444 0.844845
vt 0.251339 0.875086
vt 0.222467 0.980523
vt 0.617975 0.784362
vt 0.561252 0.754889
vt 0.298036 0.882000
vt 0.287867 0.996538
vt 0.590784 0.702953
vt 0.340515 0.999877
vt 0.225437 0.787993
vt 0.488366 0.745615
vt 0.265363 0.796208
vt 0.522162 0.718849
vt 0.301724 0.799481
vt 0.559055 0.680663
vt 0.330145 0.799249
vt 0.595785 0.635663
vt 0.366486 0.795272
vt 0.694530 0.558175
vt 0.401379 0.787273
vt 0.426772 0.778500
vt 0.180543 0.772862
vt 0.457199 0.764503
vt 0.326442 0.733820
vt 0.356420 0.731205
vt 0.705051 0.568696
vt 0.385541 0.726182
vt 0.407120 0.720677
vt 0.125005 0.745662
vt 0.199256 0.719093
vt 0.433760 0.711778
vt 0.238893 0.727994
vt 0.462299 0.699474
vt 0.272811 0.732563
vt 0.495436 0.681301
vt 0.303047 0.734187
vt 0.535643 0.653687
vt 0.581381 0.618643
vt 0.445166 0.656319
vt 0.246931 0.675564
vt 0.276974 0.678162
vt 0.477295 0.643985
vt 0.303418 0.678985
vt 0.518993 0.624394
vt 0.323767 0.678648
vt 0.570962 0.598380
vt 0.349882 0.676931
vt 0.710744 0.582441
vt 0.375433 0.673718
vt 0.721690 0.002117
vt 0.721579 0.032076
vt 0.715417 0.030408
vt 0.394579 0.670189
vt 0.161444 0.659914
vt 0.210999 0.670290
vt 0.418650 0.664428
vt 0.710744 0.597319
vt 0.345609 0.628635
vt 0.368924 0.626637
vt 0.386518 0.624412
vt 0.218432 0.625024
vt 0.408902 0.620745
vt 0.251840 0.628070
vt 0.434003 0.615503
vt 0.279378 0.629536
vt 0.465273 0.607338
vt 0.303438 0.629960
vt 0.507716 0.593951
vt 0.321893 0.629710
vt 0.564212 0.575869
vt 0.053438 0.692449
vt 0.427086 0.576299
vt 0.457806 0.571300
vt 0.303365 0.584741
vt 0.500756 0.562903
vt 0.320661 0.584598
vt 0.560728 0.551736
vt 0.342914 0.584011
vt 0.183574 0.500000
vt 0.098742 0.533534
vt 0.098115 0.500000
vt 0.705051 0.611063
vt 0.364868 0.582889
vt 0.381519 0.581596
vt 0.171111 0.619049
vt 0.223079 0.582114
vt 0.402868 0.579435
vt 0.254834 0.583734
vt 0.280784 0.584519
vt 0.362602 0.541053
vt 0.378769 0.540468
vt 0.177306 0.579157
vt 0.225862 0.540639
vt 0.399605 0.539479
vt 0.256572 0.541324
vt 0.423416 0.538018
vt 0.281564 0.541672
vt 0.453947 0.535631
vt 0.303280 0.541783
vt 0.497371 0.531515
vt 0.319921 0.541728
vt 0.560118 0.526366
vt 0.341364 0.541512
vt 0.181102 0.539696
vt 0.694530 0.621583
vt 0.303128 0.500000
vt 0.453205 0.500000
vt 0.497100 0.500000
vt 0.319475 0.500000
vt 0.562006 0.500000
vt 0.340584 0.500000
vt 0.146823 0.702128
vt 0.070685 0.662859
vt 0.680786 0.627277
vt 0.361693 0.500000
vt 0.377777 0.500000
vt 0.227334 0.500000
vt 0.398592 0.500000
vt 0.257375 0.500000
vt 0.422455 0.500000
vt 0.281843 0.500000
vt 0.083034 0.631542
vt 0.091422 0.599323
vt 0.096531 0.566608
vt 0.045319 0.829881
vt 0.030234 0.718791
vt 0.741899 0.460224
vt 0.695733 0.457413
vt 0.701224 0.446302
vt 0.652058 0.545857
vt 0.673587 0.535537
vt 0.748082 0.422483
vt 0.704595 0.434557
vt 0.705803 0.422483
vt 0.692712 0.524206
vt 0.709353 0.510838
vt 0.734143 0.478428
vt 0.746491 0.441377
vt 0.723245 0.495459
vt 0.671429 0.450248
vt 0.707401 0.000684
vt 0.709534 0.029068
vt 0.676634 0.444176
vt 0.680601 0.437346
vt 0.728811 0.003177
vt 0.728021 0.033958
vt 0.683231 0.430044
vt 0.742950 0.006055
vt 0.741390 0.037655
vt 0.734667 0.035872
vt 0.693009 0.000123
vt 0.693008 0.027413
vt 0.714549 0.001289
vt 0.735904 0.004484
vt 0.728271 0.499238
vt 0.747622 0.462080
vt 0.752301 0.442271
vt 0.696544 0.529634
vt 0.739598 0.481261
vt 0.713817 0.515493
vt 0.753734 0.422483
vt 0.676908 0.541591
vt 0.693008 0.039696
vt 0.731862 0.047716
vt 0.697744 0.039908
vt 0.725063 0.045992
vt 0.702550 0.040460
vt 0.707569 0.041363
vt 0.712923 0.042621
vt 0.718730 0.044204
vt 0.702046 0.052120
vt 0.706886 0.052024
vt 0.712161 0.051881
vt 0.718008 0.051753
vt 0.693008 0.052124
vt 0.738864 0.049053
vt 0.731386 0.052006
vt 0.697480 0.052152
vt 0.724472 0.051744
vt 0.718208 0.066649
vt 0.713173 0.080861
vt 0.712605 0.066517
vt 0.724275 0.066825
vt 0.718813 0.080790
vt 0.697724 0.066311
vt 0.693007 0.081021
vt 0.693008 0.066287
vt 0.737476 0.067289
vt 0.730937 0.080715
vt 0.730748 0.067042
vt 0.702476 0.066355
vt 0.697867 0.081010
vt 0.724756 0.080736
vt 0.707399 0.066421
vt 0.702764 0.080979
vt 0.707838 0.080927
vt 0.693006 0.095222
vt 0.697639 0.107553
vt 0.693006 0.107679
vt 0.730606 0.092959
vt 0.737518 0.103730
vt 0.730670 0.103976
vt 0.697791 0.095153
vt 0.702341 0.107241
vt 0.724234 0.093300
vt 0.724191 0.104551
vt 0.702599 0.094962
vt 0.707255 0.106743
vt 0.707547 0.094652
vt 0.712487 0.106079
vt 0.712733 0.094237
vt 0.718117 0.105309
vt 0.718268 0.093760
vt 0.702315 0.121673
vt 0.706739 0.135412
vt 0.701968 0.135713
vt 0.707162 0.121248
vt 0.711888 0.135013
vt 0.712294 0.120675
vt 0.717527 0.134551
vt 0.717837 0.120012
vt 0.723709 0.134090
vt 0.693006 0.122033
vt 0.697443 0.135910
vt 0.693006 0.136002
vt 0.730440 0.118896
vt 0.737383 0.133564
vt 0.730369 0.133732
vt 0.697638 0.121937
vt 0.723890 0.119366
vt 0.712152 0.148598
vt 0.708228 0.161480
vt 0.706909 0.148751
vt 0.717880 0.148384
vt 0.713725 0.161763
vt 0.724112 0.148117
vt 0.719531 0.162021
vt 0.697471 0.148899
vt 0.693005 0.161020
vt 0.693006 0.148895
vt 0.737573 0.147559
vt 0.731936 0.162102
vt 0.730747 0.147829
vt 0.702053 0.148851
vt 0.697977 0.161082
vt 0.725630 0.162163
vt 0.703005 0.161240
vt 0.698791 0.179208
vt 0.693004 0.203979
vt 0.693005 0.179105
vt 0.739998 0.181072
vt 0.737950 0.210692
vt 0.734081 0.181517
vt 0.704558 0.179565
vt 0.700033 0.204284
vt 0.731844 0.210240
vt 0.728161 0.181549
vt 0.710385 0.180106
vt 0.706836 0.205193
vt 0.716277 0.180714
vt 0.713377 0.206514
vt 0.722213 0.181242
vt 0.719662 0.207970
vt 0.725780 0.209283
vt 0.707141 0.218705
vt 0.713841 0.219550
vt 0.720261 0.220511
vt 0.726446 0.221434
vt 0.693004 0.217992
vt 0.744238 0.210512
vt 0.738526 0.222756
vt 0.700184 0.218141
vt 0.732494 0.222208
vt 0.712043 0.247919
vt 0.718071 0.248815
vt 0.723977 0.249894
vt 0.693003 0.246568
vt 0.744713 0.223019
vt 0.735879 0.252528
vt 0.699492 0.246775
vt 0.729865 0.251137
vt 0.705846 0.247230
vt 0.698937 0.252843
vt 0.693003 0.252595
vt 0.739066 0.263317
vt 0.732993 0.260792
vt 0.704767 0.253428
vt 0.727254 0.258722
vt 0.710492 0.254326
vt 0.716110 0.255512
vt 0.721669 0.256974
vt 0.721782 0.278825
vt 0.717370 0.275163
vt 0.705016 0.268254
vt 0.701007 0.267059
vt 0.709060 0.269969
vt 0.713161 0.272248
vt 0.697018 0.266355
vt 0.693002 0.266124
vt 0.726574 0.283448
vt 0.703758 0.275971
vt 0.701019 0.274391
vt 0.706499 0.278235
vt 0.709176 0.281361
vt 0.695658 0.272799
vt 0.693002 0.272644
vt 0.714006 0.291323
vt 0.711708 0.285599
vt 0.698317 0.273365
vt 0.704189 0.283484
vt 0.702688 0.280681
vt 0.694993 0.275721
vt 0.693002 0.275578
vt 0.705055 0.292484
vt 0.705144 0.287259
vt 0.696985 0.276244
vt 0.698968 0.277189
vt 0.700898 0.278633
vt 0.693002 0.285351
vt 0.738434 0.052633
vt 0.737385 0.118739
vt 0.737270 0.092809
vt 0.738416 0.161781
vt 0.688160 0.377418
vt 0.665106 0.389700
vt 0.678521 0.368618
vt 0.657832 0.386056
vt 0.666781 0.361525
vt 0.685775 0.000295
vt 0.682131 0.028112
vt 0.678616 0.000683
vt 0.649827 0.384156
vt 0.652733 0.356576
vt 0.641360 0.384474
vt 0.635950 0.354389
vt 0.614165 0.352046
vt 0.631706 0.283900
vt 0.635704 0.346477
vt 0.382718 0.123877
vt 0.340515 0.000123
vt 0.410982 0.010646
vt 0.652163 0.558175
vt 0.474349 0.037361
vt 0.514792 0.064096
vt 0.427388 0.137414
vt 0.097687 0.099765
vt 0.092643 0.210540
vt 0.045319 0.170118
vt 0.494618 0.175244
vt 0.557656 0.105202
vt 0.157878 0.050969
vt 0.149960 0.166928
vt 0.592443 0.155154
vt 0.222467 0.019477
vt 0.201932 0.140395
vt 0.617975 0.215636
vt 0.528587 0.205192
vt 0.298036 0.117999
vt 0.287867 0.003462
vt 0.590784 0.297046
vt 0.225437 0.212006
vt 0.488366 0.254384
vt 0.251339 0.124913
vt 0.561252 0.245110
vt 0.301724 0.200518
vt 0.522161 0.281150
vt 0.335156 0.117601
vt 0.595785 0.364336
vt 0.330145 0.200751
vt 0.641642 0.568696
vt 0.401379 0.212726
vt 0.458783 0.152187
vt 0.180543 0.227138
vt 0.457198 0.235497
vt 0.366486 0.204727
vt 0.326443 0.266180
vt 0.635950 0.582441
vt 0.385541 0.273818
vt 0.426772 0.221499
vt 0.199256 0.280907
vt 0.125005 0.254337
vt 0.407120 0.279322
vt 0.238893 0.272006
vt 0.462299 0.300526
vt 0.265363 0.203791
vt 0.303047 0.265812
vt 0.559055 0.319336
vt 0.495436 0.318698
vt 0.535643 0.346312
vt 0.445166 0.343679
vt 0.433760 0.288220
vt 0.272811 0.267436
vt 0.246931 0.324436
vt 0.303418 0.321014
vt 0.518993 0.375605
vt 0.323767 0.321351
vt 0.570962 0.401620
vt 0.581381 0.381356
vt 0.356420 0.268794
vt 0.635950 0.597319
vt 0.375433 0.326280
vt 0.664329 0.002115
vt 0.664438 0.032075
vt 0.657207 0.003176
vt 0.210999 0.329709
vt 0.146823 0.297871
vt 0.394579 0.329811
vt 0.641642 0.611063
vt 0.345609 0.371364
vt 0.349882 0.323069
vt 0.368924 0.373361
vt 0.218432 0.374975
vt 0.161444 0.340084
vt 0.418650 0.335571
vt 0.386518 0.375586
vt 0.251840 0.371929
vt 0.434003 0.384496
vt 0.276974 0.321837
vt 0.477295 0.356014
vt 0.303439 0.370040
vt 0.465272 0.392661
vt 0.564212 0.424130
vt 0.053438 0.307550
vt 0.457806 0.428699
vt 0.303365 0.415258
vt 0.279379 0.370463
vt 0.507716 0.406048
vt 0.320661 0.415402
vt 0.321893 0.370288
vt 0.500756 0.437097
vt 0.098742 0.466465
vt 0.181102 0.460304
vt 0.652163 0.621583
vt 0.364868 0.417110
vt 0.177306 0.420843
vt 0.171111 0.380950
vt 0.408902 0.379254
vt 0.381519 0.418403
vt 0.223079 0.417885
vt 0.402868 0.420564
vt 0.254834 0.416265
vt 0.362602 0.458947
vt 0.378769 0.459531
vt 0.256572 0.458675
vt 0.423416 0.461981
vt 0.427086 0.423701
vt 0.281564 0.458327
vt 0.280784 0.415480
vt 0.453947 0.464368
vt 0.303280 0.458216
vt 0.319921 0.458271
vt 0.560118 0.473634
vt 0.560728 0.448263
vt 0.342914 0.415988
vt 0.665908 0.627277
vt 0.497371 0.468484
vt 0.341364 0.458486
vt 0.070685 0.337139
vt 0.225862 0.459359
vt 0.399605 0.460520
vt 0.091422 0.400675
vt 0.096531 0.433391
vt 0.030234 0.281207
vt 0.701224 0.398663
vt 0.734143 0.366537
vt 0.741899 0.384741
vt 0.652058 0.299109
vt 0.673587 0.309428
vt 0.704595 0.410408
vt 0.746491 0.403588
vt 0.692712 0.320759
vt 0.709353 0.334128
vt 0.695733 0.387553
vt 0.723245 0.349507
vt 0.671429 0.394718
vt 0.676483 0.029067
vt 0.671468 0.001287
vt 0.676634 0.400790
vt 0.680601 0.407620
vt 0.657995 0.033956
vt 0.650115 0.004482
vt 0.683231 0.414923
vt 0.643069 0.006052
vt 0.644626 0.037652
vt 0.635950 0.007957
vt 0.687605 0.027560
vt 0.670600 0.030407
vt 0.651350 0.035870
vt 0.728271 0.345728
vt 0.713817 0.329472
vt 0.747622 0.382885
vt 0.752301 0.402694
vt 0.696544 0.315332
vt 0.676908 0.303374
vt 0.739598 0.363704
vt 0.655602 0.292730
vt 0.654154 0.047714
vt 0.688272 0.039907
vt 0.660952 0.045990
vt 0.683467 0.040459
vt 0.678448 0.041362
vt 0.673095 0.042620
vt 0.667287 0.044202
vt 0.683970 0.052120
vt 0.679130 0.052023
vt 0.673855 0.051881
vt 0.668008 0.051752
vt 0.654630 0.052004
vt 0.647153 0.049051
vt 0.688537 0.052151
vt 0.661545 0.051743
vt 0.672842 0.080859
vt 0.667807 0.066648
vt 0.673410 0.066516
vt 0.667201 0.080789
vt 0.661740 0.066824
vt 0.688291 0.066310
vt 0.655078 0.080713
vt 0.648538 0.067287
vt 0.655267 0.067040
vt 0.688148 0.081010
vt 0.683538 0.066354
vt 0.661258 0.080734
vt 0.683251 0.080977
vt 0.678616 0.066421
vt 0.678176 0.080926
vt 0.688374 0.107553
vt 0.688222 0.095153
vt 0.655407 0.092958
vt 0.648495 0.103728
vt 0.648744 0.092806
vt 0.683672 0.107241
vt 0.683414 0.094961
vt 0.661780 0.093298
vt 0.655343 0.103975
vt 0.678757 0.106742
vt 0.678467 0.094651
vt 0.673527 0.106078
vt 0.673281 0.094237
vt 0.667896 0.105307
vt 0.667746 0.093759
vt 0.661823 0.104549
vt 0.683697 0.121673
vt 0.679272 0.135411
vt 0.678851 0.121247
vt 0.674123 0.135012
vt 0.673719 0.120674
vt 0.668484 0.134550
vt 0.668175 0.120010
vt 0.662302 0.134088
vt 0.662122 0.119364
vt 0.688567 0.135911
vt 0.688374 0.121937
vt 0.655572 0.118894
vt 0.648629 0.133563
vt 0.648627 0.118737
vt 0.684044 0.135714
vt 0.655642 0.133729
vt 0.677783 0.161479
vt 0.673859 0.148596
vt 0.679103 0.148751
vt 0.672286 0.161762
vt 0.668131 0.148382
vt 0.666479 0.162020
vt 0.661899 0.148117
vt 0.688541 0.148899
vt 0.654074 0.162100
vt 0.648437 0.147557
vt 0.655264 0.147827
vt 0.688033 0.161081
vt 0.683957 0.148850
vt 0.660381 0.162161
vt 0.683006 0.161240
vt 0.687218 0.179207
vt 0.648058 0.210690
vt 0.646011 0.181070
vt 0.651929 0.181515
vt 0.685974 0.204283
vt 0.681451 0.179565
vt 0.654164 0.210237
vt 0.657848 0.181547
vt 0.679171 0.205193
vt 0.675623 0.180106
vt 0.672631 0.206514
vt 0.669733 0.180713
vt 0.666346 0.207969
vt 0.663797 0.181241
vt 0.660228 0.209282
vt 0.678867 0.218704
vt 0.672166 0.219549
vt 0.665747 0.220510
vt 0.659560 0.221433
vt 0.647482 0.222753
vt 0.641769 0.210510
vt 0.685824 0.218141
vt 0.653513 0.222206
vt 0.673963 0.247918
vt 0.667936 0.248814
vt 0.662028 0.249893
vt 0.650127 0.252525
vt 0.641294 0.223017
vt 0.686514 0.246775
vt 0.656141 0.251136
vt 0.680160 0.247229
vt 0.687068 0.252843
vt 0.646939 0.263314
vt 0.643783 0.254016
vt 0.681239 0.253428
vt 0.653012 0.260791
vt 0.675513 0.254326
vt 0.669894 0.255511
vt 0.664337 0.256972
vt 0.658752 0.258719
vt 0.664221 0.278824
vt 0.680988 0.268253
vt 0.676945 0.269968
vt 0.672844 0.272247
vt 0.668635 0.275162
vt 0.688988 0.266355
vt 0.659431 0.283447
vt 0.684997 0.267059
vt 0.682247 0.275970
vt 0.679506 0.278234
vt 0.676827 0.281360
vt 0.690347 0.272800
vt 0.671998 0.291321
vt 0.687688 0.273365
vt 0.674296 0.285597
vt 0.684985 0.274391
vt 0.681815 0.283483
vt 0.691011 0.275721
vt 0.680949 0.292484
vt 0.689019 0.276243
vt 0.680859 0.287259
vt 0.687037 0.277189
vt 0.685106 0.278632
vt 0.683316 0.280680
vt 0.647582 0.052631
vt 0.648651 0.080742
vt 0.647594 0.161779
vt 0.000123 0.739501
vt 0.684449 0.422483
vt 0.750068 0.007960
vt 0.655602 0.552236
vt 0.737364 0.080744
vt 0.742223 0.254018
vt 0.083034 0.368457
vt 0.000124 0.260498
s 1
usemtl Material.001
f 114/1/1 109/2/2 1/3/3
f 112/4/4 1/3/3 2/5/5
f 120/6/6 134/7/7 135/8/8
f 110/9/9 2/5/5 3/10/10
f 260/11/11 3/10/10 306/12/12
f 275/13/13 17/14/14 276/15/15
f 269/16/16 9/17/17 10/18/18
f 391/19/19 276/20/15 17/21/14
f 269/16/16 11/22/20 270/23/21
f 271/24/22 11/22/20 12/25/23
f 264/26/24 4/27/25 5/28/26
f 272/29/27 12/25/23 13/30/28
f 265/31/29 5/28/26 6/32/30
f 272/29/27 14/33/31 273/34/32
f 265/31/29 7/35/33 266/36/34
f 274/37/35 14/33/31 15/38/36
f 266/36/34 8/39/37 267/40/38
f 275/13/13 15/38/36 16/41/39
f 268/42/40 8/39/37 9/17/17
f 5/28/26 20/43/41 6/32/30
f 13/30/28 28/44/42 14/33/31
f 7/35/33 20/43/41 21/45/43
f 15/38/36 28/44/42 29/46/44
f 7/35/33 22/47/45 8/39/37
f 16/41/39 29/46/44 30/48/46
f 9/17/17 22/47/45 23/49/47
f 17/14/14 30/48/46 31/50/48
f 10/18/18 23/49/47 24/51/49
f 391/19/19 17/21/14 31/52/48
f 10/18/18 25/53/50 11/22/20
f 12/25/23 25/53/50 26/54/51
f 4/27/25 19/55/52 5/28/26
f 13/30/28 26/54/51 27/56/53
f 24/51/49 37/57/54 38/58/55
f 391/19/19 31/52/48 45/59/56
f 24/51/49 39/60/57 25/53/50
f 26/54/51 39/60/57 40/61/58
f 18/62/59 33/63/60 19/55/52
f 27/56/53 40/61/58 41/64/61
f 19/55/52 34/65/62 20/43/41
f 28/44/42 41/64/61 42/66/63
f 21/45/43 34/65/62 35/67/64
f 29/46/44 42/66/63 43/68/65
f 21/45/43 36/69/66 22/47/45
f 29/46/44 44/70/67 30/48/46
f 22/47/45 37/57/54 23/49/47
f 30/48/46 45/71/56 31/50/48
f 41/64/61 56/72/68 42/66/63
f 35/67/64 48/73/69 49/74/70
f 43/68/65 56/72/68 57/75/71
f 35/67/64 50/76/72 36/69/66
f 44/70/67 57/75/71 58/77/73
f 36/69/66 51/78/74 37/57/54
f 45/71/56 58/77/73 59/79/75
f 38/58/55 51/78/74 52/80/76
f 391/19/19 45/59/56 59/81/75
f 38/58/55 53/82/77 39/60/57
f 116/83/78 130/84/79 131/85/80
f 40/61/58 53/82/77 54/86/81
f 33/63/60 46/87/82 47/88/83
f 41/64/61 54/86/81 55/89/84
f 33/63/60 48/73/69 34/65/62
f 391/19/19 59/81/75 73/90/85
f 53/82/77 66/91/86 67/92/87
f 53/82/77 68/93/88 54/86/81
f 46/87/82 61/94/89 47/88/83
f 55/89/84 68/93/88 69/95/90
f 47/88/83 62/96/91 48/73/69
f 55/89/84 70/97/92 56/72/68
f 49/74/70 62/96/91 63/98/93
f 57/75/71 70/97/92 71/99/94
f 49/74/70 64/100/95 50/76/72
f 58/77/73 71/99/94 72/101/96
f 51/78/74 64/100/95 65/102/97
f 58/77/73 73/103/85 59/79/75
f 51/78/74 66/91/86 52/80/76
f 4/27/25 103/104/98 18/62/59
f 71/99/94 84/105/99 85/106/100
f 63/98/93 78/107/101 64/100/95
f 72/101/96 85/106/100 86/108/102
f 65/102/97 78/107/101 79/109/103
f 72/101/96 87/110/104 73/103/85
f 66/91/86 79/109/103 80/111/105
f 377/112/106 108/113/107 400/114/108
f 391/19/19 73/90/85 87/115/104
f 66/91/86 81/116/109 67/92/87
f 68/93/88 81/116/109 82/117/110
f 60/118/111 75/119/112 61/94/89
f 69/95/90 82/117/110 83/120/113
f 62/96/91 75/119/112 76/121/114
f 69/95/90 84/105/99 70/97/92
f 63/98/93 76/121/114 77/122/115
f 82/117/110 95/123/116 96/124/117
f 74/125/118 89/126/119 75/119/112
f 83/120/113 96/124/117 97/127/120
f 75/119/112 90/128/121 76/121/114
f 83/120/113 98/129/122 84/105/99
f 77/122/115 90/128/121 91/130/123
f 84/105/99 99/131/124 85/106/100
f 77/122/115 92/132/125 78/107/101
f 86/108/102 99/131/124 100/133/126
f 78/107/101 93/134/127 79/109/103
f 86/108/102 101/135/128 87/110/104
f 80/111/105 93/134/127 94/136/129
f 74/125/118 108/113/107 88/137/130
f 391/19/19 87/115/104 101/138/128
f 80/111/105 95/123/116 81/116/109
f 91/130/123 381/139/131 92/132/125
f 100/133/126 388/140/132 389/141/133
f 92/132/125 382/142/134 93/134/127
f 100/133/126 390/143/135 101/135/128
f 94/136/129 382/142/134 383/144/136
f 32/145/137 103/104/98 104/146/138
f 391/19/19 101/138/128 390/147/135
f 94/136/129 384/148/139 95/123/116
f 96/124/117 384/148/139 385/149/140
f 88/137/130 378/150/141 89/126/119
f 97/127/120 385/149/140 386/151/142
f 89/126/119 379/152/143 90/128/121
f 97/127/120 387/153/144 98/129/122
f 91/130/123 379/152/143 380/154/145
f 98/129/122 388/140/132 99/131/124
f 32/145/137 105/155/146 46/87/82
f 46/87/82 106/156/147 60/118/111
f 60/118/111 107/157/148 74/125/118
f 263/158/149 102/159/150 4/27/25
f 125/160/151 111/161/152 113/162/153
f 415/163/154 3/10/10 123/164/155
f 414/165/156 115/166/157 409/167/158
f 122/168/159 1/3/3 127/169/160
f 121/170/161 109/2/2 111/161/152
f 123/164/155 2/5/5 122/168/159
f 125/160/151 115/166/157 124/171/162
f 127/169/160 109/2/2 126/172/163
f 116/173/78 111/161/152 109/2/2
f 119/174/164 132/175/165 134/7/7
f 117/176/166 113/162/153 111/161/152
f 119/177/164 115/166/157 113/162/153
f 114/178/1 128/179/167 130/84/79
f 120/180/6 409/167/158 115/166/157
f 110/181/9 425/182/168 129/183/169
f 594/184/170 135/8/8 426/185/171
f 117/186/166 131/85/80 132/175/165
f 112/187/4 129/183/169 128/179/167
f 105/188/146 127/169/160 126/172/163
f 107/189/148 124/171/162 108/190/107
f 103/191/98 123/164/155 122/168/159
f 106/192/147 126/172/163 121/170/161
f 104/193/138 122/168/159 127/169/160
f 108/190/107 414/165/156 400/194/108
f 102/195/150 415/163/154 123/164/155
f 107/189/148 121/170/161 125/160/151
f 135/8/8 435/196/172 426/185/171
f 425/182/168 136/197/173 129/183/169
f 134/7/7 141/198/174 135/8/8
f 129/183/169 118/199/175 128/179/167
f 132/175/165 140/200/176 134/7/7
f 131/85/80 139/201/177 132/175/165
f 130/84/79 138/202/178 131/85/80
f 128/179/167 137/203/179 130/84/79
f 139/201/177 147/204/180 140/200/176
f 138/202/178 145/205/181 139/201/177
f 137/203/179 144/206/182 138/202/178
f 118/199/175 143/207/183 137/203/179
f 141/198/174 443/208/184 435/196/172
f 434/209/185 142/210/186 136/197/173
f 140/200/176 148/211/187 141/198/174
f 136/197/173 133/212/188 118/199/175
f 225/213/189 152/214/190 231/215/191
f 227/216/192 151/217/193 225/213/189
f 226/218/194 453/219/195 550/220/196
f 551/221/197 150/222/198 228/223/199
f 229/224/200 156/225/201 226/218/194
f 228/223/199 149/226/202 227/216/192
f 230/227/203 155/228/204 229/224/200
f 231/215/191 153/229/205 230/227/203
f 567/230/206 163/231/207 462/232/208
f 240/233/209 461/234/210 157/235/211
f 239/236/212 162/237/213 163/231/207
f 245/238/214 157/235/211 146/239/215
f 241/240/216 160/241/217 162/237/213
f 242/242/218 159/243/219 160/241/217
f 243/244/220 158/245/221 159/243/219
f 244/246/222 146/239/215 158/245/221
f 236/247/223 167/248/224 169/249/225
f 232/250/226 166/251/227 167/248/224
f 233/252/228 165/253/229 166/251/227
f 234/254/230 154/255/231 165/253/229
f 561/256/232 170/257/233 471/258/234
f 238/259/235 470/260/236 164/261/237
f 235/262/238 169/249/225 170/257/233
f 237/263/239 164/261/237 154/255/231
f 246/264/240 174/265/241 252/266/242
f 247/267/243 173/268/244 246/264/240
f 249/269/245 172/270/246 247/267/243
f 248/271/247 480/272/248 578/273/249
f 579/274/250 171/275/251 250/276/252
f 251/277/253 177/278/254 248/271/247
f 250/276/252 161/279/255 249/269/245
f 252/266/242 176/280/256 251/277/253
f 253/281/257 489/282/258 585/283/259
f 586/284/260 178/285/261 254/286/262
f 255/287/263 184/288/264 253/281/257
f 254/286/262 168/289/265 259/290/266
f 256/291/267 183/292/268 255/287/263
f 257/293/269 181/294/270 256/291/267
f 258/295/271 180/296/272 257/293/269
f 259/290/266 179/297/273 258/295/271
f 181/294/270 190/298/274 183/292/268
f 180/296/272 188/299/275 181/294/270
f 179/297/273 187/300/276 180/296/272
f 168/289/265 186/301/277 179/297/273
f 184/288/264 498/302/278 489/282/258
f 488/303/279 185/304/280 178/285/261
f 183/292/268 191/305/281 184/288/264
f 178/285/261 175/306/282 168/289/265
f 187/300/276 195/307/283 188/299/275
f 186/301/277 194/308/284 187/300/276
f 175/306/282 193/309/285 186/301/277
f 191/305/281 507/310/286 498/302/278
f 497/311/287 192/312/288 185/304/280
f 190/298/274 198/313/289 191/305/281
f 185/304/280 182/314/290 175/306/282
f 188/299/275 197/315/291 190/298/274
f 507/310/286 205/316/292 516/317/293
f 192/312/288 515/318/294 199/319/295
f 198/313/289 204/320/296 205/316/292
f 182/314/290 199/319/295 189/321/297
f 197/315/291 202/322/298 204/320/296
f 195/307/283 201/323/299 202/322/298
f 194/308/284 200/324/300 201/323/299
f 193/309/285 189/321/297 200/324/300
f 189/321/297 206/325/301 196/326/302
f 204/320/296 209/327/303 211/328/304
f 202/322/298 208/329/305 209/327/303
f 201/323/299 207/330/306 208/329/305
f 200/324/300 196/326/302 207/330/306
f 516/317/293 212/331/307 525/332/308
f 199/319/295 524/333/309 206/325/301
f 205/316/292 211/328/304 212/331/307
f 209/327/303 215/334/310 216/335/311
f 208/329/305 214/336/312 215/334/310
f 207/330/306 203/337/313 214/336/312
f 525/332/308 218/338/314 534/339/315
f 206/325/301 533/340/316 213/341/317
f 212/331/307 217/342/318 218/338/314
f 196/326/302 213/341/317 203/337/313
f 211/328/304 216/335/311 217/342/318
f 214/336/312 210/343/319 220/344/320
f 534/339/315 224/345/321 542/346/322
f 213/341/317 541/347/323 219/348/324
f 218/338/314 223/349/325 224/345/321
f 203/337/313 219/348/324 210/343/319
f 217/342/318 222/350/326 223/349/325
f 216/335/311 221/351/327 222/350/326
f 215/334/310 220/344/320 221/351/327
f 541/347/323 546/352/328 219/348/324
f 219/348/324 546/352/328 210/343/319
f 210/343/319 546/352/328 220/344/320
f 220/344/320 546/352/328 221/351/327
f 221/351/327 546/352/328 222/350/326
f 222/350/326 546/352/328 223/349/325
f 223/349/325 546/352/328 224/345/321
f 224/345/321 546/352/328 542/346/322
f 144/206/182 230/227/203 145/205/181
f 145/205/181 229/224/200 147/204/180
f 142/210/186 227/216/192 133/212/188
f 147/204/180 226/218/194 148/211/187
f 442/353/329 228/223/199 142/210/186
f 148/211/187 550/220/196 443/208/184
f 133/212/188 225/213/189 143/207/183
f 143/207/183 231/215/191 144/206/182
f 146/239/215 238/259/235 237/263/239
f 163/231/207 236/247/223 235/262/238
f 157/235/211 562/354/330 238/259/235
f 462/232/208 235/262/238 561/256/232
f 158/245/221 237/263/239 234/254/230
f 159/243/219 234/254/230 233/252/228
f 160/241/217 233/252/228 232/250/226
f 162/237/213 232/250/226 236/247/223
f 151/217/193 245/238/214 244/246/222
f 152/214/190 244/246/222 243/244/220
f 153/229/205 243/244/220 242/242/218
f 155/228/204 242/242/218 241/240/216
f 149/226/202 240/233/209 245/238/214
f 156/225/201 241/240/216 239/236/212
f 150/222/198 568/355/331 240/233/209
f 453/219/195 239/236/212 567/230/206
f 169/249/225 252/266/242 251/277/253
f 154/255/231 250/276/252 249/269/245
f 170/257/233 251/277/253 248/271/247
f 164/261/237 579/274/250 250/276/252
f 471/258/234 248/271/247 578/273/249
f 165/253/229 249/269/245 247/267/243
f 166/251/227 247/267/243 246/264/240
f 167/248/224 246/264/240 252/266/242
f 161/279/255 258/295/271 172/270/246
f 172/270/246 257/293/269 173/268/244
f 173/268/244 256/291/267 174/265/241
f 174/265/241 255/287/263 176/280/256
f 171/275/251 259/290/266 161/279/255
f 176/280/256 253/281/257 177/278/254
f 479/356/332 254/286/262 171/275/251
f 177/278/254 585/283/259 480/272/248
f 401/357/333 406/358/334 261/359/335
f 261/359/335 404/360/336 262/361/337
f 413/362/338 431/363/339 412/364/340
f 262/361/337 402/365/341 277/366/342
f 277/366/342 260/367/11 306/368/12
f 291/369/343 275/370/13 276/371/15
f 284/372/344 268/373/40 269/374/16
f 391/19/19 291/375/343 276/20/15
f 270/376/21 284/372/344 269/374/16
f 271/377/22 285/378/345 270/376/21
f 264/379/24 278/380/346 263/381/149
f 287/382/347 271/377/22 272/383/27
f 265/384/29 279/385/348 264/379/24
f 273/386/32 287/382/347 272/383/27
f 266/387/34 280/388/349 265/384/29
f 274/389/35 288/390/350 273/386/32
f 282/391/351 266/387/34 267/392/38
f 290/393/352 274/389/35 275/370/13
f 268/373/40 282/391/351 267/392/38
f 294/394/353 279/385/348 280/388/349
f 302/395/354 287/382/347 288/390/350
f 281/396/355 294/394/353 280/388/349
f 289/397/356 302/395/354 288/390/350
f 296/398/357 281/396/355 282/391/351
f 290/393/352 303/399/358 289/397/356
f 283/400/359 296/398/357 282/391/351
f 305/401/360 290/393/352 291/369/343
f 284/372/344 297/402/361 283/400/359
f 391/19/19 305/403/360 291/375/343
f 299/404/362 284/372/344 285/378/345
f 286/405/363 299/404/362 285/378/345
f 293/406/364 278/380/346 279/385/348
f 301/407/365 286/405/363 287/382/347
f 298/408/366 312/409/367 297/402/361
f 391/19/19 320/410/368 305/403/360
f 314/411/369 298/408/366 299/404/362
f 300/412/370 314/411/369 299/404/362
f 308/413/371 292/414/372 293/406/364
f 301/407/365 315/415/373 300/412/370
f 309/416/374 293/406/364 294/394/353
f 317/417/375 301/407/365 302/395/354
f 295/418/376 309/416/374 294/394/353
f 303/399/358 317/417/375 302/395/354
f 311/419/377 295/418/376 296/398/357
f 304/420/378 318/421/379 303/399/358
f 312/409/367 296/398/357 297/402/361
f 305/401/360 319/422/380 304/420/378
f 331/423/381 316/424/382 317/417/375
f 310/425/383 323/426/384 309/416/374
f 318/421/379 331/423/381 317/417/375
f 325/427/385 310/425/383 311/419/377
f 333/428/386 318/421/379 319/422/380
f 326/429/387 311/419/377 312/409/367
f 334/430/388 319/422/380 320/431/368
f 313/432/389 326/429/387 312/409/367
f 391/19/19 334/433/388 320/410/368
f 328/434/390 313/432/389 314/411/369
f 408/435/391 427/436/392 406/437/334
f 315/415/373 328/434/390 314/411/369
f 322/438/393 307/439/394 308/413/371
f 316/424/382 329/440/395 315/415/373
f 323/426/384 308/413/371 309/416/374
f 391/19/19 348/441/396 334/433/388
f 328/434/390 341/442/397 327/443/398
f 329/440/395 342/444/399 328/434/390
f 336/445/400 321/446/401 322/438/393
f 330/447/402 343/448/403 329/440/395
f 337/449/404 322/438/393 323/426/384
f 345/450/405 330/447/402 331/423/381
f 324/451/406 337/449/404 323/426/384
f 332/452/407 345/450/405 331/423/381
f 339/453/408 324/451/406 325/427/385
f 333/428/386 346/454/409 332/452/407
f 326/429/387 339/453/408 325/427/385
f 348/455/396 333/428/386 334/430/388
f 341/442/397 326/429/387 327/443/398
f 394/456/410 278/380/346 292/414/372
f 360/457/411 345/450/405 346/454/409
f 353/458/412 338/459/413 339/453/408
f 347/460/414 360/457/411 346/454/409
f 354/461/415 339/453/408 340/462/416
f 348/455/396 361/463/417 347/460/414
f 341/442/397 354/461/415 340/462/416
f 377/112/106 399/464/418 363/465/419
f 391/19/19 362/466/420 348/441/396
f 356/467/421 341/442/397 342/444/399
f 343/448/403 356/467/421 342/444/399
f 336/445/400 349/468/422 335/469/423
f 344/470/424 357/471/425 343/448/403
f 337/449/404 350/472/426 336/445/400
f 345/450/405 358/473/427 344/470/424
f 338/459/413 351/474/428 337/449/404
f 357/471/425 370/475/429 356/467/421
f 350/472/426 363/465/419 349/468/422
f 358/473/427 371/476/430 357/471/425
f 365/477/431 350/472/426 351/474/428
f 373/478/432 358/473/427 359/479/433
f 366/480/434 351/474/428 352/481/435
f 374/482/436 359/479/433 360/457/411
f 367/483/437 352/481/435 353/458/412
f 361/463/417 374/482/436 360/457/411
f 368/484/438 353/458/412 354/461/415
f 376/485/439 361/463/417 362/486/420
f 355/487/440 368/484/438 354/461/415
f 399/464/418 349/468/422 363/465/419
f 391/19/19 376/488/439 362/466/420
f 370/475/429 355/487/440 356/467/421
f 381/139/131 366/480/434 367/483/437
f 375/489/441 388/140/132 374/482/436
f 382/142/134 367/483/437 368/484/438
f 390/143/135 375/489/441 376/485/439
f 383/144/136 368/484/438 369/490/442
f 395/491/443 292/414/372 307/439/394
f 391/19/19 390/147/135 376/488/439
f 370/475/429 383/144/136 369/490/442
f 371/476/430 384/148/139 370/475/429
f 378/150/141 363/465/419 364/492/444
f 372/493/445 385/149/140 371/476/430
f 379/152/143 364/492/444 365/477/431
f 387/153/144 372/493/445 373/478/432
f 366/480/434 379/152/143 365/477/431
f 374/482/436 387/153/144 373/478/432
f 321/446/401 395/491/443 307/439/394
f 397/494/446 321/446/401 335/469/423
f 398/495/447 335/469/423 349/468/422
f 393/496/448 263/381/149 278/380/346
f 405/497/449 416/498/450 420/499/451
f 277/366/342 415/500/154 418/501/452
f 414/165/156 407/502/453 419/503/454
f 261/359/335 417/504/455 422/505/456
f 403/506/457 421/507/458 416/498/450
f 262/361/337 418/501/452 417/504/455
f 407/502/453 420/499/451 419/503/454
f 421/507/458 261/359/335 422/505/456
f 403/506/457 408/508/391 401/357/333
f 412/364/340 429/509/459 410/510/460
f 405/497/449 410/511/460 403/506/457
f 407/502/453 412/512/340 405/497/449
f 406/437/334 423/513/461 404/514/336
f 409/167/158 413/515/338 407/502/453
f 402/516/341 425/517/168 260/518/11
f 594/184/170 432/519/462 413/362/338
f 410/510/460 428/520/463 408/435/391
f 404/514/336 424/521/464 402/516/341
f 396/522/465 422/505/456 395/523/443
f 419/503/454 398/524/447 399/525/418
f 394/526/410 418/501/452 393/527/448
f 397/528/446 421/507/458 396/522/465
f 395/523/443 417/504/455 394/526/410
f 400/194/108 419/503/454 399/525/418
f 393/527/448 415/500/154 392/529/466
f 420/499/451 397/528/446 398/524/447
f 435/196/172 432/519/462 426/185/171
f 433/530/467 425/517/168 424/521/464
f 440/531/468 431/363/339 432/519/462
f 411/532/469 424/521/464 423/513/461
f 439/533/470 429/509/459 431/363/339
f 438/534/471 428/520/463 429/509/459
f 437/535/472 427/436/392 428/520/463
f 436/536/473 423/513/461 427/436/392
f 448/537/474 438/534/471 439/533/470
f 446/538/475 437/535/472 438/534/471
f 445/539/476 436/536/473 437/535/472
f 444/540/477 411/532/469 436/536/473
f 443/208/184 440/531/468 435/196/172
f 441/541/478 434/542/185 433/530/467
f 449/543/479 439/533/470 440/531/468
f 430/544/480 433/530/467 411/532/469
f 455/545/481 549/546/482 557/547/483
f 454/548/484 553/549/485 549/546/482
f 453/219/195 552/550/486 550/220/196
f 451/551/487 551/552/197 554/553/488
f 459/554/489 555/555/490 552/550/486
f 450/556/491 554/553/488 553/549/485
f 458/557/492 556/558/493 555/555/490
f 456/559/494 557/547/483 556/558/493
f 567/230/206 468/560/495 569/561/496
f 570/562/497 461/563/210 568/564/331
f 569/561/496 467/565/498 571/566/499
f 575/567/500 460/568/501 570/562/497
f 571/566/499 465/569/502 572/570/503
f 572/570/503 464/571/504 573/572/505
f 573/572/505 463/573/506 574/574/507
f 574/574/507 447/575/508 575/567/500
f 564/576/509 474/577/510 558/578/511
f 558/578/511 473/579/512 559/580/513
f 559/580/513 472/581/514 560/582/515
f 560/582/515 457/583/516 565/584/517
f 561/256/232 477/585/518 563/586/519
f 566/587/520 470/588/236 562/589/330
f 563/586/519 476/590/521 564/576/509
f 565/584/517 469/591/522 566/587/520
f 483/592/523 576/593/524 584/594/525
f 482/595/526 577/596/527 576/593/524
f 481/597/528 581/598/529 577/596/527
f 480/272/248 580/599/530 578/273/249
f 478/600/531 579/601/250 582/602/532
f 486/603/533 583/604/534 580/599/530
f 466/605/535 582/602/532 581/598/529
f 485/606/536 584/594/525 583/604/534
f 489/282/258 587/607/537 585/283/259
f 487/608/538 586/609/260 588/610/539
f 495/611/540 589/612/541 587/607/537
f 475/613/542 588/610/539 593/614/543
f 494/615/544 590/616/545 589/612/541
f 492/617/546 591/618/547 590/616/545
f 491/619/548 592/620/549 591/618/547
f 490/621/550 593/614/543 592/620/549
f 503/622/551 492/617/546 494/615/544
f 501/623/552 491/619/548 492/617/546
f 500/624/553 490/621/550 491/619/548
f 499/625/554 475/613/542 490/621/550
f 498/302/278 495/611/540 489/282/258
f 496/626/555 488/627/279 487/608/538
f 504/628/556 494/615/544 495/611/540
f 484/629/557 487/608/538 475/613/542
f 510/630/558 500/624/553 501/623/552
f 509/631/559 499/625/554 500/624/553
f 508/632/560 484/629/557 499/625/554
f 507/310/286 504/628/556 498/302/278
f 505/633/561 497/634/287 496/626/555
f 513/635/562 503/622/551 504/628/556
f 493/636/563 496/626/555 484/629/557
f 512/637/564 501/623/552 503/622/551
f 507/310/286 522/638/565 513/635/562
f 505/633/561 515/639/294 506/640/566
f 513/635/562 521/641/567 512/637/564
f 493/636/563 514/642/568 505/633/561
f 512/637/564 519/643/569 510/630/558
f 510/630/558 518/644/570 509/631/559
f 509/631/559 517/645/571 508/632/560
f 508/632/560 502/646/572 493/636/563
f 502/646/572 523/647/573 514/642/568
f 521/641/567 528/648/574 519/643/569
f 519/643/569 527/649/575 518/644/570
f 518/644/570 526/650/576 517/645/571
f 517/645/571 511/651/577 502/646/572
f 516/317/293 531/652/578 522/638/565
f 514/642/568 524/653/309 515/639/294
f 522/638/565 530/654/579 521/641/567
f 528/648/574 536/655/580 527/649/575
f 527/649/575 535/656/581 526/650/576
f 526/650/576 520/657/582 511/651/577
f 525/332/308 539/658/583 531/652/578
f 523/647/573 533/659/316 524/653/309
f 531/652/578 538/660/584 530/654/579
f 511/651/577 532/661/585 523/647/573
f 530/654/579 537/662/586 528/648/574
f 535/656/581 529/663/587 520/657/582
f 534/339/315 548/664/588 539/658/583
f 532/661/585 541/665/323 533/659/316
f 539/658/583 547/666/589 538/660/584
f 520/657/582 540/667/590 532/661/585
f 538/660/584 545/668/591 537/662/586
f 537/662/586 544/669/592 536/655/580
f 536/655/580 543/670/593 535/656/581
f 541/665/323 540/667/590 546/352/328
f 540/667/590 529/663/587 546/352/328
f 529/663/587 543/670/593 546/352/328
f 543/670/593 544/669/592 546/352/328
f 544/669/592 545/668/591 546/352/328
f 545/668/591 547/666/589 546/352/328
f 547/666/589 548/664/588 546/352/328
f 548/664/588 542/346/322 546/352/328
f 556/558/493 445/539/476 446/538/475
f 555/555/490 446/538/475 448/537/474
f 553/549/485 441/541/478 430/544/480
f 552/550/486 448/537/474 449/543/479
f 554/553/488 442/671/329 441/541/478
f 550/220/196 449/543/479 443/208/184
f 549/546/482 430/544/480 444/540/477
f 557/547/483 444/540/477 445/539/476
f 447/575/508 566/587/520 460/568/501
f 468/560/495 564/576/509 467/565/498
f 460/568/501 562/589/330 461/563/210
f 462/232/208 563/586/519 468/560/495
f 463/573/506 565/584/517 447/575/508
f 464/571/504 560/582/515 463/573/506
f 465/569/502 559/580/513 464/571/504
f 467/565/498 558/578/511 465/569/502
f 454/548/484 575/567/500 450/556/491
f 455/545/481 574/574/507 454/548/484
f 456/559/494 573/572/505 455/545/481
f 458/557/492 572/570/503 456/559/494
f 450/556/491 570/562/497 451/551/487
f 459/554/489 571/566/499 458/557/492
f 451/551/487 568/564/331 452/672/594
f 453/219/195 569/561/496 459/554/489
f 476/590/521 584/594/525 474/577/510
f 457/583/516 582/602/532 469/591/522
f 477/585/518 583/604/534 476/590/521
f 469/591/522 579/601/250 470/588/236
f 471/258/234 580/599/530 477/585/518
f 472/581/514 581/598/529 457/583/516
f 473/579/512 577/596/527 472/581/514
f 474/577/510 576/593/524 473/579/512
f 592/620/549 466/605/535 481/597/528
f 591/618/547 481/597/528 482/595/526
f 590/616/545 482/595/526 483/592/523
f 589/612/541 483/592/523 485/606/536
f 593/614/543 478/600/531 466/605/535
f 587/607/537 485/606/536 486/603/533
f 588/610/539 479/673/332 478/600/531
f 585/283/259 486/603/533 480/272/248
f 114/1/1 116/173/78 109/2/2
f 112/4/4 114/1/1 1/3/3
f 120/6/6 119/174/164 134/7/7
f 110/9/9 112/4/4 2/5/5
f 260/11/11 110/9/9 3/10/10
f 275/13/13 16/41/39 17/14/14
f 269/16/16 268/42/40 9/17/17
f 269/16/16 10/18/18 11/22/20
f 271/24/22 270/23/21 11/22/20
f 264/26/24 263/158/149 4/27/25
f 272/29/27 271/24/22 12/25/23
f 265/31/29 264/26/24 5/28/26
f 272/29/27 13/30/28 14/33/31
f 265/31/29 6/32/30 7/35/33
f 274/37/35 273/34/32 14/33/31
f 266/36/34 7/35/33 8/39/37
f 275/13/13 274/37/35 15/38/36
f 268/42/40 267/40/38 8/39/37
f 5/28/26 19/55/52 20/43/41
f 13/30/28 27/56/53 28/44/42
f 7/35/33 6/32/30 20/43/41
f 15/38/36 14/33/31 28/44/42
f 7/35/33 21/45/43 22/47/45
f 16/41/39 15/38/36 29/46/44
f 9/17/17 8/39/37 22/47/45
f 17/14/14 16/41/39 30/48/46
f 10/18/18 9/17/17 23/49/47
f 10/18/18 24/51/49 25/53/50
f 12/25/23 11/22/20 25/53/50
f 4/27/25 18/62/59 19/55/52
f 13/30/28 12/25/23 26/54/51
f 24/51/49 23/49/47 37/57/54
f 24/51/49 38/58/55 39/60/57
f 26/54/51 25/53/50 39/60/57
f 18/62/59 32/145/137 33/63/60
f 27/56/53 26/54/51 40/61/58
f 19/55/52 33/63/60 34/65/62
f 28/44/42 27/56/53 41/64/61
f 21/45/43 20/43/41 34/65/62
f 29/46/44 28/44/42 42/66/63
f 21/45/43 35/67/64 36/69/66
f 29/46/44 43/68/65 44/70/67
f 22/47/45 36/69/66 37/57/54
f 30/48/46 44/70/67 45/71/56
f 41/64/61 55/89/84 56/72/68
f 35/67/64 34/65/62 48/73/69
f 43/68/65 42/66/63 56/72/68
f 35/67/64 49/74/70 50/76/72
f 44/70/67 43/68/65 57/75/71
f 36/69/66 50/76/72 51/78/74
f 45/71/56 44/70/67 58/77/73
f 38/58/55 37/57/54 51/78/74
f 38/58/55 52/80/76 53/82/77
f 116/83/78 114/178/1 130/84/79
f 40/61/58 39/60/57 53/82/77
f 33/63/60 32/145/137 46/87/82
f 41/64/61 40/61/58 54/86/81
f 33/63/60 47/88/83 48/73/69
f 53/82/77 52/80/76 66/91/86
f 53/82/77 67/92/87 68/93/88
f 46/87/82 60/118/111 61/94/89
f 55/89/84 54/86/81 68/93/88
f 47/88/83 61/94/89 62/96/91
f 55/89/84 69/95/90 70/97/92
f 49/74/70 48/73/69 62/96/91
f 57/75/71 56/72/68 70/97/92
f 49/74/70 63/98/93 64/100/95
f 58/77/73 57/75/71 71/99/94
f 51/78/74 50/76/72 64/100/95
f 58/77/73 72/101/96 73/103/85
f 51/78/74 65/102/97 66/91/86
f 4/27/25 102/159/150 103/104/98
f 71/99/94 70/97/92 84/105/99
f 63/98/93 77/122/115 78/107/101
f 72/101/96 71/99/94 85/106/100
f 65/102/97 64/100/95 78/107/101
f 72/101/96 86/108/102 87/110/104
f 66/91/86 65/102/97 79/109/103
f 377/112/106 88/137/130 108/113/107
f 66/91/86 80/111/105 81/116/109
f 68/93/88 67/92/87 81/116/109
f 60/118/111 74/125/118 75/119/112
f 69/95/90 68/93/88 82/117/110
f 62/96/91 61/94/89 75/119/112
f 69/95/90 83/120/113 84/105/99
f 63/98/93 62/96/91 76/121/114
f 82/117/110 81/116/109 95/123/116
f 74/125/118 88/137/130 89/126/119
f 83/120/113 82/117/110 96/124/117
f 75/119/112 89/126/119 90/128/121
f 83/120/113 97/127/120 98/129/122
f 77/122/115 76/121/114 90/128/121
f 84/105/99 98/129/122 99/131/124
f 77/122/115 91/130/123 92/132/125
f 86/108/102 85/106/100 99/131/124
f 78/107/101 92/132/125 93/134/127
f 86/108/102 100/133/126 101/135/128
f 80/111/105 79/109/103 93/134/127
f 74/125/118 107/157/148 108/113/107
f 80/111/105 94/136/129 95/123/116
f 91/130/123 380/154/145 381/139/131
f 100/133/126 99/131/124 388/140/132
f 92/132/125 381/139/131 382/142/134
f 100/133/126 389/141/133 390/143/135
f 94/136/129 93/134/127 382/142/134
f 32/145/137 18/62/59 103/104/98
f 94/136/129 383/144/136 384/148/139
f 96/124/117 95/123/116 384/148/139
f 88/137/130 377/112/106 378/150/141
f 97/127/120 96/124/117 385/149/140
f 89/126/119 378/150/141 379/152/143
f 97/127/120 386/151/142 387/153/144
f 91/130/123 90/128/121 379/152/143
f 98/129/122 387/153/144 388/140/132
f 32/145/137 104/146/138 105/155/146
f 46/87/82 105/155/146 106/156/147
f 60/118/111 106/156/147 107/157/148
f 263/158/149 392/674/466 102/159/150
f 125/160/151 121/170/161 111/161/152
f 415/163/154 306/12/12 3/10/10
f 414/165/156 124/171/162 115/166/157
f 122/168/159 2/5/5 1/3/3
f 121/170/161 126/172/163 109/2/2
f 123/164/155 3/10/10 2/5/5
f 125/160/151 113/162/153 115/166/157
f 127/169/160 1/3/3 109/2/2
f 116/173/78 117/176/166 111/161/152
f 119/174/164 117/186/166 132/175/165
f 117/176/166 119/177/164 113/162/153
f 119/177/164 120/180/6 115/166/157
f 114/178/1 112/187/4 128/179/167
f 120/180/6 594/675/170 409/167/158
f 110/181/9 260/676/11 425/182/168
f 594/184/170 120/6/6 135/8/8
f 117/186/166 116/83/78 131/85/80
f 112/187/4 110/181/9 129/183/169
f 105/188/146 104/193/138 127/169/160
f 107/189/148 125/160/151 124/171/162
f 103/191/98 102/195/150 123/164/155
f 106/192/147 105/188/146 126/172/163
f 104/193/138 103/191/98 122/168/159
f 108/190/107 124/171/162 414/165/156
f 102/195/150 392/677/466 415/163/154
f 107/189/148 106/192/147 121/170/161
f 135/8/8 141/198/174 435/196/172
f 425/182/168 434/209/185 136/197/173
f 134/7/7 140/200/176 141/198/174
f 129/183/169 136/197/173 118/199/175
f 132/175/165 139/201/177 140/200/176
f 131/85/80 138/202/178 139/201/177
f 130/84/79 137/203/179 138/202/178
f 128/179/167 118/199/175 137/203/179
f 139/201/177 145/205/181 147/204/180
f 138/202/178 144/206/182 145/205/181
f 137/203/179 143/207/183 144/206/182
f 118/199/175 133/212/188 143/207/183
f 141/198/174 148/211/187 443/208/184
f 434/209/185 442/353/329 142/210/186
f 140/200/176 147/204/180 148/211/187
f 136/197/173 142/210/186 133/212/188
f 225/213/189 151/217/193 152/214/190
f 227/216/192 149/226/202 151/217/193
f 226/218/194 156/225/201 453/219/195
f 551/221/197 452/678/594 150/222/198
f 229/224/200 155/228/204 156/225/201
f 228/223/199 150/222/198 149/226/202
f 230/227/203 153/229/205 155/228/204
f 231/215/191 152/214/190 153/229/205
f 567/230/206 239/236/212 163/231/207
f 240/233/209 568/355/331 461/234/210
f 239/236/212 241/240/216 162/237/213
f 245/238/214 240/233/209 157/235/211
f 241/240/216 242/242/218 160/241/217
f 242/242/218 243/244/220 159/243/219
f 243/244/220 244/246/222 158/245/221
f 244/246/222 245/238/214 146/239/215
f 236/247/223 232/250/226 167/248/224
f 232/250/226 233/252/228 166/251/227
f 233/252/228 234/254/230 165/253/229
f 234/254/230 237/263/239 154/255/231
f 561/256/232 235/262/238 170/257/233
f 238/259/235 562/354/330 470/260/236
f 235/262/238 236/247/223 169/249/225
f 237/263/239 238/259/235 164/261/237
f 246/264/240 173/268/244 174/265/241
f 247/267/243 172/270/246 173/268/244
f 249/269/245 161/279/255 172/270/246
f 248/271/247 177/278/254 480/272/248
f 579/274/250 479/356/332 171/275/251
f 251/277/253 176/280/256 177/278/254
f 250/276/252 171/275/251 161/279/255
f 252/266/242 174/265/241 176/280/256
f 253/281/257 184/288/264 489/282/258
f 586/284/260 488/303/279 178/285/261
f 255/287/263 183/292/268 184/288/264
f 254/286/262 178/285/261 168/289/265
f 256/291/267 181/294/270 183/292/268
f 257/293/269 180/296/272 181/294/270
f 258/295/271 179/297/273 180/296/272
f 259/290/266 168/289/265 179/297/273
f 181/294/270 188/299/275 190/298/274
f 180/296/272 187/300/276 188/299/275
f 179/297/273 186/301/277 187/300/276
f 168/289/265 175/306/282 186/301/277
f 184/288/264 191/305/281 498/302/278
f 488/303/279 497/311/287 185/304/280
f 183/292/268 190/298/274 191/305/281
f 178/285/261 185/304/280 175/306/282
f 187/300/276 194/308/284 195/307/283
f 186/301/277 193/309/285 194/308/284
f 175/306/282 182/314/290 193/309/285
f 191/305/281 198/313/289 507/310/286
f 497/311/287 506/679/566 192/312/288
f 190/298/274 197/315/291 198/313/289
f 185/304/280 192/312/288 182/314/290
f 188/299/275 195/307/283 197/315/291
f 507/310/286 198/313/289 205/316/292
f 192/312/288 506/679/566 515/318/294
f 198/313/289 197/315/291 204/320/296
f 182/314/290 192/312/288 199/319/295
f 197/315/291 195/307/283 202/322/298
f 195/307/283 194/308/284 201/323/299
f 194/308/284 193/309/285 200/324/300
f 193/309/285 182/314/290 189/321/297
f 189/321/297 199/319/295 206/325/301
f 204/320/296 202/322/298 209/327/303
f 202/322/298 201/323/299 208/329/305
f 201/323/299 200/324/300 207/330/306
f 200/324/300 189/321/297 196/326/302
f 516/317/293 205/316/292 212/331/307
f 199/319/295 515/318/294 524/333/309
f 205/316/292 204/320/296 211/328/304
f 209/327/303 208/329/305 215/334/310
f 208/329/305 207/330/306 214/336/312
f 207/330/306 196/326/302 203/337/313
f 525/332/308 212/331/307 218/338/314
f 206/325/301 524/333/309 533/340/316
f 212/331/307 211/328/304 217/342/318
f 196/326/302 206/325/301 213/341/317
f 211/328/304 209/327/303 216/335/311
f 214/336/312 203/337/313 210/343/319
f 534/339/315 218/338/314 224/345/321
f 213/341/317 533/340/316 541/347/323
f 218/338/314 217/342/318 223/349/325
f 203/337/313 213/341/317 219/348/324
f 217/342/318 216/335/311 222/350/326
f 216/335/311 215/334/310 221/351/327
f 215/334/310 214/336/312 220/344/320
f 144/206/182 231/215/191 230/227/203
f 145/205/181 230/227/203 229/224/200
f 142/210/186 228/223/199 227/216/192
f 147/204/180 229/224/200 226/218/194
f 442/353/329 551/221/197 228/223/199
f 148/211/187 226/218/194 550/220/196
f 133/212/188 227/216/192 225/213/189
f 143/207/183 225/213/189 231/215/191
f 146/239/215 157/235/211 238/259/235
f 163/231/207 162/237/213 236/247/223
f 157/235/211 461/234/210 562/354/330
f 462/232/208 163/231/207 235/262/238
f 158/245/221 146/239/215 237/263/239
f 159/243/219 158/245/221 234/254/230
f 160/241/217 159/243/219 233/252/228
f 162/237/213 160/241/217 232/250/226
f 151/217/193 149/226/202 245/238/214
f 152/214/190 151/217/193 244/246/222
f 153/229/205 152/214/190 243/244/220
f 155/228/204 153/229/205 242/242/218
f 149/226/202 150/222/198 240/233/209
f 156/225/201 155/228/204 241/240/216
f 150/222/198 452/678/594 568/355/331
f 453/219/195 156/225/201 239/236/212
f 169/249/225 167/248/224 252/266/242
f 154/255/231 164/261/237 250/276/252
f 170/257/233 169/249/225 251/277/253
f 164/261/237 470/260/236 579/274/250
f 471/258/234 170/257/233 248/271/247
f 165/253/229 154/255/231 249/269/245
f 166/251/227 165/253/229 247/267/243
f 167/248/224 166/251/227 246/264/240
f 161/279/255 259/290/266 258/295/271
f 172/270/246 258/295/271 257/293/269
f 173/268/244 257/293/269 256/291/267
f 174/265/241 256/291/267 255/287/263
f 171/275/251 254/286/262 259/290/266
f 176/280/256 255/287/263 253/281/257
f 479/356/332 586/284/260 254/286/262
f 177/278/254 253/281/257 585/283/259
f 401/357/333 408/508/391 406/358/334
f 261/359/335 406/358/334 404/360/336
f 413/362/338 432/519/462 431/363/339
f 262/361/337 404/360/336 402/365/341
f 277/366/342 402/365/341 260/367/11
f 291/369/343 290/393/352 275/370/13
f 284/372/344 283/400/359 268/373/40
f 270/376/21 285/378/345 284/372/344
f 271/377/22 286/405/363 285/378/345
f 264/379/24 279/385/348 278/380/346
f 287/382/347 286/405/363 271/377/22
f 265/384/29 280/388/349 279/385/348
f 273/386/32 288/390/350 287/382/347
f 266/387/34 281/396/355 280/388/349
f 274/389/35 289/397/356 288/390/350
f 282/391/351 281/396/355 266/387/34
f 290/393/352 289/397/356 274/389/35
f 268/373/40 283/400/359 282/391/351
f 294/394/353 293/406/364 279/385/348
f 302/395/354 301/407/365 287/382/347
f 281/396/355 295/418/376 294/394/353
f 289/397/356 303/399/358 302/395/354
f 296/398/357 295/418/376 281/396/355
f 290/393/352 304/420/378 303/399/358
f 283/400/359 297/402/361 296/398/357
f 305/401/360 304/420/378 290/393/352
f 284/372/344 298/408/366 297/402/361
f 299/404/362 298/408/366 284/372/344
f 286/405/363 300/412/370 299/404/362
f 293/406/364 292/414/372 278/380/346
f 301/407/365 300/412/370 286/405/363
f 298/408/366 313/432/389 312/409/367
f 314/411/369 313/432/389 298/408/366
f 300/412/370 315/415/373 314/411/369
f 308/413/371 307/439/394 292/414/372
f 301/407/365 316/424/382 315/415/373
f 309/416/374 308/413/371 293/406/364
f 317/417/375 316/424/382 301/407/365
f 295/418/376 310/425/383 309/416/374
f 303/399/358 318/421/379 317/417/375
f 311/419/377 310/425/383 295/418/376
f 304/420/378 319/422/380 318/421/379
f 312/409/367 311/419/377 296/398/357
f 305/401/360 320/431/368 319/422/380
f 331/423/381 330/447/402 316/424/382
f 310/425/383 324/451/406 323/426/384
f 318/421/379 332/452/407 331/423/381
f 325/427/385 324/451/406 310/425/383
f 333/428/386 332/452/407 318/421/379
f 326/429/387 325/427/385 311/419/377
f 334/430/388 333/428/386 319/422/380
f 313/432/389 327/443/398 326/429/387
f 328/434/390 327/443/398 313/432/389
f 408/435/391 428/520/463 427/436/392
f 315/415/373 329/440/395 328/434/390
f 322/438/393 321/446/401 307/439/394
f 316/424/382 330/447/402 329/440/395
f 323/426/384 322/438/393 308/413/371
f 328/434/390 342/444/399 341/442/397
f 329/440/395 343/448/403 342/444/399
f 336/445/400 335/469/423 321/446/401
f 330/447/402 344/470/424 343/448/403
f 337/449/404 336/445/400 322/438/393
f 345/450/405 344/470/424 330/447/402
f 324/451/406 338/459/413 337/449/404
f 332/452/407 346/454/409 345/450/405
f 339/453/408 338/459/413 324/451/406
f 333/428/386 347/460/414 346/454/409
f 326/429/387 340/462/416 339/453/408
f 348/455/396 347/460/414 333/428/386
f 341/442/397 340/462/416 326/429/387
f 394/456/410 393/496/448 278/380/346
f 360/457/411 359/479/433 345/450/405
f 353/458/412 352/481/435 338/459/413
f 347/460/414 361/463/417 360/457/411
f 354/461/415 353/458/412 339/453/408
f 348/455/396 362/486/420 361/463/417
f 341/442/397 355/487/440 354/461/415
f 377/112/106 400/114/108 399/464/418
f 356/467/421 355/487/440 341/442/397
f 343/448/403 357/471/425 356/467/421
f 336/445/400 350/472/426 349/468/422
f 344/470/424 358/473/427 357/471/425
f 337/449/404 351/474/428 350/472/426
f 345/450/405 359/479/433 358/473/427
f 338/459/413 352/481/435 351/474/428
f 357/471/425 371/476/430 370/475/429
f 350/472/426 364/492/444 363/465/419
f 358/473/427 372/493/445 371/476/430
f 365/477/431 364/492/444 350/472/426
f 373/478/432 372/493/445 358/473/427
f 366/480/434 365/477/431 351/474/428
f 374/482/436 373/478/432 359/479/433
f 367/483/437 366/480/434 352/481/435
f 361/463/417 375/489/441 374/482/436
f 368/484/438 367/483/437 353/458/412
f 376/485/439 375/489/441 361/463/417
f 355/487/440 369/490/442 368/484/438
f 399/464/418 398/495/447 349/468/422
f 370/475/429 369/490/442 355/487/440
f 381/139/131 380/154/145 366/480/434
f 375/489/441 389/141/133 388/140/132
f 382/142/134 381/139/131 367/483/437
f 390/143/135 389/141/133 375/489/441
f 383/144/136 382/142/134 368/484/438
f 395/491/443 394/456/410 292/414/372
f 370/475/429 384/148/139 383/144/136
f 371/476/430 385/149/140 384/148/139
f 378/150/141 377/112/106 363/465/419
f 372/493/445 386/151/142 385/149/140
f 379/152/143 378/150/141 364/492/444
f 387/153/144 386/151/142 372/493/445
f 366/480/434 380/154/145 379/152/143
f 374/482/436 388/140/132 387/153/144
f 321/446/401 396/680/465 395/491/443
f 397/494/446 396/680/465 321/446/401
f 398/495/447 397/494/446 335/469/423
f 393/496/448 392/681/466 263/381/149
f 405/497/449 403/506/457 416/498/450
f 277/366/342 306/368/12 415/500/154
f 414/165/156 409/167/158 407/502/453
f 261/359/335 262/361/337 417/504/455
f 403/506/457 401/357/333 421/507/458
f 262/361/337 277/366/342 418/501/452
f 407/502/453 405/497/449 420/499/451
f 421/507/458 401/357/333 261/359/335
f 403/506/457 410/511/460 408/508/391
f 412/364/340 431/363/339 429/509/459
f 405/497/449 412/512/340 410/511/460
f 407/502/453 413/515/338 412/512/340
f 406/437/334 427/436/392 423/513/461
f 409/167/158 594/675/170 413/515/338
f 402/516/341 424/521/464 425/517/168
f 594/184/170 426/185/171 432/519/462
f 410/510/460 429/509/459 428/520/463
f 404/514/336 423/513/461 424/521/464
f 396/522/465 421/507/458 422/505/456
f 419/503/454 420/499/451 398/524/447
f 394/526/410 417/504/455 418/501/452
f 397/528/446 416/498/450 421/507/458
f 395/523/443 422/505/456 417/504/455
f 400/194/108 414/165/156 419/503/454
f 393/527/448 418/501/452 415/500/154
f 420/499/451 416/498/450 397/528/446
f 435/196/172 440/531/468 432/519/462
f 433/530/467 434/542/185 425/517/168
f 440/531/468 439/533/470 431/363/339
f 411/532/469 433/530/467 424/521/464
f 439/533/470 438/534/471 429/509/459
f 438/534/471 437/535/472 428/520/463
f 437/535/472 436/536/473 427/436/392
f 436/536/473 411/532/469 423/513/461
f 448/537/474 446/538/475 438/534/471
f 446/538/475 445/539/476 437/535/472
f 445/539/476 444/540/477 436/536/473
f 444/540/477 430/544/480 411/532/469
f 443/208/184 449/543/479 440/531/468
f 441/541/478 442/671/329 434/542/185
f 449/543/479 448/537/474 439/533/470
f 430/544/480 441/541/478 433/530/467
f 455/545/481 454/548/484 549/546/482
f 454/548/484 450/556/491 553/549/485
f 453/219/195 459/554/489 552/550/486
f 451/551/487 452/672/594 551/552/197
f 459/554/489 458/557/492 555/555/490
f 450/556/491 451/551/487 554/553/488
f 458/557/492 456/559/494 556/558/493
f 456/559/494 455/545/481 557/547/483
f 567/230/206 462/232/208 468/560/495
f 570/562/497 460/568/501 461/563/210
f 569/561/496 468/560/495 467/565/498
f 575/567/500 447/575/508 460/568/501
f 571/566/499 467/565/498 465/569/502
f 572/570/503 465/569/502 464/571/504
f 573/572/505 464/571/504 463/573/506
f 574/574/507 463/573/506 447/575/508
f 564/576/509 476/590/521 474/577/510
f 558/578/511 474/577/510 473/579/512
f 559/580/513 473/579/512 472/581/514
f 560/582/515 472/581/514 457/583/516
f 561/256/232 471/258/234 477/585/518
f 566/587/520 469/591/522 470/588/236
f 563/586/519 477/585/518 476/590/521
f 565/584/517 457/583/516 469/591/522
f 483/592/523 482/595/526 576/593/524
f 482/595/526 481/597/528 577/596/527
f 481/597/528 466/605/535 581/598/529
f 480/272/248 486/603/533 580/599/530
f 478/600/531 479/673/332 579/601/250
f 486/603/533 485/606/536 583/604/534
f 466/605/535 478/600/531 582/602/532
f 485/606/536 483/592/523 584/594/525
f 489/282/258 495/611/540 587/607/537
f 487/608/538 488/627/279 586/609/260
f 495/611/540 494/615/544 589/612/541
f 475/613/542 487/608/538 588/610/539
f 494/615/544 492/617/546 590/616/545
f 492/617/546 491/619/548 591/618/547
f 491/619/548 490/621/550 592/620/549
f 490/621/550 475/613/542 593/614/543
f 503/622/551 501/623/552 492/617/546
f 501/623/552 500/624/553 491/619/548
f 500/624/553 499/625/554 490/621/550
f 499/625/554 484/629/557 475/613/542
f 498/302/278 504/628/556 495/611/540
f 496/626/555 497/634/287 488/627/279
f 504/628/556 503/622/551 494/615/544
f 484/629/557 496/626/555 487/608/538
f 510/630/558 509/631/559 500/624/553
f 509/631/559 508/632/560 499/625/554
f 508/632/560 493/636/563 484/629/557
f 507/310/286 513/635/562 504/628/556
f 505/633/561 506/640/566 497/634/287
f 513/635/562 512/637/564 503/622/551
f 493/636/563 505/633/561 496/626/555
f 512/637/564 510/630/558 501/623/552
f 507/310/286 516/317/293 522/638/565
f 505/633/561 514/642/568 515/639/294
f 513/635/562 522/638/565 521/641/567
f 493/636/563 502/646/572 514/642/568
f 512/637/564 521/641/567 519/643/569
f 510/630/558 519/643/569 518/644/570
f 509/631/559 518/644/570 517/645/571
f 508/632/560 517/645/571 502/646/572
f 502/646/572 511/651/577 523/647/573
f 521/641/567 530/654/579 528/648/574
f 519/643/569 528/648/574 527/649/575
f 518/644/570 527/649/575 526/650/576
f 517/645/571 526/650/576 511/651/577
f 516/317/293 525/332/308 531/652/578
f 514/642/568 523/647/573 524/653/309
f 522/638/565 531/652/578 530/654/579
f 528/648/574 537/662/586 536/655/580
f 527/649/575 536/655/580 535/656/581
f 526/650/576 535/656/581 520/657/582
f 525/332/308 534/339/315 539/658/583
f 523/647/573 532/661/585 533/659/316
f 531/652/578 539/658/583 538/660/584
f 511/651/577 520/657/582 532/661/585
f 530/654/579 538/660/584 537/662/586
f 535/656/581 543/670/593 529/663/587
f 534/339/315 542/346/322 548/664/588
f 532/661/585 540/667/590 541/665/323
f 539/658/583 548/664/588 547/666/589
f 520/657/582 529/663/587 540/667/590
f 538/660/584 547/666/589 545/668/591
f 537/662/586 545/668/591 544/669/592
f 536/655/580 544/669/592 543/670/593
f 556/558/493 557/547/483 445/539/476
f 555/555/490 556/558/493 446/538/475
f 553/549/485 554/553/488 441/541/478
f 552/550/486 555/555/490 448/537/474
f 554/553/488 551/552/197 442/671/329
f 550/220/196 552/550/486 449/543/479
f 549/546/482 553/549/485 430/544/480
f 557/547/483 549/546/482 444/540/477
f 447/575/508 565/584/517 566/587/520
f 468/560/495 563/586/519 564/576/509
f 460/568/501 566/587/520 562/589/330
f 462/232/208 561/256/232 563/586/519
f 463/573/506 560/582/515 565/584/517
f 464/571/504 559/580/513 560/582/515
f 465/569/502 558/578/511 559/580/513
f 467/565/498 564/576/509 558/578/511
f 454/548/484 574/574/507 575/567/500
f 455/545/481 573/572/505 574/574/507
f 456/559/494 572/570/503 573/572/505
f 458/557/492 571/566/499 572/570/503
f 450/556/491 575/567/500 570/562/497
f 459/554/489 569/561/496 571/566/499
f 451/551/487 570/562/497 568/564/331
f 453/219/195 567/230/206 569/561/496
f 476/590/521 583/604/534 584/594/525
f 457/583/516 581/598/529 582/602/532
f 477/585/518 580/599/530 583/604/534
f 469/591/522 582/602/532 579/601/250
f 471/258/234 578/273/249 580/599/530
f 472/581/514 577/596/527 581/598/529
f 473/579/512 576/593/524 577/596/527
f 474/577/510 584/594/525 576/593/524
f 592/620/549 593/614/543 466/605/535
f 591/618/547 592/620/549 481/597/528
f 590/616/545 591/618/547 482/595/526
f 589/612/541 590/616/545 483/592/523
f 593/614/543 588/610/539 478/600/531
f 587/607/537 589/612/541 485/606/536
f 588/610/539 586/609/260 479/673/332
f 585/283/259 587/607/537 486/603/533
