# Blender 4.1.1
# www.blender.org
mtllib slime.mtl
o 球
v 0.000000 0.517404 0.762249
v 0.000000 0.156767 1.140786
v 0.000000 -0.274774 1.345649
v 0.000000 -0.487191 1.372011
v 0.000000 -0.682671 1.345649
v 0.000000 -0.989776 1.140786
v -0.052219 0.721451 0.262523
v -0.102431 0.643376 0.514957
v -0.148707 0.517404 0.747602
v -0.189268 0.351881 0.951517
v -0.222556 0.156767 1.118866
v -0.247291 -0.056177 1.243217
v -0.262523 -0.274774 1.319792
v -0.267666 -0.487191 1.345649
v -0.262523 -0.682671 1.319792
v -0.247291 -0.852309 1.243217
v -0.222556 -0.989776 1.118866
v -0.189268 -1.091959 0.951517
v -0.148707 -1.159425 0.747602
v -0.102431 -1.196551 0.514957
v -0.052219 -1.211164 0.262523
v -0.102431 0.721451 0.247291
v -0.200926 0.643376 0.485079
v -0.291700 0.517404 0.704226
v -0.371264 0.351881 0.896310
v -0.436560 0.156767 1.053948
v -0.485079 -0.056177 1.171085
v -0.514957 -0.274774 1.243217
v -0.525046 -0.487191 1.267573
v -0.514957 -0.682671 1.243217
v -0.485079 -0.852309 1.171085
v -0.436560 -0.989776 1.053948
v -0.371264 -1.091959 0.896310
v -0.291700 -1.159424 0.704226
v -0.200926 -1.196551 0.485079
v -0.102431 -1.211164 0.247291
v -0.148707 0.721451 0.222556
v -0.291700 0.643376 0.436560
v -0.423483 0.517404 0.633787
v -0.538991 0.351881 0.806657
v -0.633786 0.156767 0.948529
v -0.704226 -0.056177 1.053949
v -0.747602 -0.274774 1.118866
v -0.762249 -0.487191 1.140786
v -0.747602 -0.682671 1.118866
v -0.704226 -0.852309 1.053949
v -0.633786 -0.989776 0.948529
v -0.538991 -1.091959 0.806657
v -0.423483 -1.159424 0.633787
v -0.291700 -1.196551 0.436560
v -0.148707 -1.211164 0.222556
v -0.189268 0.721451 0.189269
v -0.371264 0.643376 0.371264
v -0.538991 0.517404 0.538991
v -0.686006 0.351881 0.686006
v -0.806657 0.156767 0.806657
v -0.896309 -0.056177 0.896310
v -0.951517 -0.274774 0.951517
v -0.970158 -0.487191 0.970158
v -0.951517 -0.682671 0.951517
v -0.896309 -0.852309 0.896310
v -0.806657 -0.989776 0.806657
v -0.686006 -1.091959 0.686006
v -0.538991 -1.159424 0.538991
v -0.371264 -1.196551 0.371264
v -0.189268 -1.211164 0.189269
v -0.222556 0.721451 0.148707
v -0.436560 0.643376 0.291700
v -0.633786 0.517404 0.423483
v -0.806657 0.351881 0.538991
v -0.948528 0.156767 0.633786
v -1.053948 -0.056177 0.704226
v -1.118866 -0.274774 0.747602
v -1.140785 -0.487191 0.762248
v -1.118866 -0.682671 0.747602
v -1.053948 -0.852309 0.704226
v -0.948528 -0.989776 0.633786
v -0.806657 -1.091959 0.538991
v -0.633786 -1.159424 0.423483
v -0.436560 -1.196551 0.291700
v -0.222556 -1.211164 0.148707
v -0.000000 0.747813 -0.000000
v -0.247291 0.721451 0.102431
v -0.485079 0.643376 0.200926
v -0.704226 0.517404 0.291700
v -0.896309 0.351881 0.371264
v -1.053948 0.156767 0.436560
v -1.171085 -0.056177 0.485079
v -1.243217 -0.274774 0.514957
v -1.267573 -0.487191 0.525046
v -1.243217 -0.682671 0.514957
v -1.171085 -0.852309 0.485079
v -1.053948 -0.989776 0.436560
v -0.896309 -1.091959 0.371264
v -0.704226 -1.159424 0.291700
v -0.485079 -1.196551 0.200926
v -0.247291 -1.211164 0.102431
v -0.262523 0.721451 0.052219
v -0.514957 0.643376 0.102431
v -0.747602 0.517404 0.148707
v -0.951517 0.351881 0.189269
v -1.118866 0.156767 0.222556
v -1.243217 -0.056177 0.247291
v -1.319792 -0.274774 0.262523
v -1.345648 -0.487191 0.267666
v -1.319792 -0.682671 0.262523
v -1.243217 -0.852309 0.247291
v -1.118866 -0.989776 0.222556
v -0.951517 -1.091959 0.189269
v -0.747602 -1.159424 0.148707
v -0.514957 -1.196551 0.102431
v -0.262523 -1.211164 0.052219
v -0.267666 0.721451 0.000000
v -0.525046 0.643376 0.000000
v -0.762248 0.517404 -0.000000
v -0.970158 0.351881 0.000000
v -1.140785 0.156767 -0.000000
v -1.267573 -0.056177 0.000000
v -1.345648 -0.274774 -0.000000
v -1.372011 -0.487191 -0.000000
v -1.345648 -0.682671 -0.000000
v -1.267573 -0.852309 0.000000
v -1.140785 -0.989776 -0.000000
v -0.970158 -1.091959 0.000000
v -0.762248 -1.159424 -0.000000
v -0.525046 -1.196551 0.000000
v -0.267666 -1.211164 0.000000
v -0.262523 0.721451 -0.052219
v -0.514957 0.643376 -0.102431
v -0.747602 0.517404 -0.148707
v -0.951517 0.351881 -0.189268
v -1.118866 0.156767 -0.222556
v -1.243217 -0.056177 -0.247291
v -1.319792 -0.274774 -0.262523
v -1.345648 -0.487191 -0.267666
v -1.319792 -0.682671 -0.262523
v -1.243217 -0.852309 -0.247291
v -1.118866 -0.989776 -0.222556
v -0.951517 -1.091959 -0.189268
v -0.747602 -1.159424 -0.148707
v -0.514957 -1.196551 -0.102431
v -0.262523 -1.211164 -0.052219
v -0.247291 0.721451 -0.102431
v -0.485079 0.643376 -0.200926
v -0.704226 0.517404 -0.291700
v -0.896309 0.351881 -0.371263
v -1.053948 0.156767 -0.436560
v -1.171085 -0.056177 -0.485079
v -1.243217 -0.274774 -0.514957
v -1.267573 -0.487191 -0.525046
v -1.243217 -0.682671 -0.514957
v -1.171085 -0.852309 -0.485079
v -1.053948 -0.989776 -0.436560
v -0.896309 -1.091959 -0.371263
v -0.704226 -1.159424 -0.291700
v -0.485079 -1.196551 -0.200926
v -0.247291 -1.211164 -0.102431
v -0.222556 0.721451 -0.148707
v -0.436560 0.643376 -0.291700
v -0.633786 0.517404 -0.423483
v -0.806657 0.351881 -0.538991
v -0.948528 0.156767 -0.633786
v -1.053949 -0.056177 -0.704226
v -1.118866 -0.274774 -0.747602
v -1.140785 -0.487191 -0.762248
v -1.118866 -0.682671 -0.747602
v -1.053949 -0.852309 -0.704226
v -0.948528 -0.989776 -0.633786
v -0.806657 -1.091959 -0.538991
v -0.633786 -1.159424 -0.423483
v -0.436560 -1.196551 -0.291700
v -0.222556 -1.211164 -0.148707
v -0.189268 0.721451 -0.189268
v -0.371264 0.643376 -0.371264
v -0.538991 0.517404 -0.538991
v -0.686006 0.351881 -0.686006
v -0.806657 0.156767 -0.806657
v -0.896309 -0.056177 -0.896309
v -0.951517 -0.274774 -0.951517
v -0.970158 -0.487191 -0.970158
v -0.951517 -0.682671 -0.951517
v -0.896309 -0.852309 -0.896309
v -0.806657 -0.989776 -0.806657
v -0.686006 -1.091959 -0.686006
v -0.538991 -1.159424 -0.538991
v -0.371264 -1.196551 -0.371264
v -0.189268 -1.211164 -0.189268
v -0.148707 0.721451 -0.222556
v -0.291700 0.643376 -0.436560
v -0.423482 0.517404 -0.633786
v -0.538991 0.351881 -0.806657
v -0.633786 0.156767 -0.948528
v -0.704226 -0.056177 -1.053948
v -0.747602 -0.274774 -1.118865
v -0.762248 -0.487191 -1.140785
v -0.747602 -0.682671 -1.118865
v -0.704226 -0.852309 -1.053948
v -0.633786 -0.989776 -0.948528
v -0.538991 -1.091959 -0.806657
v -0.423482 -1.159424 -0.633786
v -0.291700 -1.196551 -0.436560
v -0.148707 -1.211164 -0.222556
v -0.102431 0.721451 -0.247291
v -0.200926 0.643376 -0.485079
v -0.291700 0.517404 -0.704226
v -0.371264 0.351881 -0.896309
v -0.436560 0.156767 -1.053948
v -0.485079 -0.056177 -1.171085
v -0.514957 -0.274774 -1.243217
v -0.525045 -0.487191 -1.267573
v -0.514957 -0.682671 -1.243217
v -0.485079 -0.852309 -1.171085
v -0.436560 -0.989776 -1.053948
v -0.371264 -1.091959 -0.896309
v -0.291700 -1.159424 -0.704226
v -0.200926 -1.196551 -0.485079
v -0.102431 -1.211164 -0.247291
v -0.052219 0.721451 -0.262523
v -0.102431 0.643376 -0.514957
v -0.148707 0.517404 -0.747602
v -0.189269 0.351881 -0.951517
v -0.222556 0.156767 -1.118865
v -0.247291 -0.056177 -1.243217
v -0.262523 -0.274774 -1.319792
v -0.267666 -0.487191 -1.345648
v -0.262523 -0.682671 -1.319792
v -0.247291 -0.852309 -1.243217
v -0.222556 -0.989776 -1.118865
v -0.189269 -1.091959 -0.951517
v -0.148707 -1.159424 -0.747602
v -0.102431 -1.196551 -0.514957
v -0.052219 -1.211164 -0.262523
v -0.000000 0.721451 -0.267666
v 0.000000 0.643376 -0.525046
v 0.000000 0.517404 -0.762248
v -0.000000 0.351881 -0.970158
v 0.000000 0.156767 -1.140785
v -0.000000 -0.056177 -1.267573
v 0.000000 -0.274774 -1.345648
v 0.000000 -0.487191 -1.372010
v 0.000000 -0.682671 -1.345648
v -0.000000 -0.852309 -1.267573
v 0.000000 -0.989776 -1.140785
v -0.000000 -1.091959 -0.970158
v 0.000000 -1.159424 -0.762248
v 0.000000 -1.196551 -0.525046
v -0.000000 -1.211164 -0.267666
v 0.052219 0.721451 -0.262523
v 0.102431 0.643376 -0.514957
v 0.148707 0.517404 -0.747602
v 0.189268 0.351881 -0.951517
v 0.222556 0.156767 -1.118865
v 0.247291 -0.056177 -1.243217
v 0.262523 -0.274774 -1.319792
v 0.267666 -0.487191 -1.345647
v 0.262523 -0.682671 -1.319792
v 0.247291 -0.852309 -1.243217
v 0.222556 -0.989776 -1.118865
v 0.189268 -1.091959 -0.951517
v 0.148707 -1.159424 -0.747602
v 0.102431 -1.196551 -0.514957
v 0.052219 -1.211164 -0.262523
v 0.102431 0.721451 -0.247291
v 0.200926 0.643376 -0.485079
v 0.291700 0.517404 -0.704225
v 0.371263 0.351881 -0.896309
v 0.436560 0.156767 -1.053948
v 0.485079 -0.056177 -1.171085
v 0.514957 -0.274774 -1.243217
v 0.525046 -0.487191 -1.267572
v 0.514957 -0.682671 -1.243217
v 0.485079 -0.852309 -1.171085
v 0.436560 -0.989776 -1.053948
v 0.371263 -1.091959 -0.896309
v 0.291700 -1.159424 -0.704225
v 0.200926 -1.196551 -0.485079
v 0.102431 -1.211164 -0.247291
v 0.148707 0.721451 -0.222556
v 0.291700 0.643376 -0.436560
v 0.423482 0.517404 -0.633786
v 0.538991 0.351881 -0.806657
v 0.633786 0.156767 -0.948528
v 0.704225 -0.056177 -1.053948
v 0.747602 -0.274774 -1.118865
v 0.762248 -0.487190 -1.140785
v 0.747602 -0.682671 -1.118865
v 0.704225 -0.852309 -1.053948
v 0.633786 -0.989776 -0.948528
v 0.538991 -1.091959 -0.806657
v 0.423482 -1.159424 -0.633786
v 0.291700 -1.196551 -0.436560
v 0.148707 -1.211164 -0.222556
v 0.189268 0.721451 -0.189268
v 0.371263 0.643376 -0.371263
v 0.538991 0.517404 -0.538991
v 0.686005 0.351881 -0.686006
v 0.806657 0.156767 -0.806657
v 0.896309 -0.056177 -0.896309
v 0.951517 -0.274774 -0.951517
v 0.970158 -0.487190 -0.970157
v 0.951517 -0.682671 -0.951517
v 0.896309 -0.852309 -0.896309
v 0.806657 -0.989776 -0.806657
v 0.686005 -1.091959 -0.686006
v 0.538991 -1.159424 -0.538991
v 0.371263 -1.196551 -0.371263
v 0.189268 -1.211164 -0.189268
v -0.000000 -1.213540 -0.000000
v 0.222556 0.721451 -0.148707
v 0.436560 0.643376 -0.291700
v 0.633786 0.517404 -0.423482
v 0.806657 0.351881 -0.538991
v 0.948528 0.156767 -0.633786
v 1.053948 -0.056177 -0.704226
v 1.118865 -0.274774 -0.747602
v 1.140785 -0.487190 -0.762248
v 1.118865 -0.682671 -0.747602
v 1.053948 -0.852309 -0.704226
v 0.948528 -0.989776 -0.633786
v 0.806657 -1.091959 -0.538991
v 0.633786 -1.159424 -0.423482
v 0.436560 -1.196551 -0.291700
v 0.222556 -1.211164 -0.148707
v 0.247291 0.721451 -0.102431
v 0.485079 0.643376 -0.200926
v 0.704225 0.517404 -0.291700
v 0.896309 0.351881 -0.371264
v 1.053948 0.156767 -0.436559
v 1.171085 -0.056177 -0.485079
v 1.243217 -0.274774 -0.514957
v 1.267572 -0.487190 -0.525045
v 1.243217 -0.682671 -0.514957
v 1.171085 -0.852309 -0.485079
v 1.053948 -0.989776 -0.436559
v 0.896309 -1.091959 -0.371264
v 0.704225 -1.159424 -0.291700
v 0.485079 -1.196551 -0.200926
v 0.247291 -1.211164 -0.102431
v 0.262523 0.721451 -0.052219
v 0.514957 0.643376 -0.102431
v 0.747602 0.517404 -0.148707
v 0.951517 0.351881 -0.189269
v 1.118865 0.156767 -0.222556
v 1.243217 -0.056177 -0.247291
v 1.319792 -0.274774 -0.262523
v 1.345647 -0.487190 -0.267665
v 1.319792 -0.682671 -0.262523
v 1.243217 -0.852309 -0.247291
v 1.118865 -0.989776 -0.222556
v 0.951517 -1.091959 -0.189269
v 0.747602 -1.159424 -0.148707
v 0.514957 -1.196551 -0.102431
v 0.262523 -1.211164 -0.052219
v 0.267666 0.721451 0.000000
v 0.525046 0.643376 0.000000
v 0.762248 0.517404 0.000000
v 0.970158 0.351881 -0.000000
v 1.140785 0.156767 0.000000
v 1.267573 -0.056177 -0.000000
v 1.345648 -0.274774 0.000000
v 1.372010 -0.487190 0.000000
v 1.345648 -0.682671 0.000000
v 1.267573 -0.852309 -0.000000
v 1.140785 -0.989776 0.000000
v 0.970158 -1.091960 -0.000000
v 0.762248 -1.159424 0.000000
v 0.525046 -1.196551 0.000000
v 0.267666 -1.211164 0.000000
v 0.262523 0.721451 0.052219
v 0.514957 0.643376 0.102431
v 0.747602 0.517404 0.148707
v 0.951517 0.351881 0.189268
v 1.118865 0.156767 0.222556
v 1.243217 -0.056177 0.247291
v 1.319791 -0.274774 0.262523
v 1.345647 -0.487190 0.267666
v 1.319791 -0.682671 0.262523
v 1.243217 -0.852309 0.247291
v 1.118865 -0.989776 0.222556
v 0.951517 -1.091960 0.189268
v 0.747602 -1.159424 0.148707
v 0.514957 -1.196551 0.102431
v 0.262523 -1.211164 0.052219
v 0.247291 0.721451 0.102431
v 0.485079 0.643376 0.200926
v 0.704225 0.517404 0.291700
v 0.896309 0.351881 0.371263
v 1.053948 0.156767 0.436560
v 1.171084 -0.056177 0.485079
v 1.243216 -0.274774 0.514957
v 1.267572 -0.487190 0.525046
v 1.243216 -0.682671 0.514957
v 1.171084 -0.852309 0.485079
v 1.053948 -0.989776 0.436560
v 0.896309 -1.091960 0.371263
v 0.704225 -1.159424 0.291700
v 0.485079 -1.196551 0.200926
v 0.247291 -1.211164 0.102431
v 0.222556 0.721451 0.148707
v 0.436560 0.643376 0.291700
v 0.633786 0.517404 0.423482
v 0.806657 0.351881 0.538991
v 0.948528 0.156767 0.633786
v 1.053948 -0.056177 0.704225
v 1.118865 -0.274774 0.747602
v 1.140784 -0.487190 0.762248
v 1.118865 -0.682671 0.747602
v 1.053948 -0.852309 0.704225
v 0.948528 -0.989776 0.633786
v 0.806657 -1.091960 0.538991
v 0.633786 -1.159424 0.423482
v 0.436560 -1.196551 0.291700
v 0.222556 -1.211164 0.148707
v 0.189268 0.721451 0.189268
v 0.371263 0.643376 0.371263
v 0.538990 0.517404 0.538991
v 0.686005 0.351881 0.686005
v 0.806657 0.156767 0.806657
v 0.896309 -0.056177 0.896309
v 0.951517 -0.274774 0.951517
v 0.970157 -0.487190 0.970158
v 0.951517 -0.682671 0.951517
v 0.896309 -0.852309 0.896309
v 0.806657 -0.989776 0.806657
v 0.686005 -1.091960 0.686005
v 0.538990 -1.159424 0.538991
v 0.371263 -1.196551 0.371263
v 0.189268 -1.211164 0.189268
v 0.148707 0.721451 0.222556
v 0.291700 0.643376 0.436560
v 0.423482 0.517404 0.633786
v 0.538991 0.351881 0.806657
v 0.633786 0.156767 0.948528
v 0.704226 -0.056177 1.053948
v 0.747602 -0.274774 1.118865
v 0.762247 -0.487190 1.140785
v 0.747602 -0.682671 1.118865
v 0.704226 -0.852309 1.053948
v 0.633786 -0.989776 0.948528
v 0.538991 -1.091960 0.806657
v 0.423482 -1.159424 0.633786
v 0.291700 -1.196551 0.436560
v 0.148707 -1.211164 0.222556
v 0.102431 0.721451 0.247291
v 0.200926 0.643376 0.485079
v 0.291699 0.517404 0.704225
v 0.371263 0.351881 0.896309
v 0.436559 0.156767 1.053948
v 0.485079 -0.056177 1.171084
v 0.514957 -0.274773 1.243217
v 0.525045 -0.487190 1.267572
v 0.514957 -0.682671 1.243217
v 0.485079 -0.852309 1.171084
v 0.436559 -0.989776 1.053948
v 0.371263 -1.091960 0.896309
v 0.291699 -1.159424 0.704225
v 0.200926 -1.196551 0.485079
v 0.102431 -1.211164 0.247291
v 0.052219 0.721451 0.262523
v 0.102431 0.643376 0.514957
v 0.148707 0.517404 0.747602
v 0.189268 0.351881 0.951517
v 0.222556 0.156767 1.118865
v 0.247291 -0.056177 1.243217
v 0.262523 -0.274773 1.319791
v 0.267665 -0.487190 1.345647
v 0.262523 -0.682671 1.319791
v 0.247291 -0.852309 1.243217
v 0.222556 -0.989776 1.118865
v 0.189268 -1.091959 0.951517
v 0.148707 -1.159424 0.747602
v 0.102431 -1.196551 0.514957
v 0.052219 -1.211164 0.262523
v 0.000000 0.721451 0.267666
v -0.000000 0.643376 0.525046
v -0.000000 0.351881 0.970158
v 0.000000 -0.056177 1.267573
v 0.000000 -0.852309 1.267573
v -0.000000 -1.091960 0.970158
v -0.000000 -1.159424 0.762248
v -0.000000 -1.196551 0.525046
v 0.000000 -1.211164 0.267666
v 0.611104 -0.164260 -1.151207
v 0.594491 -0.052436 -1.115018
v 0.659408 -0.075126 -1.089464
v 0.705874 -0.131863 -1.087494
v 0.716141 -0.200974 -1.109861
v 0.686288 -0.256062 -1.148020
v 0.627716 -0.276084 -1.187397
v 0.562800 -0.253394 -1.212951
v 0.516334 -0.196657 -1.214920
v 0.506066 -0.127546 -1.192554
v 0.535920 -0.072458 -1.154395
v -0.611104 -0.164260 -1.151207
v -0.594491 -0.052436 -1.115018
v -0.659408 -0.075126 -1.089464
v -0.705874 -0.131863 -1.087494
v -0.716141 -0.200974 -1.109861
v -0.686288 -0.256062 -1.148020
v -0.627717 -0.276084 -1.187397
v -0.562800 -0.253394 -1.212951
v -0.516334 -0.196657 -1.214920
v -0.506067 -0.127546 -1.192554
v -0.535920 -0.072458 -1.154395
vn -0.0000 0.8337 0.5523
vn -0.0000 0.5847 0.8113
vn -0.0000 0.2296 0.9733
vn -0.0000 -0.0052 1.0000
vn -0.0000 -0.2765 0.9610
vn -0.0000 -0.7715 0.6362
vn -0.0392 0.9796 0.1971
vn -0.0754 0.9223 0.3792
vn -0.1077 0.8337 0.5416
vn -0.1353 0.7205 0.6802
vn -0.1583 0.5847 0.7957
vn -0.1767 0.4237 0.8884
vn -0.1899 0.2296 0.9546
vn -0.1951 -0.0052 0.9808
vn -0.1875 -0.2765 0.9425
vn -0.1629 -0.5504 0.8189
vn -0.1241 -0.7715 0.6240
vn -0.0819 -0.9077 0.4116
vn -0.0462 -0.9715 0.2325
vn -0.0212 -0.9941 0.1067
vn -0.0067 -0.9994 0.0336
vn -0.0769 0.9796 0.1857
vn -0.1479 0.9223 0.3572
vn -0.2113 0.8337 0.5102
vn -0.2654 0.7205 0.6407
vn -0.3105 0.5847 0.7495
vn -0.3466 0.4237 0.8369
vn -0.3725 0.2296 0.8992
vn -0.3827 -0.0052 0.9239
vn -0.3678 -0.2765 0.8879
vn -0.3195 -0.5504 0.7714
vn -0.2435 -0.7715 0.5878
vn -0.1606 -0.9077 0.3877
vn -0.0907 -0.9715 0.2190
vn -0.0416 -0.9941 0.1005
vn -0.0131 -0.9994 0.0317
vn -0.1117 0.9796 0.1671
vn -0.2148 0.9223 0.3214
vn -0.3068 0.8337 0.4592
vn -0.3853 0.7205 0.5766
vn -0.4507 0.5847 0.6745
vn -0.5032 0.4237 0.7532
vn -0.5407 0.2296 0.8093
vn -0.5556 -0.0052 0.8315
vn -0.5339 -0.2765 0.7991
vn -0.4638 -0.5504 0.6942
vn -0.3534 -0.7715 0.5290
vn -0.2331 -0.9077 0.3489
vn -0.1317 -0.9715 0.1971
vn -0.0605 -0.9941 0.0905
vn -0.0190 -0.9994 0.0285
vn -0.1421 0.9796 0.1421
vn -0.2734 0.9223 0.2734
vn -0.3905 0.8337 0.3905
vn -0.4904 0.7205 0.4904
vn -0.5736 0.5847 0.5736
vn -0.6405 0.4237 0.6405
vn -0.6882 0.2296 0.6882
vn -0.7071 -0.0052 0.7071
vn -0.6795 -0.2765 0.6795
vn -0.5904 -0.5504 0.5904
vn -0.4498 -0.7715 0.4498
vn -0.2967 -0.9077 0.2967
vn -0.1676 -0.9715 0.1676
vn -0.0770 -0.9941 0.0770
vn -0.0242 -0.9994 0.0242
vn -0.1671 0.9796 0.1117
vn -0.3214 0.9223 0.2148
vn -0.4592 0.8337 0.3068
vn -0.5766 0.7205 0.3853
vn -0.6745 0.5847 0.4507
vn -0.7532 0.4237 0.5032
vn -0.8093 0.2296 0.5407
vn -0.8315 -0.0052 0.5556
vn -0.7991 -0.2765 0.5339
vn -0.6942 -0.5504 0.4638
vn -0.5290 -0.7715 0.3534
vn -0.3489 -0.9077 0.2331
vn -0.1971 -0.9715 0.1317
vn -0.0905 -0.9941 0.0605
vn -0.0285 -0.9994 0.0190
vn -0.0000 1.0000 -0.0000
vn -0.1857 0.9796 0.0769
vn -0.3572 0.9223 0.1479
vn -0.5102 0.8337 0.2113
vn -0.6407 0.7205 0.2654
vn -0.7495 0.5847 0.3105
vn -0.8369 0.4237 0.3466
vn -0.8992 0.2296 0.3725
vn -0.9239 -0.0052 0.3827
vn -0.8879 -0.2765 0.3678
vn -0.7714 -0.5504 0.3195
vn -0.5878 -0.7715 0.2435
vn -0.3877 -0.9077 0.1606
vn -0.2190 -0.9715 0.0907
vn -0.1005 -0.9941 0.0416
vn -0.0317 -0.9994 0.0131
vn -0.1971 0.9796 0.0392
vn -0.3792 0.9223 0.0754
vn -0.5416 0.8337 0.1077
vn -0.6802 0.7205 0.1353
vn -0.7957 0.5847 0.1583
vn -0.8884 0.4237 0.1767
vn -0.9546 0.2296 0.1899
vn -0.9808 -0.0052 0.1951
vn -0.9425 -0.2765 0.1875
vn -0.8189 -0.5504 0.1629
vn -0.6240 -0.7715 0.1241
vn -0.4116 -0.9077 0.0819
vn -0.2325 -0.9715 0.0462
vn -0.1067 -0.9941 0.0212
vn -0.0336 -0.9994 0.0067
vn -0.2010 0.9796 -0.0000
vn -0.3866 0.9223 -0.0000
vn -0.5523 0.8337 -0.0000
vn -0.6935 0.7205 -0.0000
vn -0.8113 0.5847 -0.0000
vn -0.9058 0.4237 -0.0000
vn -0.9733 0.2296 -0.0000
vn -1.0000 -0.0052 -0.0000
vn -0.9610 -0.2765 -0.0000
vn -0.8349 -0.5504 -0.0000
vn -0.6362 -0.7715 -0.0000
vn -0.4196 -0.9077 -0.0000
vn -0.2370 -0.9715 -0.0000
vn -0.1088 -0.9941 -0.0000
vn -0.0343 -0.9994 -0.0000
vn -0.1971 0.9796 -0.0392
vn -0.3792 0.9223 -0.0754
vn -0.5416 0.8337 -0.1077
vn -0.6802 0.7205 -0.1353
vn -0.7957 0.5847 -0.1583
vn -0.8884 0.4237 -0.1767
vn -0.9546 0.2296 -0.1899
vn -0.9808 -0.0052 -0.1951
vn -0.9425 -0.2765 -0.1875
vn -0.8189 -0.5504 -0.1629
vn -0.6240 -0.7715 -0.1241
vn -0.4116 -0.9077 -0.0819
vn -0.2325 -0.9715 -0.0462
vn -0.1067 -0.9941 -0.0212
vn -0.0336 -0.9994 -0.0067
vn -0.1857 0.9796 -0.0769
vn -0.3572 0.9223 -0.1479
vn -0.5102 0.8337 -0.2113
vn -0.6407 0.7205 -0.2654
vn -0.7495 0.5847 -0.3105
vn -0.8369 0.4237 -0.3466
vn -0.8992 0.2296 -0.3725
vn -0.9239 -0.0052 -0.3827
vn -0.8879 -0.2765 -0.3678
vn -0.7714 -0.5504 -0.3195
vn -0.5878 -0.7715 -0.2435
vn -0.3877 -0.9077 -0.1606
vn -0.2190 -0.9715 -0.0907
vn -0.1005 -0.9941 -0.0416
vn -0.0317 -0.9994 -0.0131
vn -0.1671 0.9796 -0.1117
vn -0.3214 0.9223 -0.2148
vn -0.4592 0.8337 -0.3068
vn -0.5766 0.7205 -0.3853
vn -0.6745 0.5847 -0.4507
vn -0.7532 0.4237 -0.5032
vn -0.8093 0.2296 -0.5407
vn -0.8315 -0.0052 -0.5556
vn -0.7991 -0.2765 -0.5339
vn -0.6942 -0.5504 -0.4638
vn -0.5290 -0.7715 -0.3534
vn -0.3489 -0.9077 -0.2331
vn -0.1971 -0.9715 -0.1317
vn -0.0905 -0.9941 -0.0605
vn -0.0285 -0.9994 -0.0190
vn -0.1421 0.9796 -0.1421
vn -0.2734 0.9223 -0.2734
vn -0.3905 0.8337 -0.3905
vn -0.4904 0.7205 -0.4904
vn -0.5736 0.5847 -0.5736
vn -0.6405 0.4237 -0.6405
vn -0.6882 0.2296 -0.6882
vn -0.7071 -0.0052 -0.7071
vn -0.6795 -0.2765 -0.6795
vn -0.5904 -0.5504 -0.5904
vn -0.4498 -0.7715 -0.4498
vn -0.2967 -0.9077 -0.2967
vn -0.1676 -0.9715 -0.1676
vn -0.0770 -0.9941 -0.0770
vn -0.0242 -0.9994 -0.0242
vn -0.1117 0.9796 -0.1671
vn -0.2148 0.9223 -0.3214
vn -0.3068 0.8337 -0.4592
vn -0.3853 0.7205 -0.5766
vn -0.4507 0.5847 -0.6745
vn -0.5032 0.4237 -0.7532
vn -0.5407 0.2296 -0.8093
vn -0.5556 -0.0052 -0.8315
vn -0.5339 -0.2765 -0.7991
vn -0.4638 -0.5504 -0.6942
vn -0.3534 -0.7715 -0.5290
vn -0.2331 -0.9077 -0.3489
vn -0.1317 -0.9715 -0.1971
vn -0.0605 -0.9941 -0.0905
vn -0.0190 -0.9994 -0.0285
vn -0.0769 0.9796 -0.1857
vn -0.1479 0.9223 -0.3572
vn -0.2113 0.8337 -0.5102
vn -0.2654 0.7205 -0.6407
vn -0.3105 0.5847 -0.7495
vn -0.3466 0.4237 -0.8369
vn -0.3725 0.2296 -0.8992
vn -0.3827 -0.0052 -0.9239
vn -0.3678 -0.2765 -0.8879
vn -0.3195 -0.5504 -0.7714
vn -0.2435 -0.7715 -0.5878
vn -0.1606 -0.9077 -0.3877
vn -0.0907 -0.9715 -0.2190
vn -0.0416 -0.9941 -0.1005
vn -0.0131 -0.9994 -0.0317
vn -0.0392 0.9796 -0.1971
vn -0.0754 0.9223 -0.3792
vn -0.1077 0.8337 -0.5416
vn -0.1353 0.7205 -0.6802
vn -0.1583 0.5847 -0.7957
vn -0.1767 0.4237 -0.8884
vn -0.1899 0.2296 -0.9546
vn -0.1951 -0.0052 -0.9808
vn -0.1875 -0.2765 -0.9425
vn -0.1629 -0.5504 -0.8189
vn -0.1241 -0.7715 -0.6240
vn -0.0819 -0.9077 -0.4116
vn -0.0462 -0.9715 -0.2325
vn -0.0212 -0.9941 -0.1067
vn -0.0067 -0.9994 -0.0336
vn -0.0000 0.9796 -0.2010
vn -0.0000 0.9223 -0.3866
vn -0.0000 0.8337 -0.5523
vn -0.0000 0.7205 -0.6935
vn -0.0000 0.5847 -0.8113
vn -0.0000 0.4237 -0.9058
vn -0.0000 0.2296 -0.9733
vn -0.0000 -0.0052 -1.0000
vn -0.0000 -0.2765 -0.9610
vn -0.0000 -0.5504 -0.8349
vn -0.0000 -0.7715 -0.6362
vn -0.0000 -0.9077 -0.4196
vn -0.0000 -0.9715 -0.2370
vn -0.0000 -0.9941 -0.1088
vn -0.0000 -0.9994 -0.0343
vn 0.0392 0.9796 -0.1971
vn 0.0754 0.9223 -0.3792
vn 0.1077 0.8337 -0.5416
vn 0.1353 0.7205 -0.6802
vn 0.1583 0.5847 -0.7957
vn 0.1767 0.4237 -0.8884
vn 0.1899 0.2296 -0.9546
vn 0.1951 -0.0052 -0.9808
vn 0.1875 -0.2765 -0.9425
vn 0.1629 -0.5504 -0.8189
vn 0.1241 -0.7715 -0.6240
vn 0.0819 -0.9077 -0.4116
vn 0.0462 -0.9715 -0.2325
vn 0.0212 -0.9941 -0.1067
vn 0.0067 -0.9994 -0.0336
vn 0.0769 0.9796 -0.1857
vn 0.1479 0.9223 -0.3572
vn 0.2113 0.8337 -0.5102
vn 0.2654 0.7205 -0.6407
vn 0.3105 0.5847 -0.7495
vn 0.3466 0.4237 -0.8369
vn 0.3725 0.2296 -0.8992
vn 0.3827 -0.0052 -0.9239
vn 0.3678 -0.2765 -0.8879
vn 0.3195 -0.5504 -0.7714
vn 0.2435 -0.7715 -0.5878
vn 0.1606 -0.9077 -0.3877
vn 0.0907 -0.9715 -0.2190
vn 0.0416 -0.9941 -0.1005
vn 0.0131 -0.9994 -0.0317
vn 0.1117 0.9796 -0.1671
vn 0.2148 0.9223 -0.3214
vn 0.3068 0.8337 -0.4592
vn 0.3853 0.7205 -0.5766
vn 0.4507 0.5847 -0.6745
vn 0.5032 0.4237 -0.7532
vn 0.5407 0.2296 -0.8093
vn 0.5556 -0.0052 -0.8315
vn 0.5339 -0.2765 -0.7991
vn 0.4638 -0.5504 -0.6942
vn 0.3534 -0.7715 -0.5290
vn 0.2331 -0.9077 -0.3489
vn 0.1317 -0.9715 -0.1971
vn 0.0605 -0.9941 -0.0905
vn 0.0190 -0.9994 -0.0285
vn 0.1421 0.9796 -0.1421
vn 0.2734 0.9223 -0.2734
vn 0.3905 0.8337 -0.3905
vn 0.4904 0.7205 -0.4904
vn 0.5736 0.5847 -0.5736
vn 0.6405 0.4237 -0.6405
vn 0.6882 0.2296 -0.6882
vn 0.7071 -0.0052 -0.7071
vn 0.6795 -0.2765 -0.6795
vn 0.5904 -0.5504 -0.5904
vn 0.4498 -0.7715 -0.4498
vn 0.2967 -0.9077 -0.2967
vn 0.1676 -0.9715 -0.1676
vn 0.0770 -0.9941 -0.0770
vn 0.0242 -0.9994 -0.0242
vn -0.0000 -1.0000 -0.0000
vn 0.1671 0.9796 -0.1117
vn 0.3214 0.9223 -0.2148
vn 0.4592 0.8337 -0.3068
vn 0.5766 0.7205 -0.3853
vn 0.6745 0.5847 -0.4507
vn 0.7532 0.4237 -0.5032
vn 0.8093 0.2296 -0.5407
vn 0.8315 -0.0052 -0.5556
vn 0.7991 -0.2765 -0.5339
vn 0.6942 -0.5504 -0.4638
vn 0.5290 -0.7715 -0.3534
vn 0.3489 -0.9077 -0.2331
vn 0.1971 -0.9715 -0.1317
vn 0.0905 -0.9941 -0.0605
vn 0.0285 -0.9994 -0.0190
vn 0.1857 0.9796 -0.0769
vn 0.3572 0.9223 -0.1479
vn 0.5102 0.8337 -0.2113
vn 0.6407 0.7205 -0.2654
vn 0.7495 0.5847 -0.3105
vn 0.8369 0.4237 -0.3466
vn 0.8992 0.2296 -0.3725
vn 0.9239 -0.0052 -0.3827
vn 0.8879 -0.2765 -0.3678
vn 0.7714 -0.5504 -0.3195
vn 0.5878 -0.7715 -0.2435
vn 0.3877 -0.9077 -0.1606
vn 0.2190 -0.9715 -0.0907
vn 0.1005 -0.9941 -0.0416
vn 0.0317 -0.9994 -0.0131
vn 0.1971 0.9796 -0.0392
vn 0.3792 0.9223 -0.0754
vn 0.5416 0.8337 -0.1077
vn 0.6802 0.7205 -0.1353
vn 0.7957 0.5847 -0.1583
vn 0.8884 0.4237 -0.1767
vn 0.9546 0.2296 -0.1899
vn 0.9808 -0.0052 -0.1951
vn 0.9425 -0.2765 -0.1875
vn 0.8189 -0.5504 -0.1629
vn 0.6240 -0.7715 -0.1241
vn 0.4116 -0.9077 -0.0819
vn 0.2325 -0.9715 -0.0462
vn 0.1067 -0.9941 -0.0212
vn 0.0336 -0.9994 -0.0067
vn 0.2010 0.9796 -0.0000
vn 0.3866 0.9223 -0.0000
vn 0.5523 0.8337 -0.0000
vn 0.6935 0.7205 -0.0000
vn 0.8113 0.5847 -0.0000
vn 0.9058 0.4237 -0.0000
vn 0.9733 0.2296 -0.0000
vn 1.0000 -0.0052 -0.0000
vn 0.9610 -0.2765 -0.0000
vn 0.8349 -0.5504 -0.0000
vn 0.6362 -0.7715 -0.0000
vn 0.4196 -0.9077 -0.0000
vn 0.2370 -0.9715 -0.0000
vn 0.1088 -0.9941 -0.0000
vn 0.0343 -0.9994 -0.0000
vn 0.1971 0.9796 0.0392
vn 0.3792 0.9223 0.0754
vn 0.5416 0.8337 0.1077
vn 0.6802 0.7205 0.1353
vn 0.7957 0.5847 0.1583
vn 0.8884 0.4237 0.1767
vn 0.9546 0.2296 0.1899
vn 0.9808 -0.0052 0.1951
vn 0.9425 -0.2765 0.1875
vn 0.8189 -0.5504 0.1629
vn 0.6240 -0.7715 0.1241
vn 0.4116 -0.9077 0.0819
vn 0.2325 -0.9715 0.0462
vn 0.1067 -0.9941 0.0212
vn 0.0336 -0.9994 0.0067
vn 0.1857 0.9796 0.0769
vn 0.3572 0.9223 0.1479
vn 0.5102 0.8337 0.2113
vn 0.6407 0.7205 0.2654
vn 0.7495 0.5847 0.3105
vn 0.8369 0.4237 0.3466
vn 0.8992 0.2296 0.3725
vn 0.9239 -0.0052 0.3827
vn 0.8879 -0.2765 0.3678
vn 0.7714 -0.5504 0.3195
vn 0.5878 -0.7715 0.2435
vn 0.3877 -0.9077 0.1606
vn 0.2190 -0.9715 0.0907
vn 0.1005 -0.9941 0.0416
vn 0.0317 -0.9994 0.0131
vn 0.1671 0.9796 0.1117
vn 0.3214 0.9223 0.2148
vn 0.4592 0.8337 0.3068
vn 0.5766 0.7205 0.3853
vn 0.6745 0.5847 0.4507
vn 0.7532 0.4237 0.5032
vn 0.8093 0.2296 0.5407
vn 0.8315 -0.0052 0.5556
vn 0.7991 -0.2765 0.5339
vn 0.6942 -0.5504 0.4638
vn 0.5290 -0.7715 0.3534
vn 0.3489 -0.9077 0.2331
vn 0.1971 -0.9715 0.1317
vn 0.0905 -0.9941 0.0605
vn 0.0285 -0.9994 0.0190
vn 0.1421 0.9796 0.1421
vn 0.2734 0.9223 0.2734
vn 0.3905 0.8337 0.3905
vn 0.4904 0.7205 0.4904
vn 0.5736 0.5847 0.5736
vn 0.6405 0.4237 0.6405
vn 0.6882 0.2296 0.6882
vn 0.7071 -0.0052 0.7071
vn 0.6795 -0.2765 0.6795
vn 0.5904 -0.5504 0.5904
vn 0.4498 -0.7715 0.4498
vn 0.2967 -0.9077 0.2967
vn 0.1676 -0.9715 0.1676
vn 0.0770 -0.9941 0.0770
vn 0.0242 -0.9994 0.0242
vn 0.1117 0.9796 0.1671
vn 0.2148 0.9223 0.3214
vn 0.3068 0.8337 0.4592
vn 0.3853 0.7205 0.5766
vn 0.4507 0.5847 0.6745
vn 0.5032 0.4237 0.7532
vn 0.5407 0.2296 0.8093
vn 0.5556 -0.0052 0.8315
vn 0.5339 -0.2765 0.7991
vn 0.4638 -0.5504 0.6942
vn 0.3534 -0.7715 0.5290
vn 0.2331 -0.9077 0.3489
vn 0.1317 -0.9715 0.1971
vn 0.0605 -0.9941 0.0905
vn 0.0190 -0.9994 0.0285
vn 0.0769 0.9796 0.1857
vn 0.1479 0.9223 0.3572
vn 0.2113 0.8337 0.5102
vn 0.2654 0.7205 0.6407
vn 0.3105 0.5847 0.7495
vn 0.3466 0.4237 0.8369
vn 0.3725 0.2296 0.8992
vn 0.3827 -0.0052 0.9239
vn 0.3678 -0.2765 0.8879
vn 0.3195 -0.5504 0.7714
vn 0.2435 -0.7715 0.5878
vn 0.1606 -0.9077 0.3877
vn 0.0907 -0.9715 0.2190
vn 0.0416 -0.9941 0.1005
vn 0.0131 -0.9994 0.0317
vn 0.0392 0.9796 0.1971
vn 0.0754 0.9223 0.3792
vn 0.1077 0.8337 0.5416
vn 0.1353 0.7205 0.6802
vn 0.1583 0.5847 0.7957
vn 0.1767 0.4237 0.8884
vn 0.1899 0.2296 0.9546
vn 0.1951 -0.0052 0.9808
vn 0.1875 -0.2765 0.9425
vn 0.1629 -0.5504 0.8189
vn 0.1241 -0.7715 0.6240
vn 0.0819 -0.9077 0.4116
vn 0.0462 -0.9715 0.2325
vn 0.0212 -0.9941 0.1067
vn 0.0067 -0.9994 0.0336
vn -0.0000 0.9796 0.2010
vn -0.0000 0.9223 0.3866
vn -0.0000 0.7205 0.6935
vn -0.0000 0.4237 0.9058
vn -0.0000 -0.5504 0.8349
vn -0.0000 -0.9077 0.4196
vn -0.0000 -0.9715 0.2370
vn -0.0000 -0.9941 0.1088
vn -0.0000 -0.9994 0.0343
vn 0.4442 0.3349 -0.8310
vn -0.4442 0.3349 -0.8310
vt 0.203141 0.357021
vt 0.224059 0.350926
vt 0.229205 0.372523
vt 0.209256 0.377494
vt 0.342615 0.341976
vt 0.371681 0.345902
vt 0.367917 0.367598
vt 0.340783 0.364576
vt 0.177379 0.366500
vt 0.184149 0.385384
vt 0.317785 0.340329
vt 0.317241 0.363590
vt 0.142584 0.382723
vt 0.149771 0.398753
vt 0.295947 0.340431
vt 0.296775 0.363927
vt 0.092238 0.411338
vt 0.097851 0.423268
vt 0.276536 0.341787
vt 0.278734 0.364993
vt 0.502251 0.392335
vt 0.564720 0.421169
vt 0.497841 0.405012
vt 0.034478 0.445803
vt 0.258969 0.343978
vt 0.262227 0.366756
vt 0.446150 0.367718
vt 0.440589 0.384577
vt 0.241974 0.346843
vt 0.246221 0.369173
vt 0.404981 0.353886
vt 0.400035 0.373744
vt 0.435690 0.401167
vt 0.396417 0.392801
vt 0.249791 0.390370
vt 0.233432 0.393138
vt 0.365057 0.388292
vt 0.214168 0.397203
vt 0.339306 0.386110
vt 0.189787 0.403754
vt 0.317068 0.385469
vt 0.155639 0.414738
vt 0.297752 0.385823
vt 0.102562 0.435601
vt 0.280636 0.386831
vt 0.562388 0.429502
vt 0.494315 0.418011
vt 0.037596 0.453347
vt 0.264974 0.388340
vt 0.317068 0.406283
vt 0.298694 0.406682
vt 0.160910 0.430475
vt 0.107647 0.447644
vt 0.282306 0.407604
vt 0.557603 0.444540
vt 0.490368 0.430804
vt 0.043967 0.467442
vt 0.267245 0.408901
vt 0.431900 0.417563
vt 0.252595 0.410594
vt 0.393345 0.411294
vt 0.236872 0.412893
vt 0.363064 0.408076
vt 0.218632 0.416297
vt 0.338412 0.406554
vt 0.194225 0.421587
vt 0.254989 0.430135
vt 0.239799 0.432033
vt 0.391155 0.429273
vt 0.361951 0.427125
vt 0.221824 0.434850
vt 0.337764 0.426262
vt 0.198110 0.438932
vt 0.317289 0.426200
vt 0.165427 0.446215
vt 0.299491 0.426728
vt 0.110718 0.460257
vt 0.283683 0.427647
vt 0.554126 0.453439
vt 0.487187 0.443614
vt 0.045148 0.469537
vt 0.269161 0.428728
vt 0.428986 0.433734
vt 0.168505 0.462093
vt 0.113032 0.473144
vt 0.300330 0.446147
vt 0.284932 0.447027
vt 0.551240 0.462510
vt 0.484737 0.456410
vt 0.046452 0.478449
vt 0.270796 0.447968
vt 0.426854 0.449702
vt 0.256982 0.449146
vt 0.389701 0.446847
vt 0.242145 0.450693
vt 0.360977 0.445718
vt 0.224475 0.452984
vt 0.337709 0.445277
vt 0.201242 0.456092
vt 0.317680 0.445527
vt 0.244034 0.469021
vt 0.226590 0.470854
vt 0.360775 0.463868
vt 0.337801 0.463928
vt 0.203634 0.473156
vt 0.318209 0.464410
vt 0.170939 0.477905
vt 0.301196 0.465122
vt 0.114628 0.486243
vt 0.286056 0.465949
vt 0.548975 0.471669
vt 0.482996 0.469173
vt 0.047329 0.487798
vt 0.272203 0.466780
vt 0.425412 0.465496
vt 0.258634 0.467769
vt 0.388964 0.464061
vt 0.547105 0.480883
vt 0.481943 0.481843
vt 0.050124 0.504567
vt 0.116964 0.499178
vt 0.287168 0.484567
vt 0.273439 0.485322
vt 0.425244 0.481086
vt 0.259998 0.486147
vt 0.388691 0.481111
vt 0.245527 0.487138
vt 0.360967 0.481743
vt 0.228208 0.488556
vt 0.338232 0.482277
vt 0.205388 0.490134
vt 0.318893 0.483005
vt 0.172628 0.493668
vt 0.302093 0.483817
vt 0.361589 0.499462
vt 0.338970 0.500456
vt 0.229360 0.506189
vt 0.206567 0.507096
vt 0.319742 0.501424
vt 0.173788 0.509403
vt 0.303030 0.502318
vt 0.117230 0.512310
vt 0.288204 0.503089
vt 0.546067 0.490202
vt 0.481540 0.494452
vt 0.050429 0.507098
vt 0.274502 0.503749
vt 0.425162 0.496553
vt 0.261094 0.504417
vt 0.389196 0.497982
vt 0.246657 0.505163
vt 0.289111 0.521613
vt 0.275384 0.522181
vt 0.481785 0.506937
vt 0.426350 0.511849
vt 0.261931 0.522697
vt 0.390094 0.514821
vt 0.247437 0.523207
vt 0.362638 0.517113
vt 0.230064 0.523850
vt 0.340011 0.518590
vt 0.207184 0.524089
vt 0.320756 0.519808
vt 0.174198 0.525180
vt 0.304001 0.520797
vt 0.118302 0.525399
vt 0.545351 0.499444
vt 0.051320 0.524297
vt 0.230318 0.541639
vt 0.207239 0.541201
vt 0.341373 0.536807
vt 0.321955 0.538300
vt 0.174062 0.540997
vt 0.305037 0.539410
vt 0.117299 0.538508
vt 0.289986 0.540245
vt 0.545380 0.508629
vt 0.482667 0.519317
vt 0.051245 0.526859
vt 0.276115 0.540743
vt 0.427729 0.527110
vt 0.262519 0.541113
vt 0.391751 0.531665
vt 0.247872 0.541386
vt 0.364157 0.534824
vt 0.484215 0.531558
vt 0.429885 0.542352
vt 0.276701 0.559574
vt 0.262858 0.559795
vt 0.394020 0.548558
vt 0.247952 0.559820
vt 0.366175 0.552670
vt 0.230103 0.559660
vt 0.343087 0.555225
vt 0.206701 0.558500
vt 0.323364 0.557032
vt 0.173129 0.556931
vt 0.306153 0.558286
vt 0.117080 0.551690
vt 0.290826 0.559145
vt 0.545890 0.517540
vt 0.050268 0.543987
vt 0.345200 0.573979
vt 0.325016 0.576150
vt 0.205528 0.576063
vt 0.171446 0.572947
vt 0.307368 0.577578
vt 0.116162 0.564710
vt 0.291636 0.578472
vt 0.546926 0.526091
vt 0.486470 0.543630
vt 0.050519 0.553540
vt 0.277135 0.578828
vt 0.432839 0.557609
vt 0.262929 0.578887
vt 0.397003 0.565562
vt 0.247650 0.578642
vt 0.368750 0.570766
vt 0.229382 0.578026
vt 0.277403 0.598679
vt 0.262704 0.598555
vt 0.437203 0.572745
vt 0.400626 0.582773
vt 0.246918 0.598001
vt 0.371954 0.589234
vt 0.228091 0.596865
vt 0.347777 0.593221
vt 0.203651 0.593999
vt 0.326957 0.595824
vt 0.168990 0.589098
vt 0.308706 0.597460
vt 0.113178 0.577451
vt 0.292418 0.598401
vt 0.548314 0.534267
vt 0.489465 0.555459
vt 0.049989 0.555934
vt 0.200979 0.612404
vt 0.165423 0.605468
vt 0.329246 0.616249
vt 0.310198 0.618138
vt 0.110715 0.590386
vt 0.293174 0.619141
vt 0.549456 0.536533
vt 0.494281 0.566747
vt 0.046280 0.571412
vt 0.277480 0.619328
vt 0.441972 0.588000
vt 0.262133 0.618988
vt 0.405343 0.600360
vt 0.245686 0.618071
vt 0.375927 0.608250
vt 0.226138 0.616321
vt 0.350908 0.613132
vt 0.261147 0.640411
vt 0.243854 0.639053
vt 0.411095 0.618337
vt 0.380799 0.627918
vt 0.223380 0.636569
vt 0.354707 0.633898
vt 0.197184 0.631398
vt 0.331961 0.637650
vt 0.161456 0.622150
vt 0.311879 0.639856
vt 0.106198 0.602762
vt 0.293903 0.640938
vt 0.555363 0.548787
vt 0.498931 0.578265
vt 0.045623 0.573646
vt 0.277331 0.641016
vt 0.447996 0.603342
vt 0.155530 0.639081
vt 0.100715 0.615037
vt 0.313803 0.662916
vt 0.294600 0.664101
vt 0.558382 0.555505
vt 0.504481 0.589375
vt 0.041140 0.581060
vt 0.276900 0.664039
vt 0.455286 0.618701
vt 0.259647 0.663098
vt 0.418108 0.636749
vt 0.241279 0.661174
vt 0.386771 0.648402
vt 0.219671 0.657739
vt 0.359335 0.655752
vt 0.192385 0.650963
vt 0.335210 0.660305
vt 0.426662 0.655663
vt 0.394124 0.669888
vt 0.237759 0.684754
vt 0.214737 0.680122
vt 0.365005 0.678967
vt 0.186100 0.671381
vt 0.339144 0.684560
vt 0.148173 0.656284
vt 0.316042 0.687703
vt 0.094184 0.627052
vt 0.295259 0.689024
vt 0.559840 0.557185
vt 0.511784 0.599511
vt 0.036454 0.587891
vt 0.276106 0.688780
vt 0.463946 0.634018
vt 0.257486 0.687402
vt 0.318699 0.714727
vt 0.295865 0.716228
vt 0.567452 0.565430
vt 0.519461 0.609671
vt 0.031305 0.593955
vt 0.086520 0.638683
vt 0.274831 0.715738
vt 0.474415 0.649246
vt 0.254454 0.713774
vt 0.437138 0.675151
vt 0.233005 0.710168
vt 0.403258 0.692610
vt 0.208234 0.703975
vt 0.371996 0.703843
vt 0.178003 0.692752
vt 0.343985 0.710865
vt 0.139086 0.673704
vt 0.226601 0.737886
vt 0.199678 0.729600
vt 0.414306 0.716572
vt 0.381092 0.731147
vt 0.167620 0.715163
vt 0.350098 0.739909
vt 0.127922 0.691220
vt 0.321917 0.744687
vt 0.077627 0.649763
vt 0.296389 0.746413
vt 0.571437 0.569491
vt 0.528251 0.618998
vt 0.025823 0.599076
vt 0.272896 0.745573
vt 0.487215 0.663926
vt 0.250242 0.742798
vt 0.449712 0.694979
vt 0.575674 0.572368
vt 0.538207 0.627318
vt 0.017455 0.606433
vt 0.068018 0.660669
vt 0.296789 0.780529
vt 0.270024 0.779190
vt 0.501867 0.678161
vt 0.244377 0.775259
vt 0.465633 0.715493
vt 0.217921 0.768510
vt 0.428755 0.742374
vt 0.188363 0.757336
vt 0.392399 0.760917
vt 0.154296 0.738649
vt 0.357832 0.772314
vt 0.114131 0.708636
vt 0.325898 0.778467
vt 0.447111 0.769927
vt 0.407250 0.794163
vt 0.173251 0.787542
vt 0.137158 0.763105
vt 0.367995 0.809287
vt 0.097522 0.725445
vt 0.330989 0.817431
vt 0.056568 0.669765
vt 0.296993 0.819972
vt 0.577333 0.572760
vt 0.549545 0.633876
vt 0.016112 0.607086
vt 0.265776 0.817884
vt 0.519376 0.691125
vt 0.236119 0.812244
vt 0.484952 0.735936
vt 0.206009 0.802823
vt 0.296873 0.866808
vt 0.259432 0.863576
vt 0.561890 0.639373
vt 0.539737 0.702500
vt 0.224259 0.855312
vt 0.509528 0.756374
vt 0.189347 0.841854
vt 0.471054 0.799467
vt 0.152751 0.820577
vt 0.427158 0.831757
vt 0.114987 0.788186
vt 0.381764 0.852425
vt 0.077296 0.741063
vt 0.337731 0.863574
vt 0.043722 0.677437
vt 0.583760 0.573648
vt 0.011195 0.608386
vt 0.124318 0.856753
vt 0.086212 0.812957
vt 0.454528 0.874613
vt 0.401180 0.904161
vt 0.052723 0.754607
vt 0.346990 0.919980
vt 0.029472 0.683606
vt 0.296206 0.924127
vt 0.586352 0.573029
vt 0.575237 0.642860
vt 0.005280 0.608180
vt 0.249796 0.919248
vt 0.563573 0.711209
vt 0.206698 0.906838
vt 0.539553 0.775112
vt 0.165483 0.886891
vt 0.502703 0.830666
vt 0.234996 0.989971
vt 0.179033 0.971452
vt 0.590702 0.716179
vt 0.576668 0.790322
vt 0.130345 0.938314
vt 0.545860 0.863059
vt 0.085189 0.894807
vt 0.493095 0.922955
vt 0.048282 0.835886
vt 0.430432 0.969198
vt 0.023553 0.764639
vt 0.360022 0.991644
vt 0.013956 0.687094
vt 0.294733 0.995997
vt 0.587624 0.571648
vt 0.589299 0.643910
vt 0.004003 0.606576
vt 0.004003 0.281078
vt 0.013039 0.210767
vt 0.052979 0.226133
vt 0.032224 0.285543
vt 0.295755 0.004003
vt 0.366720 0.019652
vt 0.348460 0.085976
vt 0.292144 0.078466
vt 0.006035 0.353119
vt 0.020668 0.354142
vt 0.226100 0.005864
vt 0.240323 0.082447
vt 0.583622 0.322579
vt 0.593667 0.398339
vt 0.569103 0.325971
vt 0.008156 0.427921
vt 0.165558 0.027058
vt 0.194407 0.095035
vt 0.572779 0.245556
vt 0.545256 0.255339
vt 0.116274 0.058036
vt 0.153999 0.114671
vt 0.544994 0.170275
vt 0.509551 0.193200
vt 0.072466 0.096785
vt 0.117094 0.141793
vt 0.498165 0.104844
vt 0.461695 0.143185
vt 0.038961 0.148699
vt 0.083113 0.177942
vt 0.438320 0.050887
vt 0.406796 0.107218
vt 0.521578 0.268342
vt 0.482030 0.217536
vt 0.179939 0.162343
vt 0.147961 0.181515
vt 0.435174 0.179750
vt 0.116103 0.207908
vt 0.386039 0.154582
vt 0.084450 0.245006
vt 0.337151 0.140516
vt 0.056804 0.294545
vt 0.291453 0.136500
vt 0.034400 0.357525
vt 0.250221 0.140054
vt 0.592629 0.398326
vt 0.555502 0.331915
vt 0.010362 0.425545
vt 0.213417 0.148809
vt 0.329971 0.185904
vt 0.291753 0.183653
vt 0.078010 0.306571
vt 0.047182 0.363365
vt 0.257560 0.186623
vt 0.587034 0.398287
vt 0.543216 0.339301
vt 0.011140 0.425339
vt 0.226865 0.193067
vt 0.502101 0.283385
vt 0.198402 0.202879
vt 0.460196 0.242289
vt 0.170326 0.216887
vt 0.415704 0.213525
vt 0.140951 0.236688
vt 0.371799 0.195415
vt 0.109405 0.265456
vt 0.212029 0.238071
vt 0.187026 0.248613
vt 0.443230 0.266388
vt 0.401279 0.244417
vt 0.159964 0.263797
vt 0.361771 0.231152
vt 0.129266 0.286327
vt 0.325279 0.224570
vt 0.095777 0.320353
vt 0.292443 0.223314
vt 0.058846 0.370342
vt 0.263195 0.225792
vt 0.582332 0.399624
vt 0.532248 0.348043
vt 0.017595 0.426066
vt 0.236815 0.230703
vt 0.485980 0.299640
vt 0.110792 0.335295
vt 0.069005 0.379212
vt 0.293290 0.257614
vt 0.267640 0.259706
vt 0.577268 0.402189
vt 0.522592 0.357815
vt 0.018891 0.426357
vt 0.244415 0.263548
vt 0.472748 0.316487
vt 0.222383 0.269233
vt 0.429968 0.289609
vt 0.199808 0.277361
vt 0.390490 0.272739
vt 0.174755 0.289231
vt 0.354572 0.262899
vt 0.145207 0.307070
vt 0.322158 0.258266
vt 0.419529 0.311889
vt 0.382374 0.298856
vt 0.209798 0.303703
vt 0.186433 0.313132
vt 0.349319 0.291526
vt 0.158098 0.327400
vt 0.320083 0.288221
vt 0.123362 0.350851
vt 0.294192 0.287961
vt 0.077907 0.389151
vt 0.271229 0.289755
vt 0.572113 0.405911
vt 0.514196 0.368345
vt 0.023001 0.429375
vt 0.250364 0.292822
vt 0.461988 0.333556
vt 0.230426 0.297304
vt 0.295104 0.315325
vt 0.274187 0.316917
vt 0.570751 0.407533
vt 0.507663 0.380072
vt 0.027093 0.433700
vt 0.085622 0.399920
vt 0.255101 0.319354
vt 0.453191 0.350684
vt 0.236739 0.322956
vt 0.411187 0.333294
vt 0.217796 0.328129
vt 0.376317 0.323079
vt 0.195754 0.335686
vt 0.345395 0.317739
vt 0.168625 0.347214
vt 0.318763 0.315286
vt 0.133856 0.366722
vt 0.567516 0.413812
vt 0.030962 0.439216
vt 0.619160 0.022390
vt 0.619160 0.040777
vt 0.608353 0.037265
vt 0.601673 0.028072
vt 0.601673 0.016708
vt 0.608353 0.007515
vt 0.619160 0.004003
vt 0.629968 0.007515
vt 0.636647 0.016708
vt 0.636647 0.028072
vt 0.629968 0.037265
s 1
usemtl マテリアル.001
f 479/1/479 6/2/6 17/3/17 18/4/18
f 2/5/2 476/6/476 10/7/10 11/8/11
f 480/9/480 479/1/479 18/4/18 19/10/19
f 477/11/477 2/5/2 11/8/11 12/12/12
f 481/13/481 480/9/480 19/10/19 20/14/20
f 3/15/3 477/11/477 12/12/12 13/16/13
f 482/17/482 481/13/481 20/14/20 21/18/21
f 4/19/4 3/15/3 13/16/13 14/20/14
f 474/21/474 82/22/82 7/23/7
f 308/24/308 482/17/482 21/18/21
f 5/25/5 4/19/4 14/20/14 15/26/15
f 475/27/475 474/21/474 7/23/7 8/28/8
f 478/29/478 5/25/5 15/26/15 16/30/16
f 1/31/1 475/27/475 8/28/8 9/32/9
f 6/2/6 478/29/478 16/30/16 17/3/17
f 476/6/476 1/31/1 9/32/9 10/7/10
f 9/32/9 8/28/8 23/33/23 24/34/24
f 17/3/17 16/30/16 31/35/31 32/36/32
f 10/7/10 9/32/9 24/34/24 25/37/25
f 18/4/18 17/3/17 32/36/32 33/38/33
f 11/8/11 10/7/10 25/37/25 26/39/26
f 19/10/19 18/4/18 33/38/33 34/40/34
f 12/12/12 11/8/11 26/39/26 27/41/27
f 20/14/20 19/10/19 34/40/34 35/42/35
f 13/16/13 12/12/12 27/41/27 28/43/28
f 21/18/21 20/14/20 35/42/35 36/44/36
f 14/20/14 13/16/13 28/43/28 29/45/29
f 7/23/7 82/46/82 22/47/22
f 308/48/308 21/18/21 36/44/36
f 15/26/15 14/20/14 29/45/29 30/49/30
f 8/28/8 7/23/7 22/47/22 23/33/23
f 16/30/16 15/26/15 30/49/30 31/35/31
f 28/43/28 27/41/27 42/50/42 43/51/43
f 36/44/36 35/42/35 50/52/50 51/53/51
f 29/45/29 28/43/28 43/51/43 44/54/44
f 22/47/22 82/55/82 37/56/37
f 308/57/308 36/44/36 51/53/51
f 30/49/30 29/45/29 44/54/44 45/58/45
f 23/33/23 22/47/22 37/56/37 38/59/38
f 31/35/31 30/49/30 45/58/45 46/60/46
f 24/34/24 23/33/23 38/59/38 39/61/39
f 32/36/32 31/35/31 46/60/46 47/62/47
f 25/37/25 24/34/24 39/61/39 40/63/40
f 33/38/33 32/36/32 47/62/47 48/64/48
f 26/39/26 25/37/25 40/63/40 41/65/41
f 34/40/34 33/38/33 48/64/48 49/66/49
f 27/41/27 26/39/26 41/65/41 42/50/42
f 35/42/35 34/40/34 49/66/49 50/52/50
f 47/62/47 46/60/46 61/67/61 62/68/62
f 40/63/40 39/61/39 54/69/54 55/70/55
f 48/64/48 47/62/47 62/68/62 63/71/63
f 41/65/41 40/63/40 55/70/55 56/72/56
f 49/66/49 48/64/48 63/71/63 64/73/64
f 42/50/42 41/65/41 56/72/56 57/74/57
f 50/52/50 49/66/49 64/73/64 65/75/65
f 43/51/43 42/50/42 57/74/57 58/76/58
f 51/53/51 50/52/50 65/75/65 66/77/66
f 44/54/44 43/51/43 58/76/58 59/78/59
f 37/56/37 82/79/82 52/80/52
f 308/81/308 51/53/51 66/77/66
f 45/58/45 44/54/44 59/78/59 60/82/60
f 38/59/38 37/56/37 52/80/52 53/83/53
f 46/60/46 45/58/45 60/82/60 61/67/61
f 39/61/39 38/59/38 53/83/53 54/69/54
f 66/77/66 65/75/65 80/84/80 81/85/81
f 59/78/59 58/76/58 73/86/73 74/87/74
f 52/80/52 82/88/82 67/89/67
f 308/90/308 66/77/66 81/85/81
f 60/82/60 59/78/59 74/87/74 75/91/75
f 53/83/53 52/80/52 67/89/67 68/92/68
f 61/67/61 60/82/60 75/91/75 76/93/76
f 54/69/54 53/83/53 68/92/68 69/94/69
f 62/68/62 61/67/61 76/93/76 77/95/77
f 55/70/55 54/69/54 69/94/69 70/96/70
f 63/71/63 62/68/62 77/95/77 78/97/78
f 56/72/56 55/70/55 70/96/70 71/98/71
f 64/73/64 63/71/63 78/97/78 79/99/79
f 57/74/57 56/72/56 71/98/71 72/100/72
f 65/75/65 64/73/64 79/99/79 80/84/80
f 58/76/58 57/74/57 72/100/72 73/86/73
f 78/97/78 77/95/77 93/101/93 94/102/94
f 71/98/71 70/96/70 86/103/86 87/104/87
f 79/99/79 78/97/78 94/102/94 95/105/95
f 72/100/72 71/98/71 87/104/87 88/106/88
f 80/84/80 79/99/79 95/105/95 96/107/96
f 73/86/73 72/100/72 88/106/88 89/108/89
f 81/85/81 80/84/80 96/107/96 97/109/97
f 74/87/74 73/86/73 89/108/89 90/110/90
f 67/89/67 82/111/82 83/112/83
f 308/113/308 81/85/81 97/109/97
f 75/91/75 74/87/74 90/110/90 91/114/91
f 68/92/68 67/89/67 83/112/83 84/115/84
f 76/93/76 75/91/75 91/114/91 92/116/92
f 69/94/69 68/92/68 84/115/84 85/117/85
f 77/95/77 76/93/76 92/116/92 93/101/93
f 70/96/70 69/94/69 85/117/85 86/103/86
f 83/112/83 82/118/82 98/119/98
f 308/120/308 97/109/97 112/121/112
f 91/114/91 90/110/90 105/122/105 106/123/106
f 84/115/84 83/112/83 98/119/98 99/124/99
f 92/116/92 91/114/91 106/123/106 107/125/107
f 85/117/85 84/115/84 99/124/99 100/126/100
f 93/101/93 92/116/92 107/125/107 108/127/108
f 86/103/86 85/117/85 100/126/100 101/128/101
f 94/102/94 93/101/93 108/127/108 109/129/109
f 87/104/87 86/103/86 101/128/101 102/130/102
f 95/105/95 94/102/94 109/129/109 110/131/110
f 88/106/88 87/104/87 102/130/102 103/132/103
f 96/107/96 95/105/95 110/131/110 111/133/111
f 89/108/89 88/106/88 103/132/103 104/134/104
f 97/109/97 96/107/96 111/133/111 112/121/112
f 90/110/90 89/108/89 104/134/104 105/122/105
f 102/130/102 101/128/101 116/135/116 117/136/117
f 110/131/110 109/129/109 124/137/124 125/138/125
f 103/132/103 102/130/102 117/136/117 118/139/118
f 111/133/111 110/131/110 125/138/125 126/140/126
f 104/134/104 103/132/103 118/139/118 119/141/119
f 112/121/112 111/133/111 126/140/126 127/142/127
f 105/122/105 104/134/104 119/141/119 120/143/120
f 98/119/98 82/144/82 113/145/113
f 308/146/308 112/121/112 127/142/127
f 106/123/106 105/122/105 120/143/120 121/147/121
f 99/124/99 98/119/98 113/145/113 114/148/114
f 107/125/107 106/123/106 121/147/121 122/149/122
f 100/126/100 99/124/99 114/148/114 115/150/115
f 108/127/108 107/125/107 122/149/122 123/151/123
f 101/128/101 100/126/100 115/150/115 116/135/116
f 109/129/109 108/127/108 123/151/123 124/137/124
f 121/147/121 120/143/120 135/152/135 136/153/136
f 114/148/114 113/145/113 128/154/128 129/155/129
f 122/149/122 121/147/121 136/153/136 137/156/137
f 115/150/115 114/148/114 129/155/129 130/157/130
f 123/151/123 122/149/122 137/156/137 138/158/138
f 116/135/116 115/150/115 130/157/130 131/159/131
f 124/137/124 123/151/123 138/158/138 139/160/139
f 117/136/117 116/135/116 131/159/131 132/161/132
f 125/138/125 124/137/124 139/160/139 140/162/140
f 118/139/118 117/136/117 132/161/132 133/163/133
f 126/140/126 125/138/125 140/162/140 141/164/141
f 119/141/119 118/139/118 133/163/133 134/165/134
f 127/142/127 126/140/126 141/164/141 142/166/142
f 120/143/120 119/141/119 134/165/134 135/152/135
f 113/145/113 82/167/82 128/154/128
f 308/168/308 127/142/127 142/166/142
f 140/162/140 139/160/139 154/169/154 155/170/155
f 133/163/133 132/161/132 147/171/147 148/172/148
f 141/164/141 140/162/140 155/170/155 156/173/156
f 134/165/134 133/163/133 148/172/148 149/174/149
f 142/166/142 141/164/141 156/173/156 157/175/157
f 135/152/135 134/165/134 149/174/149 150/176/150
f 128/154/128 82/177/82 143/178/143
f 308/179/308 142/166/142 157/175/157
f 136/153/136 135/152/135 150/176/150 151/180/151
f 129/155/129 128/154/128 143/178/143 144/181/144
f 137/156/137 136/153/136 151/180/151 152/182/152
f 130/157/130 129/155/129 144/181/144 145/183/145
f 138/158/138 137/156/137 152/182/152 153/184/153
f 131/159/131 130/157/130 145/183/145 146/185/146
f 139/160/139 138/158/138 153/184/153 154/169/154
f 132/161/132 131/159/131 146/185/146 147/171/147
f 144/181/144 143/178/143 158/186/158 159/187/159
f 152/182/152 151/180/151 166/188/166 167/189/167
f 145/183/145 144/181/144 159/187/159 160/190/160
f 153/184/153 152/182/152 167/189/167 168/191/168
f 146/185/146 145/183/145 160/190/160 161/192/161
f 154/169/154 153/184/153 168/191/168 169/193/169
f 147/171/147 146/185/146 161/192/161 162/194/162
f 155/170/155 154/169/154 169/193/169 170/195/170
f 148/172/148 147/171/147 162/194/162 163/196/163
f 156/173/156 155/170/155 170/195/170 171/197/171
f 149/174/149 148/172/148 163/196/163 164/198/164
f 157/175/157 156/173/156 171/197/171 172/199/172
f 150/176/150 149/174/149 164/198/164 165/200/165
f 143/178/143 82/201/82 158/186/158
f 308/202/308 157/175/157 172/199/172
f 151/180/151 150/176/150 165/200/165 166/188/166
f 163/196/163 162/194/162 177/203/177 178/204/178
f 171/197/171 170/195/170 185/205/185 186/206/186
f 164/198/164 163/196/163 178/204/178 179/207/179
f 172/199/172 171/197/171 186/206/186 187/208/187
f 165/200/165 164/198/164 179/207/179 180/209/180
f 158/186/158 82/210/82 173/211/173
f 308/212/308 172/199/172 187/208/187
f 166/188/166 165/200/165 180/209/180 181/213/181
f 159/187/159 158/186/158 173/211/173 174/214/174
f 167/189/167 166/188/166 181/213/181 182/215/182
f 160/190/160 159/187/159 174/214/174 175/216/175
f 168/191/168 167/189/167 182/215/182 183/217/183
f 161/192/161 160/190/160 175/216/175 176/218/176
f 169/193/169 168/191/168 183/217/183 184/219/184
f 162/194/162 161/192/161 176/218/176 177/203/177
f 170/195/170 169/193/169 184/219/184 185/205/185
f 182/215/182 181/213/181 196/220/196 197/221/197
f 175/216/175 174/214/174 189/222/189 190/223/190
f 183/217/183 182/215/182 197/221/197 198/224/198
f 176/218/176 175/216/175 190/223/190 191/225/191
f 184/219/184 183/217/183 198/224/198 199/226/199
f 177/203/177 176/218/176 191/225/191 192/227/192
f 185/205/185 184/219/184 199/226/199 200/228/200
f 178/204/178 177/203/177 192/227/192 193/229/193
f 186/206/186 185/205/185 200/228/200 201/230/201
f 179/207/179 178/204/178 193/229/193 194/231/194
f 187/208/187 186/206/186 201/230/201 202/232/202
f 180/209/180 179/207/179 194/231/194 195/233/195
f 173/211/173 82/234/82 188/235/188
f 308/236/308 187/208/187 202/232/202
f 181/213/181 180/209/180 195/233/195 196/220/196
f 174/214/174 173/211/173 188/235/188 189/222/189
f 201/230/201 200/228/200 215/237/215 216/238/216
f 194/231/194 193/229/193 208/239/208 209/240/209
f 202/232/202 201/230/201 216/238/216 217/241/217
f 195/233/195 194/231/194 209/240/209 210/242/210
f 188/235/188 82/243/82 203/244/203
f 308/245/308 202/232/202 217/241/217
f 196/220/196 195/233/195 210/242/210 211/246/211
f 189/222/189 188/235/188 203/244/203 204/247/204
f 197/221/197 196/220/196 211/246/211 212/248/212
f 190/223/190 189/222/189 204/247/204 205/249/205
f 198/224/198 197/221/197 212/248/212 213/250/213
f 191/225/191 190/223/190 205/249/205 206/251/206
f 199/226/199 198/224/198 213/250/213 214/252/214
f 192/227/192 191/225/191 206/251/206 207/253/207
f 200/228/200 199/226/199 214/252/214 215/237/215
f 193/229/193 192/227/192 207/253/207 208/239/208
f 213/250/213 212/248/212 227/254/227 228/255/228
f 206/251/206 205/249/205 220/256/220 221/257/221
f 214/252/214 213/250/213 228/255/228 229/258/229
f 207/253/207 206/251/206 221/257/221 222/259/222
f 215/237/215 214/252/214 229/258/229 230/260/230
f 208/239/208 207/253/207 222/259/222 223/261/223
f 216/238/216 215/237/215 230/260/230 231/262/231
f 209/240/209 208/239/208 223/261/223 224/263/224
f 217/241/217 216/238/216 231/262/231 232/264/232
f 210/242/210 209/240/209 224/263/224 225/265/225
f 203/244/203 82/266/82 218/267/218
f 308/268/308 217/241/217 232/264/232
f 211/246/211 210/242/210 225/265/225 226/269/226
f 204/247/204 203/244/203 218/267/218 219/270/219
f 212/248/212 211/246/211 226/269/226 227/254/227
f 205/249/205 204/247/204 219/270/219 220/256/220
f 232/264/232 231/262/231 246/271/246 247/272/247
f 225/265/225 224/263/224 239/273/239 240/274/240
f 218/267/218 82/275/82 233/276/233
f 308/277/308 232/264/232 247/272/247
f 226/269/226 225/265/225 240/274/240 241/278/241
f 219/270/219 218/267/218 233/276/233 234/279/234
f 227/254/227 226/269/226 241/278/241 242/280/242
f 220/256/220 219/270/219 234/279/234 235/281/235
f 228/255/228 227/254/227 242/280/242 243/282/243
f 221/257/221 220/256/220 235/281/235 236/283/236
f 229/258/229 228/255/228 243/282/243 244/284/244
f 222/259/222 221/257/221 236/283/236 237/285/237
f 230/260/230 229/258/229 244/284/244 245/286/245
f 223/261/223 222/259/222 237/285/237 238/287/238
f 231/262/231 230/260/230 245/286/245 246/271/246
f 224/263/224 223/261/223 238/287/238 239/273/239
f 236/283/236 235/281/235 250/288/250 251/289/251
f 244/284/244 243/282/243 258/290/258 259/291/259
f 237/285/237 236/283/236 251/289/251 252/292/252
f 245/286/245 244/284/244 259/291/259 260/293/260
f 238/287/238 237/285/237 252/292/252 253/294/253
f 246/271/246 245/286/245 260/293/260 261/295/261
f 239/273/239 238/287/238 253/294/253 254/296/254
f 247/272/247 246/271/246 261/295/261 262/297/262
f 240/274/240 239/273/239 254/296/254 255/298/255
f 233/276/233 82/299/82 248/300/248
f 308/301/308 247/272/247 262/297/262
f 241/278/241 240/274/240 255/298/255 256/302/256
f 234/279/234 233/276/233 248/300/248 249/303/249
f 242/280/242 241/278/241 256/302/256 257/304/257
f 235/281/235 234/279/234 249/303/249 250/288/250
f 243/282/243 242/280/242 257/304/257 258/290/258
f 255/298/255 254/296/254 269/305/269 270/306/270
f 248/300/248 82/307/82 263/308/263
f 308/309/308 262/297/262 277/310/277
f 256/302/256 255/298/255 270/306/270 271/311/271
f 249/303/249 248/300/248 263/308/263 264/312/264
f 257/304/257 256/302/256 271/311/271 272/313/272
f 250/288/250 249/303/249 264/312/264 265/314/265
f 258/290/258 257/304/257 272/313/272 273/315/273
f 251/289/251 250/288/250 265/314/265 266/316/266
f 259/291/259 258/290/258 273/315/273 274/317/274
f 252/292/252 251/289/251 266/316/266 267/318/267
f 260/293/260 259/291/259 274/317/274 275/319/275
f 253/294/253 252/292/252 267/318/267 268/320/268
f 261/295/261 260/293/260 275/319/275 276/321/276
f 254/296/254 253/294/253 268/320/268 269/305/269
f 262/297/262 261/295/261 276/321/276 277/310/277
f 274/317/274 273/315/273 288/322/288 289/323/289
f 267/318/267 266/316/266 281/324/281 282/325/282
f 275/319/275 274/317/274 289/323/289 290/326/290
f 268/320/268 267/318/267 282/325/282 283/327/283
f 276/321/276 275/319/275 290/326/290 291/328/291
f 269/305/269 268/320/268 283/327/283 284/329/284
f 277/310/277 276/321/276 291/328/291 292/330/292
f 270/306/270 269/305/269 284/329/284 285/331/285
f 263/308/263 82/332/82 278/333/278
f 308/334/308 277/310/277 292/330/292
f 271/311/271 270/306/270 285/331/285 286/335/286
f 264/312/264 263/308/263 278/333/278 279/336/279
f 272/313/272 271/311/271 286/335/286 287/337/287
f 265/314/265 264/312/264 279/336/279 280/338/280
f 273/315/273 272/313/272 287/337/287 288/322/288
f 266/316/266 265/314/265 280/338/280 281/324/281
f 278/333/278 82/339/82 293/340/293
f 308/341/308 292/330/292 307/342/307
f 286/335/286 285/331/285 300/343/300 301/344/301
f 279/336/279 278/333/278 293/340/293 294/345/294
f 287/337/287 286/335/286 301/344/301 302/346/302
f 280/338/280 279/336/279 294/345/294 295/347/295
f 288/322/288 287/337/287 302/346/302 303/348/303
f 281/324/281 280/338/280 295/347/295 296/349/296
f 289/323/289 288/322/288 303/348/303 304/350/304
f 282/325/282 281/324/281 296/349/296 297/351/297
f 290/326/290 289/323/289 304/350/304 305/352/305
f 283/327/283 282/325/282 297/351/297 298/353/298
f 291/328/291 290/326/290 305/352/305 306/354/306
f 284/329/284 283/327/283 298/353/298 299/355/299
f 292/330/292 291/328/291 306/354/306 307/342/307
f 285/331/285 284/329/284 299/355/299 300/343/300
f 297/351/297 296/349/296 312/356/312 313/357/313
f 305/352/305 304/350/304 320/358/320 321/359/321
f 298/353/298 297/351/297 313/357/313 314/360/314
f 306/354/306 305/352/305 321/359/321 322/361/322
f 299/355/299 298/353/298 314/360/314 315/362/315
f 307/342/307 306/354/306 322/361/322 323/363/323
f 300/343/300 299/355/299 315/362/315 316/364/316
f 293/340/293 82/365/82 309/366/309
f 308/367/308 307/342/307 323/363/323
f 301/344/301 300/343/300 316/364/316 317/368/317
f 294/345/294 293/340/293 309/366/309 310/369/310
f 302/346/302 301/344/301 317/368/317 318/370/318
f 295/347/295 294/345/294 310/369/310 311/371/311
f 303/348/303 302/346/302 318/370/318 319/372/319
f 296/349/296 295/347/295 311/371/311 312/356/312
f 304/350/304 303/348/303 319/372/319 320/358/320
f 317/368/317 316/364/316 331/373/331 332/374/332
f 310/369/310 309/366/309 324/375/324 325/376/325
f 318/370/318 317/368/317 332/374/332 333/377/333
f 311/371/311 310/369/310 325/376/325 326/378/326
f 319/372/319 318/370/318 333/377/333 334/379/334
f 312/356/312 311/371/311 326/378/326 327/380/327
f 320/358/320 319/372/319 334/379/334 335/381/335
f 313/357/313 312/356/312 327/380/327 328/382/328
f 321/359/321 320/358/320 335/381/335 336/383/336
f 314/360/314 313/357/313 328/382/328 329/384/329
f 322/361/322 321/359/321 336/383/336 337/385/337
f 315/362/315 314/360/314 329/384/329 330/386/330
f 323/363/323 322/361/322 337/385/337 338/387/338
f 316/364/316 315/362/315 330/386/330 331/373/331
f 309/366/309 82/388/82 324/375/324
f 308/389/308 323/363/323 338/387/338
f 336/383/336 335/381/335 350/390/350 351/391/351
f 329/384/329 328/382/328 343/392/343 344/393/344
f 337/385/337 336/383/336 351/391/351 352/394/352
f 330/386/330 329/384/329 344/393/344 345/395/345
f 338/387/338 337/385/337 352/394/352 353/396/353
f 331/373/331 330/386/330 345/395/345 346/397/346
f 324/375/324 82/398/82 339/399/339
f 308/400/308 338/387/338 353/396/353
f 332/374/332 331/373/331 346/397/346 347/401/347
f 325/376/325 324/375/324 339/399/339 340/402/340
f 333/377/333 332/374/332 347/401/347 348/403/348
f 326/378/326 325/376/325 340/402/340 341/404/341
f 334/379/334 333/377/333 348/403/348 349/405/349
f 327/380/327 326/378/326 341/404/341 342/406/342
f 335/381/335 334/379/334 349/405/349 350/390/350
f 328/382/328 327/380/327 342/406/342 343/392/343
f 348/403/348 347/401/347 362/407/362 363/408/363
f 341/404/341 340/402/340 355/409/355 356/410/356
f 349/405/349 348/403/348 363/408/363 364/411/364
f 342/406/342 341/404/341 356/410/356 357/412/357
f 350/390/350 349/405/349 364/411/364 365/413/365
f 343/392/343 342/406/342 357/412/357 358/414/358
f 351/391/351 350/390/350 365/413/365 366/415/366
f 344/393/344 343/392/343 358/414/358 359/416/359
f 352/394/352 351/391/351 366/415/366 367/417/367
f 345/395/345 344/393/344 359/416/359 360/418/360
f 353/396/353 352/394/352 367/417/367 368/419/368
f 346/397/346 345/395/345 360/418/360 361/420/361
f 339/399/339 82/421/82 354/422/354
f 308/423/308 353/396/353 368/419/368
f 347/401/347 346/397/346 361/420/361 362/407/362
f 340/402/340 339/399/339 354/422/354 355/409/355
f 367/424/367 366/425/366 381/426/381 382/427/382
f 360/428/360 359/429/359 374/430/374 375/431/375
f 368/432/368 367/424/367 382/427/382 383/433/383
f 361/434/361 360/428/360 375/431/375 376/435/376
f 354/436/354 82/437/82 369/438/369
f 308/439/308 368/432/368 383/433/383
f 362/440/362 361/434/361 376/435/376 377/441/377
f 355/442/355 354/436/354 369/438/369 370/443/370
f 363/444/363 362/440/362 377/441/377 378/445/378
f 356/446/356 355/442/355 370/443/370 371/447/371
f 364/448/364 363/444/363 378/445/378 379/449/379
f 357/450/357 356/446/356 371/447/371 372/451/372
f 365/452/365 364/448/364 379/449/379 380/453/380
f 358/454/358 357/450/357 372/451/372 373/455/373
f 366/425/366 365/452/365 380/453/380 381/426/381
f 359/429/359 358/454/358 373/455/373 374/430/374
f 371/447/371 370/443/370 385/456/385 386/457/386
f 379/449/379 378/445/378 393/458/393 394/459/394
f 372/451/372 371/447/371 386/457/386 387/460/387
f 380/453/380 379/449/379 394/459/394 395/461/395
f 373/455/373 372/451/372 387/460/387 388/462/388
f 381/426/381 380/453/380 395/461/395 396/463/396
f 374/430/374 373/455/373 388/462/388 389/464/389
f 382/427/382 381/426/381 396/463/396 397/465/397
f 375/431/375 374/430/374 389/464/389 390/466/390
f 383/433/383 382/427/382 397/465/397 398/467/398
f 376/435/376 375/431/375 390/466/390 391/468/391
f 369/438/369 82/469/82 384/470/384
f 308/471/308 383/433/383 398/467/398
f 377/441/377 376/435/376 391/468/391 392/472/392
f 370/443/370 369/438/369 384/470/384 385/456/385
f 378/445/378 377/441/377 392/472/392 393/458/393
f 390/466/390 389/464/389 404/473/404 405/474/405
f 398/467/398 397/465/397 412/475/412 413/476/413
f 391/468/391 390/466/390 405/474/405 406/477/406
f 384/470/384 82/478/82 399/479/399
f 308/480/308 398/467/398 413/476/413
f 392/472/392 391/468/391 406/477/406 407/481/407
f 385/456/385 384/470/384 399/479/399 400/482/400
f 393/458/393 392/472/392 407/481/407 408/483/408
f 386/457/386 385/456/385 400/482/400 401/484/401
f 394/459/394 393/458/393 408/483/408 409/485/409
f 387/460/387 386/457/386 401/484/401 402/486/402
f 395/461/395 394/459/394 409/485/409 410/487/410
f 388/462/388 387/460/387 402/486/402 403/488/403
f 396/463/396 395/461/395 410/487/410 411/489/411
f 389/464/389 388/462/388 403/488/403 404/473/404
f 397/465/397 396/463/396 411/489/411 412/475/412
f 409/485/409 408/483/408 423/490/423 424/491/424
f 402/486/402 401/484/401 416/492/416 417/493/417
f 410/487/410 409/485/409 424/491/424 425/494/425
f 403/488/403 402/486/402 417/493/417 418/495/418
f 411/489/411 410/487/410 425/494/425 426/496/426
f 404/473/404 403/488/403 418/495/418 419/497/419
f 412/475/412 411/489/411 426/496/426 427/498/427
f 405/474/405 404/473/404 419/497/419 420/499/420
f 413/476/413 412/475/412 427/498/427 428/500/428
f 406/477/406 405/474/405 420/499/420 421/501/421
f 399/479/399 82/502/82 414/503/414
f 308/504/308 413/476/413 428/500/428
f 407/481/407 406/477/406 421/501/421 422/505/422
f 400/482/400 399/479/399 414/503/414 415/506/415
f 408/483/408 407/481/407 422/505/422 423/490/423
f 401/484/401 400/482/400 415/506/415 416/492/416
f 428/500/428 427/498/427 442/507/442 443/508/443
f 421/501/421 420/499/420 435/509/435 436/510/436
f 414/503/414 82/511/82 429/512/429
f 308/513/308 428/500/428 443/508/443
f 422/505/422 421/501/421 436/510/436 437/514/437
f 415/506/415 414/503/414 429/512/429 430/515/430
f 423/490/423 422/505/422 437/514/437 438/516/438
f 416/492/416 415/506/415 430/515/430 431/517/431
f 424/491/424 423/490/423 438/516/438 439/518/439
f 417/493/417 416/492/416 431/517/431 432/519/432
f 425/494/425 424/491/424 439/518/439 440/520/440
f 418/495/418 417/493/417 432/519/432 433/521/433
f 426/496/426 425/494/425 440/520/440 441/522/441
f 419/497/419 418/495/418 433/521/433 434/523/434
f 427/498/427 426/496/426 441/522/441 442/507/442
f 420/499/420 419/497/419 434/523/434 435/509/435
f 432/519/432 431/517/431 446/524/446 447/525/447
f 440/520/440 439/518/439 454/526/454 455/527/455
f 433/521/433 432/519/432 447/525/447 448/528/448
f 441/522/441 440/520/440 455/527/455 456/529/456
f 434/523/434 433/521/433 448/528/448 449/530/449
f 442/507/442 441/522/441 456/529/456 457/531/457
f 435/509/435 434/523/434 449/530/449 450/532/450
f 443/508/443 442/507/442 457/531/457 458/533/458
f 436/510/436 435/509/435 450/532/450 451/534/451
f 429/512/429 82/535/82 444/536/444
f 308/537/308 443/508/443 458/533/458
f 437/514/437 436/510/436 451/534/451 452/538/452
f 430/515/430 429/512/429 444/536/444 445/539/445
f 438/516/438 437/514/437 452/538/452 453/540/453
f 431/517/431 430/515/430 445/539/445 446/524/446
f 439/518/439 438/516/438 453/540/453 454/526/454
f 451/534/451 450/532/450 465/541/465 466/542/466
f 444/536/444 82/543/82 459/544/459
f 308/545/308 458/533/458 473/546/473
f 452/538/452 451/534/451 466/542/466 467/547/467
f 445/539/445 444/536/444 459/544/459 460/548/460
f 453/540/453 452/538/452 467/547/467 468/549/468
f 446/524/446 445/539/445 460/548/460 461/550/461
f 454/526/454 453/540/453 468/549/468 469/551/469
f 447/525/447 446/524/446 461/550/461 462/552/462
f 455/527/455 454/526/454 469/551/469 470/553/470
f 448/528/448 447/525/447 462/552/462 463/554/463
f 456/529/456 455/527/455 470/553/470 471/555/471
f 449/530/449 448/528/448 463/554/463 464/556/464
f 457/531/457 456/529/456 471/555/471 472/557/472
f 450/532/450 449/530/449 464/556/464 465/541/465
f 458/533/458 457/531/457 472/557/472 473/546/473
f 470/553/470 469/551/469 6/2/6 479/1/479
f 463/554/463 462/552/462 476/6/476 2/5/2
f 471/555/471 470/553/470 479/1/479 480/9/480
f 464/556/464 463/554/463 2/5/2 477/11/477
f 472/557/472 471/555/471 480/9/480 481/13/481
f 465/541/465 464/556/464 477/11/477 3/15/3
f 473/546/473 472/557/472 481/13/481 482/17/482
f 466/542/466 465/541/465 3/15/3 4/19/4
f 459/544/459 82/558/82 474/21/474
f 308/559/308 473/546/473 482/17/482
f 467/547/467 466/542/466 4/19/4 5/25/5
f 460/548/460 459/544/459 474/21/474 475/27/475
f 468/549/468 467/547/467 5/25/5 478/29/478
f 461/550/461 460/548/460 475/27/475 1/31/1
f 469/551/469 468/549/468 478/29/478 6/2/6
f 462/552/462 461/550/461 1/31/1 476/6/476
usemtl マテリアル
f 483/560/483 484/561/483 485/562/483
f 483/560/483 485/562/483 486/563/483
f 483/560/483 486/563/483 487/564/483
f 483/560/483 487/564/483 488/565/483
f 483/560/483 488/565/483 489/566/483
f 483/560/483 489/566/483 490/567/483
f 483/560/483 490/567/483 491/568/483
f 483/560/483 491/568/483 492/569/483
f 483/560/483 492/569/483 493/570/483
f 483/560/483 493/570/483 484/561/483
f 494/560/484 496/562/484 495/561/484
f 494/560/484 497/563/484 496/562/484
f 494/560/484 498/564/484 497/563/484
f 494/560/484 499/565/484 498/564/484
f 494/560/484 500/566/484 499/565/484
f 494/560/484 501/567/484 500/566/484
f 494/560/484 502/568/484 501/567/484
f 494/560/484 503/569/484 502/568/484
f 494/560/484 504/570/484 503/569/484
f 494/560/484 495/561/484 504/570/484
