# Blender 4.1.1
# www.blender.org
mtllib goal.mtl
o 円柱
v 0.876084 -1.222242 -0.119983
v 0.876084 1.822242 -0.119983
v 0.899491 -1.222242 -0.117677
v 0.899491 1.822242 -0.117677
v 0.921999 -1.222242 -0.110849
v 0.921999 1.822242 -0.110849
v 0.942743 -1.222242 -0.099762
v 0.942743 1.822242 -0.099762
v 0.960924 -1.222242 -0.084840
v 0.960924 1.822242 -0.084840
v 0.975846 -1.222242 -0.066659
v 0.975846 1.822242 -0.066659
v 0.986933 -1.222242 -0.045915
v 0.986933 1.822242 -0.045915
v 0.993761 -1.222242 -0.023407
v 0.993761 1.822242 -0.023407
v 0.996066 -1.222242 0.000000
v 0.996066 1.822242 -0.000000
v 0.993761 -1.222242 0.023407
v 0.993761 1.822242 0.023407
v 0.986933 -1.222242 0.045915
v 0.986933 1.822242 0.045915
v 0.975846 -1.222242 0.066659
v 0.975846 1.822242 0.066659
v 0.960924 -1.222242 0.084840
v 0.960924 1.822242 0.084840
v 0.942743 -1.222242 0.099762
v 0.942743 1.822242 0.099762
v 0.921999 -1.222242 0.110849
v 0.921999 1.822242 0.110849
v 0.899491 -1.222242 0.117677
v 0.899491 1.822242 0.117677
v 0.876084 -1.222242 0.119983
v 0.876084 1.822242 0.119983
v 0.852677 -1.222242 0.117677
v 0.852677 1.822242 0.117677
v 0.830169 -1.222242 0.110849
v 0.830169 1.822242 0.110849
v 0.809425 -1.222242 0.099762
v 0.809425 1.822242 0.099762
v 0.791244 -1.222242 0.084840
v 0.791244 1.822242 0.084840
v 0.776322 -1.222242 0.066659
v 0.776322 1.822242 0.066659
v 0.765235 -1.222242 0.045915
v 0.765235 1.822242 0.045915
v 0.758407 -1.222242 0.023407
v 0.758407 1.822242 0.023407
v 0.756101 -1.222242 0.000000
v 0.756101 1.822242 -0.000000
v 0.758407 -1.222242 -0.023407
v 0.758407 1.822242 -0.023407
v 0.765235 -1.222242 -0.045915
v 0.765235 1.822242 -0.045915
v 0.776322 -1.222242 -0.066659
v 0.776322 1.822242 -0.066659
v 0.791244 -1.222242 -0.084840
v 0.791244 1.822242 -0.084840
v 0.809425 -1.222242 -0.099762
v 0.809425 1.822242 -0.099762
v 0.830169 -1.222242 -0.110849
v 0.830169 1.822242 -0.110849
v 0.852677 -1.222242 -0.117677
v 0.852677 1.822242 -0.117677
v -1.090699 0.905846 -0.000000
v 0.842867 1.745227 -0.000000
v 0.842867 0.206362 -0.000000
v 0.876084 2.055317 -0.106365
v 0.876084 2.002495 -0.159187
v 0.876084 1.933480 -0.187774
v 0.876084 1.896130 -0.191452
v 0.876084 1.858779 -0.187774
v 0.876084 1.789764 -0.159187
v 0.883371 2.083903 -0.036633
v 0.890377 2.073009 -0.071858
v 0.896835 2.055317 -0.104321
v 0.902495 2.031507 -0.132776
v 0.907140 2.002495 -0.156128
v 0.910591 1.969395 -0.173480
v 0.912717 1.933480 -0.184166
v 0.913435 1.896130 -0.187774
v 0.912717 1.858779 -0.184166
v 0.910591 1.822864 -0.173480
v 0.907140 1.789764 -0.156128
v 0.902495 1.760752 -0.132776
v 0.896835 1.736943 -0.104321
v 0.890377 1.719251 -0.071858
v 0.883371 1.708356 -0.036633
v 0.890377 2.083903 -0.034507
v 0.904122 2.073009 -0.067689
v 0.916788 2.055317 -0.098269
v 0.927891 2.031507 -0.125072
v 0.937002 2.002495 -0.147069
v 0.943773 1.969395 -0.163415
v 0.947942 1.933480 -0.173480
v 0.949350 1.896130 -0.176879
v 0.947942 1.858779 -0.173480
v 0.943773 1.822864 -0.163415
v 0.937002 1.789764 -0.147069
v 0.927891 1.760752 -0.125072
v 0.916788 1.736943 -0.098269
v 0.904122 1.719251 -0.067689
v 0.890377 1.708356 -0.034507
v 0.896835 2.083903 -0.031056
v 0.916788 2.073009 -0.060918
v 0.935177 2.055317 -0.088439
v 0.951296 2.031507 -0.112562
v 0.964523 2.002495 -0.132359
v 0.974353 1.969395 -0.147069
v 0.980405 1.933480 -0.156128
v 0.982449 1.896130 -0.159187
v 0.980405 1.858779 -0.156128
v 0.974353 1.822864 -0.147069
v 0.964523 1.789764 -0.132359
v 0.951296 1.760752 -0.112562
v 0.935177 1.736943 -0.088439
v 0.916788 1.719251 -0.060918
v 0.896835 1.708356 -0.031056
v 0.902495 2.083903 -0.026411
v 0.927891 2.073009 -0.051807
v 0.951296 2.055317 -0.075212
v 0.971810 2.031507 -0.095726
v 0.988646 2.002495 -0.112562
v 1.001156 1.969395 -0.125072
v 1.008860 1.933480 -0.132776
v 1.011461 1.896130 -0.135377
v 1.008860 1.858779 -0.132776
v 1.001156 1.822864 -0.125072
v 0.988646 1.789764 -0.112562
v 0.971810 1.760752 -0.095726
v 0.951296 1.736943 -0.075212
v 0.927891 1.719251 -0.051807
v 0.902495 1.708356 -0.026411
v 0.907140 2.083903 -0.020751
v 0.937002 2.073009 -0.040704
v 0.964523 2.055317 -0.059093
v 0.988646 2.031507 -0.075212
v 1.008443 2.002495 -0.088439
v 1.023153 1.969395 -0.098269
v 1.032212 1.933480 -0.104321
v 1.035271 1.896130 -0.106365
v 1.032212 1.858779 -0.104321
v 1.023153 1.822864 -0.098269
v 1.008443 1.789764 -0.088439
v 0.988646 1.760752 -0.075212
v 0.964523 1.736943 -0.059093
v 0.937002 1.719251 -0.040704
v 0.907140 1.708356 -0.020751
v 0.876084 2.087582 -0.000000
v 0.910591 2.083903 -0.014293
v 0.943773 2.073009 -0.028038
v 0.974353 2.055317 -0.040704
v 1.001156 2.031507 -0.051807
v 1.023153 2.002495 -0.060918
v 1.039499 1.969395 -0.067689
v 1.049564 1.933480 -0.071858
v 1.052963 1.896130 -0.073266
v 1.049564 1.858779 -0.071858
v 1.039499 1.822864 -0.067689
v 1.023153 1.789764 -0.060918
v 1.001156 1.760752 -0.051807
v 0.974353 1.736943 -0.040704
v 0.943773 1.719251 -0.028038
v 0.910591 1.708356 -0.014293
v 0.912717 2.083903 -0.007287
v 0.947942 2.073009 -0.014293
v 0.980405 2.055317 -0.020751
v 1.008860 2.031507 -0.026411
v 1.032212 2.002495 -0.031056
v 1.049564 1.969395 -0.034507
v 1.060250 1.933480 -0.036633
v 1.063858 1.896130 -0.037350
v 1.060250 1.858779 -0.036633
v 1.049564 1.822864 -0.034507
v 1.032212 1.789764 -0.031056
v 1.008860 1.760752 -0.026411
v 0.980405 1.736943 -0.020751
v 0.947942 1.719251 -0.014293
v 0.912717 1.708356 -0.007287
v 0.913435 2.083903 -0.000000
v 0.949350 2.073009 -0.000000
v 0.982449 2.055317 -0.000000
v 1.011461 2.031507 -0.000000
v 1.035271 2.002495 -0.000000
v 1.052963 1.969395 -0.000000
v 1.063858 1.933480 -0.000000
v 1.067536 1.896130 -0.000000
v 1.063858 1.858779 -0.000000
v 1.052963 1.822864 -0.000000
v 1.035271 1.789764 -0.000000
v 1.011461 1.760752 -0.000000
v 0.982449 1.736943 -0.000000
v 0.949350 1.719251 -0.000000
v 0.913435 1.708356 -0.000000
v 0.912717 2.083903 0.007287
v 0.947942 2.073009 0.014293
v 0.980405 2.055317 0.020751
v 1.008860 2.031507 0.026411
v 1.032212 2.002495 0.031056
v 1.049564 1.969395 0.034507
v 1.060250 1.933480 0.036633
v 1.063858 1.896130 0.037351
v 1.060250 1.858779 0.036633
v 1.049564 1.822864 0.034507
v 1.032212 1.789764 0.031056
v 1.008860 1.760752 0.026411
v 0.980405 1.736943 0.020751
v 0.947942 1.719251 0.014293
v 0.912717 1.708356 0.007287
v 0.910591 2.083903 0.014293
v 0.943773 2.073009 0.028038
v 0.974353 2.055317 0.040704
v 1.001156 2.031507 0.051807
v 1.023153 2.002495 0.060918
v 1.039499 1.969395 0.067689
v 1.049564 1.933480 0.071858
v 1.052963 1.896130 0.073266
v 1.049564 1.858779 0.071858
v 1.039499 1.822864 0.067689
v 1.023153 1.789764 0.060918
v 1.001156 1.760752 0.051807
v 0.974353 1.736943 0.040704
v 0.943773 1.719251 0.028038
v 0.910591 1.708356 0.014293
v 0.907140 2.083903 0.020751
v 0.937002 2.073009 0.040704
v 0.964523 2.055317 0.059093
v 0.988646 2.031507 0.075212
v 1.008443 2.002495 0.088439
v 1.023153 1.969395 0.098269
v 1.032212 1.933480 0.104321
v 1.035271 1.896130 0.106365
v 1.032212 1.858779 0.104321
v 1.023153 1.822864 0.098269
v 1.008443 1.789764 0.088439
v 0.988646 1.760752 0.075212
v 0.964523 1.736943 0.059093
v 0.937002 1.719251 0.040704
v 0.907140 1.708356 0.020751
v 0.902495 2.083903 0.026411
v 0.927891 2.073009 0.051807
v 0.951296 2.055317 0.075212
v 0.971810 2.031507 0.095726
v 0.988646 2.002495 0.112562
v 1.001156 1.969395 0.125072
v 1.008860 1.933480 0.132776
v 1.011461 1.896130 0.135377
v 1.008860 1.858779 0.132776
v 1.001156 1.822864 0.125072
v 0.988646 1.789764 0.112562
v 0.971810 1.760752 0.095726
v 0.951296 1.736943 0.075212
v 0.927891 1.719251 0.051807
v 0.902495 1.708356 0.026411
v 0.896835 2.083903 0.031056
v 0.916788 2.073009 0.060918
v 0.935177 2.055317 0.088439
v 0.951296 2.031507 0.112562
v 0.964523 2.002495 0.132359
v 0.974353 1.969395 0.147069
v 0.980405 1.933480 0.156128
v 0.982449 1.896130 0.159187
v 0.980405 1.858779 0.156128
v 0.974353 1.822864 0.147069
v 0.964523 1.789764 0.132359
v 0.951296 1.760752 0.112562
v 0.935177 1.736943 0.088439
v 0.916788 1.719251 0.060918
v 0.896835 1.708356 0.031056
v 0.890377 2.083903 0.034507
v 0.904122 2.073009 0.067689
v 0.916788 2.055317 0.098269
v 0.927891 2.031507 0.125072
v 0.937002 2.002495 0.147069
v 0.943773 1.969395 0.163415
v 0.947942 1.933480 0.173480
v 0.949350 1.896130 0.176879
v 0.947942 1.858779 0.173480
v 0.943773 1.822864 0.163415
v 0.937002 1.789764 0.147069
v 0.927891 1.760752 0.125072
v 0.916788 1.736943 0.098269
v 0.904122 1.719251 0.067689
v 0.890377 1.708356 0.034507
v 0.883371 2.083903 0.036633
v 0.890377 2.073009 0.071858
v 0.896835 2.055317 0.104321
v 0.902495 2.031507 0.132776
v 0.907140 2.002495 0.156128
v 0.910591 1.969395 0.173480
v 0.912717 1.933480 0.184166
v 0.913434 1.896130 0.187774
v 0.912717 1.858779 0.184166
v 0.910591 1.822864 0.173480
v 0.907140 1.789764 0.156128
v 0.902495 1.760752 0.132776
v 0.896835 1.736943 0.104321
v 0.890377 1.719251 0.071858
v 0.883371 1.708356 0.036633
v 0.876084 2.083903 0.037350
v 0.876084 2.073009 0.073266
v 0.876084 2.055317 0.106365
v 0.876084 2.031507 0.135377
v 0.876084 2.002495 0.159187
v 0.876084 1.969395 0.176879
v 0.876084 1.933480 0.187774
v 0.876084 1.896130 0.191452
v 0.876084 1.858779 0.187774
v 0.876084 1.822864 0.176879
v 0.876084 1.789764 0.159187
v 0.876084 1.760752 0.135377
v 0.876084 1.736943 0.106365
v 0.876084 1.719251 0.073266
v 0.876084 1.708356 0.037350
v 0.868797 2.083903 0.036633
v 0.861791 2.073009 0.071858
v 0.855333 2.055317 0.104321
v 0.849673 2.031507 0.132776
v 0.845028 2.002495 0.156128
v 0.841577 1.969395 0.173480
v 0.839451 1.933480 0.184166
v 0.838733 1.896130 0.187774
v 0.839451 1.858779 0.184166
v 0.841577 1.822864 0.173480
v 0.845028 1.789764 0.156128
v 0.849673 1.760752 0.132776
v 0.855333 1.736943 0.104321
v 0.861791 1.719251 0.071858
v 0.868797 1.708356 0.036633
v 0.861791 2.083903 0.034507
v 0.848046 2.073009 0.067689
v 0.835380 2.055317 0.098269
v 0.824277 2.031507 0.125072
v 0.815166 2.002495 0.147069
v 0.808395 1.969395 0.163415
v 0.804226 1.933480 0.173480
v 0.802818 1.896130 0.176879
v 0.804226 1.858779 0.173480
v 0.808395 1.822864 0.163415
v 0.815166 1.789764 0.147069
v 0.824277 1.760752 0.125072
v 0.835380 1.736943 0.098269
v 0.848046 1.719251 0.067689
v 0.861791 1.708356 0.034507
v 0.855333 2.083903 0.031056
v 0.835380 2.073009 0.060918
v 0.816991 2.055317 0.088439
v 0.800872 2.031507 0.112562
v 0.787645 2.002495 0.132359
v 0.777815 1.969395 0.147069
v 0.771763 1.933480 0.156128
v 0.769719 1.896130 0.159187
v 0.771763 1.858779 0.156128
v 0.777815 1.822864 0.147069
v 0.787645 1.789764 0.132359
v 0.800872 1.760752 0.112562
v 0.816991 1.736943 0.088439
v 0.835380 1.719251 0.060918
v 0.855333 1.708356 0.031056
v 0.849673 2.083903 0.026411
v 0.824277 2.073009 0.051807
v 0.800872 2.055317 0.075212
v 0.780358 2.031507 0.095726
v 0.763522 2.002495 0.112562
v 0.751012 1.969395 0.125072
v 0.743308 1.933480 0.132776
v 0.740707 1.896130 0.135377
v 0.743308 1.858779 0.132776
v 0.751012 1.822864 0.125072
v 0.763522 1.789764 0.112562
v 0.780358 1.760752 0.095726
v 0.800872 1.736943 0.075212
v 0.824277 1.719251 0.051807
v 0.849673 1.708356 0.026411
v 0.876084 1.704677 -0.000000
v 0.845028 2.083903 0.020751
v 0.815166 2.073009 0.040704
v 0.787645 2.055317 0.059093
v 0.763522 2.031507 0.075212
v 0.743725 2.002495 0.088439
v 0.729015 1.969395 0.098269
v 0.719956 1.933480 0.104321
v 0.716897 1.896130 0.106365
v 0.719956 1.858779 0.104321
v 0.729015 1.822864 0.098269
v 0.743725 1.789764 0.088439
v 0.763522 1.760752 0.075212
v 0.787645 1.736943 0.059093
v 0.815166 1.719251 0.040704
v 0.845028 1.708356 0.020751
v 0.841577 2.083903 0.014293
v 0.808395 2.073009 0.028038
v 0.777815 2.055317 0.040704
v 0.751012 2.031507 0.051807
v 0.729015 2.002495 0.060918
v 0.712669 1.969395 0.067689
v 0.702604 1.933480 0.071858
v 0.699205 1.896130 0.073266
v 0.702604 1.858779 0.071858
v 0.712669 1.822864 0.067689
v 0.729015 1.789764 0.060918
v 0.751012 1.760752 0.051807
v 0.777815 1.736943 0.040704
v 0.808395 1.719251 0.028038
v 0.841577 1.708356 0.014293
v 0.839451 2.083903 0.007287
v 0.804226 2.073009 0.014293
v 0.771763 2.055317 0.020751
v 0.743308 2.031507 0.026411
v 0.719956 2.002495 0.031056
v 0.702604 1.969395 0.034507
v 0.691918 1.933480 0.036633
v 0.688310 1.896130 0.037350
v 0.691918 1.858779 0.036633
v 0.702604 1.822864 0.034507
v 0.719956 1.789764 0.031056
v 0.743308 1.760752 0.026411
v 0.771763 1.736943 0.020751
v 0.804226 1.719251 0.014293
v 0.839451 1.708356 0.007287
v 0.838734 2.083903 -0.000000
v 0.802818 2.073009 -0.000000
v 0.769719 2.055317 -0.000000
v 0.740707 2.031507 -0.000000
v 0.716897 2.002495 -0.000000
v 0.699205 1.969395 -0.000000
v 0.688310 1.933480 -0.000000
v 0.684632 1.896130 -0.000000
v 0.688310 1.858779 -0.000000
v 0.699205 1.822864 -0.000000
v 0.716897 1.789764 -0.000000
v 0.740707 1.760752 -0.000000
v 0.769719 1.736943 -0.000000
v 0.802818 1.719251 -0.000000
v 0.838734 1.708356 -0.000000
v 0.839451 2.083903 -0.007287
v 0.804226 2.073009 -0.014293
v 0.771763 2.055317 -0.020751
v 0.743308 2.031507 -0.026411
v 0.719956 2.002495 -0.031056
v 0.702604 1.969395 -0.034507
v 0.691918 1.933480 -0.036633
v 0.688310 1.896130 -0.037351
v 0.691918 1.858779 -0.036633
v 0.702604 1.822864 -0.034507
v 0.719956 1.789764 -0.031056
v 0.743308 1.760752 -0.026411
v 0.771763 1.736943 -0.020751
v 0.804226 1.719251 -0.014293
v 0.839451 1.708356 -0.007287
v 0.841577 2.083903 -0.014293
v 0.808395 2.073009 -0.028038
v 0.777815 2.055317 -0.040704
v 0.751012 2.031507 -0.051807
v 0.729015 2.002495 -0.060918
v 0.712669 1.969395 -0.067689
v 0.702604 1.933480 -0.071858
v 0.699205 1.896130 -0.073266
v 0.702604 1.858779 -0.071858
v 0.712669 1.822864 -0.067689
v 0.729015 1.789764 -0.060918
v 0.751012 1.760752 -0.051807
v 0.777815 1.736943 -0.040704
v 0.808395 1.719251 -0.028038
v 0.841577 1.708356 -0.014293
v 0.845028 2.083903 -0.020751
v 0.815166 2.073009 -0.040704
v 0.787645 2.055317 -0.059093
v 0.763522 2.031507 -0.075212
v 0.743725 2.002495 -0.088439
v 0.729015 1.969395 -0.098269
v 0.719956 1.933480 -0.104321
v 0.716897 1.896130 -0.106365
v 0.719956 1.858779 -0.104321
v 0.729015 1.822864 -0.098269
v 0.743725 1.789764 -0.088439
v 0.763522 1.760752 -0.075212
v 0.787645 1.736943 -0.059093
v 0.815166 1.719251 -0.040704
v 0.845028 1.708356 -0.020751
v 0.849673 2.083903 -0.026411
v 0.824277 2.073009 -0.051807
v 0.800872 2.055317 -0.075212
v 0.780358 2.031507 -0.095726
v 0.763522 2.002495 -0.112562
v 0.751012 1.969395 -0.125072
v 0.743308 1.933480 -0.132776
v 0.740707 1.896130 -0.135377
v 0.743308 1.858779 -0.132776
v 0.751012 1.822864 -0.125072
v 0.763522 1.789764 -0.112562
v 0.780358 1.760752 -0.095726
v 0.800872 1.736943 -0.075212
v 0.824277 1.719251 -0.051807
v 0.849673 1.708356 -0.026411
v 0.855333 2.083903 -0.031056
v 0.835380 2.073009 -0.060918
v 0.816991 2.055317 -0.088439
v 0.800872 2.031507 -0.112562
v 0.787645 2.002495 -0.132359
v 0.777815 1.969395 -0.147069
v 0.771763 1.933480 -0.156128
v 0.769719 1.896130 -0.159187
v 0.771763 1.858779 -0.156128
v 0.777815 1.822864 -0.147069
v 0.787645 1.789764 -0.132359
v 0.800872 1.760752 -0.112562
v 0.816991 1.736943 -0.088439
v 0.835380 1.719251 -0.060918
v 0.855333 1.708356 -0.031056
v 0.861791 2.083903 -0.034507
v 0.848046 2.073009 -0.067689
v 0.835380 2.055317 -0.098269
v 0.824277 2.031507 -0.125072
v 0.815166 2.002495 -0.147069
v 0.808395 1.969395 -0.163415
v 0.804226 1.933480 -0.173480
v 0.802819 1.896130 -0.176879
v 0.804226 1.858779 -0.173480
v 0.808395 1.822864 -0.163415
v 0.815166 1.789764 -0.147069
v 0.824277 1.760752 -0.125072
v 0.835380 1.736943 -0.098269
v 0.848046 1.719251 -0.067689
v 0.861791 1.708356 -0.034507
v 0.868797 2.083903 -0.036633
v 0.861791 2.073009 -0.071858
v 0.855333 2.055317 -0.104321
v 0.849673 2.031507 -0.132776
v 0.845028 2.002495 -0.156128
v 0.841577 1.969395 -0.173480
v 0.839451 1.933480 -0.184166
v 0.838734 1.896130 -0.187773
v 0.839451 1.858779 -0.184166
v 0.841577 1.822864 -0.173480
v 0.845028 1.789764 -0.156128
v 0.849673 1.760752 -0.132776
v 0.855333 1.736943 -0.104321
v 0.861791 1.719251 -0.071858
v 0.868797 1.708356 -0.036633
v 0.876084 2.083903 -0.037350
v 0.876084 2.073009 -0.073266
v 0.876084 2.031507 -0.135377
v 0.876084 1.969395 -0.176879
v 0.876084 1.822864 -0.176879
v 0.876084 1.760752 -0.135377
v 0.876084 1.736943 -0.106365
v 0.876084 1.719251 -0.073266
v 0.876084 1.708356 -0.037350
vn -0.0000 -0.0000 -1.0000
vn 0.1951 -0.0000 -0.9808
vn 0.3827 -0.0000 -0.9239
vn 0.5556 -0.0000 -0.8315
vn 0.7071 -0.0000 -0.7071
vn 0.8315 -0.0000 -0.5556
vn 0.9239 -0.0000 -0.3827
vn 0.9808 -0.0000 -0.1951
vn 1.0000 -0.0000 -0.0000
vn 0.9808 -0.0000 0.1951
vn 0.9239 -0.0000 0.3827
vn 0.8315 -0.0000 0.5556
vn 0.7071 -0.0000 0.7071
vn 0.5556 -0.0000 0.8315
vn 0.3827 -0.0000 0.9239
vn 0.1951 -0.0000 0.9808
vn -0.0000 -0.0000 1.0000
vn -0.1951 -0.0000 0.9808
vn -0.3827 -0.0000 0.9239
vn -0.5556 -0.0000 0.8315
vn -0.7071 -0.0000 0.7071
vn -0.8315 -0.0000 0.5556
vn -0.9239 -0.0000 0.3827
vn -0.9808 -0.0000 0.1951
vn -1.0000 -0.0000 -0.0000
vn -0.9808 -0.0000 -0.1951
vn -0.9239 -0.0000 -0.3827
vn -0.8315 -0.0000 -0.5556
vn -0.7071 -0.0000 -0.7071
vn -0.5556 -0.0000 -0.8315
vn -0.3827 -0.0000 -0.9239
vn -0.0000 1.0000 -0.0000
vn -0.1951 -0.0000 -0.9808
vn -0.0000 -1.0000 -0.0000
vn -0.0000 -0.9217 -0.3879
vn 0.0392 -0.9796 -0.1971
vn -0.0000 -0.9796 -0.2010
vn 0.1914 0.1939 -0.9622
vn -0.0000 0.9796 -0.2010
vn 0.0392 0.9796 -0.1971
vn 0.1914 -0.1939 -0.9622
vn -0.0000 -0.1939 -0.9810
vn -0.0000 0.9217 -0.3879
vn 0.0757 0.9217 -0.3804
vn -0.0000 -0.3805 -0.9248
vn 0.1804 -0.3805 -0.9070
vn -0.0000 0.8286 -0.5598
vn 0.1092 0.8286 -0.5490
vn 0.1626 -0.5528 -0.8173
vn -0.0000 -0.5528 -0.8333
vn -0.0000 0.7041 -0.7101
vn 0.1385 0.7041 -0.6965
vn -0.0000 -0.7041 -0.7101
vn 0.1385 -0.7041 -0.6965
vn 0.1626 0.5528 -0.8173
vn -0.0000 0.5528 -0.8333
vn 0.1092 -0.8286 -0.5490
vn -0.0000 -0.8286 -0.5598
vn -0.0000 0.3805 -0.9248
vn 0.1804 0.3805 -0.9070
vn 0.0757 -0.9217 -0.3804
vn -0.0000 0.1939 -0.9810
vn 0.1484 -0.9217 -0.3584
vn 0.3754 0.1939 -0.9063
vn 0.0769 -0.9796 -0.1857
vn 0.0769 0.9796 -0.1857
vn 0.3754 -0.1939 -0.9063
vn 0.1484 0.9217 -0.3583
vn 0.3539 -0.3805 -0.8544
vn 0.2142 0.8286 -0.5172
vn 0.3189 -0.5528 -0.7699
vn 0.2718 0.7041 -0.6561
vn 0.2718 -0.7041 -0.6561
vn 0.3189 0.5528 -0.7699
vn 0.2142 -0.8286 -0.5172
vn 0.3539 0.3805 -0.8544
vn 0.3110 0.8286 -0.4654
vn 0.5138 -0.3805 -0.7689
vn 0.4630 -0.5528 -0.6929
vn 0.3945 0.7041 -0.5905
vn 0.3945 -0.7041 -0.5905
vn 0.4630 0.5528 -0.6929
vn 0.3110 -0.8286 -0.4654
vn 0.5138 0.3805 -0.7689
vn 0.2155 -0.9217 -0.3225
vn 0.5450 0.1939 -0.8157
vn 0.1116 -0.9796 -0.1671
vn 0.1116 0.9796 -0.1671
vn 0.5450 -0.1939 -0.8157
vn 0.2155 0.9217 -0.3225
vn 0.6539 0.3805 -0.6539
vn 0.6937 0.1939 -0.6937
vn 0.2743 -0.9217 -0.2743
vn 0.1421 -0.9796 -0.1421
vn 0.1421 0.9796 -0.1421
vn 0.6937 -0.1939 -0.6937
vn 0.2743 0.9217 -0.2743
vn 0.6539 -0.3805 -0.6539
vn 0.3958 0.8286 -0.3958
vn 0.5893 -0.5528 -0.5893
vn 0.5022 0.7041 -0.5021
vn 0.5021 -0.7041 -0.5021
vn 0.5893 0.5528 -0.5893
vn 0.3958 -0.8286 -0.3958
vn 0.7689 -0.3805 -0.5138
vn 0.6929 -0.5528 -0.4630
vn 0.5905 0.7041 -0.3945
vn 0.5905 -0.7041 -0.3945
vn 0.6929 0.5528 -0.4630
vn 0.4654 -0.8287 -0.3110
vn 0.7689 0.3805 -0.5138
vn 0.3225 -0.9217 -0.2155
vn 0.8157 0.1939 -0.5450
vn 0.1671 -0.9796 -0.1117
vn 0.1671 0.9796 -0.1116
vn 0.8157 -0.1939 -0.5450
vn 0.3225 0.9217 -0.2155
vn 0.4654 0.8286 -0.3110
vn 0.1857 -0.9796 -0.0769
vn 0.1857 0.9796 -0.0769
vn 0.9063 -0.1939 -0.3754
vn 0.3584 0.9217 -0.1484
vn 0.8544 -0.3805 -0.3539
vn 0.5172 0.8286 -0.2142
vn 0.7699 -0.5528 -0.3189
vn 0.6561 0.7041 -0.2718
vn 0.6561 -0.7041 -0.2718
vn 0.7699 0.5528 -0.3189
vn 0.5172 -0.8286 -0.2142
vn 0.8544 0.3805 -0.3539
vn 0.3584 -0.9217 -0.1484
vn 0.9063 0.1939 -0.3754
vn 0.6965 0.7041 -0.1385
vn 0.8173 -0.5528 -0.1626
vn 0.6965 -0.7041 -0.1385
vn 0.8173 0.5528 -0.1626
vn 0.5490 -0.8287 -0.1092
vn 0.9070 0.3805 -0.1804
vn 0.3804 -0.9217 -0.0757
vn 0.9622 0.1939 -0.1914
vn 0.1971 -0.9796 -0.0392
vn 0.1971 0.9796 -0.0392
vn 0.9622 -0.1939 -0.1914
vn 0.3804 0.9217 -0.0757
vn 0.9070 -0.3805 -0.1804
vn 0.5490 0.8286 -0.1092
vn 0.9810 0.1939 -0.0000
vn 0.2010 0.9796 -0.0000
vn 0.2010 -0.9796 -0.0000
vn 0.9810 -0.1939 -0.0000
vn 0.3879 0.9217 -0.0000
vn 0.9248 -0.3805 -0.0000
vn 0.5598 0.8286 -0.0000
vn 0.8333 -0.5528 -0.0000
vn 0.7101 0.7041 -0.0000
vn 0.7101 -0.7041 -0.0000
vn 0.8333 0.5528 -0.0000
vn 0.5598 -0.8286 -0.0000
vn 0.9248 0.3805 -0.0000
vn 0.3879 -0.9217 -0.0000
vn 0.8173 -0.5528 0.1626
vn 0.6965 -0.7041 0.1385
vn 0.8173 0.5528 0.1626
vn 0.5490 -0.8286 0.1092
vn 0.9070 0.3805 0.1804
vn 0.3804 -0.9217 0.0757
vn 0.9622 0.1939 0.1914
vn 0.1971 -0.9796 0.0392
vn 0.1971 0.9796 0.0392
vn 0.9622 -0.1939 0.1914
vn 0.3804 0.9217 0.0757
vn 0.9070 -0.3805 0.1804
vn 0.5490 0.8286 0.1092
vn 0.6965 0.7041 0.1385
vn 0.1857 -0.9796 0.0769
vn 0.9063 -0.1939 0.3754
vn 0.1857 0.9796 0.0769
vn 0.3584 0.9217 0.1484
vn 0.8544 -0.3805 0.3539
vn 0.5172 0.8286 0.2142
vn 0.7699 -0.5528 0.3189
vn 0.6561 0.7041 0.2718
vn 0.6561 -0.7041 0.2718
vn 0.7699 0.5528 0.3189
vn 0.5172 -0.8286 0.2142
vn 0.8544 0.3805 0.3539
vn 0.3584 -0.9217 0.1484
vn 0.9063 0.1939 0.3754
vn 0.4654 -0.8286 0.3110
vn 0.7689 0.3805 0.5138
vn 0.3225 -0.9217 0.2155
vn 0.8157 0.1939 0.5450
vn 0.1671 -0.9796 0.1117
vn 0.1671 0.9796 0.1116
vn 0.8157 -0.1939 0.5450
vn 0.3225 0.9217 0.2155
vn 0.7689 -0.3805 0.5138
vn 0.4654 0.8286 0.3110
vn 0.6929 -0.5528 0.4630
vn 0.5905 0.7041 0.3945
vn 0.5905 -0.7041 0.3945
vn 0.6929 0.5528 0.4630
vn 0.1421 0.9796 0.1421
vn 0.2743 0.9217 0.2743
vn 0.6539 -0.3805 0.6539
vn 0.3958 0.8286 0.3958
vn 0.5893 -0.5528 0.5893
vn 0.5022 0.7041 0.5021
vn 0.5021 -0.7041 0.5021
vn 0.5893 0.5528 0.5893
vn 0.3958 -0.8286 0.3958
vn 0.6539 0.3805 0.6539
vn 0.2743 -0.9217 0.2743
vn 0.6937 0.1939 0.6937
vn 0.1421 -0.9796 0.1421
vn 0.6937 -0.1939 0.6937
vn 0.4630 0.5528 0.6929
vn 0.5138 0.3805 0.7689
vn 0.2155 -0.9217 0.3225
vn 0.5450 0.1939 0.8157
vn 0.1116 -0.9796 0.1671
vn 0.1116 0.9796 0.1671
vn 0.5450 -0.1939 0.8157
vn 0.2155 0.9217 0.3225
vn 0.5138 -0.3805 0.7689
vn 0.3110 0.8286 0.4654
vn 0.4630 -0.5528 0.6929
vn 0.3945 0.7041 0.5905
vn 0.3945 -0.7041 0.5905
vn 0.3110 -0.8287 0.4654
vn 0.3539 -0.3805 0.8544
vn 0.2142 0.8286 0.5172
vn 0.3189 -0.5528 0.7699
vn 0.2718 0.7041 0.6561
vn 0.2718 -0.7041 0.6561
vn 0.3189 0.5528 0.7699
vn 0.2142 -0.8286 0.5172
vn 0.3539 0.3805 0.8544
vn 0.1484 -0.9217 0.3584
vn 0.3754 0.1939 0.9063
vn 0.0769 -0.9796 0.1857
vn 0.0769 0.9796 0.1857
vn 0.3754 -0.1939 0.9063
vn 0.1484 0.9217 0.3584
vn 0.1092 -0.8286 0.5490
vn 0.0757 -0.9217 0.3804
vn 0.1804 0.3805 0.9070
vn 0.1914 0.1939 0.9622
vn 0.0392 -0.9796 0.1971
vn 0.0392 0.9796 0.1971
vn 0.1914 -0.1939 0.9622
vn 0.0757 0.9217 0.3804
vn 0.1804 -0.3805 0.9070
vn 0.1092 0.8286 0.5490
vn 0.1626 -0.5528 0.8173
vn 0.1385 0.7041 0.6965
vn 0.1385 -0.7041 0.6965
vn 0.1626 0.5528 0.8173
vn -0.0000 0.9217 0.3879
vn -0.0000 0.8286 0.5598
vn -0.0000 -0.3805 0.9248
vn -0.0000 -0.5528 0.8333
vn -0.0000 0.7041 0.7101
vn -0.0000 -0.7041 0.7101
vn -0.0000 0.5528 0.8333
vn -0.0000 -0.8286 0.5598
vn -0.0000 0.3805 0.9248
vn -0.0000 -0.9217 0.3879
vn -0.0000 0.1939 0.9810
vn -0.0000 -0.9796 0.2010
vn -0.0000 0.9796 0.2010
vn -0.0000 -0.1939 0.9810
vn -0.1804 0.3805 0.9070
vn -0.1914 0.1939 0.9622
vn -0.0392 -0.9796 0.1971
vn -0.0392 0.9796 0.1971
vn -0.1914 -0.1939 0.9622
vn -0.0757 0.9217 0.3804
vn -0.1804 -0.3805 0.9070
vn -0.1092 0.8286 0.5490
vn -0.1626 -0.5528 0.8173
vn -0.1385 0.7041 0.6965
vn -0.1385 -0.7041 0.6965
vn -0.1626 0.5528 0.8173
vn -0.1092 -0.8286 0.5490
vn -0.0757 -0.9217 0.3804
vn -0.3539 -0.3805 0.8544
vn -0.3189 -0.5528 0.7699
vn -0.2718 0.7041 0.6561
vn -0.2718 -0.7041 0.6561
vn -0.3189 0.5528 0.7699
vn -0.2142 -0.8286 0.5172
vn -0.3539 0.3805 0.8544
vn -0.1484 -0.9217 0.3584
vn -0.3754 0.1939 0.9063
vn -0.0769 -0.9796 0.1857
vn -0.0769 0.9796 0.1857
vn -0.3754 -0.1939 0.9063
vn -0.1484 0.9217 0.3584
vn -0.2142 0.8286 0.5172
vn -0.1116 -0.9796 0.1671
vn -0.5450 0.1939 0.8157
vn -0.1116 0.9796 0.1671
vn -0.5450 -0.1939 0.8157
vn -0.2155 0.9217 0.3225
vn -0.5138 -0.3805 0.7689
vn -0.3110 0.8286 0.4654
vn -0.4630 -0.5528 0.6929
vn -0.3945 0.7041 0.5905
vn -0.3945 -0.7041 0.5905
vn -0.4630 0.5528 0.6929
vn -0.3110 -0.8287 0.4654
vn -0.5138 0.3805 0.7689
vn -0.2155 -0.9217 0.3225
vn -0.5021 -0.7041 0.5021
vn -0.5021 0.7041 0.5022
vn -0.5893 0.5528 0.5893
vn -0.3958 -0.8286 0.3958
vn -0.6539 0.3805 0.6539
vn -0.2743 -0.9217 0.2743
vn -0.6937 0.1939 0.6937
vn -0.1421 -0.9796 0.1421
vn -0.1421 0.9796 0.1421
vn -0.6937 -0.1939 0.6937
vn -0.2743 0.9217 0.2743
vn -0.6539 -0.3805 0.6539
vn -0.3958 0.8286 0.3958
vn -0.5893 -0.5528 0.5893
vn -0.1671 0.9796 0.1117
vn -0.1671 -0.9796 0.1116
vn -0.8157 -0.1939 0.5450
vn -0.3225 0.9217 0.2155
vn -0.7689 -0.3805 0.5138
vn -0.4654 0.8286 0.3110
vn -0.6929 -0.5528 0.4630
vn -0.5905 0.7041 0.3945
vn -0.5905 -0.7041 0.3945
vn -0.6929 0.5528 0.4630
vn -0.4654 -0.8287 0.3110
vn -0.7689 0.3805 0.5138
vn -0.3225 -0.9217 0.2155
vn -0.8157 0.1939 0.5450
vn -0.6561 0.7041 0.2718
vn -0.7699 0.5528 0.3189
vn -0.6561 -0.7041 0.2718
vn -0.5172 -0.8286 0.2142
vn -0.8544 0.3805 0.3539
vn -0.3584 -0.9217 0.1484
vn -0.9063 0.1939 0.3754
vn -0.1857 -0.9796 0.0769
vn -0.1857 0.9796 0.0769
vn -0.9063 -0.1939 0.3754
vn -0.3584 0.9217 0.1484
vn -0.8544 -0.3805 0.3539
vn -0.5172 0.8286 0.2142
vn -0.7699 -0.5528 0.3189
vn -0.9622 -0.1939 0.1914
vn -0.3804 0.9217 0.0757
vn -0.9070 -0.3805 0.1804
vn -0.5490 0.8286 0.1092
vn -0.8173 -0.5528 0.1626
vn -0.6965 0.7041 0.1385
vn -0.6965 -0.7041 0.1385
vn -0.8173 0.5528 0.1626
vn -0.5490 -0.8287 0.1092
vn -0.9070 0.3805 0.1804
vn -0.3804 -0.9217 0.0757
vn -0.9622 0.1939 0.1914
vn -0.1971 -0.9796 0.0392
vn -0.1971 0.9796 0.0392
vn -0.7101 -0.7041 -0.0000
vn -0.5598 -0.8286 -0.0000
vn -0.9248 0.3805 -0.0000
vn -0.3879 -0.9217 -0.0000
vn -0.9810 0.1939 -0.0000
vn -0.2010 -0.9796 -0.0000
vn -0.2010 0.9796 -0.0000
vn -0.9810 -0.1939 -0.0000
vn -0.3879 0.9217 -0.0000
vn -0.9248 -0.3805 -0.0000
vn -0.5598 0.8286 -0.0000
vn -0.8333 -0.5528 -0.0000
vn -0.7101 0.7041 -0.0000
vn -0.8333 0.5528 -0.0000
vn -0.1971 0.9796 -0.0392
vn -0.3804 0.9217 -0.0757
vn -0.9070 -0.3805 -0.1804
vn -0.5490 0.8286 -0.1092
vn -0.8173 -0.5528 -0.1626
vn -0.6965 0.7041 -0.1385
vn -0.6965 -0.7041 -0.1385
vn -0.8173 0.5528 -0.1626
vn -0.5490 -0.8286 -0.1092
vn -0.9070 0.3805 -0.1804
vn -0.3804 -0.9217 -0.0757
vn -0.9622 0.1939 -0.1914
vn -0.1971 -0.9796 -0.0392
vn -0.9622 -0.1939 -0.1914
vn -0.8544 0.3805 -0.3539
vn -0.5172 -0.8286 -0.2142
vn -0.3584 -0.9217 -0.1484
vn -0.9063 0.1939 -0.3754
vn -0.1857 -0.9796 -0.0769
vn -0.1857 0.9796 -0.0769
vn -0.9063 -0.1939 -0.3754
vn -0.3584 0.9217 -0.1484
vn -0.8544 -0.3805 -0.3539
vn -0.5172 0.8286 -0.2142
vn -0.7699 -0.5528 -0.3189
vn -0.6561 0.7041 -0.2718
vn -0.6561 -0.7041 -0.2718
vn -0.7699 0.5528 -0.3189
vn -0.7689 -0.3805 -0.5138
vn -0.3225 0.9217 -0.2155
vn -0.4654 0.8286 -0.3110
vn -0.6929 -0.5528 -0.4630
vn -0.5905 0.7041 -0.3945
vn -0.5905 -0.7041 -0.3945
vn -0.6929 0.5528 -0.4630
vn -0.4654 -0.8287 -0.3110
vn -0.7689 0.3805 -0.5138
vn -0.3225 -0.9217 -0.2155
vn -0.8157 0.1939 -0.5450
vn -0.1671 -0.9796 -0.1116
vn -0.1671 0.9796 -0.1116
vn -0.8157 -0.1939 -0.5450
vn -0.2743 -0.9217 -0.2743
vn -0.6539 0.3805 -0.6539
vn -0.6937 0.1939 -0.6937
vn -0.1421 -0.9796 -0.1421
vn -0.1421 0.9796 -0.1421
vn -0.6937 -0.1939 -0.6937
vn -0.2743 0.9217 -0.2743
vn -0.6539 -0.3805 -0.6539
vn -0.3958 0.8286 -0.3958
vn -0.5893 -0.5528 -0.5893
vn -0.5022 0.7041 -0.5021
vn -0.5021 -0.7041 -0.5021
vn -0.5893 0.5528 -0.5893
vn -0.3958 -0.8286 -0.3958
vn -0.5138 -0.3805 -0.7689
vn -0.4630 -0.5528 -0.6929
vn -0.3945 0.7041 -0.5905
vn -0.3945 -0.7041 -0.5905
vn -0.4630 0.5528 -0.6929
vn -0.3110 -0.8286 -0.4654
vn -0.5138 0.3805 -0.7689
vn -0.2155 -0.9217 -0.3225
vn -0.5450 0.1939 -0.8157
vn -0.1116 -0.9796 -0.1671
vn -0.1116 0.9796 -0.1671
vn -0.5450 -0.1939 -0.8157
vn -0.2155 0.9217 -0.3225
vn -0.3110 0.8286 -0.4654
vn -0.0769 -0.9796 -0.1857
vn -0.3754 0.1939 -0.9063
vn -0.0769 0.9796 -0.1857
vn -0.3754 -0.1939 -0.9063
vn -0.1484 0.9217 -0.3583
vn -0.3539 -0.3805 -0.8544
vn -0.2142 0.8286 -0.5172
vn -0.3189 -0.5528 -0.7699
vn -0.2718 0.7041 -0.6561
vn -0.2718 -0.7041 -0.6561
vn -0.3189 0.5528 -0.7699
vn -0.2142 -0.8286 -0.5172
vn -0.3539 0.3805 -0.8544
vn -0.1484 -0.9217 -0.3584
vn -0.1385 0.7041 -0.6965
vn -0.1385 -0.7041 -0.6965
vn -0.1626 0.5528 -0.8173
vn -0.1092 -0.8286 -0.5490
vn -0.1804 0.3805 -0.9070
vn -0.0757 -0.9217 -0.3804
vn -0.1914 0.1939 -0.9622
vn -0.0392 -0.9796 -0.1971
vn -0.0392 0.9796 -0.1971
vn -0.1914 -0.1939 -0.9622
vn -0.0757 0.9217 -0.3804
vn -0.1804 -0.3805 -0.9070
vn -0.1092 0.8286 -0.5490
vn -0.1626 -0.5528 -0.8173
vn -0.0000 1.0000 0.0001
vn -0.0000 1.0000 -0.0001
vt 0.710890 0.992774
vt 0.703276 0.007226
vt 0.710890 0.007226
vt 0.703276 0.992774
vt 0.695662 0.007226
vt 0.695662 0.992774
vt 0.688048 0.007226
vt 0.688048 0.992774
vt 0.680434 0.007226
vt 0.680434 0.992774
vt 0.672820 0.007226
vt 0.672820 0.992774
vt 0.665206 0.007226
vt 0.665206 0.992774
vt 0.657592 0.007226
vt 0.657592 0.992774
vt 0.649978 0.007226
vt 0.649978 0.992774
vt 0.642364 0.007226
vt 0.642364 0.992774
vt 0.634750 0.007226
vt 0.634750 0.992774
vt 0.627136 0.007226
vt 0.627136 0.992774
vt 0.619522 0.007226
vt 0.619522 0.992774
vt 0.611908 0.007226
vt 0.611908 0.992774
vt 0.604294 0.007226
vt 0.604294 0.992774
vt 0.596680 0.007226
vt 0.596680 0.992774
vt 0.589066 0.007226
vt 0.589066 0.992774
vt 0.581452 0.007226
vt 0.581452 0.992774
vt 0.573838 0.007226
vt 0.573838 0.992774
vt 0.566224 0.007226
vt 0.566224 0.992774
vt 0.558610 0.007226
vt 0.558610 0.992774
vt 0.550996 0.007226
vt 0.550996 0.992774
vt 0.543382 0.007226
vt 0.543382 0.992774
vt 0.535768 0.007226
vt 0.535768 0.992774
vt 0.528154 0.007226
vt 0.528154 0.992774
vt 0.520540 0.007226
vt 0.520540 0.992774
vt 0.512926 0.007226
vt 0.512926 0.992774
vt 0.505312 0.007226
vt 0.505312 0.992774
vt 0.497698 0.007226
vt 0.497698 0.992774
vt 0.490084 0.007226
vt 0.490084 0.992774
vt 0.482470 0.007226
vt 0.798250 0.350424
vt 0.782305 0.402987
vt 0.729742 0.387042
vt 0.482470 0.992774
vt 0.474856 0.007226
vt 0.474856 0.992774
vt 0.467242 0.007226
vt 0.802649 0.464299
vt 0.760189 0.499145
vt 0.725343 0.456685
vt 0.007226 0.007226
vt 0.452789 0.484251
vt 0.007226 0.707033
vt 0.875063 0.196920
vt 0.887731 0.184887
vt 0.889401 0.188099
vt 0.822673 0.211804
vt 0.815440 0.204485
vt 0.822517 0.204522
vt 0.755026 0.190763
vt 0.739170 0.181167
vt 0.756588 0.187502
vt 0.904956 0.177975
vt 0.829583 0.204186
vt 0.830208 0.211377
vt 0.769480 0.199035
vt 0.771615 0.194469
vt 0.837954 0.210402
vt 0.836791 0.203336
vt 0.780883 0.204133
vt 0.782866 0.198571
vt 0.844407 0.201997
vt 0.845946 0.208670
vt 0.790545 0.207447
vt 0.792174 0.201204
vt 0.854618 0.206161
vt 0.852711 0.199982
vt 0.800542 0.202899
vt 0.799272 0.209636
vt 0.861863 0.196939
vt 0.864036 0.202445
vt 0.807334 0.211053
vt 0.808204 0.203933
vt 0.872866 0.192370
vt 0.815119 0.211708
vt 0.871066 0.187806
vt 0.815660 0.197692
vt 0.886346 0.181549
vt 0.822374 0.197676
vt 0.740015 0.179258
vt 0.757873 0.184127
vt 0.904068 0.176151
vt 0.829076 0.197411
vt 0.773346 0.189882
vt 0.835911 0.196714
vt 0.784478 0.193125
vt 0.843176 0.195631
vt 0.793499 0.195190
vt 0.851117 0.194005
vt 0.801509 0.196492
vt 0.860076 0.191540
vt 0.808808 0.197277
vt 0.785621 0.187807
vt 0.835211 0.190396
vt 0.842183 0.189516
vt 0.794564 0.189360
vt 0.849855 0.188226
vt 0.802253 0.190346
vt 0.858697 0.186270
vt 0.809246 0.190934
vt 0.869456 0.183271
vt 0.815830 0.191189
vt 0.885225 0.178111
vt 0.822242 0.191203
vt 0.740712 0.177180
vt 0.758895 0.180663
vt 0.903324 0.174107
vt 0.828624 0.190916
vt 0.774738 0.185296
vt 0.809545 0.184817
vt 0.815921 0.184966
vt 0.868331 0.178705
vt 0.884060 0.174714
vt 0.822098 0.184950
vt 0.741227 0.174956
vt 0.759667 0.177124
vt 0.901970 0.170475
vt 0.828291 0.184733
vt 0.775680 0.180697
vt 0.834626 0.184281
vt 0.786629 0.182565
vt 0.841394 0.183591
vt 0.795310 0.183704
vt 0.848844 0.182583
vt 0.802798 0.184403
vt 0.857595 0.181080
vt 0.834181 0.178357
vt 0.840790 0.177820
vt 0.795837 0.178171
vt 0.848113 0.177065
vt 0.803111 0.178639
vt 0.856660 0.175946
vt 0.809775 0.178876
vt 0.867450 0.174155
vt 0.815966 0.178947
vt 0.883444 0.171188
vt 0.821976 0.178879
vt 0.742310 0.171001
vt 0.760526 0.173637
vt 0.901739 0.169805
vt 0.827990 0.178698
vt 0.776455 0.176151
vt 0.787325 0.177399
vt 0.883056 0.167604
vt 0.821854 0.172979
vt 0.742542 0.170301
vt 0.760831 0.170082
vt 0.901537 0.167420
vt 0.827751 0.172800
vt 0.776992 0.171615
vt 0.833840 0.172548
vt 0.787661 0.172306
vt 0.840347 0.172157
vt 0.796143 0.172728
vt 0.847580 0.171629
vt 0.803365 0.172961
vt 0.855950 0.170833
vt 0.809860 0.173072
vt 0.866834 0.169605
vt 0.815947 0.173053
vt 0.796299 0.167345
vt 0.840048 0.166562
vt 0.847182 0.166238
vt 0.803396 0.167377
vt 0.855628 0.165747
vt 0.809845 0.167346
vt 0.866350 0.165060
vt 0.815873 0.167253
vt 0.882551 0.164037
vt 0.821706 0.167141
vt 0.743004 0.166210
vt 0.761244 0.166547
vt 0.900998 0.163245
vt 0.827555 0.167000
vt 0.777260 0.167090
vt 0.833595 0.166816
vt 0.787888 0.167264
vt 0.815759 0.161501
vt 0.821576 0.161346
vt 0.743098 0.165497
vt 0.761102 0.163004
vt 0.900954 0.162515
vt 0.882606 0.160435
vt 0.827405 0.161232
vt 0.777336 0.162561
vt 0.833442 0.161112
vt 0.787882 0.162252
vt 0.839822 0.160985
vt 0.796199 0.162006
vt 0.847042 0.160856
vt 0.803336 0.161829
vt 0.855460 0.160682
vt 0.809742 0.161665
vt 0.866234 0.160494
vt 0.839828 0.155391
vt 0.846989 0.155463
vt 0.803141 0.156275
vt 0.855498 0.155596
vt 0.809534 0.155970
vt 0.866350 0.155913
vt 0.815604 0.155747
vt 0.882883 0.156799
vt 0.821436 0.155555
vt 0.743005 0.161445
vt 0.761060 0.159460
vt 0.901293 0.160031
vt 0.827289 0.155454
vt 0.776990 0.158046
vt 0.833342 0.155400
vt 0.787578 0.157246
vt 0.795979 0.156674
vt 0.901826 0.157496
vt 0.883379 0.153134
vt 0.827210 0.149617
vt 0.760468 0.155962
vt 0.776451 0.153548
vt 0.833321 0.149642
vt 0.787175 0.152202
vt 0.839912 0.149750
vt 0.795498 0.151308
vt 0.847188 0.150013
vt 0.802764 0.150680
vt 0.855749 0.150471
vt 0.809288 0.150242
vt 0.866700 0.151311
vt 0.815372 0.149942
vt 0.821279 0.149719
vt 0.742918 0.160734
vt 0.856278 0.145300
vt 0.808881 0.144426
vt 0.867151 0.146666
vt 0.815081 0.144016
vt 0.883732 0.149433
vt 0.821139 0.143764
vt 0.742279 0.156698
vt 0.759979 0.152445
vt 0.902439 0.153086
vt 0.827184 0.143696
vt 0.775624 0.149056
vt 0.833436 0.143782
vt 0.786439 0.147119
vt 0.840088 0.144031
vt 0.794943 0.145886
vt 0.847553 0.144501
vt 0.802235 0.145018
vt 0.758948 0.149037
vt 0.774691 0.144540
vt 0.833660 0.137755
vt 0.785421 0.141986
vt 0.840466 0.138174
vt 0.794074 0.140363
vt 0.848092 0.138896
vt 0.801592 0.139240
vt 0.856877 0.140079
vt 0.808354 0.138463
vt 0.868007 0.142017
vt 0.814762 0.137971
vt 0.884316 0.145783
vt 0.820972 0.137670
vt 0.742079 0.155997
vt 0.902641 0.150584
vt 0.827190 0.137628
vt 0.800706 0.133300
vt 0.807699 0.132322
vt 0.869134 0.137355
vt 0.814321 0.131683
vt 0.885138 0.142193
vt 0.820799 0.131376
vt 0.741013 0.153843
vt 0.757674 0.145646
vt 0.903044 0.148181
vt 0.827276 0.131331
vt 0.773311 0.140027
vt 0.833930 0.131585
vt 0.784189 0.136802
vt 0.841046 0.132145
vt 0.793060 0.134728
vt 0.848800 0.133156
vt 0.857869 0.134754
vt 0.834338 0.125151
vt 0.782569 0.131515
vt 0.841768 0.125904
vt 0.791691 0.128924
vt 0.849836 0.127232
vt 0.799601 0.127141
vt 0.859223 0.129317
vt 0.806937 0.125971
vt 0.870427 0.132646
vt 0.813835 0.125199
vt 0.886213 0.138664
vt 0.820583 0.124799
vt 0.739509 0.150159
vt 0.756452 0.142205
vt 0.903675 0.145913
vt 0.827377 0.124763
vt 0.771745 0.135466
vt 0.860775 0.123786
vt 0.872217 0.127953
vt 0.805940 0.119272
vt 0.813239 0.118324
vt 0.887561 0.135229
vt 0.820396 0.117845
vt 0.738759 0.148116
vt 0.754968 0.138882
vt 0.904413 0.143826
vt 0.827571 0.117889
vt 0.769694 0.130955
vt 0.834960 0.118367
vt 0.780741 0.126148
vt 0.842681 0.119415
vt 0.789951 0.122918
vt 0.851212 0.121084
vt 0.798285 0.120746
vt 0.767285 0.126470
vt 0.778355 0.120665
vt 0.835715 0.111196
vt 0.844003 0.112497
vt 0.787987 0.116735
vt 0.852858 0.114692
vt 0.796581 0.113990
vt 0.862762 0.118094
vt 0.804711 0.112172
vt 0.874366 0.123262
vt 0.812510 0.111028
vt 0.889458 0.132019
vt 0.820163 0.110479
vt 0.738339 0.147590
vt 0.752961 0.135820
vt 0.904886 0.143303
vt 0.827840 0.110549
vt 0.803202 0.104575
vt 0.811630 0.103184
vt 0.891424 0.128779
vt 0.819908 0.102562
vt 0.736239 0.144861
vt 0.750887 0.132745
vt 0.906969 0.140428
vt 0.828215 0.102660
vt 0.764384 0.122037
vt 0.836691 0.103541
vt 0.775589 0.115053
vt 0.845600 0.105193
vt 0.785370 0.110214
vt 0.855051 0.107950
vt 0.794533 0.106863
vt 0.865265 0.112225
vt 0.877020 0.118568
vt 0.838046 0.095154
vt 0.847691 0.097317
vt 0.782254 0.103424
vt 0.857702 0.100884
vt 0.792009 0.099291
vt 0.868348 0.106194
vt 0.801345 0.096462
vt 0.880176 0.113932
vt 0.810476 0.094642
vt 0.893914 0.125875
vt 0.819579 0.093794
vt 0.735794 0.144432
vt 0.748331 0.130037
vt 0.907487 0.140029
vt 0.828736 0.094005
vt 0.761093 0.117655
vt 0.772014 0.109306
vt 0.896738 0.123171
vt 0.809093 0.085181
vt 0.819241 0.084191
vt 0.734208 0.143439
vt 0.745459 0.127550
vt 0.909117 0.138930
vt 0.829457 0.084477
vt 0.757178 0.113410
vt 0.839794 0.085982
vt 0.767848 0.103467
vt 0.850295 0.088868
vt 0.778384 0.096245
vt 0.861206 0.093312
vt 0.788731 0.091027
vt 0.872247 0.099955
vt 0.798950 0.087447
vt 0.883854 0.109348
vt 0.865390 0.085451
vt 0.773551 0.088702
vt 0.784575 0.082015
vt 0.877095 0.093643
vt 0.795903 0.077444
vt 0.888420 0.104973
vt 0.807325 0.074500
vt 0.899794 0.120570
vt 0.818863 0.073413
vt 0.732649 0.142740
vt 0.742267 0.125352
vt 0.911539 0.137460
vt 0.830414 0.073816
vt 0.752456 0.109450
vt 0.842148 0.075651
vt 0.762857 0.097647
vt 0.853800 0.079542
vt 0.731223 0.142291
vt 0.738767 0.123530
vt 0.912779 0.136917
vt 0.903215 0.118360
vt 0.831799 0.061415
vt 0.747052 0.105810
vt 0.845112 0.064345
vt 0.756465 0.091799
vt 0.858410 0.069198
vt 0.767498 0.080807
vt 0.871064 0.076877
vt 0.779369 0.072273
vt 0.882940 0.087290
vt 0.791971 0.066252
vt 0.893770 0.100910
vt 0.805041 0.062432
vt 0.818370 0.060859
vt 0.759632 0.072449
vt 0.772542 0.061515
vt 0.878369 0.067760
vt 0.890193 0.081079
vt 0.786705 0.053339
vt 0.899993 0.097347
vt 0.802024 0.048439
vt 0.907002 0.116763
vt 0.817758 0.046098
vt 0.729921 0.142180
vt 0.734978 0.122167
vt 0.913253 0.136879
vt 0.833679 0.047033
vt 0.740784 0.102752
vt 0.849371 0.050943
vt 0.748817 0.086172
vt 0.864441 0.057720
vt 0.836358 0.029818
vt 0.733504 0.100541
vt 0.855286 0.035256
vt 0.739579 0.081167
vt 0.872638 0.044838
vt 0.749463 0.063784
vt 0.887706 0.058261
vt 0.763348 0.049391
vt 0.899527 0.075115
vt 0.779681 0.038302
vt 0.907166 0.094576
vt 0.797983 0.031684
vt 0.911074 0.115721
vt 0.817010 0.028662
vt 0.728468 0.142472
vt 0.730912 0.121289
vt 0.914353 0.137016
vt 0.900028 0.048502
vt 0.910832 0.070014
vt 0.770059 0.020748
vt 0.915542 0.092925
vt 0.792133 0.010525
vt 0.915429 0.115333
vt 0.816075 0.007226
vt 0.728088 0.142835
vt 0.726675 0.121151
vt 0.915231 0.137741
vt 0.840122 0.008483
vt 0.725343 0.099462
vt 0.863998 0.016017
vt 0.728440 0.077306
vt 0.883954 0.030583
vt 0.736338 0.055479
vt 0.750417 0.035450
vt 0.729891 0.228220
vt 0.734134 0.206443
vt 0.737903 0.226711
vt 0.849862 0.310826
vt 0.861723 0.283037
vt 0.871704 0.300413
vt 0.744876 0.245441
vt 0.734046 0.250113
vt 0.889790 0.285330
vt 0.877707 0.272441
vt 0.755982 0.261864
vt 0.743922 0.270712
vt 0.891157 0.258678
vt 0.903225 0.266833
vt 0.758384 0.289361
vt 0.770140 0.275248
vt 0.912165 0.246178
vt 0.901281 0.241991
vt 0.786904 0.285109
vt 0.778190 0.302823
vt 0.915542 0.224366
vt 0.907573 0.223178
vt 0.800315 0.312100
vt 0.805266 0.291025
vt 0.910390 0.203075
vt 0.914508 0.203261
vt 0.825201 0.315627
vt 0.824577 0.292691
vt 0.729976 0.206818
vt 0.730141 0.185417
vt 0.913394 0.182160
vt 0.843743 0.289847
vt 0.793049 0.270003
vt 0.892367 0.236871
vt 0.900567 0.220881
vt 0.808428 0.274022
vt 0.906503 0.202247
vt 0.824146 0.275087
vt 0.730922 0.186033
vt 0.738036 0.205431
vt 0.912670 0.182832
vt 0.839813 0.273352
vt 0.744847 0.224101
vt 0.854843 0.268351
vt 0.753811 0.239863
vt 0.868859 0.260579
vt 0.765259 0.252877
vt 0.881552 0.250131
vt 0.778499 0.262851
vt 0.849788 0.255682
vt 0.750893 0.220689
vt 0.761034 0.233900
vt 0.862414 0.250093
vt 0.772375 0.244232
vt 0.874088 0.241885
vt 0.784651 0.251787
vt 0.884937 0.231224
vt 0.797422 0.257093
vt 0.894480 0.217751
vt 0.810603 0.259825
vt 0.902855 0.200752
vt 0.823788 0.260550
vt 0.731273 0.186031
vt 0.741674 0.203749
vt 0.912306 0.182891
vt 0.836922 0.259234
vt 0.889305 0.214078
vt 0.800647 0.245742
vt 0.812093 0.247852
vt 0.899498 0.198932
vt 0.823479 0.248283
vt 0.733133 0.185734
vt 0.745009 0.201748
vt 0.910462 0.182719
vt 0.834812 0.247291
vt 0.756008 0.216780
vt 0.846108 0.244683
vt 0.766745 0.227827
vt 0.857274 0.240268
vt 0.778013 0.235926
vt 0.868165 0.233936
vt 0.789324 0.241746
vt 0.879024 0.225426
vt 0.843303 0.234912
vt 0.853341 0.231404
vt 0.782294 0.228224
vt 0.863570 0.226450
vt 0.792802 0.232766
vt 0.874085 0.219551
vt 0.803124 0.235653
vt 0.884858 0.210029
vt 0.813200 0.237328
vt 0.896528 0.196584
vt 0.823222 0.237558
vt 0.734543 0.185253
vt 0.748012 0.199402
vt 0.909991 0.182608
vt 0.833206 0.236854
vt 0.760336 0.212550
vt 0.771453 0.221734
vt 0.893896 0.193926
vt 0.814029 0.227927
vt 0.823010 0.228248
vt 0.734990 0.184974
vt 0.750566 0.196599
vt 0.908774 0.181824
vt 0.831989 0.227556
vt 0.764001 0.208120
vt 0.841018 0.225922
vt 0.775268 0.215738
vt 0.850320 0.223309
vt 0.785671 0.220936
vt 0.859900 0.219340
vt 0.795547 0.224425
vt 0.870020 0.213726
vt 0.804915 0.226704
vt 0.881099 0.205751
vt 0.788443 0.213996
vt 0.856954 0.212582
vt 0.797590 0.216812
vt 0.866742 0.208028
vt 0.806296 0.218552
vt 0.877812 0.201376
vt 0.814634 0.219529
vt 0.891588 0.191024
vt 0.822848 0.219706
vt 0.737235 0.183012
vt 0.752950 0.193752
vt 0.907546 0.180703
vt 0.831026 0.219128
vt 0.767020 0.203597
vt 0.839299 0.217829
vt 0.778366 0.209861
vt 0.847891 0.215731
vt 0.738740 0.181664
vt 0.905412 0.178405
vt 0.745687 0.334479
vt 0.752721 0.331565
vt 0.760189 0.330080
vt 0.767803 0.330080
vt 0.775271 0.331565
vt 0.782305 0.334479
vt 0.788636 0.338709
vt 0.794020 0.344093
vt 0.801164 0.357458
vt 0.801164 0.380008
vt 0.802649 0.364926
vt 0.802649 0.372540
vt 0.798250 0.387042
vt 0.794020 0.393373
vt 0.788636 0.398757
vt 0.775271 0.405901
vt 0.767803 0.407386
vt 0.760189 0.407386
vt 0.752721 0.405901
vt 0.745687 0.402987
vt 0.739356 0.398757
vt 0.733972 0.393373
vt 0.726828 0.380008
vt 0.725343 0.372540
vt 0.725343 0.364926
vt 0.726828 0.357458
vt 0.729742 0.350424
vt 0.733972 0.344093
vt 0.739356 0.338709
vt 0.467242 0.992774
vt 0.767803 0.421839
vt 0.775271 0.423324
vt 0.782305 0.426238
vt 0.788636 0.430468
vt 0.794020 0.435852
vt 0.798250 0.442183
vt 0.801164 0.449217
vt 0.802649 0.456685
vt 0.801164 0.471766
vt 0.788636 0.490516
vt 0.798250 0.478801
vt 0.794020 0.485132
vt 0.782305 0.494746
vt 0.775271 0.497660
vt 0.767803 0.499145
vt 0.752721 0.497660
vt 0.745687 0.494746
vt 0.739356 0.490516
vt 0.733972 0.485132
vt 0.729742 0.478801
vt 0.726828 0.471767
vt 0.725343 0.464299
vt 0.726828 0.449217
vt 0.729742 0.442183
vt 0.733972 0.435852
vt 0.739356 0.430468
vt 0.745687 0.426238
vt 0.752721 0.423324
vt 0.760189 0.421839
s 1
usemtl マテリアル.002
f 2/1/1 3/2/2 1/3/1
f 4/4/2 5/5/3 3/2/2
f 6/6/3 7/7/4 5/5/3
f 8/8/4 9/9/5 7/7/4
f 10/10/5 11/11/6 9/9/5
f 12/12/6 13/13/7 11/11/6
f 14/14/7 15/15/8 13/13/7
f 16/16/8 17/17/9 15/15/8
f 18/18/9 19/19/10 17/17/9
f 20/20/10 21/21/11 19/19/10
f 22/22/11 23/23/12 21/21/11
f 24/24/12 25/25/13 23/23/12
f 26/26/13 27/27/14 25/25/13
f 28/28/14 29/29/15 27/27/14
f 30/30/15 31/31/16 29/29/15
f 32/32/16 33/33/17 31/31/16
f 34/34/17 35/35/18 33/33/17
f 36/36/18 37/37/19 35/35/18
f 38/38/19 39/39/20 37/37/19
f 40/40/20 41/41/21 39/39/20
f 42/42/21 43/43/22 41/41/21
f 44/44/22 45/45/23 43/43/22
f 46/46/23 47/47/24 45/45/23
f 48/48/24 49/49/25 47/47/24
f 50/50/25 51/51/26 49/49/25
f 52/52/26 53/53/27 51/51/26
f 54/54/27 55/55/28 53/53/27
f 56/56/28 57/57/29 55/55/28
f 58/58/29 59/59/30 57/57/29
f 60/60/30 61/61/31 59/59/30
f 54/62/32 38/63/32 22/64/32
f 62/65/31 63/66/33 61/61/31
f 64/67/33 1/68/1 63/66/33
f 15/69/34 31/70/34 47/71/34
s 0
f 65/72/1 66/73/1 67/74/1
s 1
f 548/75/35 88/76/36 549/77/37
f 71/78/1 80/79/38 81/80/2
f 541/81/39 149/82/32 74/83/40
f 375/84/34 549/77/37 88/76/36
f 71/78/1 82/85/41 72/86/42
f 542/87/43 74/83/40 75/88/44
f 545/89/45 82/85/41 83/90/46
f 68/91/47 75/88/44 76/92/48
f 545/89/45 84/93/49 73/94/50
f 543/95/51 76/92/48 77/96/52
f 546/97/53 84/93/49 85/98/54
f 543/95/51 78/99/55 69/100/56
f 546/97/53 86/101/57 547/102/58
f 544/103/59 78/99/55 79/104/60
f 547/102/58 87/105/61 548/75/35
f 544/103/59 80/79/38 70/106/62
f 86/101/57 102/107/63 87/105/61
f 79/104/60 95/108/64 80/79/38
f 87/105/61 103/109/65 88/76/36
f 81/80/2 95/108/64 96/110/3
f 74/83/40 149/111/32 89/112/66
f 375/113/34 88/76/36 103/109/65
f 81/80/2 97/114/67 82/85/41
f 75/88/44 89/112/66 90/115/68
f 83/90/46 97/114/67 98/116/69
f 76/92/48 90/115/68 91/117/70
f 83/90/46 99/118/71 84/93/49
f 76/92/48 92/119/72 77/96/52
f 85/98/54 99/118/71 100/120/73
f 77/96/52 93/121/74 78/99/55
f 86/101/57 100/120/73 101/122/75
f 79/104/60 93/121/74 94/123/76
f 90/115/68 106/124/77 91/117/70
f 99/118/71 113/125/78 114/126/79
f 92/119/72 106/124/77 107/127/80
f 100/120/73 114/126/79 115/128/81
f 92/119/72 108/129/82 93/121/74
f 100/120/73 116/130/83 101/122/75
f 93/121/74 109/131/84 94/123/76
f 102/107/63 116/130/83 117/132/85
f 95/108/64 109/131/84 110/133/86
f 102/107/63 118/134/87 103/109/65
f 95/108/64 111/135/4 96/110/3
f 89/112/66 149/136/32 104/137/88
f 375/138/34 103/109/65 118/134/87
f 97/114/67 111/135/4 112/139/89
f 90/115/68 104/137/88 105/140/90
f 97/114/67 113/125/78 98/116/69
f 110/133/86 124/141/91 125/142/92
f 118/134/87 132/143/93 133/144/94
f 111/135/4 125/142/92 126/145/5
f 104/137/88 149/146/32 119/147/95
f 375/148/34 118/134/87 133/144/94
f 111/135/4 127/149/96 112/139/89
f 104/137/88 120/150/97 105/140/90
f 112/139/89 128/151/98 113/125/78
f 106/124/77 120/150/97 121/152/99
f 114/126/79 128/151/98 129/153/100
f 107/127/80 121/152/99 122/154/101
f 115/128/81 129/153/100 130/155/102
f 107/127/80 123/156/103 108/129/82
f 115/128/81 131/157/104 116/130/83
f 108/129/82 124/141/91 109/131/84
f 116/130/83 132/143/93 117/132/85
f 129/153/100 143/158/105 144/159/106
f 121/152/99 137/160/107 122/154/101
f 130/155/102 144/159/106 145/161/108
f 122/154/101 138/162/109 123/156/103
f 131/157/104 145/161/108 146/163/110
f 123/156/103 139/164/111 124/141/91
f 132/143/93 146/163/110 147/165/112
f 125/142/92 139/164/111 140/166/113
f 133/144/94 147/165/112 148/167/114
f 126/145/5 140/166/113 141/168/6
f 119/147/95 149/169/32 134/170/115
f 375/171/34 133/144/94 148/167/114
f 126/145/5 142/172/116 127/149/96
f 119/147/95 135/173/117 120/150/97
f 127/149/96 143/158/105 128/151/98
f 120/150/97 136/174/118 121/152/99
f 147/165/112 164/175/119 148/167/114
f 140/166/113 157/176/7 141/168/6
f 134/170/115 149/177/32 150/178/120
f 375/179/34 148/167/114 164/175/119
f 142/172/116 157/176/7 158/180/121
f 135/173/117 150/178/120 151/181/122
f 142/172/116 159/182/123 143/158/105
f 135/173/117 152/183/124 136/174/118
f 144/159/106 159/182/123 160/184/125
f 137/160/107 152/183/124 153/185/126
f 144/159/106 161/186/127 145/161/108
f 138/162/109 153/185/126 154/187/128
f 145/161/108 162/188/129 146/163/110
f 138/162/109 155/189/130 139/164/111
f 147/165/112 162/188/129 163/190/131
f 140/166/113 155/189/130 156/191/132
f 152/183/124 168/192/133 153/185/126
f 161/186/127 175/193/134 176/194/135
f 153/185/126 169/195/136 154/187/128
f 162/188/129 176/194/135 177/196/137
f 154/187/128 170/197/138 155/189/130
f 162/188/129 178/198/139 163/190/131
f 156/191/132 170/197/138 171/199/140
f 164/175/119 178/198/139 179/200/141
f 157/176/7 171/199/140 172/201/8
f 150/178/120 149/202/32 165/203/142
f 375/204/34 164/175/119 179/200/141
f 157/176/7 173/205/143 158/180/121
f 150/178/120 166/206/144 151/181/122
f 158/180/121 174/207/145 159/182/123
f 152/183/124 166/206/144 167/208/146
f 160/184/125 174/207/145 175/193/134
f 172/201/8 186/209/147 187/210/9
f 165/203/142 149/211/32 180/212/148
f 375/213/34 179/200/141 194/214/149
f 172/201/8 188/215/150 173/205/143
f 166/206/144 180/212/148 181/216/151
f 173/205/143 189/217/152 174/207/145
f 166/206/144 182/218/153 167/208/146
f 175/193/134 189/217/152 190/219/154
f 167/208/146 183/220/155 168/192/133
f 175/193/134 191/221/156 176/194/135
f 169/195/136 183/220/155 184/222/157
f 177/196/137 191/221/156 192/223/158
f 169/195/136 185/224/159 170/197/138
f 178/198/139 192/223/158 193/225/160
f 171/199/140 185/224/159 186/209/147
f 178/198/139 194/214/149 179/200/141
f 191/221/156 205/226/161 206/227/162
f 183/220/155 199/228/163 184/222/157
f 191/221/156 207/229/164 192/223/158
f 184/222/157 200/230/165 185/224/159
f 192/223/158 208/231/166 193/225/160
f 186/209/147 200/230/165 201/232/167
f 194/214/149 208/231/166 209/233/168
f 187/210/9 201/232/167 202/234/10
f 180/212/148 149/235/32 195/236/169
f 375/237/34 194/214/149 209/233/168
f 187/210/9 203/238/170 188/215/150
f 180/212/148 196/239/171 181/216/151
f 188/215/150 204/240/172 189/217/152
f 182/218/153 196/239/171 197/241/173
f 190/219/154 204/240/172 205/226/161
f 183/220/155 197/241/173 198/242/174
f 375/243/34 209/233/168 224/244/175
f 202/234/10 218/245/176 203/238/170
f 196/239/171 210/246/177 211/247/178
f 203/238/170 219/248/179 204/240/172
f 196/239/171 212/249/180 197/241/173
f 205/226/161 219/248/179 220/250/181
f 197/241/173 213/251/182 198/242/174
f 205/226/161 221/252/183 206/227/162
f 199/228/163 213/251/182 214/253/184
f 207/229/164 221/252/183 222/254/185
f 199/228/163 215/255/186 200/230/165
f 208/231/166 222/254/185 223/256/187
f 201/232/167 215/255/186 216/257/188
f 208/231/166 224/244/175 209/233/168
f 202/234/10 216/257/188 217/258/11
f 195/236/169 149/259/32 210/246/177
f 221/252/183 237/260/189 222/254/185
f 214/253/184 230/261/190 215/255/186
f 222/254/185 238/262/191 223/256/187
f 216/257/188 230/261/190 231/263/192
f 224/244/175 238/262/191 239/264/193
f 217/258/11 231/263/192 232/265/12
f 210/246/177 149/266/32 225/267/194
f 375/268/34 224/244/175 239/264/193
f 217/258/11 233/269/195 218/245/176
f 210/246/177 226/270/196 211/247/178
f 218/245/176 234/271/197 219/248/179
f 212/249/180 226/270/196 227/272/198
f 220/250/181 234/271/197 235/273/199
f 213/251/182 227/272/198 228/274/200
f 220/250/181 236/275/201 221/252/183
f 213/251/182 229/276/202 214/253/184
f 226/270/196 240/277/203 241/278/204
f 233/269/195 249/279/205 234/271/197
f 227/272/198 241/278/204 242/280/206
f 235/273/199 249/279/205 250/281/207
f 227/272/198 243/282/208 228/274/200
f 235/273/199 251/283/209 236/275/201
f 229/276/202 243/282/208 244/284/210
f 237/260/189 251/283/209 252/285/211
f 229/276/202 245/286/212 230/261/190
f 237/260/189 253/287/213 238/262/191
f 231/263/192 245/286/212 246/288/214
f 238/262/191 254/289/215 239/264/193
f 232/265/12 246/288/214 247/290/13
f 225/267/194 149/291/32 240/277/203
f 375/292/34 239/264/193 254/289/215
f 232/265/12 248/293/216 233/269/195
f 245/286/212 259/294/217 260/295/218
f 252/285/211 268/296/219 253/287/213
f 245/286/212 261/297/220 246/288/214
f 253/287/213 269/298/221 254/289/215
f 247/290/13 261/297/220 262/299/14
f 240/277/203 149/300/32 255/301/222
f 375/302/34 254/289/215 269/298/221
f 247/290/13 263/303/223 248/293/216
f 241/278/204 255/301/222 256/304/224
f 249/279/205 263/303/223 264/305/225
f 242/280/206 256/304/224 257/306/226
f 249/279/205 265/307/227 250/281/207
f 242/280/206 258/308/228 243/282/208
f 251/283/209 265/307/227 266/309/229
f 243/282/208 259/294/217 244/284/210
f 252/285/211 266/309/229 267/310/230
f 263/303/223 279/311/231 264/305/225
f 256/304/224 272/312/232 257/306/226
f 265/307/227 279/311/231 280/313/233
f 258/308/228 272/312/232 273/314/234
f 265/307/227 281/315/235 266/309/229
f 259/294/217 273/314/234 274/316/236
f 266/309/229 282/317/237 267/310/230
f 259/294/217 275/318/238 260/295/218
f 268/296/219 282/317/237 283/319/239
f 261/297/220 275/318/238 276/320/240
f 269/298/221 283/319/239 284/321/241
f 262/299/14 276/320/240 277/322/15
f 255/301/222 149/323/32 270/324/242
f 375/325/34 269/298/221 284/321/241
f 262/299/14 278/326/243 263/303/223
f 255/301/222 271/327/244 256/304/224
f 283/319/239 297/328/245 298/329/246
f 276/320/240 290/330/247 291/331/248
f 284/321/241 298/329/246 299/332/249
f 277/322/15 291/331/248 292/333/16
f 270/324/242 149/334/32 285/335/250
f 375/336/34 284/321/241 299/332/249
f 277/322/15 293/337/251 278/326/243
f 270/324/242 286/338/252 271/327/244
f 278/326/243 294/339/253 279/311/231
f 271/327/244 287/340/254 272/312/232
f 280/313/233 294/339/253 295/341/255
f 272/312/232 288/342/256 273/314/234
f 280/313/233 296/343/257 281/315/235
f 274/316/236 288/342/256 289/344/258
f 282/317/237 296/343/257 297/328/245
f 274/316/236 290/330/247 275/318/238
f 287/340/254 301/345/259 302/346/260
f 295/341/255 309/347/261 310/348/262
f 287/340/254 303/349/263 288/342/256
f 295/341/255 311/350/264 296/343/257
f 289/344/258 303/349/263 304/351/265
f 297/328/245 311/350/264 312/352/266
f 289/344/258 305/353/267 290/330/247
f 297/328/245 313/354/268 298/329/246
f 291/331/248 305/353/267 306/355/269
f 299/332/249 313/354/268 314/356/270
f 292/333/16 306/355/269 307/357/17
f 285/335/250 149/358/32 300/359/271
f 375/360/34 299/332/249 314/356/270
f 292/333/16 308/361/272 293/337/251
f 285/335/250 301/345/259 286/338/252
f 293/337/251 309/347/261 294/339/253
f 306/355/269 320/362/273 321/363/274
f 313/354/268 329/364/275 314/356/270
f 307/357/17 321/363/274 322/365/18
f 300/359/271 149/366/32 315/367/276
f 375/368/34 314/356/270 329/364/275
f 307/357/17 323/369/277 308/361/272
f 301/345/259 315/367/276 316/370/278
f 308/361/272 324/371/279 309/347/261
f 301/345/259 317/372/280 302/346/260
f 310/348/262 324/371/279 325/373/281
f 303/349/263 317/372/280 318/374/282
f 311/350/264 325/373/281 326/375/283
f 303/349/263 319/376/284 304/351/265
f 311/350/264 327/377/285 312/352/266
f 304/351/265 320/362/273 305/353/267
f 313/354/268 327/377/285 328/378/286
f 325/373/281 339/379/287 340/380/288
f 317/372/280 333/381/289 318/374/282
f 326/375/283 340/380/288 341/382/290
f 318/374/282 334/383/291 319/376/284
f 327/377/285 341/382/290 342/384/292
f 319/376/284 335/385/293 320/362/273
f 327/377/285 343/386/294 328/378/286
f 321/363/274 335/385/293 336/387/295
f 329/364/275 343/386/294 344/388/296
f 322/365/18 336/387/295 337/389/19
f 315/367/276 149/390/32 330/391/297
f 375/392/34 329/364/275 344/388/296
f 322/365/18 338/393/298 323/369/277
f 315/367/276 331/394/299 316/370/278
f 323/369/277 339/379/287 324/371/279
f 317/372/280 331/394/299 332/395/300
f 343/386/294 359/396/301 344/388/296
f 337/389/19 351/397/302 352/398/20
f 330/391/297 149/399/32 345/400/303
f 375/401/34 344/388/296 359/396/301
f 337/389/19 353/402/304 338/393/298
f 331/394/299 345/400/303 346/403/305
f 338/393/298 354/404/306 339/379/287
f 332/395/300 346/403/305 347/405/307
f 340/380/288 354/404/306 355/406/308
f 332/395/300 348/407/309 333/381/289
f 340/380/288 356/408/310 341/382/290
f 334/383/291 348/407/309 349/409/311
f 342/384/292 356/408/310 357/410/312
f 334/383/291 350/411/313 335/385/293
f 342/384/292 358/412/314 343/386/294
f 336/387/295 350/411/313 351/397/302
f 355/406/308 371/413/315 356/408/310
f 349/409/311 363/414/316 364/415/317
f 357/410/312 371/413/315 372/416/318
f 349/409/311 365/417/319 350/411/313
f 358/412/314 372/416/318 373/418/320
f 351/397/302 365/417/319 366/419/321
f 359/396/301 373/418/320 374/420/322
f 352/398/20 366/419/321 367/421/21
f 345/400/303 149/422/32 360/423/323
f 375/424/34 359/396/301 374/420/322
f 352/398/20 368/425/324 353/402/304
f 345/400/303 361/426/325 346/403/305
f 353/402/304 369/427/326 354/404/306
f 346/403/305 362/428/327 347/405/307
f 355/406/308 369/427/326 370/429/328
f 347/405/307 363/414/316 348/407/309
f 360/423/323 149/430/32 376/431/329
f 375/432/34 374/420/322 390/433/330
f 367/421/21 384/434/331 368/425/324
f 361/426/325 376/431/329 377/435/332
f 368/425/324 385/436/333 369/427/326
f 362/428/327 377/435/332 378/437/334
f 370/429/328 385/436/333 386/438/335
f 362/428/327 379/439/336 363/414/316
f 370/429/328 387/440/337 371/413/315
f 364/415/317 379/439/336 380/441/338
f 372/416/318 387/440/337 388/442/339
f 364/415/317 381/443/340 365/417/319
f 372/416/318 389/444/341 373/418/320
f 366/419/321 381/443/340 382/445/342
f 373/418/320 390/433/330 374/420/322
f 367/421/21 382/445/342 383/446/22
f 380/441/338 394/447/343 395/448/344
f 388/442/339 402/449/345 403/450/346
f 380/441/338 396/451/347 381/443/340
f 388/442/339 404/452/348 389/444/341
f 382/445/342 396/451/347 397/453/349
f 390/433/330 404/452/348 405/454/350
f 383/446/22 397/453/349 398/455/23
f 376/431/329 149/456/32 391/457/351
f 375/458/34 390/433/330 405/454/350
f 383/446/22 399/459/352 384/434/331
f 376/431/329 392/460/353 377/435/332
f 384/434/331 400/461/354 385/436/333
f 378/437/334 392/460/353 393/462/355
f 386/438/335 400/461/354 401/463/356
f 378/437/334 394/447/343 379/439/336
f 386/438/335 402/449/345 387/440/337
f 398/455/23 414/464/357 399/459/352
f 391/457/351 407/465/358 392/460/353
f 399/459/352 415/466/359 400/461/354
f 393/462/355 407/465/358 408/467/360
f 401/463/356 415/466/359 416/468/361
f 393/462/355 409/469/362 394/447/343
f 401/463/356 417/470/363 402/449/345
f 395/448/344 409/469/362 410/471/364
f 403/450/346 417/470/363 418/472/365
f 395/448/344 411/473/366 396/451/347
f 403/450/346 419/474/367 404/452/348
f 397/453/349 411/473/366 412/475/368
f 405/454/350 419/474/367 420/476/369
f 398/455/23 412/475/368 413/477/24
f 391/457/351 149/478/32 406/479/370
f 375/480/34 405/454/350 420/476/369
f 418/472/365 432/481/371 433/482/372
f 410/471/364 426/483/373 411/473/366
f 419/474/367 433/482/372 434/484/374
f 412/475/368 426/483/373 427/485/375
f 420/476/369 434/484/374 435/486/376
f 413/477/24 427/485/375 428/487/25
f 406/479/370 149/488/32 421/489/377
f 375/490/34 420/476/369 435/486/376
f 413/477/24 429/491/378 414/464/357
f 406/479/370 422/492/379 407/465/358
f 414/464/357 430/493/380 415/466/359
f 407/465/358 423/494/381 408/467/360
f 416/468/361 430/493/380 431/495/382
f 408/467/360 424/496/383 409/469/362
f 416/468/361 432/481/371 417/470/363
f 410/471/364 424/496/383 425/497/384
f 422/498/379 436/499/385 437/500/386
f 429/501/378 445/502/387 430/503/380
f 422/498/379 438/504/388 423/505/381
f 431/506/382 445/502/387 446/507/389
f 423/505/381 439/508/390 424/509/383
f 431/506/382 447/510/391 432/511/371
f 425/512/384 439/508/390 440/513/392
f 433/514/372 447/510/391 448/515/393
f 425/512/384 441/516/394 426/517/373
f 434/518/374 448/515/393 449/519/395
f 427/520/375 441/516/394 442/521/396
f 434/518/374 450/522/397 435/523/376
f 428/524/25 442/521/396 443/525/26
f 421/526/377 149/527/32 436/499/385
f 375/528/34 435/523/376 450/522/397
f 428/524/25 444/529/398 429/501/378
f 440/513/392 456/530/399 441/516/394
f 449/519/395 463/531/400 464/532/401
f 442/521/396 456/530/399 457/533/402
f 450/522/397 464/532/401 465/534/403
f 443/525/26 457/533/402 458/535/27
f 436/499/385 149/536/32 451/537/404
f 375/538/34 450/522/397 465/534/403
f 443/525/26 459/539/405 444/529/398
f 436/499/385 452/540/406 437/500/386
f 444/529/398 460/541/407 445/502/387
f 437/500/386 453/542/408 438/504/388
f 446/507/389 460/541/407 461/543/409
f 438/504/388 454/544/410 439/508/390
f 447/510/391 461/543/409 462/545/411
f 439/508/390 455/546/412 440/513/392
f 448/515/393 462/545/411 463/531/400
f 459/539/405 475/547/413 460/541/407
f 453/542/408 467/548/414 468/549/415
f 461/543/409 475/547/413 476/550/416
f 453/542/408 469/551/417 454/544/410
f 461/543/409 477/552/418 462/545/411
f 455/546/412 469/551/417 470/553/419
f 463/531/400 477/552/418 478/554/420
f 455/546/412 471/555/421 456/530/399
f 463/531/400 479/556/422 464/532/401
f 457/533/402 471/555/421 472/557/423
f 464/532/401 480/558/424 465/534/403
f 458/535/27 472/557/423 473/559/28
f 451/537/404 149/560/32 466/561/425
f 375/562/34 465/534/403 480/558/424
f 458/535/27 474/563/426 459/539/405
f 452/540/406 466/561/425 467/548/414
f 478/554/420 494/564/427 479/556/422
f 472/557/423 486/565/428 487/566/429
f 480/558/424 494/564/427 495/567/430
f 473/559/28 487/566/429 488/568/29
f 466/561/425 149/569/32 481/570/431
f 375/571/34 480/558/424 495/567/430
f 473/559/28 489/572/432 474/563/426
f 466/561/425 482/573/433 467/548/414
f 474/563/426 490/574/434 475/547/413
f 468/549/415 482/573/433 483/575/435
f 476/550/416 490/574/434 491/576/436
f 469/551/417 483/575/435 484/577/437
f 476/550/416 492/578/438 477/552/418
f 470/553/419 484/577/437 485/579/439
f 477/552/418 493/580/440 478/554/420
f 470/553/419 486/565/428 471/555/421
f 491/576/436 505/581/441 506/582/442
f 483/575/435 499/583/443 484/577/437
f 491/576/436 507/584/444 492/578/438
f 485/579/439 499/583/443 500/585/445
f 493/580/440 507/584/444 508/586/446
f 485/579/439 501/587/447 486/565/428
f 494/564/427 508/586/446 509/588/448
f 487/566/429 501/587/447 502/589/449
f 494/564/427 510/590/450 495/567/430
f 488/568/29 502/589/449 503/591/30
f 481/570/431 149/592/32 496/593/451
f 375/594/34 495/567/430 510/590/450
f 488/568/29 504/595/452 489/572/432
f 482/573/433 496/593/451 497/596/453
f 489/572/432 505/581/441 490/574/434
f 482/573/433 498/597/454 483/575/435
f 509/588/448 525/598/455 510/590/450
f 503/591/30 517/599/456 518/600/31
f 496/593/451 149/601/32 511/602/457
f 375/603/34 510/590/450 525/598/455
f 503/591/30 519/604/458 504/595/452
f 497/596/453 511/602/457 512/605/459
f 504/595/452 520/606/460 505/581/441
f 498/597/454 512/605/459 513/607/461
f 506/582/442 520/606/460 521/608/462
f 498/597/454 514/609/463 499/583/443
f 506/582/442 522/610/464 507/584/444
f 500/585/445 514/609/463 515/611/465
f 508/586/446 522/610/464 523/612/466
f 500/585/445 516/613/467 501/587/447
f 508/586/446 524/614/468 509/588/448
f 502/589/449 516/613/467 517/599/456
f 513/607/461 529/615/469 514/609/463
f 521/608/462 537/616/470 522/610/464
f 515/611/465 529/615/469 530/617/471
f 523/612/466 537/616/470 538/618/472
f 515/611/465 531/619/473 516/613/467
f 523/612/466 539/620/474 524/614/468
f 517/599/456 531/619/473 532/621/475
f 524/614/468 540/622/476 525/598/455
f 518/600/31 532/621/475 533/623/33
f 511/602/457 149/624/32 526/625/477
f 375/626/34 525/598/455 540/622/476
f 518/600/31 534/627/478 519/604/458
f 511/602/457 527/628/479 512/605/459
f 519/604/458 535/629/480 520/606/460
f 513/607/461 527/628/479 528/630/481
f 521/608/462 535/629/480 536/631/482
f 533/623/33 70/106/62 71/78/1
f 526/625/477 149/632/32 541/81/39
f 375/633/34 540/622/476 549/77/37
f 533/623/33 72/86/42 534/627/478
f 526/625/477 542/87/43 527/628/479
f 534/627/478 545/89/45 535/629/480
f 528/630/481 542/87/43 68/91/47
f 535/629/480 73/94/50 536/631/482
f 529/615/469 68/91/47 543/95/51
f 536/631/482 546/97/53 537/616/470
f 530/617/471 543/95/51 69/100/56
f 538/618/472 546/97/53 547/102/58
f 531/619/473 69/100/56 544/103/59
f 538/618/472 548/75/35 539/620/474
f 532/621/475 544/103/59 70/106/62
f 540/622/476 548/75/35 549/77/37
f 2/1/1 4/4/2 3/2/2
f 4/4/2 6/6/3 5/5/3
f 6/6/3 8/8/4 7/7/4
f 8/8/4 10/10/5 9/9/5
f 10/10/5 12/12/6 11/11/6
f 12/12/6 14/14/7 13/13/7
f 14/14/7 16/16/8 15/15/8
f 16/16/8 18/18/9 17/17/9
f 18/18/9 20/20/10 19/19/10
f 20/20/10 22/22/11 21/21/11
f 22/22/11 24/24/12 23/23/12
f 24/24/12 26/26/13 25/25/13
f 26/26/13 28/28/14 27/27/14
f 28/28/14 30/30/15 29/29/15
f 30/30/15 32/32/16 31/31/16
f 32/32/16 34/34/17 33/33/17
f 34/34/17 36/36/18 35/35/18
f 36/36/18 38/38/19 37/37/19
f 38/38/19 40/40/20 39/39/20
f 40/40/20 42/42/21 41/41/21
f 42/42/21 44/44/22 43/43/22
f 44/44/22 46/46/23 45/45/23
f 46/46/23 48/48/24 47/47/24
f 48/48/24 50/50/25 49/49/25
f 50/50/25 52/52/26 51/51/26
f 52/52/26 54/54/27 53/53/27
f 54/54/27 56/56/28 55/55/28
f 56/56/28 58/58/29 57/57/29
f 58/58/29 60/60/30 59/59/30
f 60/60/30 62/65/31 61/61/31
f 6/634/32 4/635/483 2/636/32
f 2/636/32 64/637/483 62/638/32
f 62/638/32 60/639/32 54/62/32
f 60/639/32 58/640/32 54/62/32
f 58/640/32 56/641/32 54/62/32
f 54/62/32 52/642/32 46/643/32
f 52/642/32 50/644/32 46/643/32
f 50/644/32 48/645/32 46/643/32
f 46/643/32 44/646/32 42/647/32
f 42/647/32 40/648/32 38/63/32
f 38/63/32 36/649/484 34/650/483
f 34/650/483 32/651/32 38/63/32
f 32/651/32 30/652/32 38/63/32
f 30/652/32 28/653/483 26/654/32
f 26/654/32 24/655/32 22/64/32
f 22/64/32 20/656/32 18/657/32
f 18/657/32 16/658/32 14/659/32
f 14/659/32 12/660/32 10/661/32
f 10/661/32 8/662/484 6/634/32
f 6/634/32 2/636/32 54/62/32
f 2/636/32 62/638/32 54/62/32
f 46/643/32 42/647/32 38/63/32
f 30/652/32 26/654/32 38/63/32
f 26/654/32 22/64/32 38/63/32
f 22/64/32 18/657/32 14/659/32
f 14/659/32 10/661/32 22/64/32
f 10/661/32 6/634/32 22/64/32
f 54/62/32 46/643/32 38/63/32
f 6/634/32 54/62/32 22/64/32
f 62/65/31 64/67/33 63/66/33
f 64/67/33 2/663/1 1/68/1
f 63/664/34 1/665/34 3/666/34
f 3/666/34 5/667/34 7/668/34
f 7/668/34 9/669/34 15/69/34
f 9/669/34 11/670/34 15/69/34
f 11/670/34 13/671/34 15/69/34
f 15/69/34 17/672/34 23/673/34
f 17/672/34 19/674/34 23/673/34
f 19/674/34 21/675/34 23/673/34
f 23/673/34 25/676/34 31/70/34
f 25/676/34 27/677/34 31/70/34
f 27/677/34 29/678/34 31/70/34
f 31/70/34 33/679/34 35/680/34
f 35/680/34 37/681/34 31/70/34
f 37/681/34 39/682/34 31/70/34
f 39/682/34 41/683/34 43/684/34
f 43/684/34 45/685/34 39/682/34
f 45/685/34 47/71/34 39/682/34
f 47/71/34 49/686/34 51/687/34
f 51/687/34 53/688/34 55/689/34
f 55/689/34 57/690/34 59/691/34
f 59/691/34 61/692/34 55/689/34
f 61/692/34 63/664/34 55/689/34
f 63/664/34 3/666/34 15/69/34
f 3/666/34 7/668/34 15/69/34
f 47/71/34 51/687/34 63/664/34
f 51/687/34 55/689/34 63/664/34
f 15/69/34 23/673/34 31/70/34
f 31/70/34 39/682/34 47/71/34
f 63/664/34 15/69/34 47/71/34
f 548/75/35 87/105/61 88/76/36
f 71/78/1 70/106/62 80/79/38
f 71/78/1 81/80/2 82/85/41
f 542/87/43 541/81/39 74/83/40
f 545/89/45 72/86/42 82/85/41
f 68/91/47 542/87/43 75/88/44
f 545/89/45 83/90/46 84/93/49
f 543/95/51 68/91/47 76/92/48
f 546/97/53 73/94/50 84/93/49
f 543/95/51 77/96/52 78/99/55
f 546/97/53 85/98/54 86/101/57
f 544/103/59 69/100/56 78/99/55
f 547/102/58 86/101/57 87/105/61
f 544/103/59 79/104/60 80/79/38
f 86/101/57 101/122/75 102/107/63
f 79/104/60 94/123/76 95/108/64
f 87/105/61 102/107/63 103/109/65
f 81/80/2 80/79/38 95/108/64
f 81/80/2 96/110/3 97/114/67
f 75/88/44 74/83/40 89/112/66
f 83/90/46 82/85/41 97/114/67
f 76/92/48 75/88/44 90/115/68
f 83/90/46 98/116/69 99/118/71
f 76/92/48 91/117/70 92/119/72
f 85/98/54 84/93/49 99/118/71
f 77/96/52 92/119/72 93/121/74
f 86/101/57 85/98/54 100/120/73
f 79/104/60 78/99/55 93/121/74
f 90/115/68 105/140/90 106/124/77
f 99/118/71 98/116/69 113/125/78
f 92/119/72 91/117/70 106/124/77
f 100/120/73 99/118/71 114/126/79
f 92/119/72 107/127/80 108/129/82
f 100/120/73 115/128/81 116/130/83
f 93/121/74 108/129/82 109/131/84
f 102/107/63 101/122/75 116/130/83
f 95/108/64 94/123/76 109/131/84
f 102/107/63 117/132/85 118/134/87
f 95/108/64 110/133/86 111/135/4
f 97/114/67 96/110/3 111/135/4
f 90/115/68 89/112/66 104/137/88
f 97/114/67 112/139/89 113/125/78
f 110/133/86 109/131/84 124/141/91
f 118/134/87 117/132/85 132/143/93
f 111/135/4 110/133/86 125/142/92
f 111/135/4 126/145/5 127/149/96
f 104/137/88 119/147/95 120/150/97
f 112/139/89 127/149/96 128/151/98
f 106/124/77 105/140/90 120/150/97
f 114/126/79 113/125/78 128/151/98
f 107/127/80 106/124/77 121/152/99
f 115/128/81 114/126/79 129/153/100
f 107/127/80 122/154/101 123/156/103
f 115/128/81 130/155/102 131/157/104
f 108/129/82 123/156/103 124/141/91
f 116/130/83 131/157/104 132/143/93
f 129/153/100 128/151/98 143/158/105
f 121/152/99 136/174/118 137/160/107
f 130/155/102 129/153/100 144/159/106
f 122/154/101 137/160/107 138/162/109
f 131/157/104 130/155/102 145/161/108
f 123/156/103 138/162/109 139/164/111
f 132/143/93 131/157/104 146/163/110
f 125/142/92 124/141/91 139/164/111
f 133/144/94 132/143/93 147/165/112
f 126/145/5 125/142/92 140/166/113
f 126/145/5 141/168/6 142/172/116
f 119/147/95 134/170/115 135/173/117
f 127/149/96 142/172/116 143/158/105
f 120/150/97 135/173/117 136/174/118
f 147/165/112 163/190/131 164/175/119
f 140/166/113 156/191/132 157/176/7
f 142/172/116 141/168/6 157/176/7
f 135/173/117 134/170/115 150/178/120
f 142/172/116 158/180/121 159/182/123
f 135/173/117 151/181/122 152/183/124
f 144/159/106 143/158/105 159/182/123
f 137/160/107 136/174/118 152/183/124
f 144/159/106 160/184/125 161/186/127
f 138/162/109 137/160/107 153/185/126
f 145/161/108 161/186/127 162/188/129
f 138/162/109 154/187/128 155/189/130
f 147/165/112 146/163/110 162/188/129
f 140/166/113 139/164/111 155/189/130
f 152/183/124 167/208/146 168/192/133
f 161/186/127 160/184/125 175/193/134
f 153/185/126 168/192/133 169/195/136
f 162/188/129 161/186/127 176/194/135
f 154/187/128 169/195/136 170/197/138
f 162/188/129 177/196/137 178/198/139
f 156/191/132 155/189/130 170/197/138
f 164/175/119 163/190/131 178/198/139
f 157/176/7 156/191/132 171/199/140
f 157/176/7 172/201/8 173/205/143
f 150/178/120 165/203/142 166/206/144
f 158/180/121 173/205/143 174/207/145
f 152/183/124 151/181/122 166/206/144
f 160/184/125 159/182/123 174/207/145
f 172/201/8 171/199/140 186/209/147
f 172/201/8 187/210/9 188/215/150
f 166/206/144 165/203/142 180/212/148
f 173/205/143 188/215/150 189/217/152
f 166/206/144 181/216/151 182/218/153
f 175/193/134 174/207/145 189/217/152
f 167/208/146 182/218/153 183/220/155
f 175/193/134 190/219/154 191/221/156
f 169/195/136 168/192/133 183/220/155
f 177/196/137 176/194/135 191/221/156
f 169/195/136 184/222/157 185/224/159
f 178/198/139 177/196/137 192/223/158
f 171/199/140 170/197/138 185/224/159
f 178/198/139 193/225/160 194/214/149
f 191/221/156 190/219/154 205/226/161
f 183/220/155 198/242/174 199/228/163
f 191/221/156 206/227/162 207/229/164
f 184/222/157 199/228/163 200/230/165
f 192/223/158 207/229/164 208/231/166
f 186/209/147 185/224/159 200/230/165
f 194/214/149 193/225/160 208/231/166
f 187/210/9 186/209/147 201/232/167
f 187/210/9 202/234/10 203/238/170
f 180/212/148 195/236/169 196/239/171
f 188/215/150 203/238/170 204/240/172
f 182/218/153 181/216/151 196/239/171
f 190/219/154 189/217/152 204/240/172
f 183/220/155 182/218/153 197/241/173
f 202/234/10 217/258/11 218/245/176
f 196/239/171 195/236/169 210/246/177
f 203/238/170 218/245/176 219/248/179
f 196/239/171 211/247/178 212/249/180
f 205/226/161 204/240/172 219/248/179
f 197/241/173 212/249/180 213/251/182
f 205/226/161 220/250/181 221/252/183
f 199/228/163 198/242/174 213/251/182
f 207/229/164 206/227/162 221/252/183
f 199/228/163 214/253/184 215/255/186
f 208/231/166 207/229/164 222/254/185
f 201/232/167 200/230/165 215/255/186
f 208/231/166 223/256/187 224/244/175
f 202/234/10 201/232/167 216/257/188
f 221/252/183 236/275/201 237/260/189
f 214/253/184 229/276/202 230/261/190
f 222/254/185 237/260/189 238/262/191
f 216/257/188 215/255/186 230/261/190
f 224/244/175 223/256/187 238/262/191
f 217/258/11 216/257/188 231/263/192
f 217/258/11 232/265/12 233/269/195
f 210/246/177 225/267/194 226/270/196
f 218/245/176 233/269/195 234/271/197
f 212/249/180 211/247/178 226/270/196
f 220/250/181 219/248/179 234/271/197
f 213/251/182 212/249/180 227/272/198
f 220/250/181 235/273/199 236/275/201
f 213/251/182 228/274/200 229/276/202
f 226/270/196 225/267/194 240/277/203
f 233/269/195 248/293/216 249/279/205
f 227/272/198 226/270/196 241/278/204
f 235/273/199 234/271/197 249/279/205
f 227/272/198 242/280/206 243/282/208
f 235/273/199 250/281/207 251/283/209
f 229/276/202 228/274/200 243/282/208
f 237/260/189 236/275/201 251/283/209
f 229/276/202 244/284/210 245/286/212
f 237/260/189 252/285/211 253/287/213
f 231/263/192 230/261/190 245/286/212
f 238/262/191 253/287/213 254/289/215
f 232/265/12 231/263/192 246/288/214
f 232/265/12 247/290/13 248/293/216
f 245/286/212 244/284/210 259/294/217
f 252/285/211 267/310/230 268/296/219
f 245/286/212 260/295/218 261/297/220
f 253/287/213 268/296/219 269/298/221
f 247/290/13 246/288/214 261/297/220
f 247/290/13 262/299/14 263/303/223
f 241/278/204 240/277/203 255/301/222
f 249/279/205 248/293/216 263/303/223
f 242/280/206 241/278/204 256/304/224
f 249/279/205 264/305/225 265/307/227
f 242/280/206 257/306/226 258/308/228
f 251/283/209 250/281/207 265/307/227
f 243/282/208 258/308/228 259/294/217
f 252/285/211 251/283/209 266/309/229
f 263/303/223 278/326/243 279/311/231
f 256/304/224 271/327/244 272/312/232
f 265/307/227 264/305/225 279/311/231
f 258/308/228 257/306/226 272/312/232
f 265/307/227 280/313/233 281/315/235
f 259/294/217 258/308/228 273/314/234
f 266/309/229 281/315/235 282/317/237
f 259/294/217 274/316/236 275/318/238
f 268/296/219 267/310/230 282/317/237
f 261/297/220 260/295/218 275/318/238
f 269/298/221 268/296/219 283/319/239
f 262/299/14 261/297/220 276/320/240
f 262/299/14 277/322/15 278/326/243
f 255/301/222 270/324/242 271/327/244
f 283/319/239 282/317/237 297/328/245
f 276/320/240 275/318/238 290/330/247
f 284/321/241 283/319/239 298/329/246
f 277/322/15 276/320/240 291/331/248
f 277/322/15 292/333/16 293/337/251
f 270/324/242 285/335/250 286/338/252
f 278/326/243 293/337/251 294/339/253
f 271/327/244 286/338/252 287/340/254
f 280/313/233 279/311/231 294/339/253
f 272/312/232 287/340/254 288/342/256
f 280/313/233 295/341/255 296/343/257
f 274/316/236 273/314/234 288/342/256
f 282/317/237 281/315/235 296/343/257
f 274/316/236 289/344/258 290/330/247
f 287/340/254 286/338/252 301/345/259
f 295/341/255 294/339/253 309/347/261
f 287/340/254 302/346/260 303/349/263
f 295/341/255 310/348/262 311/350/264
f 289/344/258 288/342/256 303/349/263
f 297/328/245 296/343/257 311/350/264
f 289/344/258 304/351/265 305/353/267
f 297/328/245 312/352/266 313/354/268
f 291/331/248 290/330/247 305/353/267
f 299/332/249 298/329/246 313/354/268
f 292/333/16 291/331/248 306/355/269
f 292/333/16 307/357/17 308/361/272
f 285/335/250 300/359/271 301/345/259
f 293/337/251 308/361/272 309/347/261
f 306/355/269 305/353/267 320/362/273
f 313/354/268 328/378/286 329/364/275
f 307/357/17 306/355/269 321/363/274
f 307/357/17 322/365/18 323/369/277
f 301/345/259 300/359/271 315/367/276
f 308/361/272 323/369/277 324/371/279
f 301/345/259 316/370/278 317/372/280
f 310/348/262 309/347/261 324/371/279
f 303/349/263 302/346/260 317/372/280
f 311/350/264 310/348/262 325/373/281
f 303/349/263 318/374/282 319/376/284
f 311/350/264 326/375/283 327/377/285
f 304/351/265 319/376/284 320/362/273
f 313/354/268 312/352/266 327/377/285
f 325/373/281 324/371/279 339/379/287
f 317/372/280 332/395/300 333/381/289
f 326/375/283 325/373/281 340/380/288
f 318/374/282 333/381/289 334/383/291
f 327/377/285 326/375/283 341/382/290
f 319/376/284 334/383/291 335/385/293
f 327/377/285 342/384/292 343/386/294
f 321/363/274 320/362/273 335/385/293
f 329/364/275 328/378/286 343/386/294
f 322/365/18 321/363/274 336/387/295
f 322/365/18 337/389/19 338/393/298
f 315/367/276 330/391/297 331/394/299
f 323/369/277 338/393/298 339/379/287
f 317/372/280 316/370/278 331/394/299
f 343/386/294 358/412/314 359/396/301
f 337/389/19 336/387/295 351/397/302
f 337/389/19 352/398/20 353/402/304
f 331/394/299 330/391/297 345/400/303
f 338/393/298 353/402/304 354/404/306
f 332/395/300 331/394/299 346/403/305
f 340/380/288 339/379/287 354/404/306
f 332/395/300 347/405/307 348/407/309
f 340/380/288 355/406/308 356/408/310
f 334/383/291 333/381/289 348/407/309
f 342/384/292 341/382/290 356/408/310
f 334/383/291 349/409/311 350/411/313
f 342/384/292 357/410/312 358/412/314
f 336/387/295 335/385/293 350/411/313
f 355/406/308 370/429/328 371/413/315
f 349/409/311 348/407/309 363/414/316
f 357/410/312 356/408/310 371/413/315
f 349/409/311 364/415/317 365/417/319
f 358/412/314 357/410/312 372/416/318
f 351/397/302 350/411/313 365/417/319
f 359/396/301 358/412/314 373/418/320
f 352/398/20 351/397/302 366/419/321
f 352/398/20 367/421/21 368/425/324
f 345/400/303 360/423/323 361/426/325
f 353/402/304 368/425/324 369/427/326
f 346/403/305 361/426/325 362/428/327
f 355/406/308 354/404/306 369/427/326
f 347/405/307 362/428/327 363/414/316
f 367/421/21 383/446/22 384/434/331
f 361/426/325 360/423/323 376/431/329
f 368/425/324 384/434/331 385/436/333
f 362/428/327 361/426/325 377/435/332
f 370/429/328 369/427/326 385/436/333
f 362/428/327 378/437/334 379/439/336
f 370/429/328 386/438/335 387/440/337
f 364/415/317 363/414/316 379/439/336
f 372/416/318 371/413/315 387/440/337
f 364/415/317 380/441/338 381/443/340
f 372/416/318 388/442/339 389/444/341
f 366/419/321 365/417/319 381/443/340
f 373/418/320 389/444/341 390/433/330
f 367/421/21 366/419/321 382/445/342
f 380/441/338 379/439/336 394/447/343
f 388/442/339 387/440/337 402/449/345
f 380/441/338 395/448/344 396/451/347
f 388/442/339 403/450/346 404/452/348
f 382/445/342 381/443/340 396/451/347
f 390/433/330 389/444/341 404/452/348
f 383/446/22 382/445/342 397/453/349
f 383/446/22 398/455/23 399/459/352
f 376/431/329 391/457/351 392/460/353
f 384/434/331 399/459/352 400/461/354
f 378/437/334 377/435/332 392/460/353
f 386/438/335 385/436/333 400/461/354
f 378/437/334 393/462/355 394/447/343
f 386/438/335 401/463/356 402/449/345
f 398/455/23 413/477/24 414/464/357
f 391/457/351 406/479/370 407/465/358
f 399/459/352 414/464/357 415/466/359
f 393/462/355 392/460/353 407/465/358
f 401/463/356 400/461/354 415/466/359
f 393/462/355 408/467/360 409/469/362
f 401/463/356 416/468/361 417/470/363
f 395/448/344 394/447/343 409/469/362
f 403/450/346 402/449/345 417/470/363
f 395/448/344 410/471/364 411/473/366
f 403/450/346 418/472/365 419/474/367
f 397/453/349 396/451/347 411/473/366
f 405/454/350 404/452/348 419/474/367
f 398/455/23 397/453/349 412/475/368
f 418/472/365 417/470/363 432/481/371
f 410/471/364 425/497/384 426/483/373
f 419/474/367 418/472/365 433/482/372
f 412/475/368 411/473/366 426/483/373
f 420/476/369 419/474/367 434/484/374
f 413/477/24 412/475/368 427/485/375
f 413/477/24 428/487/25 429/491/378
f 406/479/370 421/489/377 422/492/379
f 414/464/357 429/491/378 430/493/380
f 407/465/358 422/492/379 423/494/381
f 416/468/361 415/466/359 430/493/380
f 408/467/360 423/494/381 424/496/383
f 416/468/361 431/495/382 432/481/371
f 410/471/364 409/469/362 424/496/383
f 422/498/379 421/526/377 436/499/385
f 429/501/378 444/529/398 445/502/387
f 422/498/379 437/500/386 438/504/388
f 431/506/382 430/503/380 445/502/387
f 423/505/381 438/504/388 439/508/390
f 431/506/382 446/507/389 447/510/391
f 425/512/384 424/509/383 439/508/390
f 433/514/372 432/511/371 447/510/391
f 425/512/384 440/513/392 441/516/394
f 434/518/374 433/514/372 448/515/393
f 427/520/375 426/517/373 441/516/394
f 434/518/374 449/519/395 450/522/397
f 428/524/25 427/520/375 442/521/396
f 428/524/25 443/525/26 444/529/398
f 440/513/392 455/546/412 456/530/399
f 449/519/395 448/515/393 463/531/400
f 442/521/396 441/516/394 456/530/399
f 450/522/397 449/519/395 464/532/401
f 443/525/26 442/521/396 457/533/402
f 443/525/26 458/535/27 459/539/405
f 436/499/385 451/537/404 452/540/406
f 444/529/398 459/539/405 460/541/407
f 437/500/386 452/540/406 453/542/408
f 446/507/389 445/502/387 460/541/407
f 438/504/388 453/542/408 454/544/410
f 447/510/391 446/507/389 461/543/409
f 439/508/390 454/544/410 455/546/412
f 448/515/393 447/510/391 462/545/411
f 459/539/405 474/563/426 475/547/413
f 453/542/408 452/540/406 467/548/414
f 461/543/409 460/541/407 475/547/413
f 453/542/408 468/549/415 469/551/417
f 461/543/409 476/550/416 477/552/418
f 455/546/412 454/544/410 469/551/417
f 463/531/400 462/545/411 477/552/418
f 455/546/412 470/553/419 471/555/421
f 463/531/400 478/554/420 479/556/422
f 457/533/402 456/530/399 471/555/421
f 464/532/401 479/556/422 480/558/424
f 458/535/27 457/533/402 472/557/423
f 458/535/27 473/559/28 474/563/426
f 452/540/406 451/537/404 466/561/425
f 478/554/420 493/580/440 494/564/427
f 472/557/423 471/555/421 486/565/428
f 480/558/424 479/556/422 494/564/427
f 473/559/28 472/557/423 487/566/429
f 473/559/28 488/568/29 489/572/432
f 466/561/425 481/570/431 482/573/433
f 474/563/426 489/572/432 490/574/434
f 468/549/415 467/548/414 482/573/433
f 476/550/416 475/547/413 490/574/434
f 469/551/417 468/549/415 483/575/435
f 476/550/416 491/576/436 492/578/438
f 470/553/419 469/551/417 484/577/437
f 477/552/418 492/578/438 493/580/440
f 470/553/419 485/579/439 486/565/428
f 491/576/436 490/574/434 505/581/441
f 483/575/435 498/597/454 499/583/443
f 491/576/436 506/582/442 507/584/444
f 485/579/439 484/577/437 499/583/443
f 493/580/440 492/578/438 507/584/444
f 485/579/439 500/585/445 501/587/447
f 494/564/427 493/580/440 508/586/446
f 487/566/429 486/565/428 501/587/447
f 494/564/427 509/588/448 510/590/450
f 488/568/29 487/566/429 502/589/449
f 488/568/29 503/591/30 504/595/452
f 482/573/433 481/570/431 496/593/451
f 489/572/432 504/595/452 505/581/441
f 482/573/433 497/596/453 498/597/454
f 509/588/448 524/614/468 525/598/455
f 503/591/30 502/589/449 517/599/456
f 503/591/30 518/600/31 519/604/458
f 497/596/453 496/593/451 511/602/457
f 504/595/452 519/604/458 520/606/460
f 498/597/454 497/596/453 512/605/459
f 506/582/442 505/581/441 520/606/460
f 498/597/454 513/607/461 514/609/463
f 506/582/442 521/608/462 522/610/464
f 500/585/445 499/583/443 514/609/463
f 508/586/446 507/584/444 522/610/464
f 500/585/445 515/611/465 516/613/467
f 508/586/446 523/612/466 524/614/468
f 502/589/449 501/587/447 516/613/467
f 513/607/461 528/630/481 529/615/469
f 521/608/462 536/631/482 537/616/470
f 515/611/465 514/609/463 529/615/469
f 523/612/466 522/610/464 537/616/470
f 515/611/465 530/617/471 531/619/473
f 523/612/466 538/618/472 539/620/474
f 517/599/456 516/613/467 531/619/473
f 524/614/468 539/620/474 540/622/476
f 518/600/31 517/599/456 532/621/475
f 518/600/31 533/623/33 534/627/478
f 511/602/457 526/625/477 527/628/479
f 519/604/458 534/627/478 535/629/480
f 513/607/461 512/605/459 527/628/479
f 521/608/462 520/606/460 535/629/480
f 533/623/33 532/621/475 70/106/62
f 533/623/33 71/78/1 72/86/42
f 526/625/477 541/81/39 542/87/43
f 534/627/478 72/86/42 545/89/45
f 528/630/481 527/628/479 542/87/43
f 535/629/480 545/89/45 73/94/50
f 529/615/469 528/630/481 68/91/47
f 536/631/482 73/94/50 546/97/53
f 530/617/471 529/615/469 543/95/51
f 538/618/472 537/616/470 546/97/53
f 531/619/473 530/617/471 69/100/56
f 538/618/472 547/102/58 548/75/35
f 532/621/475 531/619/473 544/103/59
f 540/622/476 539/620/474 548/75/35
