# Blender 4.1.1
# www.blender.org
mtllib cube.mtl
o 立方体
v 0.000000 0.110162 -1.000000
v 0.110162 -0.000000 -1.000000
v -0.000000 -0.110162 -1.000000
v -0.110162 0.000000 -1.000000
v 0.055081 0.055081 -1.000000
v 0.000000 0.000000 -1.000000
v 0.055081 -0.055081 -1.000000
v -0.055081 -0.055081 -1.000000
v -0.055081 0.055081 -1.000000
v 0.889838 -1.000000 -1.000000
v -0.851598 0.741436 -1.000000
v -0.741436 0.851598 -1.000000
v -0.851598 0.851598 -1.000000
v -0.741436 -0.851598 -1.000000
v -0.851598 -0.741436 -1.000000
v -0.851598 -0.851598 -1.000000
v 0.851598 -0.741436 -1.000000
v 0.741436 -0.851598 -1.000000
v 0.851598 -0.851598 -1.000000
v 0.741436 0.851598 -1.000000
v 0.851598 0.741436 -1.000000
v 0.851598 0.851598 -1.000000
v -1.000000 -0.889838 1.000000
v -0.889838 -1.000000 1.000000
v -1.000000 0.889838 1.000000
v 0.000000 0.110162 1.000000
v 0.110162 -0.000000 1.000000
v -0.000000 -0.110162 1.000000
v -0.110162 0.000000 1.000000
v 0.055081 0.055081 1.000000
v 0.000000 0.000000 1.000000
v 0.055081 -0.055081 1.000000
v -0.055081 -0.055081 1.000000
v -0.055081 0.055081 1.000000
v 0.889838 -1.000000 1.000000
v 1.000000 -0.889838 1.000000
v 1.000000 0.889838 1.000000
v -0.851598 0.741436 1.000000
v -0.741436 0.851598 1.000000
v -0.851598 0.851598 1.000000
v -0.741436 -0.851598 1.000000
v -0.851598 -0.741436 1.000000
v -0.851598 -0.851598 1.000000
v 0.851598 -0.741436 1.000000
v 0.741436 -0.851598 1.000000
v 0.851598 -0.851598 1.000000
v 0.741436 0.851598 1.000000
v 0.851598 0.741436 1.000000
v 0.851598 0.851598 1.000000
v -1.000000 -1.000000 1.000000
v -0.889838 -1.000000 -1.000000
v 0.000000 -1.000000 -0.110162
v 0.110162 -1.000000 -0.000000
v -0.000000 -1.000000 0.110162
v -0.110162 -1.000000 -0.000000
v 0.055081 -1.000000 -0.055081
v 0.000000 -1.000000 -0.000000
v 0.055081 -1.000000 0.055081
v -0.055081 -1.000000 0.055081
v -0.055081 -1.000000 -0.055081
v 1.000000 -1.000000 0.889838
v 1.000000 -1.000000 1.000000
v 1.000000 -1.000000 -0.889838
v 1.000000 -1.000000 -1.000000
v -0.851598 -1.000000 -0.741436
v -0.741436 -1.000000 -0.851599
v -0.851598 -1.000000 -0.851599
v -0.741436 -1.000000 0.851598
v -0.851598 -1.000000 0.741436
v -0.851598 -1.000000 0.851598
v 0.851598 -1.000000 0.741436
v 0.741436 -1.000000 0.851598
v 0.851598 -1.000000 0.851598
v 0.741436 -1.000000 -0.851599
v 0.851598 -1.000000 -0.741436
v 0.851598 -1.000000 -0.851599
v -0.889838 1.000000 1.000000
v -0.889838 1.000000 -1.000000
v 0.000000 1.000000 -0.110162
v 0.110162 1.000000 0.000000
v -0.000000 1.000000 0.110162
v -0.110162 1.000000 0.000000
v 0.055081 1.000000 -0.055081
v 0.000000 1.000000 0.000000
v 0.055081 1.000000 0.055081
v -0.055081 1.000000 0.055081
v -0.055081 1.000000 -0.055081
v 0.889838 1.000000 1.000000
v 1.000000 1.000000 0.889838
v 1.000000 1.000000 1.000000
v 1.000000 1.000000 -0.889838
v 0.889838 1.000000 -1.000000
v -0.851598 1.000000 -0.741436
v -0.741436 1.000000 -0.851598
v -0.851598 1.000000 -0.851598
v -0.741436 1.000000 0.851599
v -0.851598 1.000000 0.741436
v -0.851598 1.000000 0.851599
v 0.851598 1.000000 0.741436
v 0.741436 1.000000 0.851599
v 0.851598 1.000000 0.851599
v 0.741436 1.000000 -0.851598
v 0.851598 1.000000 -0.741436
v 0.851598 1.000000 -0.851598
v -1.000000 1.000000 0.889838
v -1.000000 1.000000 1.000000
v -1.000000 0.889837 -1.000000
v -1.000001 1.000000 -0.889837
v -1.000001 1.000000 -1.000000
v -1.000000 -0.000000 -0.110162
v -1.000000 -0.110163 0.000000
v -1.000000 -0.000000 0.110163
v -1.000000 0.110162 0.000000
v -1.000000 -0.055081 -0.055081
v -1.000000 -0.000000 0.000000
v -1.000000 -0.055081 0.055082
v -1.000000 0.055081 0.055082
v -1.000000 0.055081 -0.055081
v -1.000000 -1.000000 0.889838
v -1.000000 -1.000000 -0.889837
v -1.000000 -0.889838 -1.000000
v -1.000000 -1.000000 -1.000000
v -1.000000 0.851598 -0.741436
v -1.000000 0.741436 -0.851598
v -1.000000 0.851598 -0.851598
v -1.000000 0.741436 0.851599
v -1.000000 0.851598 0.741436
v -1.000000 0.851598 0.851599
v -1.000000 -0.851599 0.741436
v -1.000000 -0.741436 0.851599
v -1.000000 -0.851599 0.851599
v -1.000000 -0.741436 -0.851598
v -1.000000 -0.851599 -0.741436
v -1.000000 -0.851599 -0.851598
v 0.999999 0.889838 -1.000000
v 0.999999 1.000000 -1.000000
v 1.000000 0.000000 -0.110163
v 1.000000 -0.110162 -0.000000
v 1.000000 0.000000 0.110162
v 1.000000 0.110163 -0.000000
v 1.000000 -0.055081 -0.055082
v 1.000000 0.000000 -0.000000
v 1.000000 -0.055081 0.055081
v 1.000000 0.055081 0.055081
v 1.000000 0.055081 -0.055082
v 1.000000 -0.889837 -1.000000
v 1.000000 0.851599 -0.741436
v 1.000000 0.741436 -0.851599
v 1.000000 0.851599 -0.851599
v 1.000000 0.741436 0.851598
v 1.000000 0.851599 0.741436
v 1.000000 0.851599 0.851598
v 1.000000 -0.851598 0.741436
v 1.000000 -0.741436 0.851598
v 1.000000 -0.851598 0.851598
v 1.000000 -0.741436 -0.851599
v 1.000000 -0.851598 -0.741436
v 1.000000 -0.851598 -0.851599
v -0.741436 0.851598 -0.950716
v 0.000000 0.110162 -0.950716
v -0.110162 0.000000 -0.950716
v -0.851598 0.741436 -0.950716
v 0.741436 -0.851598 -0.950716
v -0.000000 -0.110162 -0.950716
v 0.110162 -0.000000 -0.950716
v 0.851598 -0.741436 -0.950716
v -0.851598 -0.741436 -0.950716
v -0.741436 -0.851598 -0.950716
v 0.741436 0.851598 -0.950716
v 0.851598 0.741436 -0.950716
v -0.741436 0.851598 0.950716
v 0.000000 0.110162 0.950716
v -0.110162 0.000000 0.950716
v -0.851598 0.741436 0.950716
v 0.741436 -0.851598 0.950716
v -0.000000 -0.110162 0.950716
v 0.110162 -0.000000 0.950716
v 0.851598 -0.741436 0.950716
v -0.851598 -0.741436 0.950716
v -0.741436 -0.851598 0.950716
v 0.741436 0.851598 0.950716
v 0.851598 0.741436 0.950716
v -0.741436 -0.950716 -0.851599
v 0.000000 -0.950716 -0.110162
v -0.110162 -0.950716 -0.000000
v -0.851598 -0.950716 -0.741436
v 0.741436 -0.950716 0.851598
v -0.000000 -0.950716 0.110162
v 0.110162 -0.950716 -0.000000
v 0.851598 -0.950716 0.741436
v -0.851598 -0.950716 0.741436
v -0.741436 -0.950716 0.851598
v 0.741436 -0.950716 -0.851599
v 0.851598 -0.950716 -0.741436
v -0.741436 0.950716 -0.851598
v 0.000000 0.950716 -0.110162
v -0.110162 0.950716 0.000000
v -0.851598 0.950716 -0.741436
v 0.741436 0.950716 0.851599
v -0.000000 0.950716 0.110162
v 0.110162 0.950716 0.000000
v 0.851598 0.950716 0.741436
v -0.851598 0.950716 0.741436
v -0.741436 0.950716 0.851599
v 0.741436 0.950716 -0.851598
v 0.851598 0.950716 -0.741436
v -0.950716 0.741436 -0.851598
v -0.950716 -0.000000 -0.110162
v -0.950716 0.110162 0.000000
v -0.950716 0.851598 -0.741436
v -0.950715 -0.741436 0.851599
v -0.950716 -0.000000 0.110163
v -0.950716 -0.110163 0.000000
v -0.950715 -0.851599 0.741436
v -0.950715 0.851598 0.741436
v -0.950715 0.741436 0.851599
v -0.950716 -0.741436 -0.851598
v -0.950716 -0.851599 -0.741436
v 0.950715 0.741436 -0.851599
v 0.950716 0.000000 -0.110163
v 0.950716 0.110163 -0.000000
v 0.950715 0.851599 -0.741436
v 0.950716 -0.741436 0.851598
v 0.950716 0.000000 0.110162
v 0.950716 -0.110162 -0.000000
v 0.950716 -0.851598 0.741436
v 0.950716 0.851599 0.741436
v 0.950716 0.741436 0.851598
v 0.950715 -0.741436 -0.851599
v 0.950715 -0.851598 -0.741436
v -0.741436 0.851598 -0.950716
v 0.000000 0.110162 -0.950716
v -0.110162 0.000000 -0.950716
v -0.851598 0.741436 -0.950716
v 0.741436 -0.851598 -0.950716
v -0.000000 -0.110162 -0.950716
v 0.110162 -0.000000 -0.950716
v 0.851598 -0.741436 -0.950716
v -0.851598 -0.741436 -0.950716
v -0.741436 -0.851598 -0.950716
v 0.741436 0.851598 -0.950716
v 0.851598 0.741436 -0.950716
v -0.741436 0.851598 0.950716
v 0.000000 0.110162 0.950716
v -0.110162 0.000000 0.950716
v -0.851598 0.741436 0.950716
v 0.741436 -0.851598 0.950716
v -0.000000 -0.110162 0.950716
v 0.110162 -0.000000 0.950716
v 0.851598 -0.741436 0.950716
v -0.851598 -0.741436 0.950716
v -0.741436 -0.851598 0.950716
v 0.741436 0.851598 0.950716
v 0.851598 0.741436 0.950716
v -0.741436 -0.950716 -0.851599
v 0.000000 -0.950716 -0.110162
v -0.110162 -0.950716 -0.000000
v -0.851598 -0.950716 -0.741436
v 0.741436 -0.950716 0.851598
v -0.000000 -0.950716 0.110162
v 0.110162 -0.950716 -0.000000
v 0.851598 -0.950716 0.741436
v -0.851598 -0.950716 0.741436
v -0.741436 -0.950716 0.851598
v 0.741436 -0.950716 -0.851599
v 0.851598 -0.950716 -0.741436
v -0.741436 0.950716 -0.851598
v 0.000000 0.950716 -0.110162
v -0.110162 0.950716 0.000000
v -0.851598 0.950716 -0.741436
v 0.741436 0.950716 0.851599
v -0.000000 0.950716 0.110162
v 0.110162 0.950716 0.000000
v 0.851598 0.950716 0.741436
v -0.851598 0.950716 0.741436
v -0.741436 0.950716 0.851599
v 0.741436 0.950716 -0.851598
v 0.851598 0.950716 -0.741436
v -0.950716 0.741436 -0.851598
v -0.950716 -0.000000 -0.110162
v -0.950716 0.110162 0.000000
v -0.950716 0.851598 -0.741436
v -0.950715 -0.741436 0.851599
v -0.950716 -0.000000 0.110163
v -0.950716 -0.110163 0.000000
v -0.950715 -0.851599 0.741436
v -0.950715 0.851598 0.741436
v -0.950715 0.741436 0.851599
v -0.950716 -0.741436 -0.851598
v -0.950716 -0.851599 -0.741436
v 0.950715 0.741436 -0.851599
v 0.950716 0.000000 -0.110163
v 0.950716 0.110163 -0.000000
v 0.950715 0.851599 -0.741436
v 0.950716 -0.741436 0.851598
v 0.950716 0.000000 0.110162
v 0.950716 -0.110162 -0.000000
v 0.950716 -0.851598 0.741436
v 0.950716 0.851599 0.741436
v 0.950716 0.741436 0.851598
v 0.950715 -0.741436 -0.851599
v 0.950715 -0.851598 -0.741436
vn -0.0000 -1.0000 -0.0000
vn -0.7071 -0.0000 -0.7071
vn 0.7071 -0.7071 -0.0000
vn -0.0000 -0.0000 -1.0000
vn -0.0000 1.0000 -0.0000
vn 0.7071 -0.0000 -0.7071
vn 0.7071 0.7071 -0.0000
vn -0.0000 -0.7071 0.7071
vn -0.0000 -0.0000 1.0000
vn -0.7071 0.7071 -0.0000
vn 1.0000 -0.0000 -0.0000
vn 0.7071 -0.0000 0.7071
vn -0.7071 -0.0000 0.7071
vn -1.0000 -0.0000 -0.0000
vn -0.0000 0.7071 -0.7071
vn -0.7071 -0.7071 -0.0000
vn -0.0000 -0.7071 -0.7071
vn -0.0000 0.7071 0.7071
vt 0.149042 0.515021
vt 0.129025 0.580091
vt 0.137250 0.575411
vt 0.141922 0.592604
vt 0.129155 0.606919
vt 0.129980 0.625045
vt 0.079114 0.455249
vt 0.046710 0.517169
vt 0.055145 0.522007
vt 0.113117 0.480510
vt 0.109678 0.586863
vt 0.105291 0.559839
vt 0.108235 0.560095
vt 0.066954 0.538630
vt 0.050646 0.197386
vt 0.105286 0.491136
vt 0.118252 0.464849
vt 0.175964 0.801514
vt 0.186736 0.596973
vt 0.170294 0.592779
vt 0.078000 0.433628
vt 0.075276 0.424158
vt 0.064403 0.417489
vt 0.079745 0.449980
vt 0.081110 0.452993
vt 0.076683 0.435956
vt 0.085096 0.418019
vt 0.035179 0.171591
vt 0.025647 0.196395
vt 0.108932 0.570609
vt 0.038791 0.511400
vt 0.050889 0.525724
vt 0.043286 0.128743
vt 0.026526 0.079949
vt 0.019211 0.114891
vt 0.054526 0.548118
vt 0.113054 0.582126
vt 0.108289 0.492762
vt 0.112967 0.479187
vt 0.106370 0.492385
vt 0.127742 0.658636
vt 0.195395 0.793209
vt 0.196968 0.814351
vt 0.156132 0.608834
vt 0.153219 0.525238
vt 0.160679 0.666016
vt 0.078720 0.632927
vt 0.098387 0.619440
vt 0.180666 0.893236
vt 0.133394 0.588731
vt 0.163559 0.819632
vt 0.153005 0.576450
vt 0.142513 0.563657
vt 0.116142 0.385718
vt 0.061137 0.459279
vt 0.137048 0.364535
vt 0.155512 0.612910
vt 0.157181 0.625383
vt 0.158121 0.634049
vt 0.167787 0.639424
vt 0.156434 0.624851
vt 0.149420 0.639769
vt 0.153945 0.609169
vt 0.146982 0.516879
vt 0.147121 0.505843
vt 0.172236 0.831062
vt 0.164958 0.580682
vt 0.163303 0.582373
vt 0.138663 0.576091
vt 0.147658 0.490324
vt 0.145191 0.494060
vt 0.148070 0.494747
vt 0.157297 0.572414
vt 0.155711 0.573766
vt 0.184105 0.838975
vt 0.190850 0.872092
vt 0.148226 0.566945
vt 0.145736 0.565246
vt 0.105937 0.400006
vt 0.145208 0.527751
vt 0.087366 0.540696
vt 0.159890 0.503018
vt 0.174716 0.479341
vt 0.131303 0.600656
vt 0.208633 0.887787
vt 0.179424 0.800447
vt 0.138002 0.602524
vt 0.081491 0.559093
vt 0.121614 0.590218
vt 0.153411 0.472666
vt 0.114827 0.443718
vt 0.114156 0.424703
vt 0.131734 0.643135
vt 0.129753 0.631167
vt 0.126093 0.629665
vt 0.136354 0.649666
vt 0.134841 0.641170
vt 0.148832 0.651807
vt 0.078972 0.553586
vt 0.087130 0.563671
vt 0.193321 0.827019
vt 0.145169 0.589941
vt 0.064090 0.545730
vt 0.071011 0.548507
vt 0.156238 0.573858
vt 0.108395 0.586610
vt 0.120860 0.591447
vt 0.110236 0.584654
vt 0.168657 0.781737
vt 0.173068 0.660110
vt 0.099662 0.549272
vt 0.149655 0.601220
vt 0.146513 0.566867
vt 0.095204 0.478213
vt 0.139442 0.538925
vt 0.136004 0.538624
vt 0.057272 0.165144
vt 0.083165 0.464332
vt 0.096336 0.573351
vt 0.105045 0.393547
vt 0.108585 0.405428
vt 0.112482 0.420584
vt 0.113028 0.425490
vt 0.108533 0.403411
vt 0.091229 0.387065
vt 0.067894 0.126620
vt 0.055286 0.117660
vt 0.140393 0.550277
vt 0.161876 0.456838
vt 0.155320 0.474531
vt 0.094435 0.478235
vt 0.021525 0.018236
vt 0.150280 0.497067
vt 0.105346 0.491447
vt 0.083265 0.568578
vt 0.104297 0.601459
vt 0.140876 0.615286
vt 0.139835 0.632877
vt 0.183006 0.442969
vt 0.152108 0.546313
vt 0.137438 0.484111
vt 0.018508 0.124948
vt 0.052937 0.533509
vt 0.213621 0.440093
vt 0.048474 0.537724
vt 0.196095 0.459691
vt 0.202268 0.421738
vt 0.173129 0.461337
vt 0.175530 0.427941
vt 0.169818 0.454154
vt 0.190838 0.397541
vt 0.018334 0.095402
vt 0.032426 0.119043
vt 0.157665 0.549727
vt 0.154753 0.558354
vt 0.122804 0.476925
vt 0.134657 0.485517
vt 0.063867 0.545165
vt 0.170403 0.595118
vt 0.109688 0.693831
vt 0.132284 0.670881
vt 0.083953 0.471610
vt 0.208755 0.906595
vt 0.186637 0.910470
vt 0.114198 0.519788
vt 0.130767 0.479396
vt 0.139805 0.636964
vt 0.144512 0.651860
vt 0.144804 0.659763
vt 0.141480 0.651750
vt 0.138160 0.632357
vt 0.111864 0.519267
vt 0.110473 0.507830
vt 0.212615 0.982672
vt 0.156989 0.580524
vt 0.158441 0.580764
vt 0.103673 0.602665
vt 0.147479 0.595530
vt 0.136856 0.455409
vt 0.084850 0.474948
vt 0.156973 0.799225
vt 0.110127 0.531772
vt 0.178952 0.781892
vt 0.193913 0.600447
vt 0.122034 0.613540
vt 0.095946 0.607824
vt 0.129948 0.589954
vt 0.019266 0.121224
vt 0.222991 0.439164
vt 0.079681 0.469500
vt 0.120419 0.530767
vt 0.188091 0.652858
vt 0.195141 0.881689
vt 0.018334 0.504354
vt 0.174012 0.583122
vt 0.200778 0.361908
vt 0.042365 0.149758
vt 0.111352 0.549389
vt 0.130484 0.615986
vt 0.113739 0.678460
vt 0.059593 0.220743
vt 0.054516 0.191591
vt 0.171251 0.468161
vt 0.121229 0.474781
vt 0.189807 0.882119
vt 0.132682 0.655221
vt 0.081059 0.153483
vt 0.098189 0.482828
vt 0.159391 0.593683
vt 0.161242 0.464554
vt 0.061168 0.372719
vt 0.147924 0.527657
vt 0.040284 0.402571
vt 0.190299 0.678997
vt 0.162033 0.540795
vt 0.128391 0.528077
vt 0.167174 0.583680
vt 0.116711 0.596195
vt 0.141271 0.526263
vt 0.021173 0.221516
vt 0.106355 0.534958
vt 0.116340 0.619842
vt 0.120789 0.442117
vt 0.133148 0.601669
vt 0.828146 0.386770
vt 0.828146 0.208740
vt 0.917161 0.297755
vt 0.496809 0.839051
vt 0.496809 0.661021
vt 0.585824 0.750036
vt 0.790351 0.196534
vt 0.790351 0.018505
vt 0.879366 0.107520
vt 0.190235 0.018505
vt 0.190235 0.196534
vt 0.101220 0.107520
vt 0.280117 0.192362
vt 0.369132 0.281377
vt 0.280117 0.370392
vt 0.791177 0.424565
vt 0.702162 0.335550
vt 0.791177 0.246535
vt 0.270038 0.431731
vt 0.359053 0.520746
vt 0.270038 0.609761
vt 0.563580 0.018505
vt 0.652595 0.107520
vt 0.563580 0.196534
vt 0.621533 0.713067
vt 0.621533 0.535038
vt 0.710548 0.624053
vt 0.382164 0.725666
vt 0.382164 0.547636
vt 0.471179 0.636651
vt 0.571139 0.433384
vt 0.571139 0.255354
vt 0.660154 0.344369
vt 0.225944 0.196534
vt 0.225944 0.018505
vt 0.314959 0.107520
vt 0.394762 0.305747
vt 0.483777 0.394762
vt 0.394762 0.483777
vt 0.684525 0.369999
vt 0.773539 0.459014
vt 0.684525 0.548029
vt 0.018071 0.708895
vt 0.107086 0.797910
vt 0.018071 0.886925
vt 0.457754 0.140709
vt 0.546769 0.229724
vt 0.457754 0.318739
vt 0.347812 0.766078
vt 0.473698 0.891964
vt 0.347812 0.891964
vt 0.351928 0.196534
vt 0.351928 0.018505
vt 0.440943 0.107520
vt 0.237283 0.826453
vt 0.237283 0.648423
vt 0.326298 0.737438
vt 0.676966 0.311180
vt 0.676966 0.133150
vt 0.765980 0.222165
vt 0.736178 0.648423
vt 0.825193 0.737438
vt 0.736178 0.826453
vt 0.800430 0.482124
vt 0.889444 0.571139
vt 0.800430 0.660154
vt 0.733225 0.904562
vt 0.607339 0.904562
vt 0.607339 0.778676
vt 0.508147 0.420392
vt 0.597162 0.509407
vt 0.508147 0.598422
vt 0.077426 0.435930
vt 0.156812 0.624298
vt 0.133171 0.641285
vt 0.108661 0.405743
vt 0.186756 0.442677
vt 0.142650 0.650084
s 0
usemtl マテリアル
f 39/1/1 181/2/1 47/3/1
f 69/4/2 185/5/2 55/6/2
f 3/7/3 168/8/3 14/9/3
f 21/10/4 146/11/4 17/12/4
f 18/13/4 51/14/4 14/9/4
f 12/15/4 92/16/4 20/17/4
f 45/18/5 180/19/5 41/20/5
f 5/21/4 9/22/4 1/23/4
f 7/24/4 5/21/4 2/25/4
f 8/26/4 7/24/4 3/7/4
f 9/22/4 8/26/4 4/27/4
f 12/15/4 9/22/4 13/28/4
f 9/22/4 11/29/4 13/28/4
f 18/13/4 7/24/4 19/30/4
f 7/24/4 17/12/4 19/30/4
f 15/31/4 8/26/4 16/32/4
f 8/26/4 14/9/4 16/32/4
f 20/17/4 5/21/4 1/23/4
f 5/21/4 21/10/4 2/25/4
f 78/33/4 13/28/4 109/34/4
f 13/28/4 107/35/4 109/34/4
f 51/14/4 16/32/4 14/9/4
f 16/32/4 121/36/4 15/31/4
f 146/11/4 19/30/4 17/12/4
f 19/30/4 10/37/4 18/13/4
f 135/38/4 22/39/4 136/40/4
f 22/39/4 92/16/4 136/40/4
f 15/31/4 107/35/4 11/29/4
f 53/41/6 190/42/6 71/43/6
f 26/44/7 171/45/7 39/1/7
f 138/46/8 230/47/8 157/48/8
f 36/49/9 48/50/9 44/51/9
f 24/52/9 45/18/9 41/20/9
f 88/53/9 39/1/9 47/3/9
f 79/54/2 205/55/2 196/56/2
f 34/57/9 30/58/9 26/44/9
f 30/58/9 32/59/9 27/60/9
f 32/59/9 33/61/9 28/62/9
f 33/61/9 34/57/9 29/63/9
f 39/1/9 34/57/9 26/44/9
f 38/64/9 34/57/9 40/65/9
f 45/18/9 32/59/9 28/62/9
f 44/51/9 32/59/9 46/66/9
f 42/67/9 33/61/9 29/63/9
f 41/20/9 33/61/9 43/68/9
f 30/58/9 47/3/9 26/44/9
f 30/58/9 48/50/9 49/69/9
f 77/70/9 40/65/9 39/1/9
f 25/71/9 40/65/9 106/72/9
f 43/68/9 24/52/9 41/20/9
f 43/68/9 23/73/9 50/74/9
f 46/66/9 36/49/9 44/51/9
f 46/66/9 35/75/9 62/76/9
f 37/77/9 49/69/9 48/50/9
f 88/53/9 49/69/9 90/78/9
f 25/71/9 42/67/9 38/64/9
f 15/31/10 161/79/10 4/27/10
f 42/67/11 174/80/11 38/64/11
f 133/81/8 213/82/8 111/83/8
f 75/84/1 61/85/1 71/43/1
f 72/86/1 24/52/1 68/87/1
f 66/88/1 10/37/1 74/89/1
f 96/90/12 200/91/12 81/92/12
f 56/93/1 60/94/1 52/95/1
f 58/96/1 56/93/1 53/41/1
f 59/97/1 58/96/1 54/98/1
f 60/94/1 59/97/1 55/6/1
f 66/88/1 60/94/1 67/99/1
f 60/94/1 65/100/1 67/99/1
f 72/86/1 58/96/1 73/101/1
f 58/96/1 71/43/1 73/101/1
f 69/4/1 59/97/1 70/102/1
f 59/97/1 68/87/1 70/102/1
f 74/89/1 56/93/1 52/95/1
f 56/93/1 75/84/1 53/41/1
f 51/14/1 67/99/1 122/103/1
f 67/99/1 120/104/1 122/103/1
f 24/52/1 70/102/1 68/87/1
f 70/102/1 119/105/1 69/4/1
f 61/85/1 73/101/1 71/43/1
f 73/101/1 35/75/1 72/86/1
f 63/106/1 76/107/1 64/108/1
f 76/107/1 10/37/1 64/108/1
f 69/4/1 120/104/1 65/100/1
f 54/98/13 187/109/13 188/110/13
f 2/25/7 166/111/7 17/12/7
f 71/43/14 194/112/14 75/84/14
f 89/113/5 103/114/5 99/115/5
f 77/70/5 100/116/5 96/90/5
f 92/16/5 94/117/5 102/118/5
f 55/6/13 186/119/13 65/100/13
f 87/120/5 83/121/5 79/54/5
f 83/121/5 85/122/5 80/123/5
f 85/122/5 86/124/5 81/92/5
f 86/124/5 87/120/5 82/125/5
f 94/117/5 87/120/5 79/54/5
f 93/126/5 87/120/5 95/127/5
f 100/116/5 85/122/5 81/92/5
f 99/115/5 85/122/5 101/128/5
f 97/129/5 86/124/5 82/125/5
f 96/90/5 86/124/5 98/130/5
f 83/121/5 102/118/5 79/54/5
f 83/121/5 103/114/5 104/131/5
f 78/33/5 95/127/5 94/117/5
f 108/132/5 95/127/5 109/34/5
f 98/130/5 77/70/5 96/90/5
f 98/130/5 105/133/5 106/72/5
f 101/128/5 89/113/5 99/115/5
f 101/128/5 88/53/5 90/78/5
f 91/134/5 104/131/5 103/114/5
f 92/16/5 104/131/5 136/40/5
f 108/132/5 97/129/5 93/126/5
f 74/89/9 183/135/9 66/88/9
f 156/136/15 220/137/15 137/138/15
f 82/125/2 203/139/2 97/129/2
f 133/81/14 119/105/14 129/140/14
f 126/141/14 23/73/14 25/71/14
f 124/142/14 121/36/14 132/143/14
f 110/144/15 217/145/15 132/143/15
f 114/146/14 118/147/14 110/144/14
f 116/148/14 114/146/14 111/83/14
f 117/149/14 116/148/14 112/150/14
f 118/147/14 117/149/14 113/151/14
f 124/142/14 118/147/14 125/152/14
f 118/147/14 123/153/14 125/152/14
f 130/154/14 116/148/14 131/155/14
f 116/148/14 129/140/14 131/155/14
f 127/156/14 117/149/14 128/157/14
f 117/149/14 126/141/14 128/157/14
f 132/143/14 114/146/14 110/144/14
f 114/146/14 133/81/14 111/83/14
f 107/35/14 125/152/14 109/34/14
f 125/152/14 108/132/14 109/34/14
f 25/71/14 128/157/14 126/141/14
f 128/157/14 105/133/14 127/156/14
f 119/105/14 131/155/14 129/140/14
f 131/155/14 23/73/14 130/154/14
f 120/104/14 134/158/14 122/103/14
f 134/158/14 121/36/14 122/103/14
f 127/156/14 108/132/14 123/153/14
f 68/87/4 187/109/4 72/86/4
f 150/159/8 224/160/8 139/161/8
f 18/13/16 164/162/16 3/7/16
f 153/163/11 63/106/11 157/48/11
f 37/77/11 154/164/11 150/159/11
f 146/11/11 148/165/11 156/136/11
f 112/150/8 216/166/8 126/141/8
f 145/167/11 141/168/11 137/138/11
f 141/168/11 143/169/11 138/46/11
f 143/169/11 144/170/11 139/161/11
f 144/170/11 145/167/11 140/171/11
f 148/165/11 145/167/11 137/138/11
f 147/172/11 145/167/11 149/173/11
f 154/164/11 143/169/11 139/161/11
f 153/163/11 143/169/11 155/174/11
f 151/175/11 144/170/11 140/171/11
f 150/159/11 144/170/11 152/176/11
f 141/168/11 156/136/11 137/138/11
f 141/168/11 157/48/11 158/177/11
f 135/38/11 149/173/11 148/165/11
f 91/134/11 149/173/11 136/40/11
f 152/176/11 37/77/11 150/159/11
f 152/176/11 89/113/11 90/78/11
f 155/174/11 61/85/11 153/163/11
f 155/174/11 36/49/11 62/76/11
f 63/106/11 158/177/11 157/48/11
f 146/11/11 158/177/11 64/108/11
f 91/134/11 151/175/11 147/172/11
f 38/64/16 173/178/16 29/63/16
f 1/23/10 169/179/10 20/17/10
f 80/123/12 206/180/12 103/114/12
f 48/50/14 178/181/14 44/51/14
f 151/175/1 222/182/1 147/172/1
f 28/62/16 175/183/16 45/18/16
f 154/164/4 228/184/4 150/159/4
f 54/98/12 192/185/12 68/87/12
f 148/165/9 229/186/9 156/136/9
f 52/95/2 193/187/2 74/89/2
f 110/144/17 207/188/17 208/189/17
f 21/10/3 165/190/3 2/25/3
f 148/165/17 220/137/17 219/191/17
f 44/51/7 177/192/7 27/60/7
f 157/48/5 226/193/5 153/163/5
f 11/29/11 167/194/11 15/31/11
f 29/63/10 179/195/10 42/67/10
f 123/153/18 209/196/18 210/197/18
f 14/9/5 163/198/5 18/13/5
f 147/172/18 221/199/18 140/171/18
f 75/84/12 189/200/12 53/41/12
f 20/17/1 159/201/1 12/15/1
f 79/54/6 195/202/6 94/117/6
f 130/154/18 212/203/18 112/150/18
f 17/12/14 170/204/14 21/10/14
f 139/161/18 223/205/18 154/164/18
f 41/20/3 176/206/3 28/62/3
f 97/129/11 198/207/11 93/126/11
f 123/153/1 215/208/1 127/156/1
f 47/3/10 172/209/10 26/44/10
f 100/116/4 204/210/4 96/90/4
f 93/126/13 197/211/13 82/125/13
f 129/140/17 213/82/17 214/212/17
f 12/15/7 160/213/7 1/23/7
f 153/163/17 225/214/17 138/46/17
f 126/141/4 211/215/4 130/154/4
f 94/117/9 205/55/9 102/118/9
f 81/92/13 199/216/13 100/116/13
f 132/143/9 207/188/9 124/142/9
f 127/156/15 209/196/15 113/151/15
f 140/171/15 227/217/15 151/175/15
f 27/60/3 182/218/3 48/50/3
f 103/114/14 202/219/14 99/115/14
f 4/27/16 162/220/16 11/29/16
f 129/140/5 218/221/5 133/81/5
f 66/88/6 184/222/6 52/95/6
f 99/115/6 201/223/6 80/123/6
f 65/100/11 191/224/11 69/4/11
f 235/225/4 240/226/4 236/227/4
f 242/228/4 238/229/4 237/230/4
f 231/231/4 241/232/4 232/233/4
f 239/234/4 234/235/4 233/236/4
f 247/237/9 248/238/9 252/239/9
f 254/240/9 249/241/9 250/242/9
f 243/243/9 244/244/9 253/245/9
f 251/246/9 245/247/9 246/248/9
f 259/249/1 264/250/1 260/251/1
f 266/252/1 262/253/1 261/254/1
f 255/255/1 265/256/1 256/257/1
f 263/258/1 258/259/1 257/260/1
f 271/261/5 272/262/5 276/263/5
f 278/264/5 273/265/5 274/266/5
f 267/267/5 268/268/5 277/269/5
f 275/270/5 269/271/5 270/272/5
f 283/273/14 288/274/14 284/275/14
f 290/276/14 286/277/14 285/278/14
f 279/279/14 289/280/14 280/281/14
f 287/282/14 282/283/14 281/284/14
f 295/285/11 296/286/11 300/287/11
f 302/288/11 297/289/11 298/290/11
f 291/291/11 292/292/11 301/293/11
f 299/294/11 293/295/11 294/296/11
f 39/1/1 171/45/1 181/2/1
f 69/4/2 191/224/2 185/5/2
f 3/7/3 164/162/3 168/8/3
f 21/10/4 135/38/4 146/11/4
f 18/13/4 10/37/4 51/14/4
f 12/15/4 78/33/4 92/16/4
f 45/18/5 175/183/5 180/19/5
f 5/21/4 6/297/4 9/22/4
f 7/24/4 6/297/4 5/21/4
f 8/26/4 6/297/4 7/24/4
f 9/22/4 6/297/4 8/26/4
f 12/15/4 1/23/4 9/22/4
f 9/22/4 4/27/4 11/29/4
f 18/13/4 3/7/4 7/24/4
f 7/24/4 2/25/4 17/12/4
f 15/31/4 4/27/4 8/26/4
f 8/26/4 3/7/4 14/9/4
f 20/17/4 22/39/4 5/21/4
f 5/21/4 22/39/4 21/10/4
f 78/33/4 12/15/4 13/28/4
f 13/28/4 11/29/4 107/35/4
f 51/14/4 122/103/4 16/32/4
f 16/32/4 122/103/4 121/36/4
f 146/11/4 64/108/4 19/30/4
f 19/30/4 64/108/4 10/37/4
f 135/38/4 21/10/4 22/39/4
f 22/39/4 20/17/4 92/16/4
f 15/31/4 121/36/4 107/35/4
f 53/41/6 189/200/6 190/42/6
f 26/44/7 172/209/7 171/45/7
f 138/46/8 225/214/8 230/47/8
f 36/49/9 37/77/9 48/50/9
f 24/52/9 35/75/9 45/18/9
f 88/53/9 77/70/9 39/1/9
f 79/54/2 102/118/2 205/55/2
f 34/57/9 31/298/9 30/58/9
f 30/58/9 31/298/9 32/59/9
f 32/59/9 31/298/9 33/61/9
f 33/61/9 31/298/9 34/57/9
f 39/1/9 40/65/9 34/57/9
f 38/64/9 29/63/9 34/57/9
f 45/18/9 46/66/9 32/59/9
f 44/51/9 27/60/9 32/59/9
f 42/67/9 43/68/9 33/61/9
f 41/20/9 28/62/9 33/61/9
f 30/58/9 49/69/9 47/3/9
f 30/58/9 27/60/9 48/50/9
f 77/70/9 106/72/9 40/65/9
f 25/71/9 38/64/9 40/65/9
f 43/68/9 50/74/9 24/52/9
f 43/68/9 42/67/9 23/73/9
f 46/66/9 62/76/9 36/49/9
f 46/66/9 45/18/9 35/75/9
f 37/77/9 90/78/9 49/69/9
f 88/53/9 47/3/9 49/69/9
f 25/71/9 23/73/9 42/67/9
f 15/31/10 167/194/10 161/79/10
f 42/67/11 179/195/11 174/80/11
f 133/81/8 218/221/8 213/82/8
f 75/84/1 63/106/1 61/85/1
f 72/86/1 35/75/1 24/52/1
f 66/88/1 51/14/1 10/37/1
f 96/90/12 204/210/12 200/91/12
f 56/93/1 57/299/1 60/94/1
f 58/96/1 57/299/1 56/93/1
f 59/97/1 57/299/1 58/96/1
f 60/94/1 57/299/1 59/97/1
f 66/88/1 52/95/1 60/94/1
f 60/94/1 55/6/1 65/100/1
f 72/86/1 54/98/1 58/96/1
f 58/96/1 53/41/1 71/43/1
f 69/4/1 55/6/1 59/97/1
f 59/97/1 54/98/1 68/87/1
f 74/89/1 76/107/1 56/93/1
f 56/93/1 76/107/1 75/84/1
f 51/14/1 66/88/1 67/99/1
f 67/99/1 65/100/1 120/104/1
f 24/52/1 50/74/1 70/102/1
f 70/102/1 50/74/1 119/105/1
f 61/85/1 62/76/1 73/101/1
f 73/101/1 62/76/1 35/75/1
f 63/106/1 75/84/1 76/107/1
f 76/107/1 74/89/1 10/37/1
f 69/4/1 119/105/1 120/104/1
f 54/98/13 72/86/13 187/109/13
f 2/25/7 165/190/7 166/111/7
f 71/43/14 190/42/14 194/112/14
f 89/113/5 91/134/5 103/114/5
f 77/70/5 88/53/5 100/116/5
f 92/16/5 78/33/5 94/117/5
f 55/6/13 185/5/13 186/119/13
f 87/120/5 84/300/5 83/121/5
f 83/121/5 84/300/5 85/122/5
f 85/122/5 84/300/5 86/124/5
f 86/124/5 84/300/5 87/120/5
f 94/117/5 95/127/5 87/120/5
f 93/126/5 82/125/5 87/120/5
f 100/116/5 101/128/5 85/122/5
f 99/115/5 80/123/5 85/122/5
f 97/129/5 98/130/5 86/124/5
f 96/90/5 81/92/5 86/124/5
f 83/121/5 104/131/5 102/118/5
f 83/121/5 80/123/5 103/114/5
f 78/33/5 109/34/5 95/127/5
f 108/132/5 93/126/5 95/127/5
f 98/130/5 106/72/5 77/70/5
f 98/130/5 97/129/5 105/133/5
f 101/128/5 90/78/5 89/113/5
f 101/128/5 100/116/5 88/53/5
f 91/134/5 136/40/5 104/131/5
f 92/16/5 102/118/5 104/131/5
f 108/132/5 105/133/5 97/129/5
f 74/89/9 193/187/9 183/135/9
f 156/136/15 229/186/15 220/137/15
f 82/125/2 197/211/2 203/139/2
f 133/81/14 120/104/14 119/105/14
f 126/141/14 130/154/14 23/73/14
f 124/142/14 107/35/14 121/36/14
f 110/144/15 208/189/15 217/145/15
f 114/146/14 115/301/14 118/147/14
f 116/148/14 115/301/14 114/146/14
f 117/149/14 115/301/14 116/148/14
f 118/147/14 115/301/14 117/149/14
f 124/142/14 110/144/14 118/147/14
f 118/147/14 113/151/14 123/153/14
f 130/154/14 112/150/14 116/148/14
f 116/148/14 111/83/14 129/140/14
f 127/156/14 113/151/14 117/149/14
f 117/149/14 112/150/14 126/141/14
f 132/143/14 134/158/14 114/146/14
f 114/146/14 134/158/14 133/81/14
f 107/35/14 124/142/14 125/152/14
f 125/152/14 123/153/14 108/132/14
f 25/71/14 106/72/14 128/157/14
f 128/157/14 106/72/14 105/133/14
f 119/105/14 50/74/14 131/155/14
f 131/155/14 50/74/14 23/73/14
f 120/104/14 133/81/14 134/158/14
f 134/158/14 132/143/14 121/36/14
f 127/156/14 105/133/14 108/132/14
f 68/87/4 192/185/4 187/109/4
f 150/159/8 228/184/8 224/160/8
f 18/13/16 163/198/16 164/162/16
f 153/163/11 61/85/11 63/106/11
f 37/77/11 36/49/11 154/164/11
f 146/11/11 135/38/11 148/165/11
f 112/150/8 212/203/8 216/166/8
f 145/167/11 142/302/11 141/168/11
f 141/168/11 142/302/11 143/169/11
f 143/169/11 142/302/11 144/170/11
f 144/170/11 142/302/11 145/167/11
f 148/165/11 149/173/11 145/167/11
f 147/172/11 140/171/11 145/167/11
f 154/164/11 155/174/11 143/169/11
f 153/163/11 138/46/11 143/169/11
f 151/175/11 152/176/11 144/170/11
f 150/159/11 139/161/11 144/170/11
f 141/168/11 158/177/11 156/136/11
f 141/168/11 138/46/11 157/48/11
f 135/38/11 136/40/11 149/173/11
f 91/134/11 147/172/11 149/173/11
f 152/176/11 90/78/11 37/77/11
f 152/176/11 151/175/11 89/113/11
f 155/174/11 62/76/11 61/85/11
f 155/174/11 154/164/11 36/49/11
f 63/106/11 64/108/11 158/177/11
f 146/11/11 156/136/11 158/177/11
f 91/134/11 89/113/11 151/175/11
f 38/64/16 174/80/16 173/178/16
f 1/23/10 160/213/10 169/179/10
f 80/123/12 201/223/12 206/180/12
f 48/50/14 182/218/14 178/181/14
f 151/175/1 227/217/1 222/182/1
f 28/62/16 176/206/16 175/183/16
f 154/164/4 223/205/4 228/184/4
f 54/98/12 188/110/12 192/185/12
f 148/165/9 219/191/9 229/186/9
f 52/95/2 184/222/2 193/187/2
f 110/144/17 124/142/17 207/188/17
f 21/10/3 170/204/3 165/190/3
f 148/165/17 137/138/17 220/137/17
f 44/51/7 178/181/7 177/192/7
f 157/48/5 230/47/5 226/193/5
f 11/29/11 162/220/11 167/194/11
f 29/63/10 173/178/10 179/195/10
f 123/153/18 113/151/18 209/196/18
f 14/9/5 168/8/5 163/198/5
f 147/172/18 222/182/18 221/199/18
f 75/84/12 194/112/12 189/200/12
f 20/17/1 169/179/1 159/201/1
f 79/54/6 196/56/6 195/202/6
f 130/154/18 211/215/18 212/203/18
f 17/12/14 166/111/14 170/204/14
f 139/161/18 224/160/18 223/205/18
f 41/20/3 180/19/3 176/206/3
f 97/129/11 203/139/11 198/207/11
f 123/153/1 210/197/1 215/208/1
f 47/3/10 181/2/10 172/209/10
f 100/116/4 199/216/4 204/210/4
f 93/126/13 198/207/13 197/211/13
f 129/140/17 111/83/17 213/82/17
f 12/15/7 159/201/7 160/213/7
f 153/163/17 226/193/17 225/214/17
f 126/141/4 216/166/4 211/215/4
f 94/117/9 195/202/9 205/55/9
f 81/92/13 200/91/13 199/216/13
f 132/143/9 217/145/9 207/188/9
f 127/156/15 215/208/15 209/196/15
f 140/171/15 221/199/15 227/217/15
f 27/60/3 177/192/3 182/218/3
f 103/114/14 206/180/14 202/219/14
f 4/27/16 161/79/16 162/220/16
f 129/140/5 214/212/5 218/221/5
f 66/88/6 183/135/6 184/222/6
f 99/115/6 202/219/6 201/223/6
f 65/100/11 186/119/11 191/224/11
